<?xml version="1.0" encoding="UTF-8" standalone="no"?>
<!DOCTYPE svg PUBLIC "-//W3C//DTD SVG 1.1//EN"
 "http://www.w3.org/Graphics/SVG/1.1/DTD/svg11.dtd">
<!-- Generated by graphviz version 7.0.0 (20221023.0053)
 -->
<!-- Title: MyGraph Pages: 1 -->
<svg width="765pt" height="719pt"
 viewBox="0.00 0.00 764.50 719.00" xmlns="http://www.w3.org/2000/svg" xmlns:xlink="http://www.w3.org/1999/xlink">
<g id="graph0" class="graph" transform="scale(1 1) rotate(0) translate(4 715)">
<title>MyGraph</title>
<polygon fill="white" stroke="none" points="-4,4 -4,-715 760.5,-715 760.5,4 -4,4"/>
<!-- nd0x600002bad0c0 -->
<g id="node1" class="node">
<title>nd0x600002bad0c0</title>
<path fill="#54e3c2" stroke="black" d="M337,-664.5C337,-664.5 367,-664.5 367,-664.5 373,-664.5 379,-670.5 379,-676.5 379,-676.5 379,-698.5 379,-698.5 379,-704.5 373,-710.5 367,-710.5 367,-710.5 337,-710.5 337,-710.5 331,-710.5 325,-704.5 325,-698.5 325,-698.5 325,-676.5 325,-676.5 325,-670.5 331,-664.5 337,-664.5"/>
<text text-anchor="middle" x="352" y="-695.3" font-family="Times,serif" font-size="14.00">4</text>
<polyline fill="none" stroke="black" points="325,-687.5 379,-687.5"/>
<text text-anchor="middle" x="352" y="-672.3" font-family="Times,serif" font-size="14.00">ST</text>
</g>
<!-- nd0x600002baccc0 -->
<g id="node2" class="node">
<title>nd0x600002baccc0</title>
<path fill="#54e3c2" stroke="black" d="M301,-581.5C301,-581.5 331,-581.5 331,-581.5 337,-581.5 343,-587.5 343,-593.5 343,-593.5 343,-615.5 343,-615.5 343,-621.5 337,-627.5 331,-627.5 331,-627.5 301,-627.5 301,-627.5 295,-627.5 289,-621.5 289,-615.5 289,-615.5 289,-593.5 289,-593.5 289,-587.5 295,-581.5 301,-581.5"/>
<text text-anchor="middle" x="316" y="-612.3" font-family="Times,serif" font-size="14.00">5</text>
<polyline fill="none" stroke="black" points="289,-604.5 343,-604.5"/>
<text text-anchor="middle" x="316" y="-589.3" font-family="Times,serif" font-size="14.00">FUNC</text>
</g>
<!-- nd0x600002bad0c0&#45;&gt;nd0x600002baccc0 -->
<g id="edge1" class="edge">
<title>nd0x600002bad0c0&#45;&gt;nd0x600002baccc0</title>
<path fill="none" stroke="black" d="M342.35,-664.79C338.64,-656.44 334.32,-646.72 330.26,-637.59"/>
<polygon fill="black" stroke="black" points="333.55,-636.37 326.29,-628.65 327.15,-639.21 333.55,-636.37"/>
</g>
<!-- nd0x600002bad3c0 -->
<g id="node26" class="node">
<title>nd0x600002bad3c0</title>
<path fill="#54e3c2" stroke="black" d="M391,-581.5C391,-581.5 421,-581.5 421,-581.5 427,-581.5 433,-587.5 433,-593.5 433,-593.5 433,-615.5 433,-615.5 433,-621.5 427,-627.5 421,-627.5 421,-627.5 391,-627.5 391,-627.5 385,-627.5 379,-621.5 379,-615.5 379,-615.5 379,-593.5 379,-593.5 379,-587.5 385,-581.5 391,-581.5"/>
<text text-anchor="middle" x="406" y="-612.3" font-family="Times,serif" font-size="14.00">4</text>
<polyline fill="none" stroke="black" points="379,-604.5 433,-604.5"/>
<text text-anchor="middle" x="406" y="-589.3" font-family="Times,serif" font-size="14.00">ST</text>
</g>
<!-- nd0x600002bad0c0&#45;&gt;nd0x600002bad3c0 -->
<g id="edge25" class="edge">
<title>nd0x600002bad0c0&#45;&gt;nd0x600002bad3c0</title>
<path fill="none" stroke="black" d="M366.47,-664.79C372.22,-656.17 378.95,-646.08 385.2,-636.7"/>
<polygon fill="black" stroke="black" points="388.01,-638.79 390.65,-628.53 382.19,-634.9 388.01,-638.79"/>
</g>
<!-- nd0x600002bac2c0 -->
<g id="node3" class="node">
<title>nd0x600002bac2c0</title>
<path fill="#54e3c2" stroke="black" d="M190,-498.5C190,-498.5 220,-498.5 220,-498.5 226,-498.5 232,-504.5 232,-510.5 232,-510.5 232,-532.5 232,-532.5 232,-538.5 226,-544.5 220,-544.5 220,-544.5 190,-544.5 190,-544.5 184,-544.5 178,-538.5 178,-532.5 178,-532.5 178,-510.5 178,-510.5 178,-504.5 184,-498.5 190,-498.5"/>
<text text-anchor="middle" x="205" y="-529.3" font-family="Times,serif" font-size="14.00">5</text>
<polyline fill="none" stroke="black" points="178,-521.5 232,-521.5"/>
<text text-anchor="middle" x="205" y="-506.3" font-family="Times,serif" font-size="14.00">main</text>
</g>
<!-- nd0x600002baccc0&#45;&gt;nd0x600002bac2c0 -->
<g id="edge2" class="edge">
<title>nd0x600002baccc0&#45;&gt;nd0x600002bac2c0</title>
<path fill="none" stroke="black" d="M289.13,-583.89C274.54,-573.25 256.32,-559.95 240.57,-548.45"/>
<polygon fill="black" stroke="black" points="242.99,-545.89 232.85,-542.82 238.86,-551.54 242.99,-545.89"/>
</g>
<!-- nd0x600002bacf80 -->
<g id="node16" class="node">
<title>nd0x600002bacf80</title>
<path fill="#54e3c2" stroke="black" d="M301,-498.5C301,-498.5 331,-498.5 331,-498.5 337,-498.5 343,-504.5 343,-510.5 343,-510.5 343,-532.5 343,-532.5 343,-538.5 337,-544.5 331,-544.5 331,-544.5 301,-544.5 301,-544.5 295,-544.5 289,-538.5 289,-532.5 289,-532.5 289,-510.5 289,-510.5 289,-504.5 295,-498.5 301,-498.5"/>
<text text-anchor="middle" x="316" y="-529.3" font-family="Times,serif" font-size="14.00">4</text>
<polyline fill="none" stroke="black" points="289,-521.5 343,-521.5"/>
<text text-anchor="middle" x="316" y="-506.3" font-family="Times,serif" font-size="14.00">ST</text>
</g>
<!-- nd0x600002baccc0&#45;&gt;nd0x600002bacf80 -->
<g id="edge15" class="edge">
<title>nd0x600002baccc0&#45;&gt;nd0x600002bacf80</title>
<path fill="none" stroke="black" d="M316,-581.79C316,-573.71 316,-564.35 316,-555.48"/>
<polygon fill="black" stroke="black" points="319.5,-555.78 316,-545.78 312.5,-555.78 319.5,-555.78"/>
</g>
<!-- nd0x600002bacd40 -->
<g id="node4" class="node">
<title>nd0x600002bacd40</title>
<path fill="#54e3c2" stroke="black" d="M131.5,-415.5C131.5,-415.5 172.5,-415.5 172.5,-415.5 178.5,-415.5 184.5,-421.5 184.5,-427.5 184.5,-427.5 184.5,-449.5 184.5,-449.5 184.5,-455.5 178.5,-461.5 172.5,-461.5 172.5,-461.5 131.5,-461.5 131.5,-461.5 125.5,-461.5 119.5,-455.5 119.5,-449.5 119.5,-449.5 119.5,-427.5 119.5,-427.5 119.5,-421.5 125.5,-415.5 131.5,-415.5"/>
<text text-anchor="middle" x="152" y="-446.3" font-family="Times,serif" font-size="14.00">4</text>
<polyline fill="none" stroke="black" points="119.5,-438.5 184.5,-438.5"/>
<text text-anchor="middle" x="152" y="-423.3" font-family="Times,serif" font-size="14.00">PARAM</text>
</g>
<!-- nd0x600002bac2c0&#45;&gt;nd0x600002bacd40 -->
<g id="edge3" class="edge">
<title>nd0x600002bac2c0&#45;&gt;nd0x600002bacd40</title>
<path fill="none" stroke="black" d="M190.8,-498.79C185.15,-490.17 178.55,-480.08 172.41,-470.7"/>
<polygon fill="black" stroke="black" points="175.48,-468.98 167.07,-462.53 169.62,-472.82 175.48,-468.98"/>
</g>
<!-- nd0x600002bacd00 -->
<g id="node5" class="node">
<title>nd0x600002bacd00</title>
<path fill="#54e3c2" stroke="black" d="M26,-332.5C26,-332.5 56,-332.5 56,-332.5 62,-332.5 68,-338.5 68,-344.5 68,-344.5 68,-366.5 68,-366.5 68,-372.5 62,-378.5 56,-378.5 56,-378.5 26,-378.5 26,-378.5 20,-378.5 14,-372.5 14,-366.5 14,-366.5 14,-344.5 14,-344.5 14,-338.5 20,-332.5 26,-332.5"/>
<text text-anchor="middle" x="41" y="-363.3" font-family="Times,serif" font-size="14.00">4</text>
<polyline fill="none" stroke="black" points="14,-355.5 68,-355.5"/>
<text text-anchor="middle" x="41" y="-340.3" font-family="Times,serif" font-size="14.00">VAR</text>
</g>
<!-- nd0x600002bacd40&#45;&gt;nd0x600002bacd00 -->
<g id="edge4" class="edge">
<title>nd0x600002bacd40&#45;&gt;nd0x600002bacd00</title>
<path fill="none" stroke="black" d="M121.96,-415.58C108.06,-405.43 91.43,-393.3 76.87,-382.68"/>
<polygon fill="black" stroke="black" points="79.02,-379.91 68.88,-376.84 74.89,-385.56 79.02,-379.91"/>
</g>
<!-- nd0x600002bacdc0 -->
<g id="node7" class="node">
<title>nd0x600002bacdc0</title>
<path fill="#54e3c2" stroke="black" d="M131.5,-332.5C131.5,-332.5 172.5,-332.5 172.5,-332.5 178.5,-332.5 184.5,-338.5 184.5,-344.5 184.5,-344.5 184.5,-366.5 184.5,-366.5 184.5,-372.5 178.5,-378.5 172.5,-378.5 172.5,-378.5 131.5,-378.5 131.5,-378.5 125.5,-378.5 119.5,-372.5 119.5,-366.5 119.5,-366.5 119.5,-344.5 119.5,-344.5 119.5,-338.5 125.5,-332.5 131.5,-332.5"/>
<text text-anchor="middle" x="152" y="-363.3" font-family="Times,serif" font-size="14.00">4</text>
<polyline fill="none" stroke="black" points="119.5,-355.5 184.5,-355.5"/>
<text text-anchor="middle" x="152" y="-340.3" font-family="Times,serif" font-size="14.00">PARAM</text>
</g>
<!-- nd0x600002bacd40&#45;&gt;nd0x600002bacdc0 -->
<g id="edge6" class="edge">
<title>nd0x600002bacd40&#45;&gt;nd0x600002bacdc0</title>
<path fill="none" stroke="black" d="M152,-415.79C152,-407.71 152,-398.35 152,-389.48"/>
<polygon fill="black" stroke="black" points="155.5,-389.78 152,-379.78 148.5,-389.78 155.5,-389.78"/>
</g>
<!-- nd0x600002bac340 -->
<g id="node6" class="node">
<title>nd0x600002bac340</title>
<path fill="#54e3c2" stroke="black" d="M12,-249.5C12,-249.5 42,-249.5 42,-249.5 48,-249.5 54,-255.5 54,-261.5 54,-261.5 54,-283.5 54,-283.5 54,-289.5 48,-295.5 42,-295.5 42,-295.5 12,-295.5 12,-295.5 6,-295.5 0,-289.5 0,-283.5 0,-283.5 0,-261.5 0,-261.5 0,-255.5 6,-249.5 12,-249.5"/>
<text text-anchor="middle" x="27" y="-280.3" font-family="Times,serif" font-size="14.00">2</text>
<polyline fill="none" stroke="black" points="0,-272.5 54,-272.5"/>
<text text-anchor="middle" x="27" y="-257.3" font-family="Times,serif" font-size="14.00">x</text>
</g>
<!-- nd0x600002bacd00&#45;&gt;nd0x600002bac340 -->
<g id="edge5" class="edge">
<title>nd0x600002bacd00&#45;&gt;nd0x600002bac340</title>
<path fill="none" stroke="black" d="M37.25,-332.79C35.85,-324.71 34.23,-315.35 32.7,-306.48"/>
<polygon fill="black" stroke="black" points="36.17,-306.02 31.02,-296.76 29.27,-307.21 36.17,-306.02"/>
</g>
<!-- nd0x600002bacd80 -->
<g id="node8" class="node">
<title>nd0x600002bacd80</title>
<path fill="#54e3c2" stroke="black" d="M84,-249.5C84,-249.5 114,-249.5 114,-249.5 120,-249.5 126,-255.5 126,-261.5 126,-261.5 126,-283.5 126,-283.5 126,-289.5 120,-295.5 114,-295.5 114,-295.5 84,-295.5 84,-295.5 78,-295.5 72,-289.5 72,-283.5 72,-283.5 72,-261.5 72,-261.5 72,-255.5 78,-249.5 84,-249.5"/>
<text text-anchor="middle" x="99" y="-280.3" font-family="Times,serif" font-size="14.00">4</text>
<polyline fill="none" stroke="black" points="72,-272.5 126,-272.5"/>
<text text-anchor="middle" x="99" y="-257.3" font-family="Times,serif" font-size="14.00">VAR</text>
</g>
<!-- nd0x600002bacdc0&#45;&gt;nd0x600002bacd80 -->
<g id="edge7" class="edge">
<title>nd0x600002bacdc0&#45;&gt;nd0x600002bacd80</title>
<path fill="none" stroke="black" d="M137.8,-332.79C132.15,-324.17 125.55,-314.08 119.41,-304.7"/>
<polygon fill="black" stroke="black" points="122.48,-302.98 114.07,-296.53 116.62,-306.82 122.48,-302.98"/>
</g>
<!-- nd0x600002bace40 -->
<g id="node10" class="node">
<title>nd0x600002bace40</title>
<path fill="#54e3c2" stroke="black" d="M156.5,-249.5C156.5,-249.5 197.5,-249.5 197.5,-249.5 203.5,-249.5 209.5,-255.5 209.5,-261.5 209.5,-261.5 209.5,-283.5 209.5,-283.5 209.5,-289.5 203.5,-295.5 197.5,-295.5 197.5,-295.5 156.5,-295.5 156.5,-295.5 150.5,-295.5 144.5,-289.5 144.5,-283.5 144.5,-283.5 144.5,-261.5 144.5,-261.5 144.5,-255.5 150.5,-249.5 156.5,-249.5"/>
<text text-anchor="middle" x="177" y="-280.3" font-family="Times,serif" font-size="14.00">4</text>
<polyline fill="none" stroke="black" points="144.5,-272.5 209.5,-272.5"/>
<text text-anchor="middle" x="177" y="-257.3" font-family="Times,serif" font-size="14.00">PARAM</text>
</g>
<!-- nd0x600002bacdc0&#45;&gt;nd0x600002bace40 -->
<g id="edge9" class="edge">
<title>nd0x600002bacdc0&#45;&gt;nd0x600002bace40</title>
<path fill="none" stroke="black" d="M158.7,-332.79C161.22,-324.62 164.15,-315.14 166.91,-306.19"/>
<polygon fill="black" stroke="black" points="170.23,-307.3 169.84,-296.71 163.54,-305.24 170.23,-307.3"/>
</g>
<!-- nd0x600002bac400 -->
<g id="node9" class="node">
<title>nd0x600002bac400</title>
<path fill="#54e3c2" stroke="black" d="M76,-166.5C76,-166.5 106,-166.5 106,-166.5 112,-166.5 118,-172.5 118,-178.5 118,-178.5 118,-200.5 118,-200.5 118,-206.5 112,-212.5 106,-212.5 106,-212.5 76,-212.5 76,-212.5 70,-212.5 64,-206.5 64,-200.5 64,-200.5 64,-178.5 64,-178.5 64,-172.5 70,-166.5 76,-166.5"/>
<text text-anchor="middle" x="91" y="-197.3" font-family="Times,serif" font-size="14.00">2</text>
<polyline fill="none" stroke="black" points="64,-189.5 118,-189.5"/>
<text text-anchor="middle" x="91" y="-174.3" font-family="Times,serif" font-size="14.00">z</text>
</g>
<!-- nd0x600002bacd80&#45;&gt;nd0x600002bac400 -->
<g id="edge8" class="edge">
<title>nd0x600002bacd80&#45;&gt;nd0x600002bac400</title>
<path fill="none" stroke="black" d="M96.86,-249.79C96.06,-241.71 95.13,-232.35 94.26,-223.48"/>
<polygon fill="black" stroke="black" points="97.76,-223.38 93.3,-213.77 90.8,-224.07 97.76,-223.38"/>
</g>
<!-- nd0x600002bace00 -->
<g id="node11" class="node">
<title>nd0x600002bace00</title>
<path fill="#54e3c2" stroke="black" d="M148,-166.5C148,-166.5 178,-166.5 178,-166.5 184,-166.5 190,-172.5 190,-178.5 190,-178.5 190,-200.5 190,-200.5 190,-206.5 184,-212.5 178,-212.5 178,-212.5 148,-212.5 148,-212.5 142,-212.5 136,-206.5 136,-200.5 136,-200.5 136,-178.5 136,-178.5 136,-172.5 142,-166.5 148,-166.5"/>
<text text-anchor="middle" x="163" y="-197.3" font-family="Times,serif" font-size="14.00">4</text>
<polyline fill="none" stroke="black" points="136,-189.5 190,-189.5"/>
<text text-anchor="middle" x="163" y="-174.3" font-family="Times,serif" font-size="14.00">VAR</text>
</g>
<!-- nd0x600002bace40&#45;&gt;nd0x600002bace00 -->
<g id="edge10" class="edge">
<title>nd0x600002bace40&#45;&gt;nd0x600002bace00</title>
<path fill="none" stroke="black" d="M173.25,-249.79C171.85,-241.71 170.23,-232.35 168.7,-223.48"/>
<polygon fill="black" stroke="black" points="172.17,-223.02 167.02,-213.76 165.27,-224.21 172.17,-223.02"/>
</g>
<!-- nd0x600002bacec0 -->
<g id="node13" class="node">
<title>nd0x600002bacec0</title>
<path fill="#54e3c2" stroke="black" d="M220.5,-166.5C220.5,-166.5 261.5,-166.5 261.5,-166.5 267.5,-166.5 273.5,-172.5 273.5,-178.5 273.5,-178.5 273.5,-200.5 273.5,-200.5 273.5,-206.5 267.5,-212.5 261.5,-212.5 261.5,-212.5 220.5,-212.5 220.5,-212.5 214.5,-212.5 208.5,-206.5 208.5,-200.5 208.5,-200.5 208.5,-178.5 208.5,-178.5 208.5,-172.5 214.5,-166.5 220.5,-166.5"/>
<text text-anchor="middle" x="241" y="-197.3" font-family="Times,serif" font-size="14.00">4</text>
<polyline fill="none" stroke="black" points="208.5,-189.5 273.5,-189.5"/>
<text text-anchor="middle" x="241" y="-174.3" font-family="Times,serif" font-size="14.00">PARAM</text>
</g>
<!-- nd0x600002bace40&#45;&gt;nd0x600002bacec0 -->
<g id="edge12" class="edge">
<title>nd0x600002bace40&#45;&gt;nd0x600002bacec0</title>
<path fill="none" stroke="black" d="M194.15,-249.79C201.11,-240.99 209.27,-230.66 216.82,-221.11"/>
<polygon fill="black" stroke="black" points="219.41,-223.47 222.86,-213.45 213.92,-219.13 219.41,-223.47"/>
</g>
<!-- nd0x600002bac4c0 -->
<g id="node12" class="node">
<title>nd0x600002bac4c0</title>
<path fill="#54e3c2" stroke="black" d="M148,-83.5C148,-83.5 178,-83.5 178,-83.5 184,-83.5 190,-89.5 190,-95.5 190,-95.5 190,-117.5 190,-117.5 190,-123.5 184,-129.5 178,-129.5 178,-129.5 148,-129.5 148,-129.5 142,-129.5 136,-123.5 136,-117.5 136,-117.5 136,-95.5 136,-95.5 136,-89.5 142,-83.5 148,-83.5"/>
<text text-anchor="middle" x="163" y="-114.3" font-family="Times,serif" font-size="14.00">2</text>
<polyline fill="none" stroke="black" points="136,-106.5 190,-106.5"/>
<text text-anchor="middle" x="163" y="-91.3" font-family="Times,serif" font-size="14.00">y</text>
</g>
<!-- nd0x600002bace00&#45;&gt;nd0x600002bac4c0 -->
<g id="edge11" class="edge">
<title>nd0x600002bace00&#45;&gt;nd0x600002bac4c0</title>
<path fill="none" stroke="black" d="M163,-166.79C163,-158.71 163,-149.35 163,-140.48"/>
<polygon fill="black" stroke="black" points="166.5,-140.78 163,-130.78 159.5,-140.78 166.5,-140.78"/>
</g>
<!-- nd0x600002bace80 -->
<g id="node14" class="node">
<title>nd0x600002bace80</title>
<path fill="#54e3c2" stroke="black" d="M226,-83.5C226,-83.5 256,-83.5 256,-83.5 262,-83.5 268,-89.5 268,-95.5 268,-95.5 268,-117.5 268,-117.5 268,-123.5 262,-129.5 256,-129.5 256,-129.5 226,-129.5 226,-129.5 220,-129.5 214,-123.5 214,-117.5 214,-117.5 214,-95.5 214,-95.5 214,-89.5 220,-83.5 226,-83.5"/>
<text text-anchor="middle" x="241" y="-114.3" font-family="Times,serif" font-size="14.00">4</text>
<polyline fill="none" stroke="black" points="214,-106.5 268,-106.5"/>
<text text-anchor="middle" x="241" y="-91.3" font-family="Times,serif" font-size="14.00">VAR</text>
</g>
<!-- nd0x600002bacec0&#45;&gt;nd0x600002bace80 -->
<g id="edge13" class="edge">
<title>nd0x600002bacec0&#45;&gt;nd0x600002bace80</title>
<path fill="none" stroke="black" d="M241,-166.79C241,-158.71 241,-149.35 241,-140.48"/>
<polygon fill="black" stroke="black" points="244.5,-140.78 241,-130.78 237.5,-140.78 244.5,-140.78"/>
</g>
<!-- nd0x600002bac580 -->
<g id="node15" class="node">
<title>nd0x600002bac580</title>
<path fill="#54e3c2" stroke="black" d="M214.5,-0.5C214.5,-0.5 267.5,-0.5 267.5,-0.5 273.5,-0.5 279.5,-6.5 279.5,-12.5 279.5,-12.5 279.5,-34.5 279.5,-34.5 279.5,-40.5 273.5,-46.5 267.5,-46.5 267.5,-46.5 214.5,-46.5 214.5,-46.5 208.5,-46.5 202.5,-40.5 202.5,-34.5 202.5,-34.5 202.5,-12.5 202.5,-12.5 202.5,-6.5 208.5,-0.5 214.5,-0.5"/>
<text text-anchor="middle" x="241" y="-31.3" font-family="Times,serif" font-size="14.00">2</text>
<polyline fill="none" stroke="black" points="202.5,-23.5 279.5,-23.5"/>
<text text-anchor="middle" x="241" y="-8.3" font-family="Times,serif" font-size="14.00">sanyaDaun</text>
</g>
<!-- nd0x600002bace80&#45;&gt;nd0x600002bac580 -->
<g id="edge14" class="edge">
<title>nd0x600002bace80&#45;&gt;nd0x600002bac580</title>
<path fill="none" stroke="black" d="M241,-83.79C241,-75.71 241,-66.35 241,-57.48"/>
<polygon fill="black" stroke="black" points="244.5,-57.78 241,-47.78 237.5,-57.78 244.5,-57.78"/>
</g>
<!-- nd0x600002bacf40 -->
<g id="node17" class="node">
<title>nd0x600002bacf40</title>
<path fill="#54e3c2" stroke="black" d="M291,-415.5C291,-415.5 321,-415.5 321,-415.5 327,-415.5 333,-421.5 333,-427.5 333,-427.5 333,-449.5 333,-449.5 333,-455.5 327,-461.5 321,-461.5 321,-461.5 291,-461.5 291,-461.5 285,-461.5 279,-455.5 279,-449.5 279,-449.5 279,-427.5 279,-427.5 279,-421.5 285,-415.5 291,-415.5"/>
<text text-anchor="middle" x="306" y="-446.3" font-family="Times,serif" font-size="14.00">1</text>
<polyline fill="none" stroke="black" points="279,-438.5 333,-438.5"/>
<text text-anchor="middle" x="306" y="-423.3" font-family="Times,serif" font-size="14.00">&#39;=&#39;</text>
</g>
<!-- nd0x600002bacf80&#45;&gt;nd0x600002bacf40 -->
<g id="edge16" class="edge">
<title>nd0x600002bacf80&#45;&gt;nd0x600002bacf40</title>
<path fill="none" stroke="black" d="M313.32,-498.79C312.32,-490.71 311.17,-481.35 310.07,-472.48"/>
<polygon fill="black" stroke="black" points="313.57,-472.26 308.87,-462.77 306.62,-473.12 313.57,-472.26"/>
</g>
<!-- nd0x600002bad080 -->
<g id="node20" class="node">
<title>nd0x600002bad080</title>
<path fill="#54e3c2" stroke="black" d="M363,-415.5C363,-415.5 393,-415.5 393,-415.5 399,-415.5 405,-421.5 405,-427.5 405,-427.5 405,-449.5 405,-449.5 405,-455.5 399,-461.5 393,-461.5 393,-461.5 363,-461.5 363,-461.5 357,-461.5 351,-455.5 351,-449.5 351,-449.5 351,-427.5 351,-427.5 351,-421.5 357,-415.5 363,-415.5"/>
<text text-anchor="middle" x="378" y="-446.3" font-family="Times,serif" font-size="14.00">4</text>
<polyline fill="none" stroke="black" points="351,-438.5 405,-438.5"/>
<text text-anchor="middle" x="378" y="-423.3" font-family="Times,serif" font-size="14.00">ST</text>
</g>
<!-- nd0x600002bacf80&#45;&gt;nd0x600002bad080 -->
<g id="edge19" class="edge">
<title>nd0x600002bacf80&#45;&gt;nd0x600002bad080</title>
<path fill="none" stroke="black" d="M332.61,-498.79C339.29,-490.08 347.1,-479.87 354.35,-470.4"/>
<polygon fill="black" stroke="black" points="357.12,-472.54 360.42,-462.47 351.56,-468.28 357.12,-472.54"/>
</g>
<!-- nd0x600002bac640 -->
<g id="node18" class="node">
<title>nd0x600002bac640</title>
<path fill="#54e3c2" stroke="black" d="M219,-332.5C219,-332.5 249,-332.5 249,-332.5 255,-332.5 261,-338.5 261,-344.5 261,-344.5 261,-366.5 261,-366.5 261,-372.5 255,-378.5 249,-378.5 249,-378.5 219,-378.5 219,-378.5 213,-378.5 207,-372.5 207,-366.5 207,-366.5 207,-344.5 207,-344.5 207,-338.5 213,-332.5 219,-332.5"/>
<text text-anchor="middle" x="234" y="-363.3" font-family="Times,serif" font-size="14.00">2</text>
<polyline fill="none" stroke="black" points="207,-355.5 261,-355.5"/>
<text text-anchor="middle" x="234" y="-340.3" font-family="Times,serif" font-size="14.00">x</text>
</g>
<!-- nd0x600002bacf40&#45;&gt;nd0x600002bac640 -->
<g id="edge17" class="edge">
<title>nd0x600002bacf40&#45;&gt;nd0x600002bac640</title>
<path fill="none" stroke="black" d="M286.71,-415.79C278.8,-406.9 269.5,-396.44 260.94,-386.81"/>
<polygon fill="black" stroke="black" points="263.61,-384.55 254.35,-379.4 258.38,-389.2 263.61,-384.55"/>
</g>
<!-- nd0x600002bacf00 -->
<g id="node19" class="node">
<title>nd0x600002bacf00</title>
<path fill="#54e3c2" stroke="black" d="M291,-332.5C291,-332.5 321,-332.5 321,-332.5 327,-332.5 333,-338.5 333,-344.5 333,-344.5 333,-366.5 333,-366.5 333,-372.5 327,-378.5 321,-378.5 321,-378.5 291,-378.5 291,-378.5 285,-378.5 279,-372.5 279,-366.5 279,-366.5 279,-344.5 279,-344.5 279,-338.5 285,-332.5 291,-332.5"/>
<text text-anchor="middle" x="306" y="-363.3" font-family="Times,serif" font-size="14.00">3</text>
<polyline fill="none" stroke="black" points="279,-355.5 333,-355.5"/>
<text text-anchor="middle" x="306" y="-340.3" font-family="Times,serif" font-size="14.00">4</text>
</g>
<!-- nd0x600002bacf40&#45;&gt;nd0x600002bacf00 -->
<g id="edge18" class="edge">
<title>nd0x600002bacf40&#45;&gt;nd0x600002bacf00</title>
<path fill="none" stroke="black" d="M306,-415.79C306,-407.71 306,-398.35 306,-389.48"/>
<polygon fill="black" stroke="black" points="309.5,-389.78 306,-379.78 302.5,-389.78 309.5,-389.78"/>
</g>
<!-- nd0x600002bad040 -->
<g id="node21" class="node">
<title>nd0x600002bad040</title>
<path fill="#54e3c2" stroke="black" d="M363,-332.5C363,-332.5 393,-332.5 393,-332.5 399,-332.5 405,-338.5 405,-344.5 405,-344.5 405,-366.5 405,-366.5 405,-372.5 399,-378.5 393,-378.5 393,-378.5 363,-378.5 363,-378.5 357,-378.5 351,-372.5 351,-366.5 351,-366.5 351,-344.5 351,-344.5 351,-338.5 357,-332.5 363,-332.5"/>
<text text-anchor="middle" x="378" y="-363.3" font-family="Times,serif" font-size="14.00">1</text>
<polyline fill="none" stroke="black" points="351,-355.5 405,-355.5"/>
<text text-anchor="middle" x="378" y="-340.3" font-family="Times,serif" font-size="14.00">&#39;=&#39;</text>
</g>
<!-- nd0x600002bad080&#45;&gt;nd0x600002bad040 -->
<g id="edge20" class="edge">
<title>nd0x600002bad080&#45;&gt;nd0x600002bad040</title>
<path fill="none" stroke="black" d="M378,-415.79C378,-407.71 378,-398.35 378,-389.48"/>
<polygon fill="black" stroke="black" points="381.5,-389.78 378,-379.78 374.5,-389.78 381.5,-389.78"/>
</g>
<!-- nd0x600002bac740 -->
<g id="node22" class="node">
<title>nd0x600002bac740</title>
<path fill="#54e3c2" stroke="black" d="M294,-249.5C294,-249.5 324,-249.5 324,-249.5 330,-249.5 336,-255.5 336,-261.5 336,-261.5 336,-283.5 336,-283.5 336,-289.5 330,-295.5 324,-295.5 324,-295.5 294,-295.5 294,-295.5 288,-295.5 282,-289.5 282,-283.5 282,-283.5 282,-261.5 282,-261.5 282,-255.5 288,-249.5 294,-249.5"/>
<text text-anchor="middle" x="309" y="-280.3" font-family="Times,serif" font-size="14.00">2</text>
<polyline fill="none" stroke="black" points="282,-272.5 336,-272.5"/>
<text text-anchor="middle" x="309" y="-257.3" font-family="Times,serif" font-size="14.00">x</text>
</g>
<!-- nd0x600002bad040&#45;&gt;nd0x600002bac740 -->
<g id="edge21" class="edge">
<title>nd0x600002bad040&#45;&gt;nd0x600002bac740</title>
<path fill="none" stroke="black" d="M359.51,-332.79C351.93,-323.9 343.03,-313.44 334.82,-303.81"/>
<polygon fill="black" stroke="black" points="337.67,-301.76 328.52,-296.42 332.34,-306.3 337.67,-301.76"/>
</g>
<!-- nd0x600002bad000 -->
<g id="node23" class="node">
<title>nd0x600002bad000</title>
<path fill="#54e3c2" stroke="black" d="M366,-249.5C366,-249.5 396,-249.5 396,-249.5 402,-249.5 408,-255.5 408,-261.5 408,-261.5 408,-283.5 408,-283.5 408,-289.5 402,-295.5 396,-295.5 396,-295.5 366,-295.5 366,-295.5 360,-295.5 354,-289.5 354,-283.5 354,-283.5 354,-261.5 354,-261.5 354,-255.5 360,-249.5 366,-249.5"/>
<text text-anchor="middle" x="381" y="-280.3" font-family="Times,serif" font-size="14.00">1</text>
<polyline fill="none" stroke="black" points="354,-272.5 408,-272.5"/>
<text text-anchor="middle" x="381" y="-257.3" font-family="Times,serif" font-size="14.00">&#39;+&#39;</text>
</g>
<!-- nd0x600002bad040&#45;&gt;nd0x600002bad000 -->
<g id="edge22" class="edge">
<title>nd0x600002bad040&#45;&gt;nd0x600002bad000</title>
<path fill="none" stroke="black" d="M378.8,-332.79C379.1,-324.71 379.45,-315.35 379.78,-306.48"/>
<polygon fill="black" stroke="black" points="383.27,-306.9 380.14,-296.78 376.27,-306.64 383.27,-306.9"/>
</g>
<!-- nd0x600002bac780 -->
<g id="node24" class="node">
<title>nd0x600002bac780</title>
<path fill="#54e3c2" stroke="black" d="M304,-166.5C304,-166.5 334,-166.5 334,-166.5 340,-166.5 346,-172.5 346,-178.5 346,-178.5 346,-200.5 346,-200.5 346,-206.5 340,-212.5 334,-212.5 334,-212.5 304,-212.5 304,-212.5 298,-212.5 292,-206.5 292,-200.5 292,-200.5 292,-178.5 292,-178.5 292,-172.5 298,-166.5 304,-166.5"/>
<text text-anchor="middle" x="319" y="-197.3" font-family="Times,serif" font-size="14.00">2</text>
<polyline fill="none" stroke="black" points="292,-189.5 346,-189.5"/>
<text text-anchor="middle" x="319" y="-174.3" font-family="Times,serif" font-size="14.00">x</text>
</g>
<!-- nd0x600002bad000&#45;&gt;nd0x600002bac780 -->
<g id="edge23" class="edge">
<title>nd0x600002bad000&#45;&gt;nd0x600002bac780</title>
<path fill="none" stroke="black" d="M364.39,-249.79C357.71,-241.08 349.9,-230.87 342.65,-221.4"/>
<polygon fill="black" stroke="black" points="345.44,-219.28 336.58,-213.47 339.88,-223.54 345.44,-219.28"/>
</g>
<!-- nd0x600002bacfc0 -->
<g id="node25" class="node">
<title>nd0x600002bacfc0</title>
<path fill="#54e3c2" stroke="black" d="M376,-166.5C376,-166.5 406,-166.5 406,-166.5 412,-166.5 418,-172.5 418,-178.5 418,-178.5 418,-200.5 418,-200.5 418,-206.5 412,-212.5 406,-212.5 406,-212.5 376,-212.5 376,-212.5 370,-212.5 364,-206.5 364,-200.5 364,-200.5 364,-178.5 364,-178.5 364,-172.5 370,-166.5 376,-166.5"/>
<text text-anchor="middle" x="391" y="-197.3" font-family="Times,serif" font-size="14.00">3</text>
<polyline fill="none" stroke="black" points="364,-189.5 418,-189.5"/>
<text text-anchor="middle" x="391" y="-174.3" font-family="Times,serif" font-size="14.00">4</text>
</g>
<!-- nd0x600002bad000&#45;&gt;nd0x600002bacfc0 -->
<g id="edge24" class="edge">
<title>nd0x600002bad000&#45;&gt;nd0x600002bacfc0</title>
<path fill="none" stroke="black" d="M383.68,-249.79C384.68,-241.71 385.83,-232.35 386.93,-223.48"/>
<polygon fill="black" stroke="black" points="390.38,-224.12 388.13,-213.77 383.43,-223.26 390.38,-224.12"/>
</g>
<!-- nd0x600002bad100 -->
<g id="node27" class="node">
<title>nd0x600002bad100</title>
<path fill="#54e3c2" stroke="black" d="M427,-498.5C427,-498.5 457,-498.5 457,-498.5 463,-498.5 469,-504.5 469,-510.5 469,-510.5 469,-532.5 469,-532.5 469,-538.5 463,-544.5 457,-544.5 457,-544.5 427,-544.5 427,-544.5 421,-544.5 415,-538.5 415,-532.5 415,-532.5 415,-510.5 415,-510.5 415,-504.5 421,-498.5 427,-498.5"/>
<text text-anchor="middle" x="442" y="-529.3" font-family="Times,serif" font-size="14.00">5</text>
<polyline fill="none" stroke="black" points="415,-521.5 469,-521.5"/>
<text text-anchor="middle" x="442" y="-506.3" font-family="Times,serif" font-size="14.00">CALL</text>
</g>
<!-- nd0x600002bad3c0&#45;&gt;nd0x600002bad100 -->
<g id="edge26" class="edge">
<title>nd0x600002bad3c0&#45;&gt;nd0x600002bad100</title>
<path fill="none" stroke="black" d="M415.65,-581.79C419.36,-573.44 423.68,-563.72 427.74,-554.59"/>
<polygon fill="black" stroke="black" points="430.85,-556.21 431.71,-545.65 424.45,-553.37 430.85,-556.21"/>
</g>
<!-- nd0x600002bac940 -->
<g id="node28" class="node">
<title>nd0x600002bac940</title>
<path fill="#54e3c2" stroke="black" d="M438,-415.5C438,-415.5 468,-415.5 468,-415.5 474,-415.5 480,-421.5 480,-427.5 480,-427.5 480,-449.5 480,-449.5 480,-455.5 474,-461.5 468,-461.5 468,-461.5 438,-461.5 438,-461.5 432,-461.5 426,-455.5 426,-449.5 426,-449.5 426,-427.5 426,-427.5 426,-421.5 432,-415.5 438,-415.5"/>
<text text-anchor="middle" x="453" y="-446.3" font-family="Times,serif" font-size="14.00">5</text>
<polyline fill="none" stroke="black" points="426,-438.5 480,-438.5"/>
<text text-anchor="middle" x="453" y="-423.3" font-family="Times,serif" font-size="14.00">main</text>
</g>
<!-- nd0x600002bad100&#45;&gt;nd0x600002bac940 -->
<g id="edge27" class="edge">
<title>nd0x600002bad100&#45;&gt;nd0x600002bac940</title>
<path fill="none" stroke="black" d="M444.95,-498.79C446.05,-490.71 447.32,-481.35 448.52,-472.48"/>
<polygon fill="black" stroke="black" points="451.96,-473.15 449.84,-462.77 445.03,-472.2 451.96,-473.15"/>
</g>
<!-- nd0x600002bad200 -->
<g id="node29" class="node">
<title>nd0x600002bad200</title>
<path fill="#54e3c2" stroke="black" d="M451.5,-332.5C451.5,-332.5 492.5,-332.5 492.5,-332.5 498.5,-332.5 504.5,-338.5 504.5,-344.5 504.5,-344.5 504.5,-366.5 504.5,-366.5 504.5,-372.5 498.5,-378.5 492.5,-378.5 492.5,-378.5 451.5,-378.5 451.5,-378.5 445.5,-378.5 439.5,-372.5 439.5,-366.5 439.5,-366.5 439.5,-344.5 439.5,-344.5 439.5,-338.5 445.5,-332.5 451.5,-332.5"/>
<text text-anchor="middle" x="472" y="-363.3" font-family="Times,serif" font-size="14.00">4</text>
<polyline fill="none" stroke="black" points="439.5,-355.5 504.5,-355.5"/>
<text text-anchor="middle" x="472" y="-340.3" font-family="Times,serif" font-size="14.00">PARAM</text>
</g>
<!-- nd0x600002bac940&#45;&gt;nd0x600002bad200 -->
<g id="edge28" class="edge">
<title>nd0x600002bac940&#45;&gt;nd0x600002bad200</title>
<path fill="none" stroke="black" d="M458.09,-415.79C460.01,-407.62 462.23,-398.14 464.33,-389.19"/>
<polygon fill="black" stroke="black" points="467.67,-390.28 466.55,-379.74 460.86,-388.68 467.67,-390.28"/>
</g>
<!-- nd0x600002bad1c0 -->
<g id="node30" class="node">
<title>nd0x600002bad1c0</title>
<path fill="#54e3c2" stroke="black" d="M457,-249.5C457,-249.5 487,-249.5 487,-249.5 493,-249.5 499,-255.5 499,-261.5 499,-261.5 499,-283.5 499,-283.5 499,-289.5 493,-295.5 487,-295.5 487,-295.5 457,-295.5 457,-295.5 451,-295.5 445,-289.5 445,-283.5 445,-283.5 445,-261.5 445,-261.5 445,-255.5 451,-249.5 457,-249.5"/>
<text text-anchor="middle" x="472" y="-280.3" font-family="Times,serif" font-size="14.00">1</text>
<polyline fill="none" stroke="black" points="445,-272.5 499,-272.5"/>
<text text-anchor="middle" x="472" y="-257.3" font-family="Times,serif" font-size="14.00">&#39;+&#39;</text>
</g>
<!-- nd0x600002bad200&#45;&gt;nd0x600002bad1c0 -->
<g id="edge29" class="edge">
<title>nd0x600002bad200&#45;&gt;nd0x600002bad1c0</title>
<path fill="none" stroke="black" d="M472,-332.79C472,-324.71 472,-315.35 472,-306.48"/>
<polygon fill="black" stroke="black" points="475.5,-306.78 472,-296.78 468.5,-306.78 475.5,-306.78"/>
</g>
<!-- nd0x600002bad280 -->
<g id="node33" class="node">
<title>nd0x600002bad280</title>
<path fill="#54e3c2" stroke="black" d="M586.5,-249.5C586.5,-249.5 627.5,-249.5 627.5,-249.5 633.5,-249.5 639.5,-255.5 639.5,-261.5 639.5,-261.5 639.5,-283.5 639.5,-283.5 639.5,-289.5 633.5,-295.5 627.5,-295.5 627.5,-295.5 586.5,-295.5 586.5,-295.5 580.5,-295.5 574.5,-289.5 574.5,-283.5 574.5,-283.5 574.5,-261.5 574.5,-261.5 574.5,-255.5 580.5,-249.5 586.5,-249.5"/>
<text text-anchor="middle" x="607" y="-280.3" font-family="Times,serif" font-size="14.00">4</text>
<polyline fill="none" stroke="black" points="574.5,-272.5 639.5,-272.5"/>
<text text-anchor="middle" x="607" y="-257.3" font-family="Times,serif" font-size="14.00">PARAM</text>
</g>
<!-- nd0x600002bad200&#45;&gt;nd0x600002bad280 -->
<g id="edge32" class="edge">
<title>nd0x600002bad200&#45;&gt;nd0x600002bad280</title>
<path fill="none" stroke="black" d="M504.34,-335.1C522.62,-324.13 545.68,-310.29 565.31,-298.51"/>
<polygon fill="black" stroke="black" points="566.86,-301.67 573.63,-293.52 563.25,-295.67 566.86,-301.67"/>
</g>
<!-- nd0x600002bad140 -->
<g id="node31" class="node">
<title>nd0x600002bad140</title>
<path fill="#54e3c2" stroke="black" d="M448,-166.5C448,-166.5 478,-166.5 478,-166.5 484,-166.5 490,-172.5 490,-178.5 490,-178.5 490,-200.5 490,-200.5 490,-206.5 484,-212.5 478,-212.5 478,-212.5 448,-212.5 448,-212.5 442,-212.5 436,-206.5 436,-200.5 436,-200.5 436,-178.5 436,-178.5 436,-172.5 442,-166.5 448,-166.5"/>
<text text-anchor="middle" x="463" y="-197.3" font-family="Times,serif" font-size="14.00">3</text>
<polyline fill="none" stroke="black" points="436,-189.5 490,-189.5"/>
<text text-anchor="middle" x="463" y="-174.3" font-family="Times,serif" font-size="14.00">2</text>
</g>
<!-- nd0x600002bad1c0&#45;&gt;nd0x600002bad140 -->
<g id="edge30" class="edge">
<title>nd0x600002bad1c0&#45;&gt;nd0x600002bad140</title>
<path fill="none" stroke="black" d="M469.59,-249.79C468.69,-241.71 467.65,-232.35 466.66,-223.48"/>
<polygon fill="black" stroke="black" points="470.17,-223.32 465.59,-213.77 463.21,-224.1 470.17,-223.32"/>
</g>
<!-- nd0x600002bad180 -->
<g id="node32" class="node">
<title>nd0x600002bad180</title>
<path fill="#54e3c2" stroke="black" d="M520,-166.5C520,-166.5 550,-166.5 550,-166.5 556,-166.5 562,-172.5 562,-178.5 562,-178.5 562,-200.5 562,-200.5 562,-206.5 556,-212.5 550,-212.5 550,-212.5 520,-212.5 520,-212.5 514,-212.5 508,-206.5 508,-200.5 508,-200.5 508,-178.5 508,-178.5 508,-172.5 514,-166.5 520,-166.5"/>
<text text-anchor="middle" x="535" y="-197.3" font-family="Times,serif" font-size="14.00">3</text>
<polyline fill="none" stroke="black" points="508,-189.5 562,-189.5"/>
<text text-anchor="middle" x="535" y="-174.3" font-family="Times,serif" font-size="14.00">2</text>
</g>
<!-- nd0x600002bad1c0&#45;&gt;nd0x600002bad180 -->
<g id="edge31" class="edge">
<title>nd0x600002bad1c0&#45;&gt;nd0x600002bad180</title>
<path fill="none" stroke="black" d="M488.88,-249.79C495.73,-240.99 503.77,-230.66 511.19,-221.11"/>
<polygon fill="black" stroke="black" points="513.76,-223.5 517.14,-213.46 508.24,-219.21 513.76,-223.5"/>
</g>
<!-- nd0x600002bad240 -->
<g id="node34" class="node">
<title>nd0x600002bad240</title>
<path fill="#54e3c2" stroke="black" d="M592,-166.5C592,-166.5 622,-166.5 622,-166.5 628,-166.5 634,-172.5 634,-178.5 634,-178.5 634,-200.5 634,-200.5 634,-206.5 628,-212.5 622,-212.5 622,-212.5 592,-212.5 592,-212.5 586,-212.5 580,-206.5 580,-200.5 580,-200.5 580,-178.5 580,-178.5 580,-172.5 586,-166.5 592,-166.5"/>
<text text-anchor="middle" x="607" y="-197.3" font-family="Times,serif" font-size="14.00">3</text>
<polyline fill="none" stroke="black" points="580,-189.5 634,-189.5"/>
<text text-anchor="middle" x="607" y="-174.3" font-family="Times,serif" font-size="14.00">5</text>
</g>
<!-- nd0x600002bad280&#45;&gt;nd0x600002bad240 -->
<g id="edge33" class="edge">
<title>nd0x600002bad280&#45;&gt;nd0x600002bad240</title>
<path fill="none" stroke="black" d="M607,-249.79C607,-241.71 607,-232.35 607,-223.48"/>
<polygon fill="black" stroke="black" points="610.5,-223.78 607,-213.78 603.5,-223.78 610.5,-223.78"/>
</g>
<!-- nd0x600002bad300 -->
<g id="node35" class="node">
<title>nd0x600002bad300</title>
<path fill="#54e3c2" stroke="black" d="M664.5,-166.5C664.5,-166.5 705.5,-166.5 705.5,-166.5 711.5,-166.5 717.5,-172.5 717.5,-178.5 717.5,-178.5 717.5,-200.5 717.5,-200.5 717.5,-206.5 711.5,-212.5 705.5,-212.5 705.5,-212.5 664.5,-212.5 664.5,-212.5 658.5,-212.5 652.5,-206.5 652.5,-200.5 652.5,-200.5 652.5,-178.5 652.5,-178.5 652.5,-172.5 658.5,-166.5 664.5,-166.5"/>
<text text-anchor="middle" x="685" y="-197.3" font-family="Times,serif" font-size="14.00">4</text>
<polyline fill="none" stroke="black" points="652.5,-189.5 717.5,-189.5"/>
<text text-anchor="middle" x="685" y="-174.3" font-family="Times,serif" font-size="14.00">PARAM</text>
</g>
<!-- nd0x600002bad280&#45;&gt;nd0x600002bad300 -->
<g id="edge34" class="edge">
<title>nd0x600002bad280&#45;&gt;nd0x600002bad300</title>
<path fill="none" stroke="black" d="M627.9,-249.79C636.56,-240.8 646.74,-230.23 656.09,-220.52"/>
<polygon fill="black" stroke="black" points="658.57,-222.99 662.99,-213.36 653.53,-218.13 658.57,-222.99"/>
</g>
<!-- nd0x600002bad2c0 -->
<g id="node36" class="node">
<title>nd0x600002bad2c0</title>
<path fill="#54e3c2" stroke="black" d="M631,-83.5C631,-83.5 661,-83.5 661,-83.5 667,-83.5 673,-89.5 673,-95.5 673,-95.5 673,-117.5 673,-117.5 673,-123.5 667,-129.5 661,-129.5 661,-129.5 631,-129.5 631,-129.5 625,-129.5 619,-123.5 619,-117.5 619,-117.5 619,-95.5 619,-95.5 619,-89.5 625,-83.5 631,-83.5"/>
<text text-anchor="middle" x="646" y="-114.3" font-family="Times,serif" font-size="14.00">3</text>
<polyline fill="none" stroke="black" points="619,-106.5 673,-106.5"/>
<text text-anchor="middle" x="646" y="-91.3" font-family="Times,serif" font-size="14.00">6</text>
</g>
<!-- nd0x600002bad300&#45;&gt;nd0x600002bad2c0 -->
<g id="edge35" class="edge">
<title>nd0x600002bad300&#45;&gt;nd0x600002bad2c0</title>
<path fill="none" stroke="black" d="M674.55,-166.79C670.53,-158.44 665.85,-148.72 661.45,-139.59"/>
<polygon fill="black" stroke="black" points="664.63,-138.12 657.14,-130.63 658.32,-141.16 664.63,-138.12"/>
</g>
<!-- nd0x600002bad380 -->
<g id="node37" class="node">
<title>nd0x600002bad380</title>
<path fill="#54e3c2" stroke="black" d="M703.5,-83.5C703.5,-83.5 744.5,-83.5 744.5,-83.5 750.5,-83.5 756.5,-89.5 756.5,-95.5 756.5,-95.5 756.5,-117.5 756.5,-117.5 756.5,-123.5 750.5,-129.5 744.5,-129.5 744.5,-129.5 703.5,-129.5 703.5,-129.5 697.5,-129.5 691.5,-123.5 691.5,-117.5 691.5,-117.5 691.5,-95.5 691.5,-95.5 691.5,-89.5 697.5,-83.5 703.5,-83.5"/>
<text text-anchor="middle" x="724" y="-114.3" font-family="Times,serif" font-size="14.00">4</text>
<polyline fill="none" stroke="black" points="691.5,-106.5 756.5,-106.5"/>
<text text-anchor="middle" x="724" y="-91.3" font-family="Times,serif" font-size="14.00">PARAM</text>
</g>
<!-- nd0x600002bad300&#45;&gt;nd0x600002bad380 -->
<g id="edge36" class="edge">
<title>nd0x600002bad300&#45;&gt;nd0x600002bad380</title>
<path fill="none" stroke="black" d="M695.45,-166.79C699.47,-158.44 704.15,-148.72 708.55,-139.59"/>
<polygon fill="black" stroke="black" points="711.68,-141.16 712.86,-130.63 705.37,-138.12 711.68,-141.16"/>
</g>
<!-- nd0x600002bad340 -->
<g id="node38" class="node">
<title>nd0x600002bad340</title>
<path fill="#54e3c2" stroke="black" d="M709,-0.5C709,-0.5 739,-0.5 739,-0.5 745,-0.5 751,-6.5 751,-12.5 751,-12.5 751,-34.5 751,-34.5 751,-40.5 745,-46.5 739,-46.5 739,-46.5 709,-46.5 709,-46.5 703,-46.5 697,-40.5 697,-34.5 697,-34.5 697,-12.5 697,-12.5 697,-6.5 703,-0.5 709,-0.5"/>
<text text-anchor="middle" x="724" y="-31.3" font-family="Times,serif" font-size="14.00">3</text>
<polyline fill="none" stroke="black" points="697,-23.5 751,-23.5"/>
<text text-anchor="middle" x="724" y="-8.3" font-family="Times,serif" font-size="14.00">7</text>
</g>
<!-- nd0x600002bad380&#45;&gt;nd0x600002bad340 -->
<g id="edge37" class="edge">
<title>nd0x600002bad380&#45;&gt;nd0x600002bad340</title>
<path fill="none" stroke="black" d="M724,-83.79C724,-75.71 724,-66.35 724,-57.48"/>
<polygon fill="black" stroke="black" points="727.5,-57.78 724,-47.78 720.5,-57.78 727.5,-57.78"/>
</g>
</g>
</svg>
