<?xml version="1.0" encoding="UTF-8" standalone="no"?>
<!DOCTYPE svg PUBLIC "-//W3C//DTD SVG 1.1//EN"
 "http://www.w3.org/Graphics/SVG/1.1/DTD/svg11.dtd">
<!-- Generated by graphviz version 7.0.0 (20221023.0053)
 -->
<!-- Title: MyGraph Pages: 1 -->
<svg width="133pt" height="45pt"
 viewBox="0.00 0.00 133.00 45.00" xmlns="http://www.w3.org/2000/svg" xmlns:xlink="http://www.w3.org/1999/xlink">
<g id="graph0" class="graph" transform="scale(1 1) rotate(0) translate(4 41)">
<title>MyGraph</title>
<polygon fill="white" stroke="none" points="-4,4 -4,-41 129,-41 129,4 -4,4"/>
<!-- nd0x600001128440 -->
<g id="node1" class="node">
<title>nd0x600001128440</title>
<path fill="#54e3c2" stroke="black" d="M12,-0.5C12,-0.5 113,-0.5 113,-0.5 119,-0.5 125,-6.5 125,-12.5 125,-12.5 125,-24.5 125,-24.5 125,-30.5 119,-36.5 113,-36.5 113,-36.5 12,-36.5 12,-36.5 6,-36.5 0,-30.5 0,-24.5 0,-24.5 0,-12.5 0,-12.5 0,-6.5 6,-0.5 12,-0.5"/>
<text text-anchor="middle" x="62.5" y="-14.8" font-family="Times,serif" font-size="14.00">nd0x600001128440</text>
</g>
</g>
</svg>
