<?xml version="1.0" encoding="UTF-8" standalone="no"?>
<!DOCTYPE svg PUBLIC "-//W3C//DTD SVG 1.1//EN"
 "http://www.w3.org/Graphics/SVG/1.1/DTD/svg11.dtd">
<!-- Generated by graphviz version 7.0.0 (20221023.0053)
 -->
<!-- Title: MyGraph Pages: 1 -->
<svg width="112pt" height="45pt"
 viewBox="0.00 0.00 112.00 45.00" xmlns="http://www.w3.org/2000/svg" xmlns:xlink="http://www.w3.org/1999/xlink">
<g id="graph0" class="graph" transform="scale(1 1) rotate(0) translate(4 41)">
<title>MyGraph</title>
<polygon fill="white" stroke="none" points="-4,4 -4,-41 108,-41 108,4 -4,4"/>
<!-- nd0x106600e00 -->
<g id="node1" class="node">
<title>nd0x106600e00</title>
<path fill="#54e3c2" stroke="black" d="M12,-0.5C12,-0.5 92,-0.5 92,-0.5 98,-0.5 104,-6.5 104,-12.5 104,-12.5 104,-24.5 104,-24.5 104,-30.5 98,-36.5 92,-36.5 92,-36.5 12,-36.5 12,-36.5 6,-36.5 0,-30.5 0,-24.5 0,-24.5 0,-12.5 0,-12.5 0,-6.5 6,-0.5 12,-0.5"/>
<text text-anchor="middle" x="52" y="-14.8" font-family="Times,serif" font-size="14.00">nd0x106600e00</text>
</g>
</g>
</svg>
