<?xml version="1.0" encoding="UTF-8" standalone="no"?>
<!DOCTYPE svg PUBLIC "-//W3C//DTD SVG 1.1//EN"
 "http://www.w3.org/Graphics/SVG/1.1/DTD/svg11.dtd">
<!-- Generated by graphviz version 7.0.0 (20221023.0053)
 -->
<!-- Title: MyGraph Pages: 1 -->
<svg width="76pt" height="55pt"
 viewBox="0.00 0.00 76.00 55.00" xmlns="http://www.w3.org/2000/svg" xmlns:xlink="http://www.w3.org/1999/xlink">
<g id="graph0" class="graph" transform="scale(1 1) rotate(0) translate(4 51)">
<title>MyGraph</title>
<polygon fill="white" stroke="none" points="-4,4 -4,-51 72,-51 72,4 -4,4"/>
<!-- nd0x6000011283c0 -->
<g id="node1" class="node">
<title>nd0x6000011283c0</title>
<path fill="#54e3c2" stroke="black" d="M12,-0.5C12,-0.5 56,-0.5 56,-0.5 62,-0.5 68,-6.5 68,-12.5 68,-12.5 68,-34.5 68,-34.5 68,-40.5 62,-46.5 56,-46.5 56,-46.5 12,-46.5 12,-46.5 6,-46.5 0,-40.5 0,-34.5 0,-34.5 0,-12.5 0,-12.5 0,-6.5 6,-0.5 12,-0.5"/>
<text text-anchor="middle" x="34" y="-31.3" font-family="Times,serif" font-size="14.00">3</text>
<polyline fill="none" stroke="black" points="0,-23.5 68,-23.5"/>
<text text-anchor="middle" x="34" y="-8.3" font-family="Times,serif" font-size="14.00">1.000000</text>
</g>
</g>
</svg>
