<?xml version="1.0" encoding="UTF-8" standalone="no"?>
<!DOCTYPE svg PUBLIC "-//W3C//DTD SVG 1.1//EN"
 "http://www.w3.org/Graphics/SVG/1.1/DTD/svg11.dtd">
<!-- Generated by graphviz version 7.0.0 (20221023.0053)
 -->
<!-- Title: MyGraph Pages: 1 -->
<svg width="62pt" height="55pt"
 viewBox="0.00 0.00 62.00 55.00" xmlns="http://www.w3.org/2000/svg" xmlns:xlink="http://www.w3.org/1999/xlink">
<g id="graph0" class="graph" transform="scale(1 1) rotate(0) translate(4 51)">
<title>MyGraph</title>
<polygon fill="white" stroke="none" points="-4,4 -4,-51 58,-51 58,4 -4,4"/>
<!-- nd0x600001128c00 -->
<g id="node1" class="node">
<title>nd0x600001128c00</title>
<path fill="#54e3c2" stroke="black" d="M12,-0.5C12,-0.5 42,-0.5 42,-0.5 48,-0.5 54,-6.5 54,-12.5 54,-12.5 54,-34.5 54,-34.5 54,-40.5 48,-46.5 42,-46.5 42,-46.5 12,-46.5 12,-46.5 6,-46.5 0,-40.5 0,-34.5 0,-34.5 0,-12.5 0,-12.5 0,-6.5 6,-0.5 12,-0.5"/>
<text text-anchor="middle" x="27" y="-31.3" font-family="Times,serif" font-size="14.00">0</text>
<polyline fill="none" stroke="black" points="0,-23.5 54,-23.5"/>
<text text-anchor="middle" x="27" y="-8.3" font-family="Times,serif" font-size="14.00">(null)</text>
</g>
</g>
</svg>
