<?xml version="1.0" encoding="UTF-8" standalone="no"?>
<!DOCTYPE svg PUBLIC "-//W3C//DTD SVG 1.1//EN"
 "http://www.w3.org/Graphics/SVG/1.1/DTD/svg11.dtd">
<!-- Generated by graphviz version 2.43.0 (0)
 -->
<!-- Title: MyGraph Pages: 1 -->
<svg width="1410pt" height="1632pt"
 viewBox="0.00 0.00 1410.00 1632.00" xmlns="http://www.w3.org/2000/svg" xmlns:xlink="http://www.w3.org/1999/xlink">
<g id="graph0" class="graph" transform="scale(1 1) rotate(0) translate(4 1628)">
<title>MyGraph</title>
<polygon fill="white" stroke="transparent" points="-4,4 -4,-1628 1406,-1628 1406,4 -4,4"/>
<!-- nd0x55c496161950 -->
<g id="node1" class="node">
<title>nd0x55c496161950</title>
<path fill="#54e3c2" stroke="black" d="M338,-1577.5C338,-1577.5 368,-1577.5 368,-1577.5 374,-1577.5 380,-1583.5 380,-1589.5 380,-1589.5 380,-1611.5 380,-1611.5 380,-1617.5 374,-1623.5 368,-1623.5 368,-1623.5 338,-1623.5 338,-1623.5 332,-1623.5 326,-1617.5 326,-1611.5 326,-1611.5 326,-1589.5 326,-1589.5 326,-1583.5 332,-1577.5 338,-1577.5"/>
<text text-anchor="middle" x="353" y="-1608.3" font-family="Times,serif" font-size="14.00">4</text>
<polyline fill="none" stroke="black" points="326,-1600.5 380,-1600.5 "/>
<text text-anchor="middle" x="353" y="-1585.3" font-family="Times,serif" font-size="14.00">ST</text>
</g>
<!-- nd0x55c4961615d0 -->
<g id="node2" class="node">
<title>nd0x55c4961615d0</title>
<path fill="#c0ffff" stroke="black" d="M296.5,-1494.5C296.5,-1494.5 333.5,-1494.5 333.5,-1494.5 339.5,-1494.5 345.5,-1500.5 345.5,-1506.5 345.5,-1506.5 345.5,-1528.5 345.5,-1528.5 345.5,-1534.5 339.5,-1540.5 333.5,-1540.5 333.5,-1540.5 296.5,-1540.5 296.5,-1540.5 290.5,-1540.5 284.5,-1534.5 284.5,-1528.5 284.5,-1528.5 284.5,-1506.5 284.5,-1506.5 284.5,-1500.5 290.5,-1494.5 296.5,-1494.5"/>
<text text-anchor="middle" x="315" y="-1525.3" font-family="Times,serif" font-size="14.00">5</text>
<polyline fill="none" stroke="black" points="284.5,-1517.5 345.5,-1517.5 "/>
<text text-anchor="middle" x="315" y="-1502.3" font-family="Times,serif" font-size="14.00">FUNC</text>
</g>
<!-- nd0x55c496161950&#45;&gt;nd0x55c4961615d0 -->
<g id="edge1" class="edge">
<title>nd0x55c496161950&#45;&gt;nd0x55c4961615d0</title>
<path fill="none" stroke="black" d="M342.62,-1577.37C338.64,-1568.88 334.02,-1559.04 329.71,-1549.85"/>
<polygon fill="black" stroke="black" points="332.79,-1548.17 325.37,-1540.61 326.45,-1551.15 332.79,-1548.17"/>
</g>
<!-- nd0x55c496162310 -->
<g id="node24" class="node">
<title>nd0x55c496162310</title>
<path fill="#54e3c2" stroke="black" d="M378,-1494.5C378,-1494.5 408,-1494.5 408,-1494.5 414,-1494.5 420,-1500.5 420,-1506.5 420,-1506.5 420,-1528.5 420,-1528.5 420,-1534.5 414,-1540.5 408,-1540.5 408,-1540.5 378,-1540.5 378,-1540.5 372,-1540.5 366,-1534.5 366,-1528.5 366,-1528.5 366,-1506.5 366,-1506.5 366,-1500.5 372,-1494.5 378,-1494.5"/>
<text text-anchor="middle" x="393" y="-1525.3" font-family="Times,serif" font-size="14.00">4</text>
<polyline fill="none" stroke="black" points="366,-1517.5 420,-1517.5 "/>
<text text-anchor="middle" x="393" y="-1502.3" font-family="Times,serif" font-size="14.00">ST</text>
</g>
<!-- nd0x55c496161950&#45;&gt;nd0x55c496162310 -->
<g id="edge23" class="edge">
<title>nd0x55c496161950&#45;&gt;nd0x55c496162310</title>
<path fill="none" stroke="black" d="M363.93,-1577.37C368.12,-1568.88 372.98,-1559.04 377.52,-1549.85"/>
<polygon fill="black" stroke="black" points="380.79,-1551.12 382.08,-1540.61 374.52,-1548.02 380.79,-1551.12"/>
</g>
<!-- nd0x55c49615bf90 -->
<g id="node3" class="node">
<title>nd0x55c49615bf90</title>
<path fill="#c0ffff" stroke="black" d="M156.5,-1411.5C156.5,-1411.5 239.5,-1411.5 239.5,-1411.5 245.5,-1411.5 251.5,-1417.5 251.5,-1423.5 251.5,-1423.5 251.5,-1445.5 251.5,-1445.5 251.5,-1451.5 245.5,-1457.5 239.5,-1457.5 239.5,-1457.5 156.5,-1457.5 156.5,-1457.5 150.5,-1457.5 144.5,-1451.5 144.5,-1445.5 144.5,-1445.5 144.5,-1423.5 144.5,-1423.5 144.5,-1417.5 150.5,-1411.5 156.5,-1411.5"/>
<text text-anchor="middle" x="198" y="-1442.3" font-family="Times,serif" font-size="14.00">5</text>
<polyline fill="none" stroke="black" points="144.5,-1434.5 251.5,-1434.5 "/>
<text text-anchor="middle" x="198" y="-1419.3" font-family="Times,serif" font-size="14.00">discriminant</text>
</g>
<!-- nd0x55c4961615d0&#45;&gt;nd0x55c49615bf90 -->
<g id="edge2" class="edge">
<title>nd0x55c4961615d0&#45;&gt;nd0x55c49615bf90</title>
<path fill="none" stroke="black" d="M284.26,-1495.22C270.34,-1485.58 253.68,-1474.05 238.74,-1463.7"/>
<polygon fill="black" stroke="black" points="240.38,-1460.59 230.17,-1457.77 236.4,-1466.34 240.38,-1460.59"/>
</g>
<!-- nd0x55c496161910 -->
<g id="node13" class="node">
<title>nd0x55c496161910</title>
<path fill="#54e3c2" stroke="black" d="M300,-1411.5C300,-1411.5 330,-1411.5 330,-1411.5 336,-1411.5 342,-1417.5 342,-1423.5 342,-1423.5 342,-1445.5 342,-1445.5 342,-1451.5 336,-1457.5 330,-1457.5 330,-1457.5 300,-1457.5 300,-1457.5 294,-1457.5 288,-1451.5 288,-1445.5 288,-1445.5 288,-1423.5 288,-1423.5 288,-1417.5 294,-1411.5 300,-1411.5"/>
<text text-anchor="middle" x="315" y="-1442.3" font-family="Times,serif" font-size="14.00">4</text>
<polyline fill="none" stroke="black" points="288,-1434.5 342,-1434.5 "/>
<text text-anchor="middle" x="315" y="-1419.3" font-family="Times,serif" font-size="14.00">ST</text>
</g>
<!-- nd0x55c4961615d0&#45;&gt;nd0x55c496161910 -->
<g id="edge12" class="edge">
<title>nd0x55c4961615d0&#45;&gt;nd0x55c496161910</title>
<path fill="none" stroke="black" d="M315,-1494.37C315,-1486.15 315,-1476.66 315,-1467.73"/>
<polygon fill="black" stroke="black" points="318.5,-1467.61 315,-1457.61 311.5,-1467.61 318.5,-1467.61"/>
</g>
<!-- nd0x55c496161650 -->
<g id="node4" class="node">
<title>nd0x55c496161650</title>
<path fill="#ffc0ff" stroke="black" d="M138.5,-1328.5C138.5,-1328.5 183.5,-1328.5 183.5,-1328.5 189.5,-1328.5 195.5,-1334.5 195.5,-1340.5 195.5,-1340.5 195.5,-1362.5 195.5,-1362.5 195.5,-1368.5 189.5,-1374.5 183.5,-1374.5 183.5,-1374.5 138.5,-1374.5 138.5,-1374.5 132.5,-1374.5 126.5,-1368.5 126.5,-1362.5 126.5,-1362.5 126.5,-1340.5 126.5,-1340.5 126.5,-1334.5 132.5,-1328.5 138.5,-1328.5"/>
<text text-anchor="middle" x="161" y="-1359.3" font-family="Times,serif" font-size="14.00">4</text>
<polyline fill="none" stroke="black" points="126.5,-1351.5 195.5,-1351.5 "/>
<text text-anchor="middle" x="161" y="-1336.3" font-family="Times,serif" font-size="14.00">PARAM</text>
</g>
<!-- nd0x55c49615bf90&#45;&gt;nd0x55c496161650 -->
<g id="edge3" class="edge">
<title>nd0x55c49615bf90&#45;&gt;nd0x55c496161650</title>
<path fill="none" stroke="black" d="M187.89,-1411.37C184.01,-1402.88 179.52,-1393.04 175.32,-1383.85"/>
<polygon fill="black" stroke="black" points="178.44,-1382.25 171.1,-1374.61 172.07,-1385.16 178.44,-1382.25"/>
</g>
<!-- nd0x55c496161610 -->
<g id="node5" class="node">
<title>nd0x55c496161610</title>
<path fill="#ffc0ff" stroke="black" d="M30,-1245.5C30,-1245.5 60,-1245.5 60,-1245.5 66,-1245.5 72,-1251.5 72,-1257.5 72,-1257.5 72,-1279.5 72,-1279.5 72,-1285.5 66,-1291.5 60,-1291.5 60,-1291.5 30,-1291.5 30,-1291.5 24,-1291.5 18,-1285.5 18,-1279.5 18,-1279.5 18,-1257.5 18,-1257.5 18,-1251.5 24,-1245.5 30,-1245.5"/>
<text text-anchor="middle" x="45" y="-1276.3" font-family="Times,serif" font-size="14.00">4</text>
<polyline fill="none" stroke="black" points="18,-1268.5 72,-1268.5 "/>
<text text-anchor="middle" x="45" y="-1253.3" font-family="Times,serif" font-size="14.00">VAR</text>
</g>
<!-- nd0x55c496161650&#45;&gt;nd0x55c496161610 -->
<g id="edge4" class="edge">
<title>nd0x55c496161650&#45;&gt;nd0x55c496161610</title>
<path fill="none" stroke="black" d="M129.3,-1328.37C114.25,-1317.85 96.19,-1305.25 80.66,-1294.4"/>
<polygon fill="black" stroke="black" points="82.53,-1291.44 72.33,-1288.58 78.52,-1297.18 82.53,-1291.44"/>
</g>
<!-- nd0x55c4961616d0 -->
<g id="node7" class="node">
<title>nd0x55c4961616d0</title>
<path fill="#54e3c2" stroke="black" d="M138.5,-1245.5C138.5,-1245.5 183.5,-1245.5 183.5,-1245.5 189.5,-1245.5 195.5,-1251.5 195.5,-1257.5 195.5,-1257.5 195.5,-1279.5 195.5,-1279.5 195.5,-1285.5 189.5,-1291.5 183.5,-1291.5 183.5,-1291.5 138.5,-1291.5 138.5,-1291.5 132.5,-1291.5 126.5,-1285.5 126.5,-1279.5 126.5,-1279.5 126.5,-1257.5 126.5,-1257.5 126.5,-1251.5 132.5,-1245.5 138.5,-1245.5"/>
<text text-anchor="middle" x="161" y="-1276.3" font-family="Times,serif" font-size="14.00">4</text>
<polyline fill="none" stroke="black" points="126.5,-1268.5 195.5,-1268.5 "/>
<text text-anchor="middle" x="161" y="-1253.3" font-family="Times,serif" font-size="14.00">PARAM</text>
</g>
<!-- nd0x55c496161650&#45;&gt;nd0x55c4961616d0 -->
<g id="edge6" class="edge">
<title>nd0x55c496161650&#45;&gt;nd0x55c4961616d0</title>
<path fill="none" stroke="black" d="M161,-1328.37C161,-1320.15 161,-1310.66 161,-1301.73"/>
<polygon fill="black" stroke="black" points="164.5,-1301.61 161,-1291.61 157.5,-1301.61 164.5,-1301.61"/>
</g>
<!-- nd0x55c49615c090 -->
<g id="node6" class="node">
<title>nd0x55c49615c090</title>
<path fill="#c0c0ff" stroke="black" d="M12,-1162.5C12,-1162.5 42,-1162.5 42,-1162.5 48,-1162.5 54,-1168.5 54,-1174.5 54,-1174.5 54,-1196.5 54,-1196.5 54,-1202.5 48,-1208.5 42,-1208.5 42,-1208.5 12,-1208.5 12,-1208.5 6,-1208.5 0,-1202.5 0,-1196.5 0,-1196.5 0,-1174.5 0,-1174.5 0,-1168.5 6,-1162.5 12,-1162.5"/>
<text text-anchor="middle" x="27" y="-1193.3" font-family="Times,serif" font-size="14.00">2</text>
<polyline fill="none" stroke="black" points="0,-1185.5 54,-1185.5 "/>
<text text-anchor="middle" x="27" y="-1170.3" font-family="Times,serif" font-size="14.00">a</text>
</g>
<!-- nd0x55c496161610&#45;&gt;nd0x55c49615c090 -->
<g id="edge5" class="edge">
<title>nd0x55c496161610&#45;&gt;nd0x55c49615c090</title>
<path fill="none" stroke="black" d="M40.08,-1245.37C38.24,-1237.06 36.1,-1227.45 34.1,-1218.43"/>
<polygon fill="black" stroke="black" points="37.5,-1217.61 31.91,-1208.61 30.67,-1219.13 37.5,-1217.61"/>
</g>
<!-- nd0x55c496161690 -->
<g id="node8" class="node">
<title>nd0x55c496161690</title>
<path fill="#ffc0ff" stroke="black" d="M84,-1162.5C84,-1162.5 114,-1162.5 114,-1162.5 120,-1162.5 126,-1168.5 126,-1174.5 126,-1174.5 126,-1196.5 126,-1196.5 126,-1202.5 120,-1208.5 114,-1208.5 114,-1208.5 84,-1208.5 84,-1208.5 78,-1208.5 72,-1202.5 72,-1196.5 72,-1196.5 72,-1174.5 72,-1174.5 72,-1168.5 78,-1162.5 84,-1162.5"/>
<text text-anchor="middle" x="99" y="-1193.3" font-family="Times,serif" font-size="14.00">4</text>
<polyline fill="none" stroke="black" points="72,-1185.5 126,-1185.5 "/>
<text text-anchor="middle" x="99" y="-1170.3" font-family="Times,serif" font-size="14.00">VAR</text>
</g>
<!-- nd0x55c4961616d0&#45;&gt;nd0x55c496161690 -->
<g id="edge7" class="edge">
<title>nd0x55c4961616d0&#45;&gt;nd0x55c496161690</title>
<path fill="none" stroke="black" d="M144.06,-1245.37C137.29,-1236.53 129.39,-1226.21 122.11,-1216.7"/>
<polygon fill="black" stroke="black" points="124.78,-1214.42 115.92,-1208.61 119.22,-1218.68 124.78,-1214.42"/>
</g>
<!-- nd0x55c496161750 -->
<g id="node10" class="node">
<title>nd0x55c496161750</title>
<path fill="#54e3c2" stroke="black" d="M156.5,-1162.5C156.5,-1162.5 201.5,-1162.5 201.5,-1162.5 207.5,-1162.5 213.5,-1168.5 213.5,-1174.5 213.5,-1174.5 213.5,-1196.5 213.5,-1196.5 213.5,-1202.5 207.5,-1208.5 201.5,-1208.5 201.5,-1208.5 156.5,-1208.5 156.5,-1208.5 150.5,-1208.5 144.5,-1202.5 144.5,-1196.5 144.5,-1196.5 144.5,-1174.5 144.5,-1174.5 144.5,-1168.5 150.5,-1162.5 156.5,-1162.5"/>
<text text-anchor="middle" x="179" y="-1193.3" font-family="Times,serif" font-size="14.00">4</text>
<polyline fill="none" stroke="black" points="144.5,-1185.5 213.5,-1185.5 "/>
<text text-anchor="middle" x="179" y="-1170.3" font-family="Times,serif" font-size="14.00">PARAM</text>
</g>
<!-- nd0x55c4961616d0&#45;&gt;nd0x55c496161750 -->
<g id="edge9" class="edge">
<title>nd0x55c4961616d0&#45;&gt;nd0x55c496161750</title>
<path fill="none" stroke="black" d="M165.92,-1245.37C167.76,-1237.06 169.9,-1227.45 171.9,-1218.43"/>
<polygon fill="black" stroke="black" points="175.33,-1219.13 174.09,-1208.61 168.5,-1217.61 175.33,-1219.13"/>
</g>
<!-- nd0x55c49615c190 -->
<g id="node9" class="node">
<title>nd0x55c49615c190</title>
<path fill="#c0c0ff" stroke="black" d="M84,-1079.5C84,-1079.5 114,-1079.5 114,-1079.5 120,-1079.5 126,-1085.5 126,-1091.5 126,-1091.5 126,-1113.5 126,-1113.5 126,-1119.5 120,-1125.5 114,-1125.5 114,-1125.5 84,-1125.5 84,-1125.5 78,-1125.5 72,-1119.5 72,-1113.5 72,-1113.5 72,-1091.5 72,-1091.5 72,-1085.5 78,-1079.5 84,-1079.5"/>
<text text-anchor="middle" x="99" y="-1110.3" font-family="Times,serif" font-size="14.00">2</text>
<polyline fill="none" stroke="black" points="72,-1102.5 126,-1102.5 "/>
<text text-anchor="middle" x="99" y="-1087.3" font-family="Times,serif" font-size="14.00">b</text>
</g>
<!-- nd0x55c496161690&#45;&gt;nd0x55c49615c190 -->
<g id="edge8" class="edge">
<title>nd0x55c496161690&#45;&gt;nd0x55c49615c190</title>
<path fill="none" stroke="black" d="M99,-1162.37C99,-1154.15 99,-1144.66 99,-1135.73"/>
<polygon fill="black" stroke="black" points="102.5,-1135.61 99,-1125.61 95.5,-1135.61 102.5,-1135.61"/>
</g>
<!-- nd0x55c496161710 -->
<g id="node11" class="node">
<title>nd0x55c496161710</title>
<path fill="#ffc0ff" stroke="black" d="M160,-1079.5C160,-1079.5 190,-1079.5 190,-1079.5 196,-1079.5 202,-1085.5 202,-1091.5 202,-1091.5 202,-1113.5 202,-1113.5 202,-1119.5 196,-1125.5 190,-1125.5 190,-1125.5 160,-1125.5 160,-1125.5 154,-1125.5 148,-1119.5 148,-1113.5 148,-1113.5 148,-1091.5 148,-1091.5 148,-1085.5 154,-1079.5 160,-1079.5"/>
<text text-anchor="middle" x="175" y="-1110.3" font-family="Times,serif" font-size="14.00">4</text>
<polyline fill="none" stroke="black" points="148,-1102.5 202,-1102.5 "/>
<text text-anchor="middle" x="175" y="-1087.3" font-family="Times,serif" font-size="14.00">VAR</text>
</g>
<!-- nd0x55c496161750&#45;&gt;nd0x55c496161710 -->
<g id="edge10" class="edge">
<title>nd0x55c496161750&#45;&gt;nd0x55c496161710</title>
<path fill="none" stroke="black" d="M177.91,-1162.37C177.5,-1154.15 177.03,-1144.66 176.59,-1135.73"/>
<polygon fill="black" stroke="black" points="180.08,-1135.42 176.09,-1125.61 173.09,-1135.77 180.08,-1135.42"/>
</g>
<!-- nd0x55c49615fd10 -->
<g id="node12" class="node">
<title>nd0x55c49615fd10</title>
<path fill="#c0c0ff" stroke="black" d="M160,-996.5C160,-996.5 190,-996.5 190,-996.5 196,-996.5 202,-1002.5 202,-1008.5 202,-1008.5 202,-1030.5 202,-1030.5 202,-1036.5 196,-1042.5 190,-1042.5 190,-1042.5 160,-1042.5 160,-1042.5 154,-1042.5 148,-1036.5 148,-1030.5 148,-1030.5 148,-1008.5 148,-1008.5 148,-1002.5 154,-996.5 160,-996.5"/>
<text text-anchor="middle" x="175" y="-1027.3" font-family="Times,serif" font-size="14.00">2</text>
<polyline fill="none" stroke="black" points="148,-1019.5 202,-1019.5 "/>
<text text-anchor="middle" x="175" y="-1004.3" font-family="Times,serif" font-size="14.00">c</text>
</g>
<!-- nd0x55c496161710&#45;&gt;nd0x55c49615fd10 -->
<g id="edge11" class="edge">
<title>nd0x55c496161710&#45;&gt;nd0x55c49615fd10</title>
<path fill="none" stroke="black" d="M175,-1079.37C175,-1071.15 175,-1061.66 175,-1052.73"/>
<polygon fill="black" stroke="black" points="178.5,-1052.61 175,-1042.61 171.5,-1052.61 178.5,-1052.61"/>
</g>
<!-- nd0x55c496161790 -->
<g id="node14" class="node">
<title>nd0x55c496161790</title>
<path fill="#ffc0ff" stroke="black" d="M300,-1328.5C300,-1328.5 330,-1328.5 330,-1328.5 336,-1328.5 342,-1334.5 342,-1340.5 342,-1340.5 342,-1362.5 342,-1362.5 342,-1368.5 336,-1374.5 330,-1374.5 330,-1374.5 300,-1374.5 300,-1374.5 294,-1374.5 288,-1368.5 288,-1362.5 288,-1362.5 288,-1340.5 288,-1340.5 288,-1334.5 294,-1328.5 300,-1328.5"/>
<text text-anchor="middle" x="315" y="-1359.3" font-family="Times,serif" font-size="14.00">4</text>
<polyline fill="none" stroke="black" points="288,-1351.5 342,-1351.5 "/>
<text text-anchor="middle" x="315" y="-1336.3" font-family="Times,serif" font-size="14.00">RET</text>
</g>
<!-- nd0x55c496161910&#45;&gt;nd0x55c496161790 -->
<g id="edge13" class="edge">
<title>nd0x55c496161910&#45;&gt;nd0x55c496161790</title>
<path fill="none" stroke="black" d="M315,-1411.37C315,-1403.15 315,-1393.66 315,-1384.73"/>
<polygon fill="black" stroke="black" points="318.5,-1384.61 315,-1374.61 311.5,-1384.61 318.5,-1384.61"/>
</g>
<!-- nd0x55c4961618d0 -->
<g id="node15" class="node">
<title>nd0x55c4961618d0</title>
<path fill="#ffc0c0" stroke="black" d="M300,-1245.5C300,-1245.5 330,-1245.5 330,-1245.5 336,-1245.5 342,-1251.5 342,-1257.5 342,-1257.5 342,-1279.5 342,-1279.5 342,-1285.5 336,-1291.5 330,-1291.5 330,-1291.5 300,-1291.5 300,-1291.5 294,-1291.5 288,-1285.5 288,-1279.5 288,-1279.5 288,-1257.5 288,-1257.5 288,-1251.5 294,-1245.5 300,-1245.5"/>
<text text-anchor="middle" x="315" y="-1276.3" font-family="Times,serif" font-size="14.00">1</text>
<polyline fill="none" stroke="black" points="288,-1268.5 342,-1268.5 "/>
<text text-anchor="middle" x="315" y="-1253.3" font-family="Times,serif" font-size="14.00">SUB</text>
</g>
<!-- nd0x55c496161790&#45;&gt;nd0x55c4961618d0 -->
<g id="edge14" class="edge">
<title>nd0x55c496161790&#45;&gt;nd0x55c4961618d0</title>
<path fill="none" stroke="black" d="M315,-1328.37C315,-1320.15 315,-1310.66 315,-1301.73"/>
<polygon fill="black" stroke="black" points="318.5,-1301.61 315,-1291.61 311.5,-1301.61 318.5,-1301.61"/>
</g>
<!-- nd0x55c4961617d0 -->
<g id="node16" class="node">
<title>nd0x55c4961617d0</title>
<path fill="#ffc0c0" stroke="black" d="M300,-1162.5C300,-1162.5 330,-1162.5 330,-1162.5 336,-1162.5 342,-1168.5 342,-1174.5 342,-1174.5 342,-1196.5 342,-1196.5 342,-1202.5 336,-1208.5 330,-1208.5 330,-1208.5 300,-1208.5 300,-1208.5 294,-1208.5 288,-1202.5 288,-1196.5 288,-1196.5 288,-1174.5 288,-1174.5 288,-1168.5 294,-1162.5 300,-1162.5"/>
<text text-anchor="middle" x="315" y="-1193.3" font-family="Times,serif" font-size="14.00">1</text>
<polyline fill="none" stroke="black" points="288,-1185.5 342,-1185.5 "/>
<text text-anchor="middle" x="315" y="-1170.3" font-family="Times,serif" font-size="14.00">MUL</text>
</g>
<!-- nd0x55c4961618d0&#45;&gt;nd0x55c4961617d0 -->
<g id="edge15" class="edge">
<title>nd0x55c4961618d0&#45;&gt;nd0x55c4961617d0</title>
<path fill="none" stroke="black" d="M315,-1245.37C315,-1237.15 315,-1227.66 315,-1218.73"/>
<polygon fill="black" stroke="black" points="318.5,-1218.61 315,-1208.61 311.5,-1218.61 318.5,-1218.61"/>
</g>
<!-- nd0x55c496161890 -->
<g id="node19" class="node">
<title>nd0x55c496161890</title>
<path fill="#54e3c2" stroke="black" d="M372,-1162.5C372,-1162.5 410,-1162.5 410,-1162.5 416,-1162.5 422,-1168.5 422,-1174.5 422,-1174.5 422,-1196.5 422,-1196.5 422,-1202.5 416,-1208.5 410,-1208.5 410,-1208.5 372,-1208.5 372,-1208.5 366,-1208.5 360,-1202.5 360,-1196.5 360,-1196.5 360,-1174.5 360,-1174.5 360,-1168.5 366,-1162.5 372,-1162.5"/>
<text text-anchor="middle" x="391" y="-1193.3" font-family="Times,serif" font-size="14.00">1</text>
<polyline fill="none" stroke="black" points="360,-1185.5 422,-1185.5 "/>
<text text-anchor="middle" x="391" y="-1170.3" font-family="Times,serif" font-size="14.00">&#39;None&#39;</text>
</g>
<!-- nd0x55c4961618d0&#45;&gt;nd0x55c496161890 -->
<g id="edge18" class="edge">
<title>nd0x55c4961618d0&#45;&gt;nd0x55c496161890</title>
<path fill="none" stroke="black" d="M335.77,-1245.37C344.23,-1236.35 354.14,-1225.79 363.21,-1216.12"/>
<polygon fill="black" stroke="black" points="365.97,-1218.29 370.26,-1208.61 360.86,-1213.5 365.97,-1218.29"/>
</g>
<!-- nd0x55c49615fe50 -->
<g id="node17" class="node">
<title>nd0x55c49615fe50</title>
<path fill="#c0c0ff" stroke="black" d="M232,-1079.5C232,-1079.5 262,-1079.5 262,-1079.5 268,-1079.5 274,-1085.5 274,-1091.5 274,-1091.5 274,-1113.5 274,-1113.5 274,-1119.5 268,-1125.5 262,-1125.5 262,-1125.5 232,-1125.5 232,-1125.5 226,-1125.5 220,-1119.5 220,-1113.5 220,-1113.5 220,-1091.5 220,-1091.5 220,-1085.5 226,-1079.5 232,-1079.5"/>
<text text-anchor="middle" x="247" y="-1110.3" font-family="Times,serif" font-size="14.00">2</text>
<polyline fill="none" stroke="black" points="220,-1102.5 274,-1102.5 "/>
<text text-anchor="middle" x="247" y="-1087.3" font-family="Times,serif" font-size="14.00">b</text>
</g>
<!-- nd0x55c4961617d0&#45;&gt;nd0x55c49615fe50 -->
<g id="edge16" class="edge">
<title>nd0x55c4961617d0&#45;&gt;nd0x55c49615fe50</title>
<path fill="none" stroke="black" d="M296.42,-1162.37C288.92,-1153.44 280.16,-1143 272.11,-1133.41"/>
<polygon fill="black" stroke="black" points="274.67,-1131.02 265.56,-1125.61 269.31,-1135.52 274.67,-1131.02"/>
</g>
<!-- nd0x55c49615ff10 -->
<g id="node18" class="node">
<title>nd0x55c49615ff10</title>
<path fill="#54e3c2" stroke="black" d="M304,-1079.5C304,-1079.5 334,-1079.5 334,-1079.5 340,-1079.5 346,-1085.5 346,-1091.5 346,-1091.5 346,-1113.5 346,-1113.5 346,-1119.5 340,-1125.5 334,-1125.5 334,-1125.5 304,-1125.5 304,-1125.5 298,-1125.5 292,-1119.5 292,-1113.5 292,-1113.5 292,-1091.5 292,-1091.5 292,-1085.5 298,-1079.5 304,-1079.5"/>
<text text-anchor="middle" x="319" y="-1110.3" font-family="Times,serif" font-size="14.00">2</text>
<polyline fill="none" stroke="black" points="292,-1102.5 346,-1102.5 "/>
<text text-anchor="middle" x="319" y="-1087.3" font-family="Times,serif" font-size="14.00">b</text>
</g>
<!-- nd0x55c4961617d0&#45;&gt;nd0x55c49615ff10 -->
<g id="edge17" class="edge">
<title>nd0x55c4961617d0&#45;&gt;nd0x55c49615ff10</title>
<path fill="none" stroke="black" d="M316.09,-1162.37C316.5,-1154.15 316.97,-1144.66 317.41,-1135.73"/>
<polygon fill="black" stroke="black" points="320.91,-1135.77 317.91,-1125.61 313.92,-1135.42 320.91,-1135.77"/>
</g>
<!-- nd0x55c496161850 -->
<g id="node20" class="node">
<title>nd0x55c496161850</title>
<path fill="#ffc0c0" stroke="black" d="M376,-1079.5C376,-1079.5 406,-1079.5 406,-1079.5 412,-1079.5 418,-1085.5 418,-1091.5 418,-1091.5 418,-1113.5 418,-1113.5 418,-1119.5 412,-1125.5 406,-1125.5 406,-1125.5 376,-1125.5 376,-1125.5 370,-1125.5 364,-1119.5 364,-1113.5 364,-1113.5 364,-1091.5 364,-1091.5 364,-1085.5 370,-1079.5 376,-1079.5"/>
<text text-anchor="middle" x="391" y="-1110.3" font-family="Times,serif" font-size="14.00">1</text>
<polyline fill="none" stroke="black" points="364,-1102.5 418,-1102.5 "/>
<text text-anchor="middle" x="391" y="-1087.3" font-family="Times,serif" font-size="14.00">MUL</text>
</g>
<!-- nd0x55c496161890&#45;&gt;nd0x55c496161850 -->
<g id="edge19" class="edge">
<title>nd0x55c496161890&#45;&gt;nd0x55c496161850</title>
<path fill="none" stroke="black" d="M391,-1162.37C391,-1154.15 391,-1144.66 391,-1135.73"/>
<polygon fill="black" stroke="black" points="394.5,-1135.61 391,-1125.61 387.5,-1135.61 394.5,-1135.61"/>
</g>
<!-- nd0x55c496160130 -->
<g id="node23" class="node">
<title>nd0x55c496160130</title>
<path fill="#54e3c2" stroke="black" d="M448,-1079.5C448,-1079.5 478,-1079.5 478,-1079.5 484,-1079.5 490,-1085.5 490,-1091.5 490,-1091.5 490,-1113.5 490,-1113.5 490,-1119.5 484,-1125.5 478,-1125.5 478,-1125.5 448,-1125.5 448,-1125.5 442,-1125.5 436,-1119.5 436,-1113.5 436,-1113.5 436,-1091.5 436,-1091.5 436,-1085.5 442,-1079.5 448,-1079.5"/>
<text text-anchor="middle" x="463" y="-1110.3" font-family="Times,serif" font-size="14.00">2</text>
<polyline fill="none" stroke="black" points="436,-1102.5 490,-1102.5 "/>
<text text-anchor="middle" x="463" y="-1087.3" font-family="Times,serif" font-size="14.00">c</text>
</g>
<!-- nd0x55c496161890&#45;&gt;nd0x55c496160130 -->
<g id="edge22" class="edge">
<title>nd0x55c496161890&#45;&gt;nd0x55c496160130</title>
<path fill="none" stroke="black" d="M410.67,-1162.37C418.69,-1153.35 428.08,-1142.79 436.67,-1133.12"/>
<polygon fill="black" stroke="black" points="439.32,-1135.41 443.35,-1125.61 434.09,-1130.76 439.32,-1135.41"/>
</g>
<!-- nd0x55c496161810 -->
<g id="node21" class="node">
<title>nd0x55c496161810</title>
<path fill="#c0ffc0" stroke="black" d="M340,-996.5C340,-996.5 370,-996.5 370,-996.5 376,-996.5 382,-1002.5 382,-1008.5 382,-1008.5 382,-1030.5 382,-1030.5 382,-1036.5 376,-1042.5 370,-1042.5 370,-1042.5 340,-1042.5 340,-1042.5 334,-1042.5 328,-1036.5 328,-1030.5 328,-1030.5 328,-1008.5 328,-1008.5 328,-1002.5 334,-996.5 340,-996.5"/>
<text text-anchor="middle" x="355" y="-1027.3" font-family="Times,serif" font-size="14.00">3</text>
<polyline fill="none" stroke="black" points="328,-1019.5 382,-1019.5 "/>
<text text-anchor="middle" x="355" y="-1004.3" font-family="Times,serif" font-size="14.00">4</text>
</g>
<!-- nd0x55c496161850&#45;&gt;nd0x55c496161810 -->
<g id="edge20" class="edge">
<title>nd0x55c496161850&#45;&gt;nd0x55c496161810</title>
<path fill="none" stroke="black" d="M381.16,-1079.37C377.39,-1070.88 373.02,-1061.04 368.93,-1051.85"/>
<polygon fill="black" stroke="black" points="372.09,-1050.32 364.83,-1042.61 365.69,-1053.17 372.09,-1050.32"/>
</g>
<!-- nd0x55c496160070 -->
<g id="node22" class="node">
<title>nd0x55c496160070</title>
<path fill="#54e3c2" stroke="black" d="M412,-996.5C412,-996.5 442,-996.5 442,-996.5 448,-996.5 454,-1002.5 454,-1008.5 454,-1008.5 454,-1030.5 454,-1030.5 454,-1036.5 448,-1042.5 442,-1042.5 442,-1042.5 412,-1042.5 412,-1042.5 406,-1042.5 400,-1036.5 400,-1030.5 400,-1030.5 400,-1008.5 400,-1008.5 400,-1002.5 406,-996.5 412,-996.5"/>
<text text-anchor="middle" x="427" y="-1027.3" font-family="Times,serif" font-size="14.00">2</text>
<polyline fill="none" stroke="black" points="400,-1019.5 454,-1019.5 "/>
<text text-anchor="middle" x="427" y="-1004.3" font-family="Times,serif" font-size="14.00">a</text>
</g>
<!-- nd0x55c496161850&#45;&gt;nd0x55c496160070 -->
<g id="edge21" class="edge">
<title>nd0x55c496161850&#45;&gt;nd0x55c496160070</title>
<path fill="none" stroke="black" d="M400.84,-1079.37C404.61,-1070.88 408.98,-1061.04 413.07,-1051.85"/>
<polygon fill="black" stroke="black" points="416.31,-1053.17 417.17,-1042.61 409.91,-1050.32 416.31,-1053.17"/>
</g>
<!-- nd0x55c496161990 -->
<g id="node25" class="node">
<title>nd0x55c496161990</title>
<path fill="#c0ffff" stroke="black" d="M411.5,-1411.5C411.5,-1411.5 448.5,-1411.5 448.5,-1411.5 454.5,-1411.5 460.5,-1417.5 460.5,-1423.5 460.5,-1423.5 460.5,-1445.5 460.5,-1445.5 460.5,-1451.5 454.5,-1457.5 448.5,-1457.5 448.5,-1457.5 411.5,-1457.5 411.5,-1457.5 405.5,-1457.5 399.5,-1451.5 399.5,-1445.5 399.5,-1445.5 399.5,-1423.5 399.5,-1423.5 399.5,-1417.5 405.5,-1411.5 411.5,-1411.5"/>
<text text-anchor="middle" x="430" y="-1442.3" font-family="Times,serif" font-size="14.00">5</text>
<polyline fill="none" stroke="black" points="399.5,-1434.5 460.5,-1434.5 "/>
<text text-anchor="middle" x="430" y="-1419.3" font-family="Times,serif" font-size="14.00">FUNC</text>
</g>
<!-- nd0x55c496162310&#45;&gt;nd0x55c496161990 -->
<g id="edge24" class="edge">
<title>nd0x55c496162310&#45;&gt;nd0x55c496161990</title>
<path fill="none" stroke="black" d="M403.11,-1494.37C406.99,-1485.88 411.48,-1476.04 415.68,-1466.85"/>
<polygon fill="black" stroke="black" points="418.93,-1468.16 419.9,-1457.61 412.56,-1465.25 418.93,-1468.16"/>
</g>
<!-- nd0x55c4961602b0 -->
<g id="node26" class="node">
<title>nd0x55c4961602b0</title>
<path fill="#c0ffff" stroke="black" d="M415,-1328.5C415,-1328.5 445,-1328.5 445,-1328.5 451,-1328.5 457,-1334.5 457,-1340.5 457,-1340.5 457,-1362.5 457,-1362.5 457,-1368.5 451,-1374.5 445,-1374.5 445,-1374.5 415,-1374.5 415,-1374.5 409,-1374.5 403,-1368.5 403,-1362.5 403,-1362.5 403,-1340.5 403,-1340.5 403,-1334.5 409,-1328.5 415,-1328.5"/>
<text text-anchor="middle" x="430" y="-1359.3" font-family="Times,serif" font-size="14.00">5</text>
<polyline fill="none" stroke="black" points="403,-1351.5 457,-1351.5 "/>
<text text-anchor="middle" x="430" y="-1336.3" font-family="Times,serif" font-size="14.00">main</text>
</g>
<!-- nd0x55c496161990&#45;&gt;nd0x55c4961602b0 -->
<g id="edge25" class="edge">
<title>nd0x55c496161990&#45;&gt;nd0x55c4961602b0</title>
<path fill="none" stroke="black" d="M430,-1411.37C430,-1403.15 430,-1393.66 430,-1384.73"/>
<polygon fill="black" stroke="black" points="433.5,-1384.61 430,-1374.61 426.5,-1384.61 433.5,-1384.61"/>
</g>
<!-- nd0x55c496161a50 -->
<g id="node27" class="node">
<title>nd0x55c496161a50</title>
<path fill="#54e3c2" stroke="black" d="M488,-1328.5C488,-1328.5 518,-1328.5 518,-1328.5 524,-1328.5 530,-1334.5 530,-1340.5 530,-1340.5 530,-1362.5 530,-1362.5 530,-1368.5 524,-1374.5 518,-1374.5 518,-1374.5 488,-1374.5 488,-1374.5 482,-1374.5 476,-1368.5 476,-1362.5 476,-1362.5 476,-1340.5 476,-1340.5 476,-1334.5 482,-1328.5 488,-1328.5"/>
<text text-anchor="middle" x="503" y="-1359.3" font-family="Times,serif" font-size="14.00">4</text>
<polyline fill="none" stroke="black" points="476,-1351.5 530,-1351.5 "/>
<text text-anchor="middle" x="503" y="-1336.3" font-family="Times,serif" font-size="14.00">ST</text>
</g>
<!-- nd0x55c496161990&#45;&gt;nd0x55c496161a50 -->
<g id="edge26" class="edge">
<title>nd0x55c496161990&#45;&gt;nd0x55c496161a50</title>
<path fill="none" stroke="black" d="M449.95,-1411.37C458.08,-1402.35 467.59,-1391.79 476.3,-1382.12"/>
<polygon fill="black" stroke="black" points="478.98,-1384.38 483.08,-1374.61 473.78,-1379.69 478.98,-1384.38"/>
</g>
<!-- nd0x55c4961619d0 -->
<g id="node28" class="node">
<title>nd0x55c4961619d0</title>
<path fill="#ffc0ff" stroke="black" d="M488,-1245.5C488,-1245.5 518,-1245.5 518,-1245.5 524,-1245.5 530,-1251.5 530,-1257.5 530,-1257.5 530,-1279.5 530,-1279.5 530,-1285.5 524,-1291.5 518,-1291.5 518,-1291.5 488,-1291.5 488,-1291.5 482,-1291.5 476,-1285.5 476,-1279.5 476,-1279.5 476,-1257.5 476,-1257.5 476,-1251.5 482,-1245.5 488,-1245.5"/>
<text text-anchor="middle" x="503" y="-1276.3" font-family="Times,serif" font-size="14.00">4</text>
<polyline fill="none" stroke="black" points="476,-1268.5 530,-1268.5 "/>
<text text-anchor="middle" x="503" y="-1253.3" font-family="Times,serif" font-size="14.00">VAR</text>
</g>
<!-- nd0x55c496161a50&#45;&gt;nd0x55c4961619d0 -->
<g id="edge27" class="edge">
<title>nd0x55c496161a50&#45;&gt;nd0x55c4961619d0</title>
<path fill="none" stroke="black" d="M503,-1328.37C503,-1320.15 503,-1310.66 503,-1301.73"/>
<polygon fill="black" stroke="black" points="506.5,-1301.61 503,-1291.61 499.5,-1301.61 506.5,-1301.61"/>
</g>
<!-- nd0x55c496161b10 -->
<g id="node31" class="node">
<title>nd0x55c496161b10</title>
<path fill="#54e3c2" stroke="black" d="M596,-1245.5C596,-1245.5 626,-1245.5 626,-1245.5 632,-1245.5 638,-1251.5 638,-1257.5 638,-1257.5 638,-1279.5 638,-1279.5 638,-1285.5 632,-1291.5 626,-1291.5 626,-1291.5 596,-1291.5 596,-1291.5 590,-1291.5 584,-1285.5 584,-1279.5 584,-1279.5 584,-1257.5 584,-1257.5 584,-1251.5 590,-1245.5 596,-1245.5"/>
<text text-anchor="middle" x="611" y="-1276.3" font-family="Times,serif" font-size="14.00">4</text>
<polyline fill="none" stroke="black" points="584,-1268.5 638,-1268.5 "/>
<text text-anchor="middle" x="611" y="-1253.3" font-family="Times,serif" font-size="14.00">ST</text>
</g>
<!-- nd0x55c496161a50&#45;&gt;nd0x55c496161b10 -->
<g id="edge30" class="edge">
<title>nd0x55c496161a50&#45;&gt;nd0x55c496161b10</title>
<path fill="none" stroke="black" d="M530.25,-1330.06C543.94,-1319.8 560.69,-1307.23 575.38,-1296.21"/>
<polygon fill="black" stroke="black" points="577.86,-1298.73 583.76,-1289.93 573.66,-1293.13 577.86,-1298.73"/>
</g>
<!-- nd0x55c496160410 -->
<g id="node29" class="node">
<title>nd0x55c496160410</title>
<path fill="#c0c0ff" stroke="black" d="M452,-1162.5C452,-1162.5 482,-1162.5 482,-1162.5 488,-1162.5 494,-1168.5 494,-1174.5 494,-1174.5 494,-1196.5 494,-1196.5 494,-1202.5 488,-1208.5 482,-1208.5 482,-1208.5 452,-1208.5 452,-1208.5 446,-1208.5 440,-1202.5 440,-1196.5 440,-1196.5 440,-1174.5 440,-1174.5 440,-1168.5 446,-1162.5 452,-1162.5"/>
<text text-anchor="middle" x="467" y="-1193.3" font-family="Times,serif" font-size="14.00">2</text>
<polyline fill="none" stroke="black" points="440,-1185.5 494,-1185.5 "/>
<text text-anchor="middle" x="467" y="-1170.3" font-family="Times,serif" font-size="14.00">a</text>
</g>
<!-- nd0x55c4961619d0&#45;&gt;nd0x55c496160410 -->
<g id="edge28" class="edge">
<title>nd0x55c4961619d0&#45;&gt;nd0x55c496160410</title>
<path fill="none" stroke="black" d="M493.16,-1245.37C489.39,-1236.88 485.02,-1227.04 480.93,-1217.85"/>
<polygon fill="black" stroke="black" points="484.09,-1216.32 476.83,-1208.61 477.69,-1219.17 484.09,-1216.32"/>
</g>
<!-- nd0x55c496161a10 -->
<g id="node30" class="node">
<title>nd0x55c496161a10</title>
<path fill="#54e3c2" stroke="black" d="M524,-1162.5C524,-1162.5 554,-1162.5 554,-1162.5 560,-1162.5 566,-1168.5 566,-1174.5 566,-1174.5 566,-1196.5 566,-1196.5 566,-1202.5 560,-1208.5 554,-1208.5 554,-1208.5 524,-1208.5 524,-1208.5 518,-1208.5 512,-1202.5 512,-1196.5 512,-1196.5 512,-1174.5 512,-1174.5 512,-1168.5 518,-1162.5 524,-1162.5"/>
<text text-anchor="middle" x="539" y="-1193.3" font-family="Times,serif" font-size="14.00">3</text>
<polyline fill="none" stroke="black" points="512,-1185.5 566,-1185.5 "/>
<text text-anchor="middle" x="539" y="-1170.3" font-family="Times,serif" font-size="14.00">0</text>
</g>
<!-- nd0x55c4961619d0&#45;&gt;nd0x55c496161a10 -->
<g id="edge29" class="edge">
<title>nd0x55c4961619d0&#45;&gt;nd0x55c496161a10</title>
<path fill="none" stroke="black" d="M512.84,-1245.37C516.61,-1236.88 520.98,-1227.04 525.07,-1217.85"/>
<polygon fill="black" stroke="black" points="528.31,-1219.17 529.17,-1208.61 521.91,-1216.32 528.31,-1219.17"/>
</g>
<!-- nd0x55c496161a90 -->
<g id="node32" class="node">
<title>nd0x55c496161a90</title>
<path fill="#ffc0ff" stroke="black" d="M596,-1162.5C596,-1162.5 626,-1162.5 626,-1162.5 632,-1162.5 638,-1168.5 638,-1174.5 638,-1174.5 638,-1196.5 638,-1196.5 638,-1202.5 632,-1208.5 626,-1208.5 626,-1208.5 596,-1208.5 596,-1208.5 590,-1208.5 584,-1202.5 584,-1196.5 584,-1196.5 584,-1174.5 584,-1174.5 584,-1168.5 590,-1162.5 596,-1162.5"/>
<text text-anchor="middle" x="611" y="-1193.3" font-family="Times,serif" font-size="14.00">4</text>
<polyline fill="none" stroke="black" points="584,-1185.5 638,-1185.5 "/>
<text text-anchor="middle" x="611" y="-1170.3" font-family="Times,serif" font-size="14.00">VAR</text>
</g>
<!-- nd0x55c496161b10&#45;&gt;nd0x55c496161a90 -->
<g id="edge31" class="edge">
<title>nd0x55c496161b10&#45;&gt;nd0x55c496161a90</title>
<path fill="none" stroke="black" d="M611,-1245.37C611,-1237.15 611,-1227.66 611,-1218.73"/>
<polygon fill="black" stroke="black" points="614.5,-1218.61 611,-1208.61 607.5,-1218.61 614.5,-1218.61"/>
</g>
<!-- nd0x55c496161bd0 -->
<g id="node35" class="node">
<title>nd0x55c496161bd0</title>
<path fill="#54e3c2" stroke="black" d="M668,-1162.5C668,-1162.5 698,-1162.5 698,-1162.5 704,-1162.5 710,-1168.5 710,-1174.5 710,-1174.5 710,-1196.5 710,-1196.5 710,-1202.5 704,-1208.5 698,-1208.5 698,-1208.5 668,-1208.5 668,-1208.5 662,-1208.5 656,-1202.5 656,-1196.5 656,-1196.5 656,-1174.5 656,-1174.5 656,-1168.5 662,-1162.5 668,-1162.5"/>
<text text-anchor="middle" x="683" y="-1193.3" font-family="Times,serif" font-size="14.00">4</text>
<polyline fill="none" stroke="black" points="656,-1185.5 710,-1185.5 "/>
<text text-anchor="middle" x="683" y="-1170.3" font-family="Times,serif" font-size="14.00">ST</text>
</g>
<!-- nd0x55c496161b10&#45;&gt;nd0x55c496161bd0 -->
<g id="edge34" class="edge">
<title>nd0x55c496161b10&#45;&gt;nd0x55c496161bd0</title>
<path fill="none" stroke="black" d="M630.67,-1245.37C638.69,-1236.35 648.08,-1225.79 656.67,-1216.12"/>
<polygon fill="black" stroke="black" points="659.32,-1218.41 663.35,-1208.61 654.09,-1213.76 659.32,-1218.41"/>
</g>
<!-- nd0x55c496160570 -->
<g id="node33" class="node">
<title>nd0x55c496160570</title>
<path fill="#c0c0ff" stroke="black" d="M524,-1079.5C524,-1079.5 554,-1079.5 554,-1079.5 560,-1079.5 566,-1085.5 566,-1091.5 566,-1091.5 566,-1113.5 566,-1113.5 566,-1119.5 560,-1125.5 554,-1125.5 554,-1125.5 524,-1125.5 524,-1125.5 518,-1125.5 512,-1119.5 512,-1113.5 512,-1113.5 512,-1091.5 512,-1091.5 512,-1085.5 518,-1079.5 524,-1079.5"/>
<text text-anchor="middle" x="539" y="-1110.3" font-family="Times,serif" font-size="14.00">2</text>
<polyline fill="none" stroke="black" points="512,-1102.5 566,-1102.5 "/>
<text text-anchor="middle" x="539" y="-1087.3" font-family="Times,serif" font-size="14.00">b</text>
</g>
<!-- nd0x55c496161a90&#45;&gt;nd0x55c496160570 -->
<g id="edge32" class="edge">
<title>nd0x55c496161a90&#45;&gt;nd0x55c496160570</title>
<path fill="none" stroke="black" d="M591.33,-1162.37C583.31,-1153.35 573.92,-1142.79 565.33,-1133.12"/>
<polygon fill="black" stroke="black" points="567.91,-1130.76 558.65,-1125.61 562.68,-1135.41 567.91,-1130.76"/>
</g>
<!-- nd0x55c496161ad0 -->
<g id="node34" class="node">
<title>nd0x55c496161ad0</title>
<path fill="#54e3c2" stroke="black" d="M596,-1079.5C596,-1079.5 626,-1079.5 626,-1079.5 632,-1079.5 638,-1085.5 638,-1091.5 638,-1091.5 638,-1113.5 638,-1113.5 638,-1119.5 632,-1125.5 626,-1125.5 626,-1125.5 596,-1125.5 596,-1125.5 590,-1125.5 584,-1119.5 584,-1113.5 584,-1113.5 584,-1091.5 584,-1091.5 584,-1085.5 590,-1079.5 596,-1079.5"/>
<text text-anchor="middle" x="611" y="-1110.3" font-family="Times,serif" font-size="14.00">3</text>
<polyline fill="none" stroke="black" points="584,-1102.5 638,-1102.5 "/>
<text text-anchor="middle" x="611" y="-1087.3" font-family="Times,serif" font-size="14.00">0</text>
</g>
<!-- nd0x55c496161a90&#45;&gt;nd0x55c496161ad0 -->
<g id="edge33" class="edge">
<title>nd0x55c496161a90&#45;&gt;nd0x55c496161ad0</title>
<path fill="none" stroke="black" d="M611,-1162.37C611,-1154.15 611,-1144.66 611,-1135.73"/>
<polygon fill="black" stroke="black" points="614.5,-1135.61 611,-1125.61 607.5,-1135.61 614.5,-1135.61"/>
</g>
<!-- nd0x55c496161b50 -->
<g id="node36" class="node">
<title>nd0x55c496161b50</title>
<path fill="#ffc0ff" stroke="black" d="M668,-1079.5C668,-1079.5 698,-1079.5 698,-1079.5 704,-1079.5 710,-1085.5 710,-1091.5 710,-1091.5 710,-1113.5 710,-1113.5 710,-1119.5 704,-1125.5 698,-1125.5 698,-1125.5 668,-1125.5 668,-1125.5 662,-1125.5 656,-1119.5 656,-1113.5 656,-1113.5 656,-1091.5 656,-1091.5 656,-1085.5 662,-1079.5 668,-1079.5"/>
<text text-anchor="middle" x="683" y="-1110.3" font-family="Times,serif" font-size="14.00">4</text>
<polyline fill="none" stroke="black" points="656,-1102.5 710,-1102.5 "/>
<text text-anchor="middle" x="683" y="-1087.3" font-family="Times,serif" font-size="14.00">VAR</text>
</g>
<!-- nd0x55c496161bd0&#45;&gt;nd0x55c496161b50 -->
<g id="edge35" class="edge">
<title>nd0x55c496161bd0&#45;&gt;nd0x55c496161b50</title>
<path fill="none" stroke="black" d="M683,-1162.37C683,-1154.15 683,-1144.66 683,-1135.73"/>
<polygon fill="black" stroke="black" points="686.5,-1135.61 683,-1125.61 679.5,-1135.61 686.5,-1135.61"/>
</g>
<!-- nd0x55c496161c90 -->
<g id="node39" class="node">
<title>nd0x55c496161c90</title>
<path fill="#54e3c2" stroke="black" d="M740,-1079.5C740,-1079.5 770,-1079.5 770,-1079.5 776,-1079.5 782,-1085.5 782,-1091.5 782,-1091.5 782,-1113.5 782,-1113.5 782,-1119.5 776,-1125.5 770,-1125.5 770,-1125.5 740,-1125.5 740,-1125.5 734,-1125.5 728,-1119.5 728,-1113.5 728,-1113.5 728,-1091.5 728,-1091.5 728,-1085.5 734,-1079.5 740,-1079.5"/>
<text text-anchor="middle" x="755" y="-1110.3" font-family="Times,serif" font-size="14.00">4</text>
<polyline fill="none" stroke="black" points="728,-1102.5 782,-1102.5 "/>
<text text-anchor="middle" x="755" y="-1087.3" font-family="Times,serif" font-size="14.00">ST</text>
</g>
<!-- nd0x55c496161bd0&#45;&gt;nd0x55c496161c90 -->
<g id="edge38" class="edge">
<title>nd0x55c496161bd0&#45;&gt;nd0x55c496161c90</title>
<path fill="none" stroke="black" d="M702.67,-1162.37C710.69,-1153.35 720.08,-1142.79 728.67,-1133.12"/>
<polygon fill="black" stroke="black" points="731.32,-1135.41 735.35,-1125.61 726.09,-1130.76 731.32,-1135.41"/>
</g>
<!-- nd0x55c4961606b0 -->
<g id="node37" class="node">
<title>nd0x55c4961606b0</title>
<path fill="#c0c0ff" stroke="black" d="M596,-996.5C596,-996.5 626,-996.5 626,-996.5 632,-996.5 638,-1002.5 638,-1008.5 638,-1008.5 638,-1030.5 638,-1030.5 638,-1036.5 632,-1042.5 626,-1042.5 626,-1042.5 596,-1042.5 596,-1042.5 590,-1042.5 584,-1036.5 584,-1030.5 584,-1030.5 584,-1008.5 584,-1008.5 584,-1002.5 590,-996.5 596,-996.5"/>
<text text-anchor="middle" x="611" y="-1027.3" font-family="Times,serif" font-size="14.00">2</text>
<polyline fill="none" stroke="black" points="584,-1019.5 638,-1019.5 "/>
<text text-anchor="middle" x="611" y="-1004.3" font-family="Times,serif" font-size="14.00">c</text>
</g>
<!-- nd0x55c496161b50&#45;&gt;nd0x55c4961606b0 -->
<g id="edge36" class="edge">
<title>nd0x55c496161b50&#45;&gt;nd0x55c4961606b0</title>
<path fill="none" stroke="black" d="M663.33,-1079.37C655.31,-1070.35 645.92,-1059.79 637.33,-1050.12"/>
<polygon fill="black" stroke="black" points="639.91,-1047.76 630.65,-1042.61 634.68,-1052.41 639.91,-1047.76"/>
</g>
<!-- nd0x55c496161b90 -->
<g id="node38" class="node">
<title>nd0x55c496161b90</title>
<path fill="#54e3c2" stroke="black" d="M668,-996.5C668,-996.5 698,-996.5 698,-996.5 704,-996.5 710,-1002.5 710,-1008.5 710,-1008.5 710,-1030.5 710,-1030.5 710,-1036.5 704,-1042.5 698,-1042.5 698,-1042.5 668,-1042.5 668,-1042.5 662,-1042.5 656,-1036.5 656,-1030.5 656,-1030.5 656,-1008.5 656,-1008.5 656,-1002.5 662,-996.5 668,-996.5"/>
<text text-anchor="middle" x="683" y="-1027.3" font-family="Times,serif" font-size="14.00">3</text>
<polyline fill="none" stroke="black" points="656,-1019.5 710,-1019.5 "/>
<text text-anchor="middle" x="683" y="-1004.3" font-family="Times,serif" font-size="14.00">0</text>
</g>
<!-- nd0x55c496161b50&#45;&gt;nd0x55c496161b90 -->
<g id="edge37" class="edge">
<title>nd0x55c496161b50&#45;&gt;nd0x55c496161b90</title>
<path fill="none" stroke="black" d="M683,-1079.37C683,-1071.15 683,-1061.66 683,-1052.73"/>
<polygon fill="black" stroke="black" points="686.5,-1052.61 683,-1042.61 679.5,-1052.61 686.5,-1052.61"/>
</g>
<!-- nd0x55c496161c10 -->
<g id="node40" class="node">
<title>nd0x55c496161c10</title>
<path fill="#ffc0ff" stroke="black" d="M740,-996.5C740,-996.5 770,-996.5 770,-996.5 776,-996.5 782,-1002.5 782,-1008.5 782,-1008.5 782,-1030.5 782,-1030.5 782,-1036.5 776,-1042.5 770,-1042.5 770,-1042.5 740,-1042.5 740,-1042.5 734,-1042.5 728,-1036.5 728,-1030.5 728,-1030.5 728,-1008.5 728,-1008.5 728,-1002.5 734,-996.5 740,-996.5"/>
<text text-anchor="middle" x="755" y="-1027.3" font-family="Times,serif" font-size="14.00">4</text>
<polyline fill="none" stroke="black" points="728,-1019.5 782,-1019.5 "/>
<text text-anchor="middle" x="755" y="-1004.3" font-family="Times,serif" font-size="14.00">VAR</text>
</g>
<!-- nd0x55c496161c90&#45;&gt;nd0x55c496161c10 -->
<g id="edge39" class="edge">
<title>nd0x55c496161c90&#45;&gt;nd0x55c496161c10</title>
<path fill="none" stroke="black" d="M755,-1079.37C755,-1071.15 755,-1061.66 755,-1052.73"/>
<polygon fill="black" stroke="black" points="758.5,-1052.61 755,-1042.61 751.5,-1052.61 758.5,-1052.61"/>
</g>
<!-- nd0x55c496161d50 -->
<g id="node43" class="node">
<title>nd0x55c496161d50</title>
<path fill="#54e3c2" stroke="black" d="M812,-996.5C812,-996.5 842,-996.5 842,-996.5 848,-996.5 854,-1002.5 854,-1008.5 854,-1008.5 854,-1030.5 854,-1030.5 854,-1036.5 848,-1042.5 842,-1042.5 842,-1042.5 812,-1042.5 812,-1042.5 806,-1042.5 800,-1036.5 800,-1030.5 800,-1030.5 800,-1008.5 800,-1008.5 800,-1002.5 806,-996.5 812,-996.5"/>
<text text-anchor="middle" x="827" y="-1027.3" font-family="Times,serif" font-size="14.00">4</text>
<polyline fill="none" stroke="black" points="800,-1019.5 854,-1019.5 "/>
<text text-anchor="middle" x="827" y="-1004.3" font-family="Times,serif" font-size="14.00">ST</text>
</g>
<!-- nd0x55c496161c90&#45;&gt;nd0x55c496161d50 -->
<g id="edge42" class="edge">
<title>nd0x55c496161c90&#45;&gt;nd0x55c496161d50</title>
<path fill="none" stroke="black" d="M774.67,-1079.37C782.69,-1070.35 792.08,-1059.79 800.67,-1050.12"/>
<polygon fill="black" stroke="black" points="803.32,-1052.41 807.35,-1042.61 798.09,-1047.76 803.32,-1052.41"/>
</g>
<!-- nd0x55c4961607f0 -->
<g id="node41" class="node">
<title>nd0x55c4961607f0</title>
<path fill="#c0c0ff" stroke="black" d="M668,-913.5C668,-913.5 698,-913.5 698,-913.5 704,-913.5 710,-919.5 710,-925.5 710,-925.5 710,-947.5 710,-947.5 710,-953.5 704,-959.5 698,-959.5 698,-959.5 668,-959.5 668,-959.5 662,-959.5 656,-953.5 656,-947.5 656,-947.5 656,-925.5 656,-925.5 656,-919.5 662,-913.5 668,-913.5"/>
<text text-anchor="middle" x="683" y="-944.3" font-family="Times,serif" font-size="14.00">2</text>
<polyline fill="none" stroke="black" points="656,-936.5 710,-936.5 "/>
<text text-anchor="middle" x="683" y="-921.3" font-family="Times,serif" font-size="14.00">x1</text>
</g>
<!-- nd0x55c496161c10&#45;&gt;nd0x55c4961607f0 -->
<g id="edge40" class="edge">
<title>nd0x55c496161c10&#45;&gt;nd0x55c4961607f0</title>
<path fill="none" stroke="black" d="M735.33,-996.37C727.31,-987.35 717.92,-976.79 709.33,-967.12"/>
<polygon fill="black" stroke="black" points="711.91,-964.76 702.65,-959.61 706.68,-969.41 711.91,-964.76"/>
</g>
<!-- nd0x55c496161c50 -->
<g id="node42" class="node">
<title>nd0x55c496161c50</title>
<path fill="#54e3c2" stroke="black" d="M740,-913.5C740,-913.5 770,-913.5 770,-913.5 776,-913.5 782,-919.5 782,-925.5 782,-925.5 782,-947.5 782,-947.5 782,-953.5 776,-959.5 770,-959.5 770,-959.5 740,-959.5 740,-959.5 734,-959.5 728,-953.5 728,-947.5 728,-947.5 728,-925.5 728,-925.5 728,-919.5 734,-913.5 740,-913.5"/>
<text text-anchor="middle" x="755" y="-944.3" font-family="Times,serif" font-size="14.00">3</text>
<polyline fill="none" stroke="black" points="728,-936.5 782,-936.5 "/>
<text text-anchor="middle" x="755" y="-921.3" font-family="Times,serif" font-size="14.00">0</text>
</g>
<!-- nd0x55c496161c10&#45;&gt;nd0x55c496161c50 -->
<g id="edge41" class="edge">
<title>nd0x55c496161c10&#45;&gt;nd0x55c496161c50</title>
<path fill="none" stroke="black" d="M755,-996.37C755,-988.15 755,-978.66 755,-969.73"/>
<polygon fill="black" stroke="black" points="758.5,-969.61 755,-959.61 751.5,-969.61 758.5,-969.61"/>
</g>
<!-- nd0x55c496161cd0 -->
<g id="node44" class="node">
<title>nd0x55c496161cd0</title>
<path fill="#ffc0ff" stroke="black" d="M812,-913.5C812,-913.5 842,-913.5 842,-913.5 848,-913.5 854,-919.5 854,-925.5 854,-925.5 854,-947.5 854,-947.5 854,-953.5 848,-959.5 842,-959.5 842,-959.5 812,-959.5 812,-959.5 806,-959.5 800,-953.5 800,-947.5 800,-947.5 800,-925.5 800,-925.5 800,-919.5 806,-913.5 812,-913.5"/>
<text text-anchor="middle" x="827" y="-944.3" font-family="Times,serif" font-size="14.00">4</text>
<polyline fill="none" stroke="black" points="800,-936.5 854,-936.5 "/>
<text text-anchor="middle" x="827" y="-921.3" font-family="Times,serif" font-size="14.00">VAR</text>
</g>
<!-- nd0x55c496161d50&#45;&gt;nd0x55c496161cd0 -->
<g id="edge43" class="edge">
<title>nd0x55c496161d50&#45;&gt;nd0x55c496161cd0</title>
<path fill="none" stroke="black" d="M827,-996.37C827,-988.15 827,-978.66 827,-969.73"/>
<polygon fill="black" stroke="black" points="830.5,-969.61 827,-959.61 823.5,-969.61 830.5,-969.61"/>
</g>
<!-- nd0x55c496161e50 -->
<g id="node47" class="node">
<title>nd0x55c496161e50</title>
<path fill="#54e3c2" stroke="black" d="M884,-913.5C884,-913.5 914,-913.5 914,-913.5 920,-913.5 926,-919.5 926,-925.5 926,-925.5 926,-947.5 926,-947.5 926,-953.5 920,-959.5 914,-959.5 914,-959.5 884,-959.5 884,-959.5 878,-959.5 872,-953.5 872,-947.5 872,-947.5 872,-925.5 872,-925.5 872,-919.5 878,-913.5 884,-913.5"/>
<text text-anchor="middle" x="899" y="-944.3" font-family="Times,serif" font-size="14.00">4</text>
<polyline fill="none" stroke="black" points="872,-936.5 926,-936.5 "/>
<text text-anchor="middle" x="899" y="-921.3" font-family="Times,serif" font-size="14.00">ST</text>
</g>
<!-- nd0x55c496161d50&#45;&gt;nd0x55c496161e50 -->
<g id="edge46" class="edge">
<title>nd0x55c496161d50&#45;&gt;nd0x55c496161e50</title>
<path fill="none" stroke="black" d="M846.67,-996.37C854.69,-987.35 864.08,-976.79 872.67,-967.12"/>
<polygon fill="black" stroke="black" points="875.32,-969.41 879.35,-959.61 870.09,-964.76 875.32,-969.41"/>
</g>
<!-- nd0x55c496160950 -->
<g id="node45" class="node">
<title>nd0x55c496160950</title>
<path fill="#c0c0ff" stroke="black" d="M740,-830.5C740,-830.5 770,-830.5 770,-830.5 776,-830.5 782,-836.5 782,-842.5 782,-842.5 782,-864.5 782,-864.5 782,-870.5 776,-876.5 770,-876.5 770,-876.5 740,-876.5 740,-876.5 734,-876.5 728,-870.5 728,-864.5 728,-864.5 728,-842.5 728,-842.5 728,-836.5 734,-830.5 740,-830.5"/>
<text text-anchor="middle" x="755" y="-861.3" font-family="Times,serif" font-size="14.00">2</text>
<polyline fill="none" stroke="black" points="728,-853.5 782,-853.5 "/>
<text text-anchor="middle" x="755" y="-838.3" font-family="Times,serif" font-size="14.00">x2</text>
</g>
<!-- nd0x55c496161cd0&#45;&gt;nd0x55c496160950 -->
<g id="edge44" class="edge">
<title>nd0x55c496161cd0&#45;&gt;nd0x55c496160950</title>
<path fill="none" stroke="black" d="M807.33,-913.37C799.31,-904.35 789.92,-893.79 781.33,-884.12"/>
<polygon fill="black" stroke="black" points="783.91,-881.76 774.65,-876.61 778.68,-886.41 783.91,-881.76"/>
</g>
<!-- nd0x55c496161d10 -->
<g id="node46" class="node">
<title>nd0x55c496161d10</title>
<path fill="#54e3c2" stroke="black" d="M812,-830.5C812,-830.5 842,-830.5 842,-830.5 848,-830.5 854,-836.5 854,-842.5 854,-842.5 854,-864.5 854,-864.5 854,-870.5 848,-876.5 842,-876.5 842,-876.5 812,-876.5 812,-876.5 806,-876.5 800,-870.5 800,-864.5 800,-864.5 800,-842.5 800,-842.5 800,-836.5 806,-830.5 812,-830.5"/>
<text text-anchor="middle" x="827" y="-861.3" font-family="Times,serif" font-size="14.00">3</text>
<polyline fill="none" stroke="black" points="800,-853.5 854,-853.5 "/>
<text text-anchor="middle" x="827" y="-838.3" font-family="Times,serif" font-size="14.00">0</text>
</g>
<!-- nd0x55c496161cd0&#45;&gt;nd0x55c496161d10 -->
<g id="edge45" class="edge">
<title>nd0x55c496161cd0&#45;&gt;nd0x55c496161d10</title>
<path fill="none" stroke="black" d="M827,-913.37C827,-905.15 827,-895.66 827,-886.73"/>
<polygon fill="black" stroke="black" points="830.5,-886.61 827,-876.61 823.5,-886.61 830.5,-886.61"/>
</g>
<!-- nd0x55c496161e10 -->
<g id="node48" class="node">
<title>nd0x55c496161e10</title>
<path fill="#ffc0c0" stroke="black" d="M884,-830.5C884,-830.5 914,-830.5 914,-830.5 920,-830.5 926,-836.5 926,-842.5 926,-842.5 926,-864.5 926,-864.5 926,-870.5 920,-876.5 914,-876.5 914,-876.5 884,-876.5 884,-876.5 878,-876.5 872,-870.5 872,-864.5 872,-864.5 872,-842.5 872,-842.5 872,-836.5 878,-830.5 884,-830.5"/>
<text text-anchor="middle" x="899" y="-861.3" font-family="Times,serif" font-size="14.00">1</text>
<polyline fill="none" stroke="black" points="872,-853.5 926,-853.5 "/>
<text text-anchor="middle" x="899" y="-838.3" font-family="Times,serif" font-size="14.00">EQ</text>
</g>
<!-- nd0x55c496161e50&#45;&gt;nd0x55c496161e10 -->
<g id="edge47" class="edge">
<title>nd0x55c496161e50&#45;&gt;nd0x55c496161e10</title>
<path fill="none" stroke="black" d="M899,-913.37C899,-905.15 899,-895.66 899,-886.73"/>
<polygon fill="black" stroke="black" points="902.5,-886.61 899,-876.61 895.5,-886.61 902.5,-886.61"/>
</g>
<!-- nd0x55c496161f90 -->
<g id="node53" class="node">
<title>nd0x55c496161f90</title>
<path fill="#54e3c2" stroke="black" d="M994,-830.5C994,-830.5 1024,-830.5 1024,-830.5 1030,-830.5 1036,-836.5 1036,-842.5 1036,-842.5 1036,-864.5 1036,-864.5 1036,-870.5 1030,-876.5 1024,-876.5 1024,-876.5 994,-876.5 994,-876.5 988,-876.5 982,-870.5 982,-864.5 982,-864.5 982,-842.5 982,-842.5 982,-836.5 988,-830.5 994,-830.5"/>
<text text-anchor="middle" x="1009" y="-861.3" font-family="Times,serif" font-size="14.00">4</text>
<polyline fill="none" stroke="black" points="982,-853.5 1036,-853.5 "/>
<text text-anchor="middle" x="1009" y="-838.3" font-family="Times,serif" font-size="14.00">ST</text>
</g>
<!-- nd0x55c496161e50&#45;&gt;nd0x55c496161f90 -->
<g id="edge52" class="edge">
<title>nd0x55c496161e50&#45;&gt;nd0x55c496161f90</title>
<path fill="none" stroke="black" d="M926.19,-915.48C940.47,-904.96 958.14,-891.95 973.49,-880.65"/>
<polygon fill="black" stroke="black" points="975.76,-883.32 981.74,-874.57 971.61,-877.68 975.76,-883.32"/>
</g>
<!-- nd0x55c496160a70 -->
<g id="node49" class="node">
<title>nd0x55c496160a70</title>
<path fill="#c0c0ff" stroke="black" d="M811,-747.5C811,-747.5 841,-747.5 841,-747.5 847,-747.5 853,-753.5 853,-759.5 853,-759.5 853,-781.5 853,-781.5 853,-787.5 847,-793.5 841,-793.5 841,-793.5 811,-793.5 811,-793.5 805,-793.5 799,-787.5 799,-781.5 799,-781.5 799,-759.5 799,-759.5 799,-753.5 805,-747.5 811,-747.5"/>
<text text-anchor="middle" x="826" y="-778.3" font-family="Times,serif" font-size="14.00">2</text>
<polyline fill="none" stroke="black" points="799,-770.5 853,-770.5 "/>
<text text-anchor="middle" x="826" y="-755.3" font-family="Times,serif" font-size="14.00">x1</text>
</g>
<!-- nd0x55c496161e10&#45;&gt;nd0x55c496160a70 -->
<g id="edge48" class="edge">
<title>nd0x55c496161e10&#45;&gt;nd0x55c496160a70</title>
<path fill="none" stroke="black" d="M879.05,-830.37C870.92,-821.35 861.41,-810.79 852.7,-801.12"/>
<polygon fill="black" stroke="black" points="855.22,-798.69 845.92,-793.61 850.02,-803.38 855.22,-798.69"/>
</g>
<!-- nd0x55c496161dd0 -->
<g id="node50" class="node">
<title>nd0x55c496161dd0</title>
<path fill="#54e3c2" stroke="black" d="M883,-747.5C883,-747.5 915,-747.5 915,-747.5 921,-747.5 927,-753.5 927,-759.5 927,-759.5 927,-781.5 927,-781.5 927,-787.5 921,-793.5 915,-793.5 915,-793.5 883,-793.5 883,-793.5 877,-793.5 871,-787.5 871,-781.5 871,-781.5 871,-759.5 871,-759.5 871,-753.5 877,-747.5 883,-747.5"/>
<text text-anchor="middle" x="899" y="-778.3" font-family="Times,serif" font-size="14.00">1</text>
<polyline fill="none" stroke="black" points="871,-770.5 927,-770.5 "/>
<text text-anchor="middle" x="899" y="-755.3" font-family="Times,serif" font-size="14.00">&#39;ADD&#39;</text>
</g>
<!-- nd0x55c496161e10&#45;&gt;nd0x55c496161dd0 -->
<g id="edge49" class="edge">
<title>nd0x55c496161e10&#45;&gt;nd0x55c496161dd0</title>
<path fill="none" stroke="black" d="M899,-830.37C899,-822.15 899,-812.66 899,-803.73"/>
<polygon fill="black" stroke="black" points="902.5,-803.61 899,-793.61 895.5,-803.61 902.5,-803.61"/>
</g>
<!-- nd0x55c496161d90 -->
<g id="node51" class="node">
<title>nd0x55c496161d90</title>
<path fill="#c0ffc0" stroke="black" d="M812,-664.5C812,-664.5 842,-664.5 842,-664.5 848,-664.5 854,-670.5 854,-676.5 854,-676.5 854,-698.5 854,-698.5 854,-704.5 848,-710.5 842,-710.5 842,-710.5 812,-710.5 812,-710.5 806,-710.5 800,-704.5 800,-698.5 800,-698.5 800,-676.5 800,-676.5 800,-670.5 806,-664.5 812,-664.5"/>
<text text-anchor="middle" x="827" y="-695.3" font-family="Times,serif" font-size="14.00">3</text>
<polyline fill="none" stroke="black" points="800,-687.5 854,-687.5 "/>
<text text-anchor="middle" x="827" y="-672.3" font-family="Times,serif" font-size="14.00">3</text>
</g>
<!-- nd0x55c496161dd0&#45;&gt;nd0x55c496161d90 -->
<g id="edge50" class="edge">
<title>nd0x55c496161dd0&#45;&gt;nd0x55c496161d90</title>
<path fill="none" stroke="black" d="M879.33,-747.37C871.31,-738.35 861.92,-727.79 853.33,-718.12"/>
<polygon fill="black" stroke="black" points="855.91,-715.76 846.65,-710.61 850.68,-720.41 855.91,-715.76"/>
</g>
<!-- nd0x55c496160b30 -->
<g id="node52" class="node">
<title>nd0x55c496160b30</title>
<path fill="#54e3c2" stroke="black" d="M884,-664.5C884,-664.5 914,-664.5 914,-664.5 920,-664.5 926,-670.5 926,-676.5 926,-676.5 926,-698.5 926,-698.5 926,-704.5 920,-710.5 914,-710.5 914,-710.5 884,-710.5 884,-710.5 878,-710.5 872,-704.5 872,-698.5 872,-698.5 872,-676.5 872,-676.5 872,-670.5 878,-664.5 884,-664.5"/>
<text text-anchor="middle" x="899" y="-695.3" font-family="Times,serif" font-size="14.00">2</text>
<polyline fill="none" stroke="black" points="872,-687.5 926,-687.5 "/>
<text text-anchor="middle" x="899" y="-672.3" font-family="Times,serif" font-size="14.00">b</text>
</g>
<!-- nd0x55c496161dd0&#45;&gt;nd0x55c496160b30 -->
<g id="edge51" class="edge">
<title>nd0x55c496161dd0&#45;&gt;nd0x55c496160b30</title>
<path fill="none" stroke="black" d="M899,-747.37C899,-739.15 899,-729.66 899,-720.73"/>
<polygon fill="black" stroke="black" points="902.5,-720.61 899,-710.61 895.5,-720.61 902.5,-720.61"/>
</g>
<!-- nd0x55c496161f50 -->
<g id="node54" class="node">
<title>nd0x55c496161f50</title>
<path fill="#ffc0c0" stroke="black" d="M994,-747.5C994,-747.5 1024,-747.5 1024,-747.5 1030,-747.5 1036,-753.5 1036,-759.5 1036,-759.5 1036,-781.5 1036,-781.5 1036,-787.5 1030,-793.5 1024,-793.5 1024,-793.5 994,-793.5 994,-793.5 988,-793.5 982,-787.5 982,-781.5 982,-781.5 982,-759.5 982,-759.5 982,-753.5 988,-747.5 994,-747.5"/>
<text text-anchor="middle" x="1009" y="-778.3" font-family="Times,serif" font-size="14.00">1</text>
<polyline fill="none" stroke="black" points="982,-770.5 1036,-770.5 "/>
<text text-anchor="middle" x="1009" y="-755.3" font-family="Times,serif" font-size="14.00">EQ</text>
</g>
<!-- nd0x55c496161f90&#45;&gt;nd0x55c496161f50 -->
<g id="edge53" class="edge">
<title>nd0x55c496161f90&#45;&gt;nd0x55c496161f50</title>
<path fill="none" stroke="black" d="M1009,-830.37C1009,-822.15 1009,-812.66 1009,-803.73"/>
<polygon fill="black" stroke="black" points="1012.5,-803.61 1009,-793.61 1005.5,-803.61 1012.5,-803.61"/>
</g>
<!-- nd0x55c4961622d0 -->
<g id="node61" class="node">
<title>nd0x55c4961622d0</title>
<path fill="#54e3c2" stroke="black" d="M1086,-747.5C1086,-747.5 1116,-747.5 1116,-747.5 1122,-747.5 1128,-753.5 1128,-759.5 1128,-759.5 1128,-781.5 1128,-781.5 1128,-787.5 1122,-793.5 1116,-793.5 1116,-793.5 1086,-793.5 1086,-793.5 1080,-793.5 1074,-787.5 1074,-781.5 1074,-781.5 1074,-759.5 1074,-759.5 1074,-753.5 1080,-747.5 1086,-747.5"/>
<text text-anchor="middle" x="1101" y="-778.3" font-family="Times,serif" font-size="14.00">4</text>
<polyline fill="none" stroke="black" points="1074,-770.5 1128,-770.5 "/>
<text text-anchor="middle" x="1101" y="-755.3" font-family="Times,serif" font-size="14.00">ST</text>
</g>
<!-- nd0x55c496161f90&#45;&gt;nd0x55c4961622d0 -->
<g id="edge60" class="edge">
<title>nd0x55c496161f90&#45;&gt;nd0x55c4961622d0</title>
<path fill="none" stroke="black" d="M1034.14,-830.37C1044.69,-821.08 1057.09,-810.16 1068.33,-800.26"/>
<polygon fill="black" stroke="black" points="1070.7,-802.84 1075.89,-793.61 1066.07,-797.59 1070.7,-802.84"/>
</g>
<!-- nd0x55c496160bf0 -->
<g id="node55" class="node">
<title>nd0x55c496160bf0</title>
<path fill="#c0c0ff" stroke="black" d="M956,-664.5C956,-664.5 986,-664.5 986,-664.5 992,-664.5 998,-670.5 998,-676.5 998,-676.5 998,-698.5 998,-698.5 998,-704.5 992,-710.5 986,-710.5 986,-710.5 956,-710.5 956,-710.5 950,-710.5 944,-704.5 944,-698.5 944,-698.5 944,-676.5 944,-676.5 944,-670.5 950,-664.5 956,-664.5"/>
<text text-anchor="middle" x="971" y="-695.3" font-family="Times,serif" font-size="14.00">2</text>
<polyline fill="none" stroke="black" points="944,-687.5 998,-687.5 "/>
<text text-anchor="middle" x="971" y="-672.3" font-family="Times,serif" font-size="14.00">x1</text>
</g>
<!-- nd0x55c496161f50&#45;&gt;nd0x55c496160bf0 -->
<g id="edge54" class="edge">
<title>nd0x55c496161f50&#45;&gt;nd0x55c496160bf0</title>
<path fill="none" stroke="black" d="M998.62,-747.37C994.64,-738.88 990.02,-729.04 985.71,-719.85"/>
<polygon fill="black" stroke="black" points="988.79,-718.17 981.37,-710.61 982.45,-721.15 988.79,-718.17"/>
</g>
<!-- nd0x55c496161f10 -->
<g id="node56" class="node">
<title>nd0x55c496161f10</title>
<path fill="#54e3c2" stroke="black" d="M1028.5,-664.5C1028.5,-664.5 1063.5,-664.5 1063.5,-664.5 1069.5,-664.5 1075.5,-670.5 1075.5,-676.5 1075.5,-676.5 1075.5,-698.5 1075.5,-698.5 1075.5,-704.5 1069.5,-710.5 1063.5,-710.5 1063.5,-710.5 1028.5,-710.5 1028.5,-710.5 1022.5,-710.5 1016.5,-704.5 1016.5,-698.5 1016.5,-698.5 1016.5,-676.5 1016.5,-676.5 1016.5,-670.5 1022.5,-664.5 1028.5,-664.5"/>
<text text-anchor="middle" x="1046" y="-695.3" font-family="Times,serif" font-size="14.00">1</text>
<polyline fill="none" stroke="black" points="1016.5,-687.5 1075.5,-687.5 "/>
<text text-anchor="middle" x="1046" y="-672.3" font-family="Times,serif" font-size="14.00">&#39;MUL&#39;</text>
</g>
<!-- nd0x55c496161f50&#45;&gt;nd0x55c496161f10 -->
<g id="edge55" class="edge">
<title>nd0x55c496161f50&#45;&gt;nd0x55c496161f10</title>
<path fill="none" stroke="black" d="M1019.11,-747.37C1022.99,-738.88 1027.48,-729.04 1031.68,-719.85"/>
<polygon fill="black" stroke="black" points="1034.93,-721.16 1035.9,-710.61 1028.56,-718.25 1034.93,-721.16"/>
</g>
<!-- nd0x55c496161ed0 -->
<g id="node57" class="node">
<title>nd0x55c496161ed0</title>
<path fill="#ffc0c0" stroke="black" d="M960,-581.5C960,-581.5 990,-581.5 990,-581.5 996,-581.5 1002,-587.5 1002,-593.5 1002,-593.5 1002,-615.5 1002,-615.5 1002,-621.5 996,-627.5 990,-627.5 990,-627.5 960,-627.5 960,-627.5 954,-627.5 948,-621.5 948,-615.5 948,-615.5 948,-593.5 948,-593.5 948,-587.5 954,-581.5 960,-581.5"/>
<text text-anchor="middle" x="975" y="-612.3" font-family="Times,serif" font-size="14.00">1</text>
<polyline fill="none" stroke="black" points="948,-604.5 1002,-604.5 "/>
<text text-anchor="middle" x="975" y="-589.3" font-family="Times,serif" font-size="14.00">DIV</text>
</g>
<!-- nd0x55c496161f10&#45;&gt;nd0x55c496161ed0 -->
<g id="edge56" class="edge">
<title>nd0x55c496161f10&#45;&gt;nd0x55c496161ed0</title>
<path fill="none" stroke="black" d="M1026.6,-664.37C1018.77,-655.44 1009.62,-645 1001.22,-635.41"/>
<polygon fill="black" stroke="black" points="1003.6,-632.82 994.38,-627.61 998.34,-637.43 1003.6,-632.82"/>
</g>
<!-- nd0x55c496160d50 -->
<g id="node60" class="node">
<title>nd0x55c496160d50</title>
<path fill="#54e3c2" stroke="black" d="M1032,-581.5C1032,-581.5 1062,-581.5 1062,-581.5 1068,-581.5 1074,-587.5 1074,-593.5 1074,-593.5 1074,-615.5 1074,-615.5 1074,-621.5 1068,-627.5 1062,-627.5 1062,-627.5 1032,-627.5 1032,-627.5 1026,-627.5 1020,-621.5 1020,-615.5 1020,-615.5 1020,-593.5 1020,-593.5 1020,-587.5 1026,-581.5 1032,-581.5"/>
<text text-anchor="middle" x="1047" y="-612.3" font-family="Times,serif" font-size="14.00">2</text>
<polyline fill="none" stroke="black" points="1020,-604.5 1074,-604.5 "/>
<text text-anchor="middle" x="1047" y="-589.3" font-family="Times,serif" font-size="14.00">a</text>
</g>
<!-- nd0x55c496161f10&#45;&gt;nd0x55c496160d50 -->
<g id="edge59" class="edge">
<title>nd0x55c496161f10&#45;&gt;nd0x55c496160d50</title>
<path fill="none" stroke="black" d="M1046.27,-664.37C1046.37,-656.15 1046.49,-646.66 1046.6,-637.73"/>
<polygon fill="black" stroke="black" points="1050.1,-637.65 1046.73,-627.61 1043.1,-637.56 1050.1,-637.65"/>
</g>
<!-- nd0x55c496160c30 -->
<g id="node58" class="node">
<title>nd0x55c496160c30</title>
<path fill="#c0c0ff" stroke="black" d="M924,-498.5C924,-498.5 954,-498.5 954,-498.5 960,-498.5 966,-504.5 966,-510.5 966,-510.5 966,-532.5 966,-532.5 966,-538.5 960,-544.5 954,-544.5 954,-544.5 924,-544.5 924,-544.5 918,-544.5 912,-538.5 912,-532.5 912,-532.5 912,-510.5 912,-510.5 912,-504.5 918,-498.5 924,-498.5"/>
<text text-anchor="middle" x="939" y="-529.3" font-family="Times,serif" font-size="14.00">2</text>
<polyline fill="none" stroke="black" points="912,-521.5 966,-521.5 "/>
<text text-anchor="middle" x="939" y="-506.3" font-family="Times,serif" font-size="14.00">x1</text>
</g>
<!-- nd0x55c496161ed0&#45;&gt;nd0x55c496160c30 -->
<g id="edge57" class="edge">
<title>nd0x55c496161ed0&#45;&gt;nd0x55c496160c30</title>
<path fill="none" stroke="black" d="M965.16,-581.37C961.39,-572.88 957.02,-563.04 952.93,-553.85"/>
<polygon fill="black" stroke="black" points="956.09,-552.32 948.83,-544.61 949.69,-555.17 956.09,-552.32"/>
</g>
<!-- nd0x55c496161e90 -->
<g id="node59" class="node">
<title>nd0x55c496161e90</title>
<path fill="#54e3c2" stroke="black" d="M996,-498.5C996,-498.5 1026,-498.5 1026,-498.5 1032,-498.5 1038,-504.5 1038,-510.5 1038,-510.5 1038,-532.5 1038,-532.5 1038,-538.5 1032,-544.5 1026,-544.5 1026,-544.5 996,-544.5 996,-544.5 990,-544.5 984,-538.5 984,-532.5 984,-532.5 984,-510.5 984,-510.5 984,-504.5 990,-498.5 996,-498.5"/>
<text text-anchor="middle" x="1011" y="-529.3" font-family="Times,serif" font-size="14.00">3</text>
<polyline fill="none" stroke="black" points="984,-521.5 1038,-521.5 "/>
<text text-anchor="middle" x="1011" y="-506.3" font-family="Times,serif" font-size="14.00">2</text>
</g>
<!-- nd0x55c496161ed0&#45;&gt;nd0x55c496161e90 -->
<g id="edge58" class="edge">
<title>nd0x55c496161ed0&#45;&gt;nd0x55c496161e90</title>
<path fill="none" stroke="black" d="M984.84,-581.37C988.61,-572.88 992.98,-563.04 997.07,-553.85"/>
<polygon fill="black" stroke="black" points="1000.31,-555.17 1001.17,-544.61 993.91,-552.32 1000.31,-555.17"/>
</g>
<!-- nd0x55c496161fd0 -->
<g id="node62" class="node">
<title>nd0x55c496161fd0</title>
<path fill="#ffc0ff" stroke="black" d="M1106,-664.5C1106,-664.5 1136,-664.5 1136,-664.5 1142,-664.5 1148,-670.5 1148,-676.5 1148,-676.5 1148,-698.5 1148,-698.5 1148,-704.5 1142,-710.5 1136,-710.5 1136,-710.5 1106,-710.5 1106,-710.5 1100,-710.5 1094,-704.5 1094,-698.5 1094,-698.5 1094,-676.5 1094,-676.5 1094,-670.5 1100,-664.5 1106,-664.5"/>
<text text-anchor="middle" x="1121" y="-695.3" font-family="Times,serif" font-size="14.00">4</text>
<polyline fill="none" stroke="black" points="1094,-687.5 1148,-687.5 "/>
<text text-anchor="middle" x="1121" y="-672.3" font-family="Times,serif" font-size="14.00">IF</text>
</g>
<!-- nd0x55c4961622d0&#45;&gt;nd0x55c496161fd0 -->
<g id="edge61" class="edge">
<title>nd0x55c4961622d0&#45;&gt;nd0x55c496161fd0</title>
<path fill="none" stroke="black" d="M1106.47,-747.37C1108.52,-739.06 1110.89,-729.45 1113.12,-720.43"/>
<polygon fill="black" stroke="black" points="1116.54,-721.15 1115.54,-710.61 1109.75,-719.48 1116.54,-721.15"/>
</g>
<!-- nd0x55c496160eb0 -->
<g id="node63" class="node">
<title>nd0x55c496160eb0</title>
<path fill="#c0c0ff" stroke="black" d="M1105,-581.5C1105,-581.5 1135,-581.5 1135,-581.5 1141,-581.5 1147,-587.5 1147,-593.5 1147,-593.5 1147,-615.5 1147,-615.5 1147,-621.5 1141,-627.5 1135,-627.5 1135,-627.5 1105,-627.5 1105,-627.5 1099,-627.5 1093,-621.5 1093,-615.5 1093,-615.5 1093,-593.5 1093,-593.5 1093,-587.5 1099,-581.5 1105,-581.5"/>
<text text-anchor="middle" x="1120" y="-612.3" font-family="Times,serif" font-size="14.00">2</text>
<polyline fill="none" stroke="black" points="1093,-604.5 1147,-604.5 "/>
<text text-anchor="middle" x="1120" y="-589.3" font-family="Times,serif" font-size="14.00">a</text>
</g>
<!-- nd0x55c496161fd0&#45;&gt;nd0x55c496160eb0 -->
<g id="edge62" class="edge">
<title>nd0x55c496161fd0&#45;&gt;nd0x55c496160eb0</title>
<path fill="none" stroke="black" d="M1120.73,-664.37C1120.63,-656.15 1120.51,-646.66 1120.4,-637.73"/>
<polygon fill="black" stroke="black" points="1123.9,-637.56 1120.27,-627.61 1116.9,-637.65 1123.9,-637.56"/>
</g>
<!-- nd0x55c496162050 -->
<g id="node64" class="node">
<title>nd0x55c496162050</title>
<path fill="#54e3c2" stroke="black" d="M1177,-581.5C1177,-581.5 1209,-581.5 1209,-581.5 1215,-581.5 1221,-587.5 1221,-593.5 1221,-593.5 1221,-615.5 1221,-615.5 1221,-621.5 1215,-627.5 1209,-627.5 1209,-627.5 1177,-627.5 1177,-627.5 1171,-627.5 1165,-621.5 1165,-615.5 1165,-615.5 1165,-593.5 1165,-593.5 1165,-587.5 1171,-581.5 1177,-581.5"/>
<text text-anchor="middle" x="1193" y="-612.3" font-family="Times,serif" font-size="14.00">4</text>
<polyline fill="none" stroke="black" points="1165,-604.5 1221,-604.5 "/>
<text text-anchor="middle" x="1193" y="-589.3" font-family="Times,serif" font-size="14.00">ELSE</text>
</g>
<!-- nd0x55c496161fd0&#45;&gt;nd0x55c496162050 -->
<g id="edge63" class="edge">
<title>nd0x55c496161fd0&#45;&gt;nd0x55c496162050</title>
<path fill="none" stroke="black" d="M1140.67,-664.37C1148.69,-655.35 1158.08,-644.79 1166.67,-635.12"/>
<polygon fill="black" stroke="black" points="1169.32,-637.41 1173.35,-627.61 1164.09,-632.76 1169.32,-637.41"/>
</g>
<!-- nd0x55c496162010 -->
<g id="node65" class="node">
<title>nd0x55c496162010</title>
<path fill="#ffc0ff" stroke="black" d="M1142,-498.5C1142,-498.5 1172,-498.5 1172,-498.5 1178,-498.5 1184,-504.5 1184,-510.5 1184,-510.5 1184,-532.5 1184,-532.5 1184,-538.5 1178,-544.5 1172,-544.5 1172,-544.5 1142,-544.5 1142,-544.5 1136,-544.5 1130,-538.5 1130,-532.5 1130,-532.5 1130,-510.5 1130,-510.5 1130,-504.5 1136,-498.5 1142,-498.5"/>
<text text-anchor="middle" x="1157" y="-529.3" font-family="Times,serif" font-size="14.00">4</text>
<polyline fill="none" stroke="black" points="1130,-521.5 1184,-521.5 "/>
<text text-anchor="middle" x="1157" y="-506.3" font-family="Times,serif" font-size="14.00">ST</text>
</g>
<!-- nd0x55c496162050&#45;&gt;nd0x55c496162010 -->
<g id="edge64" class="edge">
<title>nd0x55c496162050&#45;&gt;nd0x55c496162010</title>
<path fill="none" stroke="black" d="M1183.16,-581.37C1179.39,-572.88 1175.02,-563.04 1170.93,-553.85"/>
<polygon fill="black" stroke="black" points="1174.09,-552.32 1166.83,-544.61 1167.69,-555.17 1174.09,-552.32"/>
</g>
<!-- nd0x55c496162290 -->
<g id="node66" class="node">
<title>nd0x55c496162290</title>
<path fill="#54e3c2" stroke="black" d="M1214,-498.5C1214,-498.5 1244,-498.5 1244,-498.5 1250,-498.5 1256,-504.5 1256,-510.5 1256,-510.5 1256,-532.5 1256,-532.5 1256,-538.5 1250,-544.5 1244,-544.5 1244,-544.5 1214,-544.5 1214,-544.5 1208,-544.5 1202,-538.5 1202,-532.5 1202,-532.5 1202,-510.5 1202,-510.5 1202,-504.5 1208,-498.5 1214,-498.5"/>
<text text-anchor="middle" x="1229" y="-529.3" font-family="Times,serif" font-size="14.00">4</text>
<polyline fill="none" stroke="black" points="1202,-521.5 1256,-521.5 "/>
<text text-anchor="middle" x="1229" y="-506.3" font-family="Times,serif" font-size="14.00">ST</text>
</g>
<!-- nd0x55c496162050&#45;&gt;nd0x55c496162290 -->
<g id="edge65" class="edge">
<title>nd0x55c496162050&#45;&gt;nd0x55c496162290</title>
<path fill="none" stroke="black" d="M1202.84,-581.37C1206.61,-572.88 1210.98,-563.04 1215.07,-553.85"/>
<polygon fill="black" stroke="black" points="1218.31,-555.17 1219.17,-544.61 1211.91,-552.32 1218.31,-555.17"/>
</g>
<!-- nd0x55c496162090 -->
<g id="node67" class="node">
<title>nd0x55c496162090</title>
<path fill="#ffc0ff" stroke="black" d="M1214,-415.5C1214,-415.5 1244,-415.5 1244,-415.5 1250,-415.5 1256,-421.5 1256,-427.5 1256,-427.5 1256,-449.5 1256,-449.5 1256,-455.5 1250,-461.5 1244,-461.5 1244,-461.5 1214,-461.5 1214,-461.5 1208,-461.5 1202,-455.5 1202,-449.5 1202,-449.5 1202,-427.5 1202,-427.5 1202,-421.5 1208,-415.5 1214,-415.5"/>
<text text-anchor="middle" x="1229" y="-446.3" font-family="Times,serif" font-size="14.00">4</text>
<polyline fill="none" stroke="black" points="1202,-438.5 1256,-438.5 "/>
<text text-anchor="middle" x="1229" y="-423.3" font-family="Times,serif" font-size="14.00">IF</text>
</g>
<!-- nd0x55c496162290&#45;&gt;nd0x55c496162090 -->
<g id="edge66" class="edge">
<title>nd0x55c496162290&#45;&gt;nd0x55c496162090</title>
<path fill="none" stroke="black" d="M1229,-498.37C1229,-490.15 1229,-480.66 1229,-471.73"/>
<polygon fill="black" stroke="black" points="1232.5,-471.61 1229,-461.61 1225.5,-471.61 1232.5,-471.61"/>
</g>
<!-- nd0x55c4961610d0 -->
<g id="node68" class="node">
<title>nd0x55c4961610d0</title>
<path fill="#c0c0ff" stroke="black" d="M1178,-332.5C1178,-332.5 1208,-332.5 1208,-332.5 1214,-332.5 1220,-338.5 1220,-344.5 1220,-344.5 1220,-366.5 1220,-366.5 1220,-372.5 1214,-378.5 1208,-378.5 1208,-378.5 1178,-378.5 1178,-378.5 1172,-378.5 1166,-372.5 1166,-366.5 1166,-366.5 1166,-344.5 1166,-344.5 1166,-338.5 1172,-332.5 1178,-332.5"/>
<text text-anchor="middle" x="1193" y="-363.3" font-family="Times,serif" font-size="14.00">2</text>
<polyline fill="none" stroke="black" points="1166,-355.5 1220,-355.5 "/>
<text text-anchor="middle" x="1193" y="-340.3" font-family="Times,serif" font-size="14.00">b</text>
</g>
<!-- nd0x55c496162090&#45;&gt;nd0x55c4961610d0 -->
<g id="edge67" class="edge">
<title>nd0x55c496162090&#45;&gt;nd0x55c4961610d0</title>
<path fill="none" stroke="black" d="M1219.16,-415.37C1215.39,-406.88 1211.02,-397.04 1206.93,-387.85"/>
<polygon fill="black" stroke="black" points="1210.09,-386.32 1202.83,-378.61 1203.69,-389.17 1210.09,-386.32"/>
</g>
<!-- nd0x55c496162110 -->
<g id="node69" class="node">
<title>nd0x55c496162110</title>
<path fill="#54e3c2" stroke="black" d="M1250,-332.5C1250,-332.5 1282,-332.5 1282,-332.5 1288,-332.5 1294,-338.5 1294,-344.5 1294,-344.5 1294,-366.5 1294,-366.5 1294,-372.5 1288,-378.5 1282,-378.5 1282,-378.5 1250,-378.5 1250,-378.5 1244,-378.5 1238,-372.5 1238,-366.5 1238,-366.5 1238,-344.5 1238,-344.5 1238,-338.5 1244,-332.5 1250,-332.5"/>
<text text-anchor="middle" x="1266" y="-363.3" font-family="Times,serif" font-size="14.00">4</text>
<polyline fill="none" stroke="black" points="1238,-355.5 1294,-355.5 "/>
<text text-anchor="middle" x="1266" y="-340.3" font-family="Times,serif" font-size="14.00">ELSE</text>
</g>
<!-- nd0x55c496162090&#45;&gt;nd0x55c496162110 -->
<g id="edge68" class="edge">
<title>nd0x55c496162090&#45;&gt;nd0x55c496162110</title>
<path fill="none" stroke="black" d="M1239.11,-415.37C1242.99,-406.88 1247.48,-397.04 1251.68,-387.85"/>
<polygon fill="black" stroke="black" points="1254.93,-389.16 1255.9,-378.61 1248.56,-386.25 1254.93,-389.16"/>
</g>
<!-- nd0x55c4961620d0 -->
<g id="node70" class="node">
<title>nd0x55c4961620d0</title>
<path fill="#ffc0ff" stroke="black" d="M1215,-249.5C1215,-249.5 1245,-249.5 1245,-249.5 1251,-249.5 1257,-255.5 1257,-261.5 1257,-261.5 1257,-283.5 1257,-283.5 1257,-289.5 1251,-295.5 1245,-295.5 1245,-295.5 1215,-295.5 1215,-295.5 1209,-295.5 1203,-289.5 1203,-283.5 1203,-283.5 1203,-261.5 1203,-261.5 1203,-255.5 1209,-249.5 1215,-249.5"/>
<text text-anchor="middle" x="1230" y="-280.3" font-family="Times,serif" font-size="14.00">4</text>
<polyline fill="none" stroke="black" points="1203,-272.5 1257,-272.5 "/>
<text text-anchor="middle" x="1230" y="-257.3" font-family="Times,serif" font-size="14.00">ST</text>
</g>
<!-- nd0x55c496162110&#45;&gt;nd0x55c4961620d0 -->
<g id="edge69" class="edge">
<title>nd0x55c496162110&#45;&gt;nd0x55c4961620d0</title>
<path fill="none" stroke="black" d="M1256.16,-332.37C1252.39,-323.88 1248.02,-314.04 1243.93,-304.85"/>
<polygon fill="black" stroke="black" points="1247.09,-303.32 1239.83,-295.61 1240.69,-306.17 1247.09,-303.32"/>
</g>
<!-- nd0x55c496162250 -->
<g id="node71" class="node">
<title>nd0x55c496162250</title>
<path fill="#54e3c2" stroke="black" d="M1287,-249.5C1287,-249.5 1317,-249.5 1317,-249.5 1323,-249.5 1329,-255.5 1329,-261.5 1329,-261.5 1329,-283.5 1329,-283.5 1329,-289.5 1323,-295.5 1317,-295.5 1317,-295.5 1287,-295.5 1287,-295.5 1281,-295.5 1275,-289.5 1275,-283.5 1275,-283.5 1275,-261.5 1275,-261.5 1275,-255.5 1281,-249.5 1287,-249.5"/>
<text text-anchor="middle" x="1302" y="-280.3" font-family="Times,serif" font-size="14.00">4</text>
<polyline fill="none" stroke="black" points="1275,-272.5 1329,-272.5 "/>
<text text-anchor="middle" x="1302" y="-257.3" font-family="Times,serif" font-size="14.00">ST</text>
</g>
<!-- nd0x55c496162110&#45;&gt;nd0x55c496162250 -->
<g id="edge70" class="edge">
<title>nd0x55c496162110&#45;&gt;nd0x55c496162250</title>
<path fill="none" stroke="black" d="M1275.84,-332.37C1279.61,-323.88 1283.98,-314.04 1288.07,-304.85"/>
<polygon fill="black" stroke="black" points="1291.31,-306.17 1292.17,-295.61 1284.91,-303.32 1291.31,-306.17"/>
</g>
<!-- nd0x55c496162150 -->
<g id="node72" class="node">
<title>nd0x55c496162150</title>
<path fill="#ffc0ff" stroke="black" d="M1287,-166.5C1287,-166.5 1317,-166.5 1317,-166.5 1323,-166.5 1329,-172.5 1329,-178.5 1329,-178.5 1329,-200.5 1329,-200.5 1329,-206.5 1323,-212.5 1317,-212.5 1317,-212.5 1287,-212.5 1287,-212.5 1281,-212.5 1275,-206.5 1275,-200.5 1275,-200.5 1275,-178.5 1275,-178.5 1275,-172.5 1281,-166.5 1287,-166.5"/>
<text text-anchor="middle" x="1302" y="-197.3" font-family="Times,serif" font-size="14.00">4</text>
<polyline fill="none" stroke="black" points="1275,-189.5 1329,-189.5 "/>
<text text-anchor="middle" x="1302" y="-174.3" font-family="Times,serif" font-size="14.00">IF</text>
</g>
<!-- nd0x55c496162250&#45;&gt;nd0x55c496162150 -->
<g id="edge71" class="edge">
<title>nd0x55c496162250&#45;&gt;nd0x55c496162150</title>
<path fill="none" stroke="black" d="M1302,-249.37C1302,-241.15 1302,-231.66 1302,-222.73"/>
<polygon fill="black" stroke="black" points="1305.5,-222.61 1302,-212.61 1298.5,-222.61 1305.5,-222.61"/>
</g>
<!-- nd0x55c4961612d0 -->
<g id="node73" class="node">
<title>nd0x55c4961612d0</title>
<path fill="#c0c0ff" stroke="black" d="M1251,-83.5C1251,-83.5 1281,-83.5 1281,-83.5 1287,-83.5 1293,-89.5 1293,-95.5 1293,-95.5 1293,-117.5 1293,-117.5 1293,-123.5 1287,-129.5 1281,-129.5 1281,-129.5 1251,-129.5 1251,-129.5 1245,-129.5 1239,-123.5 1239,-117.5 1239,-117.5 1239,-95.5 1239,-95.5 1239,-89.5 1245,-83.5 1251,-83.5"/>
<text text-anchor="middle" x="1266" y="-114.3" font-family="Times,serif" font-size="14.00">2</text>
<polyline fill="none" stroke="black" points="1239,-106.5 1293,-106.5 "/>
<text text-anchor="middle" x="1266" y="-91.3" font-family="Times,serif" font-size="14.00">c</text>
</g>
<!-- nd0x55c496162150&#45;&gt;nd0x55c4961612d0 -->
<g id="edge72" class="edge">
<title>nd0x55c496162150&#45;&gt;nd0x55c4961612d0</title>
<path fill="none" stroke="black" d="M1292.16,-166.37C1288.39,-157.88 1284.02,-148.04 1279.93,-138.85"/>
<polygon fill="black" stroke="black" points="1283.09,-137.32 1275.83,-129.61 1276.69,-140.17 1283.09,-137.32"/>
</g>
<!-- nd0x55c4961621d0 -->
<g id="node74" class="node">
<title>nd0x55c4961621d0</title>
<path fill="#54e3c2" stroke="black" d="M1323,-83.5C1323,-83.5 1355,-83.5 1355,-83.5 1361,-83.5 1367,-89.5 1367,-95.5 1367,-95.5 1367,-117.5 1367,-117.5 1367,-123.5 1361,-129.5 1355,-129.5 1355,-129.5 1323,-129.5 1323,-129.5 1317,-129.5 1311,-123.5 1311,-117.5 1311,-117.5 1311,-95.5 1311,-95.5 1311,-89.5 1317,-83.5 1323,-83.5"/>
<text text-anchor="middle" x="1339" y="-114.3" font-family="Times,serif" font-size="14.00">4</text>
<polyline fill="none" stroke="black" points="1311,-106.5 1367,-106.5 "/>
<text text-anchor="middle" x="1339" y="-91.3" font-family="Times,serif" font-size="14.00">ELSE</text>
</g>
<!-- nd0x55c496162150&#45;&gt;nd0x55c4961621d0 -->
<g id="edge73" class="edge">
<title>nd0x55c496162150&#45;&gt;nd0x55c4961621d0</title>
<path fill="none" stroke="black" d="M1312.11,-166.37C1315.99,-157.88 1320.48,-148.04 1324.68,-138.85"/>
<polygon fill="black" stroke="black" points="1327.93,-140.16 1328.9,-129.61 1321.56,-137.25 1327.93,-140.16"/>
</g>
<!-- nd0x55c496162190 -->
<g id="node75" class="node">
<title>nd0x55c496162190</title>
<path fill="#ffc0ff" stroke="black" d="M1288,-0.5C1288,-0.5 1318,-0.5 1318,-0.5 1324,-0.5 1330,-6.5 1330,-12.5 1330,-12.5 1330,-34.5 1330,-34.5 1330,-40.5 1324,-46.5 1318,-46.5 1318,-46.5 1288,-46.5 1288,-46.5 1282,-46.5 1276,-40.5 1276,-34.5 1276,-34.5 1276,-12.5 1276,-12.5 1276,-6.5 1282,-0.5 1288,-0.5"/>
<text text-anchor="middle" x="1303" y="-31.3" font-family="Times,serif" font-size="14.00">4</text>
<polyline fill="none" stroke="black" points="1276,-23.5 1330,-23.5 "/>
<text text-anchor="middle" x="1303" y="-8.3" font-family="Times,serif" font-size="14.00">ST</text>
</g>
<!-- nd0x55c4961621d0&#45;&gt;nd0x55c496162190 -->
<g id="edge74" class="edge">
<title>nd0x55c4961621d0&#45;&gt;nd0x55c496162190</title>
<path fill="none" stroke="black" d="M1329.16,-83.37C1325.39,-74.88 1321.02,-65.04 1316.93,-55.85"/>
<polygon fill="black" stroke="black" points="1320.09,-54.32 1312.83,-46.61 1313.69,-57.17 1320.09,-54.32"/>
</g>
<!-- nd0x55c496162210 -->
<g id="node76" class="node">
<title>nd0x55c496162210</title>
<path fill="#54e3c2" stroke="black" d="M1360,-0.5C1360,-0.5 1390,-0.5 1390,-0.5 1396,-0.5 1402,-6.5 1402,-12.5 1402,-12.5 1402,-34.5 1402,-34.5 1402,-40.5 1396,-46.5 1390,-46.5 1390,-46.5 1360,-46.5 1360,-46.5 1354,-46.5 1348,-40.5 1348,-34.5 1348,-34.5 1348,-12.5 1348,-12.5 1348,-6.5 1354,-0.5 1360,-0.5"/>
<text text-anchor="middle" x="1375" y="-31.3" font-family="Times,serif" font-size="14.00">4</text>
<polyline fill="none" stroke="black" points="1348,-23.5 1402,-23.5 "/>
<text text-anchor="middle" x="1375" y="-8.3" font-family="Times,serif" font-size="14.00">ST</text>
</g>
<!-- nd0x55c4961621d0&#45;&gt;nd0x55c496162210 -->
<g id="edge75" class="edge">
<title>nd0x55c4961621d0&#45;&gt;nd0x55c496162210</title>
<path fill="none" stroke="black" d="M1348.84,-83.37C1352.61,-74.88 1356.98,-65.04 1361.07,-55.85"/>
<polygon fill="black" stroke="black" points="1364.31,-57.17 1365.17,-46.61 1357.91,-54.32 1364.31,-57.17"/>
</g>
</g>
</svg>
