<?xml version="1.0" encoding="UTF-8" standalone="no"?>
<!DOCTYPE svg PUBLIC "-//W3C//DTD SVG 1.1//EN"
 "http://www.w3.org/Graphics/SVG/1.1/DTD/svg11.dtd">
<!-- Generated by graphviz version 7.1.0 (20230121.1956)
 -->
<!-- Title: MyGraph Pages: 1 -->
<svg width="917pt" height="1051pt"
 viewBox="0.00 0.00 917.00 1051.00" xmlns="http://www.w3.org/2000/svg" xmlns:xlink="http://www.w3.org/1999/xlink">
<g id="graph0" class="graph" transform="scale(1 1) rotate(0) translate(4 1047)">
<title>MyGraph</title>
<polygon fill="white" stroke="none" points="-4,4 -4,-1047 913,-1047 913,4 -4,4"/>
<!-- nd0x600002cf19c0 -->
<g id="node1" class="node">
<title>nd0x600002cf19c0</title>
<path fill="#54e3c2" stroke="black" d="M282,-996.5C282,-996.5 312,-996.5 312,-996.5 318,-996.5 324,-1002.5 324,-1008.5 324,-1008.5 324,-1030.5 324,-1030.5 324,-1036.5 318,-1042.5 312,-1042.5 312,-1042.5 282,-1042.5 282,-1042.5 276,-1042.5 270,-1036.5 270,-1030.5 270,-1030.5 270,-1008.5 270,-1008.5 270,-1002.5 276,-996.5 282,-996.5"/>
<text text-anchor="middle" x="297" y="-1027.3" font-family="Times,serif" font-size="14.00">4</text>
<polyline fill="none" stroke="black" points="270,-1019.5 324,-1019.5"/>
<text text-anchor="middle" x="297" y="-1004.3" font-family="Times,serif" font-size="14.00">ST</text>
</g>
<!-- nd0x600002cf14c0 -->
<g id="node2" class="node">
<title>nd0x600002cf14c0</title>
<path fill="#c0ffff" stroke="black" d="M246,-913.5C246,-913.5 276,-913.5 276,-913.5 282,-913.5 288,-919.5 288,-925.5 288,-925.5 288,-947.5 288,-947.5 288,-953.5 282,-959.5 276,-959.5 276,-959.5 246,-959.5 246,-959.5 240,-959.5 234,-953.5 234,-947.5 234,-947.5 234,-925.5 234,-925.5 234,-919.5 240,-913.5 246,-913.5"/>
<text text-anchor="middle" x="261" y="-944.3" font-family="Times,serif" font-size="14.00">5</text>
<polyline fill="none" stroke="black" points="234,-936.5 288,-936.5"/>
<text text-anchor="middle" x="261" y="-921.3" font-family="Times,serif" font-size="14.00">FUNC</text>
</g>
<!-- nd0x600002cf19c0&#45;&gt;nd0x600002cf14c0 -->
<g id="edge1" class="edge">
<title>nd0x600002cf19c0&#45;&gt;nd0x600002cf14c0</title>
<path fill="none" stroke="black" d="M287.35,-996.79C283.64,-988.44 279.32,-978.72 275.26,-969.59"/>
<polygon fill="black" stroke="black" points="278.55,-968.37 271.29,-960.65 272.15,-971.21 278.55,-968.37"/>
</g>
<!-- nd0x600002cf1dc0 -->
<g id="node31" class="node">
<title>nd0x600002cf1dc0</title>
<path fill="#54e3c2" stroke="black" d="M354,-913.5C354,-913.5 384,-913.5 384,-913.5 390,-913.5 396,-919.5 396,-925.5 396,-925.5 396,-947.5 396,-947.5 396,-953.5 390,-959.5 384,-959.5 384,-959.5 354,-959.5 354,-959.5 348,-959.5 342,-953.5 342,-947.5 342,-947.5 342,-925.5 342,-925.5 342,-919.5 348,-913.5 354,-913.5"/>
<text text-anchor="middle" x="369" y="-944.3" font-family="Times,serif" font-size="14.00">4</text>
<polyline fill="none" stroke="black" points="342,-936.5 396,-936.5"/>
<text text-anchor="middle" x="369" y="-921.3" font-family="Times,serif" font-size="14.00">ST</text>
</g>
<!-- nd0x600002cf19c0&#45;&gt;nd0x600002cf1dc0 -->
<g id="edge30" class="edge">
<title>nd0x600002cf19c0&#45;&gt;nd0x600002cf1dc0</title>
<path fill="none" stroke="black" d="M316.29,-996.79C324.2,-987.9 333.5,-977.44 342.06,-967.81"/>
<polygon fill="black" stroke="black" points="344.62,-970.2 348.65,-960.4 339.39,-965.55 344.62,-970.2"/>
</g>
<!-- nd0x600002cf0300 -->
<g id="node3" class="node">
<title>nd0x600002cf0300</title>
<path fill="#c0ffff" stroke="black" d="M165,-830.5C165,-830.5 203,-830.5 203,-830.5 209,-830.5 215,-836.5 215,-842.5 215,-842.5 215,-864.5 215,-864.5 215,-870.5 209,-876.5 203,-876.5 203,-876.5 165,-876.5 165,-876.5 159,-876.5 153,-870.5 153,-864.5 153,-864.5 153,-842.5 153,-842.5 153,-836.5 159,-830.5 165,-830.5"/>
<text text-anchor="middle" x="184" y="-861.3" font-family="Times,serif" font-size="14.00">5</text>
<polyline fill="none" stroke="black" points="153,-853.5 215,-853.5"/>
<text text-anchor="middle" x="184" y="-838.3" font-family="Times,serif" font-size="14.00">faktorial</text>
</g>
<!-- nd0x600002cf14c0&#45;&gt;nd0x600002cf0300 -->
<g id="edge2" class="edge">
<title>nd0x600002cf14c0&#45;&gt;nd0x600002cf0300</title>
<path fill="none" stroke="black" d="M240.37,-913.79C231.82,-904.8 221.77,-894.23 212.53,-884.52"/>
<polygon fill="black" stroke="black" points="215.16,-882.2 205.73,-877.36 210.09,-887.02 215.16,-882.2"/>
</g>
<!-- nd0x600002cf1900 -->
<g id="node7" class="node">
<title>nd0x600002cf1900</title>
<path fill="#54e3c2" stroke="black" d="M246,-830.5C246,-830.5 276,-830.5 276,-830.5 282,-830.5 288,-836.5 288,-842.5 288,-842.5 288,-864.5 288,-864.5 288,-870.5 282,-876.5 276,-876.5 276,-876.5 246,-876.5 246,-876.5 240,-876.5 234,-870.5 234,-864.5 234,-864.5 234,-842.5 234,-842.5 234,-836.5 240,-830.5 246,-830.5"/>
<text text-anchor="middle" x="261" y="-861.3" font-family="Times,serif" font-size="14.00">4</text>
<polyline fill="none" stroke="black" points="234,-853.5 288,-853.5"/>
<text text-anchor="middle" x="261" y="-838.3" font-family="Times,serif" font-size="14.00">ST</text>
</g>
<!-- nd0x600002cf14c0&#45;&gt;nd0x600002cf1900 -->
<g id="edge6" class="edge">
<title>nd0x600002cf14c0&#45;&gt;nd0x600002cf1900</title>
<path fill="none" stroke="black" d="M261,-913.79C261,-905.71 261,-896.35 261,-887.48"/>
<polygon fill="black" stroke="black" points="264.5,-887.78 261,-877.78 257.5,-887.78 264.5,-887.78"/>
</g>
<!-- nd0x600002cf1540 -->
<g id="node4" class="node">
<title>nd0x600002cf1540</title>
<path fill="#ffc0ff" stroke="black" d="M111.5,-747.5C111.5,-747.5 152.5,-747.5 152.5,-747.5 158.5,-747.5 164.5,-753.5 164.5,-759.5 164.5,-759.5 164.5,-781.5 164.5,-781.5 164.5,-787.5 158.5,-793.5 152.5,-793.5 152.5,-793.5 111.5,-793.5 111.5,-793.5 105.5,-793.5 99.5,-787.5 99.5,-781.5 99.5,-781.5 99.5,-759.5 99.5,-759.5 99.5,-753.5 105.5,-747.5 111.5,-747.5"/>
<text text-anchor="middle" x="132" y="-778.3" font-family="Times,serif" font-size="14.00">4</text>
<polyline fill="none" stroke="black" points="99.5,-770.5 164.5,-770.5"/>
<text text-anchor="middle" x="132" y="-755.3" font-family="Times,serif" font-size="14.00">PARAM</text>
</g>
<!-- nd0x600002cf0300&#45;&gt;nd0x600002cf1540 -->
<g id="edge3" class="edge">
<title>nd0x600002cf0300&#45;&gt;nd0x600002cf1540</title>
<path fill="none" stroke="black" d="M170.06,-830.79C164.53,-822.17 158.05,-812.08 152.03,-802.7"/>
<polygon fill="black" stroke="black" points="155.14,-801.06 146.79,-794.54 149.25,-804.85 155.14,-801.06"/>
</g>
<!-- nd0x600002cf1500 -->
<g id="node5" class="node">
<title>nd0x600002cf1500</title>
<path fill="#ffc0ff" stroke="black" d="M48,-664.5C48,-664.5 78,-664.5 78,-664.5 84,-664.5 90,-670.5 90,-676.5 90,-676.5 90,-698.5 90,-698.5 90,-704.5 84,-710.5 78,-710.5 78,-710.5 48,-710.5 48,-710.5 42,-710.5 36,-704.5 36,-698.5 36,-698.5 36,-676.5 36,-676.5 36,-670.5 42,-664.5 48,-664.5"/>
<text text-anchor="middle" x="63" y="-695.3" font-family="Times,serif" font-size="14.00">4</text>
<polyline fill="none" stroke="black" points="36,-687.5 90,-687.5"/>
<text text-anchor="middle" x="63" y="-672.3" font-family="Times,serif" font-size="14.00">VAR</text>
</g>
<!-- nd0x600002cf1540&#45;&gt;nd0x600002cf1500 -->
<g id="edge4" class="edge">
<title>nd0x600002cf1540&#45;&gt;nd0x600002cf1500</title>
<path fill="none" stroke="black" d="M113.51,-747.79C105.93,-738.9 97.03,-728.44 88.82,-718.81"/>
<polygon fill="black" stroke="black" points="91.67,-716.76 82.52,-711.42 86.34,-721.3 91.67,-716.76"/>
</g>
<!-- nd0x600002cf0380 -->
<g id="node6" class="node">
<title>nd0x600002cf0380</title>
<path fill="#c0c0ff" stroke="black" d="M12,-581.5C12,-581.5 42,-581.5 42,-581.5 48,-581.5 54,-587.5 54,-593.5 54,-593.5 54,-615.5 54,-615.5 54,-621.5 48,-627.5 42,-627.5 42,-627.5 12,-627.5 12,-627.5 6,-627.5 0,-621.5 0,-615.5 0,-615.5 0,-593.5 0,-593.5 0,-587.5 6,-581.5 12,-581.5"/>
<text text-anchor="middle" x="27" y="-612.3" font-family="Times,serif" font-size="14.00">2</text>
<polyline fill="none" stroke="black" points="0,-604.5 54,-604.5"/>
<text text-anchor="middle" x="27" y="-589.3" font-family="Times,serif" font-size="14.00">x</text>
</g>
<!-- nd0x600002cf1500&#45;&gt;nd0x600002cf0380 -->
<g id="edge5" class="edge">
<title>nd0x600002cf1500&#45;&gt;nd0x600002cf0380</title>
<path fill="none" stroke="black" d="M53.35,-664.79C49.64,-656.44 45.32,-646.72 41.26,-637.59"/>
<polygon fill="black" stroke="black" points="44.55,-636.37 37.29,-628.65 38.15,-639.21 44.55,-636.37"/>
</g>
<!-- nd0x600002cf1580 -->
<g id="node8" class="node">
<title>nd0x600002cf1580</title>
<path fill="#ffc0ff" stroke="black" d="M228,-747.5C228,-747.5 258,-747.5 258,-747.5 264,-747.5 270,-753.5 270,-759.5 270,-759.5 270,-781.5 270,-781.5 270,-787.5 264,-793.5 258,-793.5 258,-793.5 228,-793.5 228,-793.5 222,-793.5 216,-787.5 216,-781.5 216,-781.5 216,-759.5 216,-759.5 216,-753.5 222,-747.5 228,-747.5"/>
<text text-anchor="middle" x="243" y="-778.3" font-family="Times,serif" font-size="14.00">4</text>
<polyline fill="none" stroke="black" points="216,-770.5 270,-770.5"/>
<text text-anchor="middle" x="243" y="-755.3" font-family="Times,serif" font-size="14.00">IF</text>
</g>
<!-- nd0x600002cf1900&#45;&gt;nd0x600002cf1580 -->
<g id="edge7" class="edge">
<title>nd0x600002cf1900&#45;&gt;nd0x600002cf1580</title>
<path fill="none" stroke="black" d="M256.18,-830.79C254.38,-822.71 252.3,-813.35 250.33,-804.48"/>
<polygon fill="black" stroke="black" points="253.75,-803.75 248.17,-794.74 246.92,-805.27 253.75,-803.75"/>
</g>
<!-- nd0x600002cf1980 -->
<g id="node28" class="node">
<title>nd0x600002cf1980</title>
<path fill="#54e3c2" stroke="black" d="M300,-747.5C300,-747.5 330,-747.5 330,-747.5 336,-747.5 342,-753.5 342,-759.5 342,-759.5 342,-781.5 342,-781.5 342,-787.5 336,-793.5 330,-793.5 330,-793.5 300,-793.5 300,-793.5 294,-793.5 288,-787.5 288,-781.5 288,-781.5 288,-759.5 288,-759.5 288,-753.5 294,-747.5 300,-747.5"/>
<text text-anchor="middle" x="315" y="-778.3" font-family="Times,serif" font-size="14.00">4</text>
<polyline fill="none" stroke="black" points="288,-770.5 342,-770.5"/>
<text text-anchor="middle" x="315" y="-755.3" font-family="Times,serif" font-size="14.00">ST</text>
</g>
<!-- nd0x600002cf1900&#45;&gt;nd0x600002cf1980 -->
<g id="edge27" class="edge">
<title>nd0x600002cf1900&#45;&gt;nd0x600002cf1980</title>
<path fill="none" stroke="black" d="M275.47,-830.79C281.22,-822.17 287.95,-812.08 294.2,-802.7"/>
<polygon fill="black" stroke="black" points="297.01,-804.79 299.65,-794.53 291.19,-800.9 297.01,-804.79"/>
</g>
<!-- nd0x600002cf1600 -->
<g id="node9" class="node">
<title>nd0x600002cf1600</title>
<path fill="#ffc0c0" stroke="black" d="M156,-664.5C156,-664.5 186,-664.5 186,-664.5 192,-664.5 198,-670.5 198,-676.5 198,-676.5 198,-698.5 198,-698.5 198,-704.5 192,-710.5 186,-710.5 186,-710.5 156,-710.5 156,-710.5 150,-710.5 144,-704.5 144,-698.5 144,-698.5 144,-676.5 144,-676.5 144,-670.5 150,-664.5 156,-664.5"/>
<text text-anchor="middle" x="171" y="-695.3" font-family="Times,serif" font-size="14.00">1</text>
<polyline fill="none" stroke="black" points="144,-687.5 198,-687.5"/>
<text text-anchor="middle" x="171" y="-672.3" font-family="Times,serif" font-size="14.00">&lt;</text>
</g>
<!-- nd0x600002cf1580&#45;&gt;nd0x600002cf1600 -->
<g id="edge8" class="edge">
<title>nd0x600002cf1580&#45;&gt;nd0x600002cf1600</title>
<path fill="none" stroke="black" d="M223.71,-747.79C215.8,-738.9 206.5,-728.44 197.94,-718.81"/>
<polygon fill="black" stroke="black" points="200.61,-716.55 191.35,-711.4 195.38,-721.2 200.61,-716.55"/>
</g>
<!-- nd0x600002cf1800 -->
<g id="node12" class="node">
<title>nd0x600002cf1800</title>
<path fill="#54e3c2" stroke="black" d="M228,-664.5C228,-664.5 258,-664.5 258,-664.5 264,-664.5 270,-670.5 270,-676.5 270,-676.5 270,-698.5 270,-698.5 270,-704.5 264,-710.5 258,-710.5 258,-710.5 228,-710.5 228,-710.5 222,-710.5 216,-704.5 216,-698.5 216,-698.5 216,-676.5 216,-676.5 216,-670.5 222,-664.5 228,-664.5"/>
<text text-anchor="middle" x="243" y="-695.3" font-family="Times,serif" font-size="14.00">4</text>
<polyline fill="none" stroke="black" points="216,-687.5 270,-687.5"/>
<text text-anchor="middle" x="243" y="-672.3" font-family="Times,serif" font-size="14.00">ELSE</text>
</g>
<!-- nd0x600002cf1580&#45;&gt;nd0x600002cf1800 -->
<g id="edge11" class="edge">
<title>nd0x600002cf1580&#45;&gt;nd0x600002cf1800</title>
<path fill="none" stroke="black" d="M243,-747.79C243,-739.71 243,-730.35 243,-721.48"/>
<polygon fill="black" stroke="black" points="246.5,-721.78 243,-711.78 239.5,-721.78 246.5,-721.78"/>
</g>
<!-- nd0x600002cf04c0 -->
<g id="node10" class="node">
<title>nd0x600002cf04c0</title>
<path fill="#c0c0ff" stroke="black" d="M84,-581.5C84,-581.5 114,-581.5 114,-581.5 120,-581.5 126,-587.5 126,-593.5 126,-593.5 126,-615.5 126,-615.5 126,-621.5 120,-627.5 114,-627.5 114,-627.5 84,-627.5 84,-627.5 78,-627.5 72,-621.5 72,-615.5 72,-615.5 72,-593.5 72,-593.5 72,-587.5 78,-581.5 84,-581.5"/>
<text text-anchor="middle" x="99" y="-612.3" font-family="Times,serif" font-size="14.00">2</text>
<polyline fill="none" stroke="black" points="72,-604.5 126,-604.5"/>
<text text-anchor="middle" x="99" y="-589.3" font-family="Times,serif" font-size="14.00">x</text>
</g>
<!-- nd0x600002cf1600&#45;&gt;nd0x600002cf04c0 -->
<g id="edge9" class="edge">
<title>nd0x600002cf1600&#45;&gt;nd0x600002cf04c0</title>
<path fill="none" stroke="black" d="M151.71,-664.79C143.8,-655.9 134.5,-645.44 125.94,-635.81"/>
<polygon fill="black" stroke="black" points="128.61,-633.55 119.35,-628.4 123.38,-638.2 128.61,-633.55"/>
</g>
<!-- nd0x600002cf15c0 -->
<g id="node11" class="node">
<title>nd0x600002cf15c0</title>
<path fill="#54e3c2" stroke="black" d="M156,-581.5C156,-581.5 186,-581.5 186,-581.5 192,-581.5 198,-587.5 198,-593.5 198,-593.5 198,-615.5 198,-615.5 198,-621.5 192,-627.5 186,-627.5 186,-627.5 156,-627.5 156,-627.5 150,-627.5 144,-621.5 144,-615.5 144,-615.5 144,-593.5 144,-593.5 144,-587.5 150,-581.5 156,-581.5"/>
<text text-anchor="middle" x="171" y="-612.3" font-family="Times,serif" font-size="14.00">3</text>
<polyline fill="none" stroke="black" points="144,-604.5 198,-604.5"/>
<text text-anchor="middle" x="171" y="-589.3" font-family="Times,serif" font-size="14.00">1</text>
</g>
<!-- nd0x600002cf1600&#45;&gt;nd0x600002cf15c0 -->
<g id="edge10" class="edge">
<title>nd0x600002cf1600&#45;&gt;nd0x600002cf15c0</title>
<path fill="none" stroke="black" d="M171,-664.79C171,-656.71 171,-647.35 171,-638.48"/>
<polygon fill="black" stroke="black" points="174.5,-638.78 171,-628.78 167.5,-638.78 174.5,-638.78"/>
</g>
<!-- nd0x600002cf17c0 -->
<g id="node13" class="node">
<title>nd0x600002cf17c0</title>
<path fill="#ffc0ff" stroke="black" d="M228,-581.5C228,-581.5 258,-581.5 258,-581.5 264,-581.5 270,-587.5 270,-593.5 270,-593.5 270,-615.5 270,-615.5 270,-621.5 264,-627.5 258,-627.5 258,-627.5 228,-627.5 228,-627.5 222,-627.5 216,-621.5 216,-615.5 216,-615.5 216,-593.5 216,-593.5 216,-587.5 222,-581.5 228,-581.5"/>
<text text-anchor="middle" x="243" y="-612.3" font-family="Times,serif" font-size="14.00">4</text>
<polyline fill="none" stroke="black" points="216,-604.5 270,-604.5"/>
<text text-anchor="middle" x="243" y="-589.3" font-family="Times,serif" font-size="14.00">ST</text>
</g>
<!-- nd0x600002cf1800&#45;&gt;nd0x600002cf17c0 -->
<g id="edge12" class="edge">
<title>nd0x600002cf1800&#45;&gt;nd0x600002cf17c0</title>
<path fill="none" stroke="black" d="M243,-664.79C243,-656.71 243,-647.35 243,-638.48"/>
<polygon fill="black" stroke="black" points="246.5,-638.78 243,-628.78 239.5,-638.78 246.5,-638.78"/>
</g>
<!-- nd0x600002cf18c0 -->
<g id="node24" class="node">
<title>nd0x600002cf18c0</title>
<path fill="#54e3c2" stroke="black" d="M300,-581.5C300,-581.5 330,-581.5 330,-581.5 336,-581.5 342,-587.5 342,-593.5 342,-593.5 342,-615.5 342,-615.5 342,-621.5 336,-627.5 330,-627.5 330,-627.5 300,-627.5 300,-627.5 294,-627.5 288,-621.5 288,-615.5 288,-615.5 288,-593.5 288,-593.5 288,-587.5 294,-581.5 300,-581.5"/>
<text text-anchor="middle" x="315" y="-612.3" font-family="Times,serif" font-size="14.00">4</text>
<polyline fill="none" stroke="black" points="288,-604.5 342,-604.5"/>
<text text-anchor="middle" x="315" y="-589.3" font-family="Times,serif" font-size="14.00">ST</text>
</g>
<!-- nd0x600002cf1800&#45;&gt;nd0x600002cf18c0 -->
<g id="edge23" class="edge">
<title>nd0x600002cf1800&#45;&gt;nd0x600002cf18c0</title>
<path fill="none" stroke="black" d="M262.29,-664.79C270.2,-655.9 279.5,-645.44 288.06,-635.81"/>
<polygon fill="black" stroke="black" points="290.62,-638.2 294.65,-628.4 285.39,-633.55 290.62,-638.2"/>
</g>
<!-- nd0x600002cf1780 -->
<g id="node14" class="node">
<title>nd0x600002cf1780</title>
<path fill="#ffc0c0" stroke="black" d="M228,-498.5C228,-498.5 258,-498.5 258,-498.5 264,-498.5 270,-504.5 270,-510.5 270,-510.5 270,-532.5 270,-532.5 270,-538.5 264,-544.5 258,-544.5 258,-544.5 228,-544.5 228,-544.5 222,-544.5 216,-538.5 216,-532.5 216,-532.5 216,-510.5 216,-510.5 216,-504.5 222,-498.5 228,-498.5"/>
<text text-anchor="middle" x="243" y="-529.3" font-family="Times,serif" font-size="14.00">1</text>
<polyline fill="none" stroke="black" points="216,-521.5 270,-521.5"/>
<text text-anchor="middle" x="243" y="-506.3" font-family="Times,serif" font-size="14.00">;</text>
</g>
<!-- nd0x600002cf17c0&#45;&gt;nd0x600002cf1780 -->
<g id="edge13" class="edge">
<title>nd0x600002cf17c0&#45;&gt;nd0x600002cf1780</title>
<path fill="none" stroke="black" d="M243,-581.79C243,-573.71 243,-564.35 243,-555.48"/>
<polygon fill="black" stroke="black" points="246.5,-555.78 243,-545.78 239.5,-555.78 246.5,-555.78"/>
</g>
<!-- nd0x600002cf0600 -->
<g id="node15" class="node">
<title>nd0x600002cf0600</title>
<path fill="#c0c0ff" stroke="black" d="M156,-415.5C156,-415.5 186,-415.5 186,-415.5 192,-415.5 198,-421.5 198,-427.5 198,-427.5 198,-449.5 198,-449.5 198,-455.5 192,-461.5 186,-461.5 186,-461.5 156,-461.5 156,-461.5 150,-461.5 144,-455.5 144,-449.5 144,-449.5 144,-427.5 144,-427.5 144,-421.5 150,-415.5 156,-415.5"/>
<text text-anchor="middle" x="171" y="-446.3" font-family="Times,serif" font-size="14.00">2</text>
<polyline fill="none" stroke="black" points="144,-438.5 198,-438.5"/>
<text text-anchor="middle" x="171" y="-423.3" font-family="Times,serif" font-size="14.00">x</text>
</g>
<!-- nd0x600002cf1780&#45;&gt;nd0x600002cf0600 -->
<g id="edge14" class="edge">
<title>nd0x600002cf1780&#45;&gt;nd0x600002cf0600</title>
<path fill="none" stroke="black" d="M223.71,-498.79C215.8,-489.9 206.5,-479.44 197.94,-469.81"/>
<polygon fill="black" stroke="black" points="200.61,-467.55 191.35,-462.4 195.38,-472.2 200.61,-467.55"/>
</g>
<!-- nd0x600002cf1740 -->
<g id="node16" class="node">
<title>nd0x600002cf1740</title>
<path fill="#54e3c2" stroke="black" d="M228,-415.5C228,-415.5 258,-415.5 258,-415.5 264,-415.5 270,-421.5 270,-427.5 270,-427.5 270,-449.5 270,-449.5 270,-455.5 264,-461.5 258,-461.5 258,-461.5 228,-461.5 228,-461.5 222,-461.5 216,-455.5 216,-449.5 216,-449.5 216,-427.5 216,-427.5 216,-421.5 222,-415.5 228,-415.5"/>
<text text-anchor="middle" x="243" y="-446.3" font-family="Times,serif" font-size="14.00">1</text>
<polyline fill="none" stroke="black" points="216,-438.5 270,-438.5"/>
<text text-anchor="middle" x="243" y="-423.3" font-family="Times,serif" font-size="14.00">&#39;Ø&#39;</text>
</g>
<!-- nd0x600002cf1780&#45;&gt;nd0x600002cf1740 -->
<g id="edge15" class="edge">
<title>nd0x600002cf1780&#45;&gt;nd0x600002cf1740</title>
<path fill="none" stroke="black" d="M243,-498.79C243,-490.71 243,-481.35 243,-472.48"/>
<polygon fill="black" stroke="black" points="246.5,-472.78 243,-462.78 239.5,-472.78 246.5,-472.78"/>
</g>
<!-- nd0x600002cf0640 -->
<g id="node17" class="node">
<title>nd0x600002cf0640</title>
<path fill="#c0c0ff" stroke="black" d="M192,-332.5C192,-332.5 222,-332.5 222,-332.5 228,-332.5 234,-338.5 234,-344.5 234,-344.5 234,-366.5 234,-366.5 234,-372.5 228,-378.5 222,-378.5 222,-378.5 192,-378.5 192,-378.5 186,-378.5 180,-372.5 180,-366.5 180,-366.5 180,-344.5 180,-344.5 180,-338.5 186,-332.5 192,-332.5"/>
<text text-anchor="middle" x="207" y="-363.3" font-family="Times,serif" font-size="14.00">2</text>
<polyline fill="none" stroke="black" points="180,-355.5 234,-355.5"/>
<text text-anchor="middle" x="207" y="-340.3" font-family="Times,serif" font-size="14.00">x</text>
</g>
<!-- nd0x600002cf1740&#45;&gt;nd0x600002cf0640 -->
<g id="edge16" class="edge">
<title>nd0x600002cf1740&#45;&gt;nd0x600002cf0640</title>
<path fill="none" stroke="black" d="M233.35,-415.79C229.64,-407.44 225.32,-397.72 221.26,-388.59"/>
<polygon fill="black" stroke="black" points="224.55,-387.37 217.29,-379.65 218.15,-390.21 224.55,-387.37"/>
</g>
<!-- nd0x600002cf1640 -->
<g id="node18" class="node">
<title>nd0x600002cf1640</title>
<path fill="#54e3c2" stroke="black" d="M264,-332.5C264,-332.5 294,-332.5 294,-332.5 300,-332.5 306,-338.5 306,-344.5 306,-344.5 306,-366.5 306,-366.5 306,-372.5 300,-378.5 294,-378.5 294,-378.5 264,-378.5 264,-378.5 258,-378.5 252,-372.5 252,-366.5 252,-366.5 252,-344.5 252,-344.5 252,-338.5 258,-332.5 264,-332.5"/>
<text text-anchor="middle" x="279" y="-363.3" font-family="Times,serif" font-size="14.00">5</text>
<polyline fill="none" stroke="black" points="252,-355.5 306,-355.5"/>
<text text-anchor="middle" x="279" y="-340.3" font-family="Times,serif" font-size="14.00">CALL</text>
</g>
<!-- nd0x600002cf1740&#45;&gt;nd0x600002cf1640 -->
<g id="edge17" class="edge">
<title>nd0x600002cf1740&#45;&gt;nd0x600002cf1640</title>
<path fill="none" stroke="black" d="M252.65,-415.79C256.36,-407.44 260.68,-397.72 264.74,-388.59"/>
<polygon fill="black" stroke="black" points="267.85,-390.21 268.71,-379.65 261.45,-387.37 267.85,-390.21"/>
</g>
<!-- nd0x600002cf06c0 -->
<g id="node19" class="node">
<title>nd0x600002cf06c0</title>
<path fill="#c0ffff" stroke="black" d="M260,-249.5C260,-249.5 298,-249.5 298,-249.5 304,-249.5 310,-255.5 310,-261.5 310,-261.5 310,-283.5 310,-283.5 310,-289.5 304,-295.5 298,-295.5 298,-295.5 260,-295.5 260,-295.5 254,-295.5 248,-289.5 248,-283.5 248,-283.5 248,-261.5 248,-261.5 248,-255.5 254,-249.5 260,-249.5"/>
<text text-anchor="middle" x="279" y="-280.3" font-family="Times,serif" font-size="14.00">5</text>
<polyline fill="none" stroke="black" points="248,-272.5 310,-272.5"/>
<text text-anchor="middle" x="279" y="-257.3" font-family="Times,serif" font-size="14.00">faktorial</text>
</g>
<!-- nd0x600002cf1640&#45;&gt;nd0x600002cf06c0 -->
<g id="edge18" class="edge">
<title>nd0x600002cf1640&#45;&gt;nd0x600002cf06c0</title>
<path fill="none" stroke="black" d="M279,-332.79C279,-324.71 279,-315.35 279,-306.48"/>
<polygon fill="black" stroke="black" points="282.5,-306.78 279,-296.78 275.5,-306.78 282.5,-306.78"/>
</g>
<!-- nd0x600002cf1700 -->
<g id="node20" class="node">
<title>nd0x600002cf1700</title>
<path fill="#ffc0ff" stroke="black" d="M258.5,-166.5C258.5,-166.5 299.5,-166.5 299.5,-166.5 305.5,-166.5 311.5,-172.5 311.5,-178.5 311.5,-178.5 311.5,-200.5 311.5,-200.5 311.5,-206.5 305.5,-212.5 299.5,-212.5 299.5,-212.5 258.5,-212.5 258.5,-212.5 252.5,-212.5 246.5,-206.5 246.5,-200.5 246.5,-200.5 246.5,-178.5 246.5,-178.5 246.5,-172.5 252.5,-166.5 258.5,-166.5"/>
<text text-anchor="middle" x="279" y="-197.3" font-family="Times,serif" font-size="14.00">4</text>
<polyline fill="none" stroke="black" points="246.5,-189.5 311.5,-189.5"/>
<text text-anchor="middle" x="279" y="-174.3" font-family="Times,serif" font-size="14.00">PARAM</text>
</g>
<!-- nd0x600002cf06c0&#45;&gt;nd0x600002cf1700 -->
<g id="edge19" class="edge">
<title>nd0x600002cf06c0&#45;&gt;nd0x600002cf1700</title>
<path fill="none" stroke="black" d="M279,-249.79C279,-241.71 279,-232.35 279,-223.48"/>
<polygon fill="black" stroke="black" points="282.5,-223.78 279,-213.78 275.5,-223.78 282.5,-223.78"/>
</g>
<!-- nd0x600002cf16c0 -->
<g id="node21" class="node">
<title>nd0x600002cf16c0</title>
<path fill="#ffc0c0" stroke="black" d="M264,-83.5C264,-83.5 294,-83.5 294,-83.5 300,-83.5 306,-89.5 306,-95.5 306,-95.5 306,-117.5 306,-117.5 306,-123.5 300,-129.5 294,-129.5 294,-129.5 264,-129.5 264,-129.5 258,-129.5 252,-123.5 252,-117.5 252,-117.5 252,-95.5 252,-95.5 252,-89.5 258,-83.5 264,-83.5"/>
<text text-anchor="middle" x="279" y="-114.3" font-family="Times,serif" font-size="14.00">1</text>
<polyline fill="none" stroke="black" points="252,-106.5 306,-106.5"/>
<text text-anchor="middle" x="279" y="-91.3" font-family="Times,serif" font-size="14.00">ADD</text>
</g>
<!-- nd0x600002cf1700&#45;&gt;nd0x600002cf16c0 -->
<g id="edge20" class="edge">
<title>nd0x600002cf1700&#45;&gt;nd0x600002cf16c0</title>
<path fill="none" stroke="black" d="M279,-166.79C279,-158.71 279,-149.35 279,-140.48"/>
<polygon fill="black" stroke="black" points="282.5,-140.78 279,-130.78 275.5,-140.78 282.5,-140.78"/>
</g>
<!-- nd0x600002cf0740 -->
<g id="node22" class="node">
<title>nd0x600002cf0740</title>
<path fill="#c0c0ff" stroke="black" d="M228,-0.5C228,-0.5 258,-0.5 258,-0.5 264,-0.5 270,-6.5 270,-12.5 270,-12.5 270,-34.5 270,-34.5 270,-40.5 264,-46.5 258,-46.5 258,-46.5 228,-46.5 228,-46.5 222,-46.5 216,-40.5 216,-34.5 216,-34.5 216,-12.5 216,-12.5 216,-6.5 222,-0.5 228,-0.5"/>
<text text-anchor="middle" x="243" y="-31.3" font-family="Times,serif" font-size="14.00">2</text>
<polyline fill="none" stroke="black" points="216,-23.5 270,-23.5"/>
<text text-anchor="middle" x="243" y="-8.3" font-family="Times,serif" font-size="14.00">x</text>
</g>
<!-- nd0x600002cf16c0&#45;&gt;nd0x600002cf0740 -->
<g id="edge21" class="edge">
<title>nd0x600002cf16c0&#45;&gt;nd0x600002cf0740</title>
<path fill="none" stroke="black" d="M269.35,-83.79C265.64,-75.44 261.32,-65.72 257.26,-56.59"/>
<polygon fill="black" stroke="black" points="260.55,-55.37 253.29,-47.65 254.15,-58.21 260.55,-55.37"/>
</g>
<!-- nd0x600002cf1680 -->
<g id="node23" class="node">
<title>nd0x600002cf1680</title>
<path fill="#54e3c2" stroke="black" d="M300,-0.5C300,-0.5 330,-0.5 330,-0.5 336,-0.5 342,-6.5 342,-12.5 342,-12.5 342,-34.5 342,-34.5 342,-40.5 336,-46.5 330,-46.5 330,-46.5 300,-46.5 300,-46.5 294,-46.5 288,-40.5 288,-34.5 288,-34.5 288,-12.5 288,-12.5 288,-6.5 294,-0.5 300,-0.5"/>
<text text-anchor="middle" x="315" y="-31.3" font-family="Times,serif" font-size="14.00">3</text>
<polyline fill="none" stroke="black" points="288,-23.5 342,-23.5"/>
<text text-anchor="middle" x="315" y="-8.3" font-family="Times,serif" font-size="14.00">1</text>
</g>
<!-- nd0x600002cf16c0&#45;&gt;nd0x600002cf1680 -->
<g id="edge22" class="edge">
<title>nd0x600002cf16c0&#45;&gt;nd0x600002cf1680</title>
<path fill="none" stroke="black" d="M288.65,-83.79C292.36,-75.44 296.68,-65.72 300.74,-56.59"/>
<polygon fill="black" stroke="black" points="303.85,-58.21 304.71,-47.65 297.45,-55.37 303.85,-58.21"/>
</g>
<!-- nd0x600002cf1880 -->
<g id="node25" class="node">
<title>nd0x600002cf1880</title>
<path fill="#ffc0c0" stroke="black" d="M300,-498.5C300,-498.5 330,-498.5 330,-498.5 336,-498.5 342,-504.5 342,-510.5 342,-510.5 342,-532.5 342,-532.5 342,-538.5 336,-544.5 330,-544.5 330,-544.5 300,-544.5 300,-544.5 294,-544.5 288,-538.5 288,-532.5 288,-532.5 288,-510.5 288,-510.5 288,-504.5 294,-498.5 300,-498.5"/>
<text text-anchor="middle" x="315" y="-529.3" font-family="Times,serif" font-size="14.00">1</text>
<polyline fill="none" stroke="black" points="288,-521.5 342,-521.5"/>
<text text-anchor="middle" x="315" y="-506.3" font-family="Times,serif" font-size="14.00">;</text>
</g>
<!-- nd0x600002cf18c0&#45;&gt;nd0x600002cf1880 -->
<g id="edge24" class="edge">
<title>nd0x600002cf18c0&#45;&gt;nd0x600002cf1880</title>
<path fill="none" stroke="black" d="M315,-581.79C315,-573.71 315,-564.35 315,-555.48"/>
<polygon fill="black" stroke="black" points="318.5,-555.78 315,-545.78 311.5,-555.78 318.5,-555.78"/>
</g>
<!-- nd0x600002cf0980 -->
<g id="node26" class="node">
<title>nd0x600002cf0980</title>
<path fill="#c0c0ff" stroke="black" d="M300,-415.5C300,-415.5 330,-415.5 330,-415.5 336,-415.5 342,-421.5 342,-427.5 342,-427.5 342,-449.5 342,-449.5 342,-455.5 336,-461.5 330,-461.5 330,-461.5 300,-461.5 300,-461.5 294,-461.5 288,-455.5 288,-449.5 288,-449.5 288,-427.5 288,-427.5 288,-421.5 294,-415.5 300,-415.5"/>
<text text-anchor="middle" x="315" y="-446.3" font-family="Times,serif" font-size="14.00">2</text>
<polyline fill="none" stroke="black" points="288,-438.5 342,-438.5"/>
<text text-anchor="middle" x="315" y="-423.3" font-family="Times,serif" font-size="14.00">x</text>
</g>
<!-- nd0x600002cf1880&#45;&gt;nd0x600002cf0980 -->
<g id="edge25" class="edge">
<title>nd0x600002cf1880&#45;&gt;nd0x600002cf0980</title>
<path fill="none" stroke="black" d="M315,-498.79C315,-490.71 315,-481.35 315,-472.48"/>
<polygon fill="black" stroke="black" points="318.5,-472.78 315,-462.78 311.5,-472.78 318.5,-472.78"/>
</g>
<!-- nd0x600002cf1840 -->
<g id="node27" class="node">
<title>nd0x600002cf1840</title>
<path fill="#54e3c2" stroke="black" d="M372,-415.5C372,-415.5 402,-415.5 402,-415.5 408,-415.5 414,-421.5 414,-427.5 414,-427.5 414,-449.5 414,-449.5 414,-455.5 408,-461.5 402,-461.5 402,-461.5 372,-461.5 372,-461.5 366,-461.5 360,-455.5 360,-449.5 360,-449.5 360,-427.5 360,-427.5 360,-421.5 366,-415.5 372,-415.5"/>
<text text-anchor="middle" x="387" y="-446.3" font-family="Times,serif" font-size="14.00">3</text>
<polyline fill="none" stroke="black" points="360,-438.5 414,-438.5"/>
<text text-anchor="middle" x="387" y="-423.3" font-family="Times,serif" font-size="14.00">1</text>
</g>
<!-- nd0x600002cf1880&#45;&gt;nd0x600002cf1840 -->
<g id="edge26" class="edge">
<title>nd0x600002cf1880&#45;&gt;nd0x600002cf1840</title>
<path fill="none" stroke="black" d="M334.29,-498.79C342.2,-489.9 351.5,-479.44 360.06,-469.81"/>
<polygon fill="black" stroke="black" points="362.62,-472.2 366.65,-462.4 357.39,-467.55 362.62,-472.2"/>
</g>
<!-- nd0x600002cf1940 -->
<g id="node29" class="node">
<title>nd0x600002cf1940</title>
<path fill="#ffc0ff" stroke="black" d="M336,-664.5C336,-664.5 366,-664.5 366,-664.5 372,-664.5 378,-670.5 378,-676.5 378,-676.5 378,-698.5 378,-698.5 378,-704.5 372,-710.5 366,-710.5 366,-710.5 336,-710.5 336,-710.5 330,-710.5 324,-704.5 324,-698.5 324,-698.5 324,-676.5 324,-676.5 324,-670.5 330,-664.5 336,-664.5"/>
<text text-anchor="middle" x="351" y="-695.3" font-family="Times,serif" font-size="14.00">4</text>
<polyline fill="none" stroke="black" points="324,-687.5 378,-687.5"/>
<text text-anchor="middle" x="351" y="-672.3" font-family="Times,serif" font-size="14.00">RET</text>
</g>
<!-- nd0x600002cf1980&#45;&gt;nd0x600002cf1940 -->
<g id="edge28" class="edge">
<title>nd0x600002cf1980&#45;&gt;nd0x600002cf1940</title>
<path fill="none" stroke="black" d="M324.65,-747.79C328.36,-739.44 332.68,-729.72 336.74,-720.59"/>
<polygon fill="black" stroke="black" points="339.85,-722.21 340.71,-711.65 333.45,-719.37 339.85,-722.21"/>
</g>
<!-- nd0x600002cf0b00 -->
<g id="node30" class="node">
<title>nd0x600002cf0b00</title>
<path fill="#c0c0ff" stroke="black" d="M372,-581.5C372,-581.5 402,-581.5 402,-581.5 408,-581.5 414,-587.5 414,-593.5 414,-593.5 414,-615.5 414,-615.5 414,-621.5 408,-627.5 402,-627.5 402,-627.5 372,-627.5 372,-627.5 366,-627.5 360,-621.5 360,-615.5 360,-615.5 360,-593.5 360,-593.5 360,-587.5 366,-581.5 372,-581.5"/>
<text text-anchor="middle" x="387" y="-612.3" font-family="Times,serif" font-size="14.00">2</text>
<polyline fill="none" stroke="black" points="360,-604.5 414,-604.5"/>
<text text-anchor="middle" x="387" y="-589.3" font-family="Times,serif" font-size="14.00">x</text>
</g>
<!-- nd0x600002cf1940&#45;&gt;nd0x600002cf0b00 -->
<g id="edge29" class="edge">
<title>nd0x600002cf1940&#45;&gt;nd0x600002cf0b00</title>
<path fill="none" stroke="black" d="M360.65,-664.79C364.36,-656.44 368.68,-646.72 372.74,-637.59"/>
<polygon fill="black" stroke="black" points="375.85,-639.21 376.71,-628.65 369.45,-636.37 375.85,-639.21"/>
</g>
<!-- nd0x600002cf1a00 -->
<g id="node32" class="node">
<title>nd0x600002cf1a00</title>
<path fill="#c0ffff" stroke="black" d="M372,-830.5C372,-830.5 402,-830.5 402,-830.5 408,-830.5 414,-836.5 414,-842.5 414,-842.5 414,-864.5 414,-864.5 414,-870.5 408,-876.5 402,-876.5 402,-876.5 372,-876.5 372,-876.5 366,-876.5 360,-870.5 360,-864.5 360,-864.5 360,-842.5 360,-842.5 360,-836.5 366,-830.5 372,-830.5"/>
<text text-anchor="middle" x="387" y="-861.3" font-family="Times,serif" font-size="14.00">5</text>
<polyline fill="none" stroke="black" points="360,-853.5 414,-853.5"/>
<text text-anchor="middle" x="387" y="-838.3" font-family="Times,serif" font-size="14.00">FUNC</text>
</g>
<!-- nd0x600002cf1dc0&#45;&gt;nd0x600002cf1a00 -->
<g id="edge31" class="edge">
<title>nd0x600002cf1dc0&#45;&gt;nd0x600002cf1a00</title>
<path fill="none" stroke="black" d="M373.82,-913.79C375.62,-905.71 377.7,-896.35 379.67,-887.48"/>
<polygon fill="black" stroke="black" points="383.08,-888.27 381.83,-877.74 376.25,-886.75 383.08,-888.27"/>
</g>
<!-- nd0x600002cf0c80 -->
<g id="node33" class="node">
<title>nd0x600002cf0c80</title>
<path fill="#c0ffff" stroke="black" d="M372,-747.5C372,-747.5 402,-747.5 402,-747.5 408,-747.5 414,-753.5 414,-759.5 414,-759.5 414,-781.5 414,-781.5 414,-787.5 408,-793.5 402,-793.5 402,-793.5 372,-793.5 372,-793.5 366,-793.5 360,-787.5 360,-781.5 360,-781.5 360,-759.5 360,-759.5 360,-753.5 366,-747.5 372,-747.5"/>
<text text-anchor="middle" x="387" y="-778.3" font-family="Times,serif" font-size="14.00">5</text>
<polyline fill="none" stroke="black" points="360,-770.5 414,-770.5"/>
<text text-anchor="middle" x="387" y="-755.3" font-family="Times,serif" font-size="14.00">main</text>
</g>
<!-- nd0x600002cf1a00&#45;&gt;nd0x600002cf0c80 -->
<g id="edge32" class="edge">
<title>nd0x600002cf1a00&#45;&gt;nd0x600002cf0c80</title>
<path fill="none" stroke="black" d="M387,-830.79C387,-822.71 387,-813.35 387,-804.48"/>
<polygon fill="black" stroke="black" points="390.5,-804.78 387,-794.78 383.5,-804.78 390.5,-804.78"/>
</g>
<!-- nd0x600002cf1ac0 -->
<g id="node34" class="node">
<title>nd0x600002cf1ac0</title>
<path fill="#54e3c2" stroke="black" d="M480,-747.5C480,-747.5 510,-747.5 510,-747.5 516,-747.5 522,-753.5 522,-759.5 522,-759.5 522,-781.5 522,-781.5 522,-787.5 516,-793.5 510,-793.5 510,-793.5 480,-793.5 480,-793.5 474,-793.5 468,-787.5 468,-781.5 468,-781.5 468,-759.5 468,-759.5 468,-753.5 474,-747.5 480,-747.5"/>
<text text-anchor="middle" x="495" y="-778.3" font-family="Times,serif" font-size="14.00">4</text>
<polyline fill="none" stroke="black" points="468,-770.5 522,-770.5"/>
<text text-anchor="middle" x="495" y="-755.3" font-family="Times,serif" font-size="14.00">ST</text>
</g>
<!-- nd0x600002cf1a00&#45;&gt;nd0x600002cf1ac0 -->
<g id="edge33" class="edge">
<title>nd0x600002cf1a00&#45;&gt;nd0x600002cf1ac0</title>
<path fill="none" stroke="black" d="M413.97,-832.27C427.74,-821.95 444.66,-809.26 459.47,-798.15"/>
<polygon fill="black" stroke="black" points="461.26,-801.18 467.16,-792.38 457.06,-795.58 461.26,-801.18"/>
</g>
<!-- nd0x600002cf1a40 -->
<g id="node35" class="node">
<title>nd0x600002cf1a40</title>
<path fill="#ffc0ff" stroke="black" d="M480,-664.5C480,-664.5 510,-664.5 510,-664.5 516,-664.5 522,-670.5 522,-676.5 522,-676.5 522,-698.5 522,-698.5 522,-704.5 516,-710.5 510,-710.5 510,-710.5 480,-710.5 480,-710.5 474,-710.5 468,-704.5 468,-698.5 468,-698.5 468,-676.5 468,-676.5 468,-670.5 474,-664.5 480,-664.5"/>
<text text-anchor="middle" x="495" y="-695.3" font-family="Times,serif" font-size="14.00">4</text>
<polyline fill="none" stroke="black" points="468,-687.5 522,-687.5"/>
<text text-anchor="middle" x="495" y="-672.3" font-family="Times,serif" font-size="14.00">VAR</text>
</g>
<!-- nd0x600002cf1ac0&#45;&gt;nd0x600002cf1a40 -->
<g id="edge34" class="edge">
<title>nd0x600002cf1ac0&#45;&gt;nd0x600002cf1a40</title>
<path fill="none" stroke="black" d="M495,-747.79C495,-739.71 495,-730.35 495,-721.48"/>
<polygon fill="black" stroke="black" points="498.5,-721.78 495,-711.78 491.5,-721.78 498.5,-721.78"/>
</g>
<!-- nd0x600002cf1b40 -->
<g id="node38" class="node">
<title>nd0x600002cf1b40</title>
<path fill="#54e3c2" stroke="black" d="M588,-664.5C588,-664.5 618,-664.5 618,-664.5 624,-664.5 630,-670.5 630,-676.5 630,-676.5 630,-698.5 630,-698.5 630,-704.5 624,-710.5 618,-710.5 618,-710.5 588,-710.5 588,-710.5 582,-710.5 576,-704.5 576,-698.5 576,-698.5 576,-676.5 576,-676.5 576,-670.5 582,-664.5 588,-664.5"/>
<text text-anchor="middle" x="603" y="-695.3" font-family="Times,serif" font-size="14.00">4</text>
<polyline fill="none" stroke="black" points="576,-687.5 630,-687.5"/>
<text text-anchor="middle" x="603" y="-672.3" font-family="Times,serif" font-size="14.00">ST</text>
</g>
<!-- nd0x600002cf1ac0&#45;&gt;nd0x600002cf1b40 -->
<g id="edge37" class="edge">
<title>nd0x600002cf1ac0&#45;&gt;nd0x600002cf1b40</title>
<path fill="none" stroke="black" d="M521.97,-749.27C535.74,-738.95 552.66,-726.26 567.47,-715.15"/>
<polygon fill="black" stroke="black" points="569.26,-718.18 575.16,-709.38 565.06,-712.58 569.26,-718.18"/>
</g>
<!-- nd0x600002cf0dc0 -->
<g id="node36" class="node">
<title>nd0x600002cf0dc0</title>
<path fill="#c0c0ff" stroke="black" d="M444,-581.5C444,-581.5 474,-581.5 474,-581.5 480,-581.5 486,-587.5 486,-593.5 486,-593.5 486,-615.5 486,-615.5 486,-621.5 480,-627.5 474,-627.5 474,-627.5 444,-627.5 444,-627.5 438,-627.5 432,-621.5 432,-615.5 432,-615.5 432,-593.5 432,-593.5 432,-587.5 438,-581.5 444,-581.5"/>
<text text-anchor="middle" x="459" y="-612.3" font-family="Times,serif" font-size="14.00">2</text>
<polyline fill="none" stroke="black" points="432,-604.5 486,-604.5"/>
<text text-anchor="middle" x="459" y="-589.3" font-family="Times,serif" font-size="14.00">x</text>
</g>
<!-- nd0x600002cf1a40&#45;&gt;nd0x600002cf0dc0 -->
<g id="edge35" class="edge">
<title>nd0x600002cf1a40&#45;&gt;nd0x600002cf0dc0</title>
<path fill="none" stroke="black" d="M485.35,-664.79C481.64,-656.44 477.32,-646.72 473.26,-637.59"/>
<polygon fill="black" stroke="black" points="476.55,-636.37 469.29,-628.65 470.15,-639.21 476.55,-636.37"/>
</g>
<!-- nd0x600002cf1a80 -->
<g id="node37" class="node">
<title>nd0x600002cf1a80</title>
<path fill="#54e3c2" stroke="black" d="M516,-581.5C516,-581.5 546,-581.5 546,-581.5 552,-581.5 558,-587.5 558,-593.5 558,-593.5 558,-615.5 558,-615.5 558,-621.5 552,-627.5 546,-627.5 546,-627.5 516,-627.5 516,-627.5 510,-627.5 504,-621.5 504,-615.5 504,-615.5 504,-593.5 504,-593.5 504,-587.5 510,-581.5 516,-581.5"/>
<text text-anchor="middle" x="531" y="-612.3" font-family="Times,serif" font-size="14.00">3</text>
<polyline fill="none" stroke="black" points="504,-604.5 558,-604.5"/>
<text text-anchor="middle" x="531" y="-589.3" font-family="Times,serif" font-size="14.00">0</text>
</g>
<!-- nd0x600002cf1a40&#45;&gt;nd0x600002cf1a80 -->
<g id="edge36" class="edge">
<title>nd0x600002cf1a40&#45;&gt;nd0x600002cf1a80</title>
<path fill="none" stroke="black" d="M504.65,-664.79C508.36,-656.44 512.68,-646.72 516.74,-637.59"/>
<polygon fill="black" stroke="black" points="519.85,-639.21 520.71,-628.65 513.45,-636.37 519.85,-639.21"/>
</g>
<!-- nd0x600002cf0ec0 -->
<g id="node39" class="node">
<title>nd0x600002cf0ec0</title>
<path fill="#c0c0c0" fill-opacity="0.047059" stroke="black" d="M588,-581.5C588,-581.5 618,-581.5 618,-581.5 624,-581.5 630,-587.5 630,-593.5 630,-593.5 630,-615.5 630,-615.5 630,-621.5 624,-627.5 618,-627.5 618,-627.5 588,-627.5 588,-627.5 582,-627.5 576,-621.5 576,-615.5 576,-615.5 576,-593.5 576,-593.5 576,-587.5 582,-581.5 588,-581.5"/>
<text text-anchor="middle" x="603" y="-612.3" font-family="Times,serif" font-size="14.00">6</text>
<polyline fill="none" stroke="black" points="576,-604.5 630,-604.5"/>
<text text-anchor="middle" x="603" y="-589.3" font-family="Times,serif" font-size="14.00">&gt;</text>
</g>
<!-- nd0x600002cf1b40&#45;&gt;nd0x600002cf0ec0 -->
<g id="edge38" class="edge">
<title>nd0x600002cf1b40&#45;&gt;nd0x600002cf0ec0</title>
<path fill="none" stroke="black" d="M603,-664.79C603,-656.71 603,-647.35 603,-638.48"/>
<polygon fill="black" stroke="black" points="606.5,-638.78 603,-628.78 599.5,-638.78 606.5,-638.78"/>
</g>
<!-- nd0x600002cf1c40 -->
<g id="node42" class="node">
<title>nd0x600002cf1c40</title>
<path fill="#54e3c2" stroke="black" d="M679,-581.5C679,-581.5 709,-581.5 709,-581.5 715,-581.5 721,-587.5 721,-593.5 721,-593.5 721,-615.5 721,-615.5 721,-621.5 715,-627.5 709,-627.5 709,-627.5 679,-627.5 679,-627.5 673,-627.5 667,-621.5 667,-615.5 667,-615.5 667,-593.5 667,-593.5 667,-587.5 673,-581.5 679,-581.5"/>
<text text-anchor="middle" x="694" y="-612.3" font-family="Times,serif" font-size="14.00">4</text>
<polyline fill="none" stroke="black" points="667,-604.5 721,-604.5"/>
<text text-anchor="middle" x="694" y="-589.3" font-family="Times,serif" font-size="14.00">ST</text>
</g>
<!-- nd0x600002cf1b40&#45;&gt;nd0x600002cf1c40 -->
<g id="edge41" class="edge">
<title>nd0x600002cf1b40&#45;&gt;nd0x600002cf1c40</title>
<path fill="none" stroke="black" d="M627.39,-664.79C637.79,-655.53 650.09,-644.59 661.27,-634.64"/>
<polygon fill="black" stroke="black" points="663.27,-637.54 668.42,-628.27 658.62,-632.31 663.27,-637.54"/>
</g>
<!-- nd0x600002cf1b00 -->
<g id="node40" class="node">
<title>nd0x600002cf1b00</title>
<path fill="#ffc0ff" stroke="black" d="M572.5,-498.5C572.5,-498.5 613.5,-498.5 613.5,-498.5 619.5,-498.5 625.5,-504.5 625.5,-510.5 625.5,-510.5 625.5,-532.5 625.5,-532.5 625.5,-538.5 619.5,-544.5 613.5,-544.5 613.5,-544.5 572.5,-544.5 572.5,-544.5 566.5,-544.5 560.5,-538.5 560.5,-532.5 560.5,-532.5 560.5,-510.5 560.5,-510.5 560.5,-504.5 566.5,-498.5 572.5,-498.5"/>
<text text-anchor="middle" x="593" y="-529.3" font-family="Times,serif" font-size="14.00">4</text>
<polyline fill="none" stroke="black" points="560.5,-521.5 625.5,-521.5"/>
<text text-anchor="middle" x="593" y="-506.3" font-family="Times,serif" font-size="14.00">PARAM</text>
</g>
<!-- nd0x600002cf0ec0&#45;&gt;nd0x600002cf1b00 -->
<g id="edge39" class="edge">
<title>nd0x600002cf0ec0&#45;&gt;nd0x600002cf1b00</title>
<path fill="none" stroke="black" d="M600.32,-581.79C599.32,-573.71 598.17,-564.35 597.07,-555.48"/>
<polygon fill="black" stroke="black" points="600.57,-555.26 595.87,-545.77 593.62,-556.12 600.57,-555.26"/>
</g>
<!-- nd0x600002cf0f40 -->
<g id="node41" class="node">
<title>nd0x600002cf0f40</title>
<path fill="#c0c0ff" stroke="black" d="M568,-415.5C568,-415.5 598,-415.5 598,-415.5 604,-415.5 610,-421.5 610,-427.5 610,-427.5 610,-449.5 610,-449.5 610,-455.5 604,-461.5 598,-461.5 598,-461.5 568,-461.5 568,-461.5 562,-461.5 556,-455.5 556,-449.5 556,-449.5 556,-427.5 556,-427.5 556,-421.5 562,-415.5 568,-415.5"/>
<text text-anchor="middle" x="583" y="-446.3" font-family="Times,serif" font-size="14.00">2</text>
<polyline fill="none" stroke="black" points="556,-438.5 610,-438.5"/>
<text text-anchor="middle" x="583" y="-423.3" font-family="Times,serif" font-size="14.00">x</text>
</g>
<!-- nd0x600002cf1b00&#45;&gt;nd0x600002cf0f40 -->
<g id="edge40" class="edge">
<title>nd0x600002cf1b00&#45;&gt;nd0x600002cf0f40</title>
<path fill="none" stroke="black" d="M590.32,-498.79C589.32,-490.71 588.17,-481.35 587.07,-472.48"/>
<polygon fill="black" stroke="black" points="590.57,-472.26 585.87,-462.77 583.62,-473.12 590.57,-472.26"/>
</g>
<!-- nd0x600002cf1b80 -->
<g id="node43" class="node">
<title>nd0x600002cf1b80</title>
<path fill="#ffc0ff" stroke="black" d="M679,-498.5C679,-498.5 709,-498.5 709,-498.5 715,-498.5 721,-504.5 721,-510.5 721,-510.5 721,-532.5 721,-532.5 721,-538.5 715,-544.5 709,-544.5 709,-544.5 679,-544.5 679,-544.5 673,-544.5 667,-538.5 667,-532.5 667,-532.5 667,-510.5 667,-510.5 667,-504.5 673,-498.5 679,-498.5"/>
<text text-anchor="middle" x="694" y="-529.3" font-family="Times,serif" font-size="14.00">4</text>
<polyline fill="none" stroke="black" points="667,-521.5 721,-521.5"/>
<text text-anchor="middle" x="694" y="-506.3" font-family="Times,serif" font-size="14.00">VAR</text>
</g>
<!-- nd0x600002cf1c40&#45;&gt;nd0x600002cf1b80 -->
<g id="edge42" class="edge">
<title>nd0x600002cf1c40&#45;&gt;nd0x600002cf1b80</title>
<path fill="none" stroke="black" d="M694,-581.79C694,-573.71 694,-564.35 694,-555.48"/>
<polygon fill="black" stroke="black" points="697.5,-555.78 694,-545.78 690.5,-555.78 697.5,-555.78"/>
</g>
<!-- nd0x600002cf1cc0 -->
<g id="node49" class="node">
<title>nd0x600002cf1cc0</title>
<path fill="#54e3c2" stroke="black" d="M789,-498.5C789,-498.5 819,-498.5 819,-498.5 825,-498.5 831,-504.5 831,-510.5 831,-510.5 831,-532.5 831,-532.5 831,-538.5 825,-544.5 819,-544.5 819,-544.5 789,-544.5 789,-544.5 783,-544.5 777,-538.5 777,-532.5 777,-532.5 777,-510.5 777,-510.5 777,-504.5 783,-498.5 789,-498.5"/>
<text text-anchor="middle" x="804" y="-529.3" font-family="Times,serif" font-size="14.00">4</text>
<polyline fill="none" stroke="black" points="777,-521.5 831,-521.5"/>
<text text-anchor="middle" x="804" y="-506.3" font-family="Times,serif" font-size="14.00">ST</text>
</g>
<!-- nd0x600002cf1c40&#45;&gt;nd0x600002cf1cc0 -->
<g id="edge48" class="edge">
<title>nd0x600002cf1c40&#45;&gt;nd0x600002cf1cc0</title>
<path fill="none" stroke="black" d="M720.91,-583.69C735.13,-573.21 752.78,-560.22 768.15,-548.9"/>
<polygon fill="black" stroke="black" points="770.17,-551.76 776.15,-543.01 766.02,-546.12 770.17,-551.76"/>
</g>
<!-- nd0x600002cf1040 -->
<g id="node44" class="node">
<title>nd0x600002cf1040</title>
<path fill="#c0c0ff" stroke="black" d="M640,-415.5C640,-415.5 670,-415.5 670,-415.5 676,-415.5 682,-421.5 682,-427.5 682,-427.5 682,-449.5 682,-449.5 682,-455.5 676,-461.5 670,-461.5 670,-461.5 640,-461.5 640,-461.5 634,-461.5 628,-455.5 628,-449.5 628,-449.5 628,-427.5 628,-427.5 628,-421.5 634,-415.5 640,-415.5"/>
<text text-anchor="middle" x="655" y="-446.3" font-family="Times,serif" font-size="14.00">2</text>
<polyline fill="none" stroke="black" points="628,-438.5 682,-438.5"/>
<text text-anchor="middle" x="655" y="-423.3" font-family="Times,serif" font-size="14.00">rezy</text>
</g>
<!-- nd0x600002cf1b80&#45;&gt;nd0x600002cf1040 -->
<g id="edge43" class="edge">
<title>nd0x600002cf1b80&#45;&gt;nd0x600002cf1040</title>
<path fill="none" stroke="black" d="M683.55,-498.79C679.53,-490.44 674.85,-480.72 670.45,-471.59"/>
<polygon fill="black" stroke="black" points="673.63,-470.12 666.14,-462.63 667.32,-473.16 673.63,-470.12"/>
</g>
<!-- nd0x600002cf1bc0 -->
<g id="node45" class="node">
<title>nd0x600002cf1bc0</title>
<path fill="#54e3c2" stroke="black" d="M712,-415.5C712,-415.5 742,-415.5 742,-415.5 748,-415.5 754,-421.5 754,-427.5 754,-427.5 754,-449.5 754,-449.5 754,-455.5 748,-461.5 742,-461.5 742,-461.5 712,-461.5 712,-461.5 706,-461.5 700,-455.5 700,-449.5 700,-449.5 700,-427.5 700,-427.5 700,-421.5 706,-415.5 712,-415.5"/>
<text text-anchor="middle" x="727" y="-446.3" font-family="Times,serif" font-size="14.00">5</text>
<polyline fill="none" stroke="black" points="700,-438.5 754,-438.5"/>
<text text-anchor="middle" x="727" y="-423.3" font-family="Times,serif" font-size="14.00">CALL</text>
</g>
<!-- nd0x600002cf1b80&#45;&gt;nd0x600002cf1bc0 -->
<g id="edge44" class="edge">
<title>nd0x600002cf1b80&#45;&gt;nd0x600002cf1bc0</title>
<path fill="none" stroke="black" d="M702.84,-498.79C706.21,-490.53 710.12,-480.93 713.81,-471.89"/>
<polygon fill="black" stroke="black" points="717.03,-473.25 717.56,-462.67 710.55,-470.61 717.03,-473.25"/>
</g>
<!-- nd0x600002cf1080 -->
<g id="node46" class="node">
<title>nd0x600002cf1080</title>
<path fill="#c0ffff" stroke="black" d="M703,-332.5C703,-332.5 741,-332.5 741,-332.5 747,-332.5 753,-338.5 753,-344.5 753,-344.5 753,-366.5 753,-366.5 753,-372.5 747,-378.5 741,-378.5 741,-378.5 703,-378.5 703,-378.5 697,-378.5 691,-372.5 691,-366.5 691,-366.5 691,-344.5 691,-344.5 691,-338.5 697,-332.5 703,-332.5"/>
<text text-anchor="middle" x="722" y="-363.3" font-family="Times,serif" font-size="14.00">5</text>
<polyline fill="none" stroke="black" points="691,-355.5 753,-355.5"/>
<text text-anchor="middle" x="722" y="-340.3" font-family="Times,serif" font-size="14.00">faktorial</text>
</g>
<!-- nd0x600002cf1bc0&#45;&gt;nd0x600002cf1080 -->
<g id="edge45" class="edge">
<title>nd0x600002cf1bc0&#45;&gt;nd0x600002cf1080</title>
<path fill="none" stroke="black" d="M725.66,-415.79C725.16,-407.71 724.58,-398.35 724.04,-389.48"/>
<polygon fill="black" stroke="black" points="727.55,-389.54 723.44,-379.78 720.56,-389.97 727.55,-389.54"/>
</g>
<!-- nd0x600002cf1c00 -->
<g id="node47" class="node">
<title>nd0x600002cf1c00</title>
<path fill="#ffc0ff" stroke="black" d="M701.5,-249.5C701.5,-249.5 742.5,-249.5 742.5,-249.5 748.5,-249.5 754.5,-255.5 754.5,-261.5 754.5,-261.5 754.5,-283.5 754.5,-283.5 754.5,-289.5 748.5,-295.5 742.5,-295.5 742.5,-295.5 701.5,-295.5 701.5,-295.5 695.5,-295.5 689.5,-289.5 689.5,-283.5 689.5,-283.5 689.5,-261.5 689.5,-261.5 689.5,-255.5 695.5,-249.5 701.5,-249.5"/>
<text text-anchor="middle" x="722" y="-280.3" font-family="Times,serif" font-size="14.00">4</text>
<polyline fill="none" stroke="black" points="689.5,-272.5 754.5,-272.5"/>
<text text-anchor="middle" x="722" y="-257.3" font-family="Times,serif" font-size="14.00">PARAM</text>
</g>
<!-- nd0x600002cf1080&#45;&gt;nd0x600002cf1c00 -->
<g id="edge46" class="edge">
<title>nd0x600002cf1080&#45;&gt;nd0x600002cf1c00</title>
<path fill="none" stroke="black" d="M722,-332.79C722,-324.71 722,-315.35 722,-306.48"/>
<polygon fill="black" stroke="black" points="725.5,-306.78 722,-296.78 718.5,-306.78 725.5,-306.78"/>
</g>
<!-- nd0x600002cf1100 -->
<g id="node48" class="node">
<title>nd0x600002cf1100</title>
<path fill="#c0c0ff" stroke="black" d="M707,-166.5C707,-166.5 737,-166.5 737,-166.5 743,-166.5 749,-172.5 749,-178.5 749,-178.5 749,-200.5 749,-200.5 749,-206.5 743,-212.5 737,-212.5 737,-212.5 707,-212.5 707,-212.5 701,-212.5 695,-206.5 695,-200.5 695,-200.5 695,-178.5 695,-178.5 695,-172.5 701,-166.5 707,-166.5"/>
<text text-anchor="middle" x="722" y="-197.3" font-family="Times,serif" font-size="14.00">2</text>
<polyline fill="none" stroke="black" points="695,-189.5 749,-189.5"/>
<text text-anchor="middle" x="722" y="-174.3" font-family="Times,serif" font-size="14.00">x</text>
</g>
<!-- nd0x600002cf1c00&#45;&gt;nd0x600002cf1100 -->
<g id="edge47" class="edge">
<title>nd0x600002cf1c00&#45;&gt;nd0x600002cf1100</title>
<path fill="none" stroke="black" d="M722,-249.79C722,-241.71 722,-232.35 722,-223.48"/>
<polygon fill="black" stroke="black" points="725.5,-223.78 722,-213.78 718.5,-223.78 725.5,-223.78"/>
</g>
<!-- nd0x600002cf1200 -->
<g id="node50" class="node">
<title>nd0x600002cf1200</title>
<path fill="#c0c0c0" fill-opacity="0.047059" stroke="black" d="M789,-415.5C789,-415.5 819,-415.5 819,-415.5 825,-415.5 831,-421.5 831,-427.5 831,-427.5 831,-449.5 831,-449.5 831,-455.5 825,-461.5 819,-461.5 819,-461.5 789,-461.5 789,-461.5 783,-461.5 777,-455.5 777,-449.5 777,-449.5 777,-427.5 777,-427.5 777,-421.5 783,-415.5 789,-415.5"/>
<text text-anchor="middle" x="804" y="-446.3" font-family="Times,serif" font-size="14.00">6</text>
<polyline fill="none" stroke="black" points="777,-438.5 831,-438.5"/>
<text text-anchor="middle" x="804" y="-423.3" font-family="Times,serif" font-size="14.00">IN</text>
</g>
<!-- nd0x600002cf1cc0&#45;&gt;nd0x600002cf1200 -->
<g id="edge49" class="edge">
<title>nd0x600002cf1cc0&#45;&gt;nd0x600002cf1200</title>
<path fill="none" stroke="black" d="M804,-498.79C804,-490.71 804,-481.35 804,-472.48"/>
<polygon fill="black" stroke="black" points="807.5,-472.78 804,-462.78 800.5,-472.78 807.5,-472.78"/>
</g>
<!-- nd0x600002cf1d80 -->
<g id="node53" class="node">
<title>nd0x600002cf1d80</title>
<path fill="#54e3c2" stroke="black" d="M864,-415.5C864,-415.5 894,-415.5 894,-415.5 900,-415.5 906,-421.5 906,-427.5 906,-427.5 906,-449.5 906,-449.5 906,-455.5 900,-461.5 894,-461.5 894,-461.5 864,-461.5 864,-461.5 858,-461.5 852,-455.5 852,-449.5 852,-449.5 852,-427.5 852,-427.5 852,-421.5 858,-415.5 864,-415.5"/>
<text text-anchor="middle" x="879" y="-446.3" font-family="Times,serif" font-size="14.00">4</text>
<polyline fill="none" stroke="black" points="852,-438.5 906,-438.5"/>
<text text-anchor="middle" x="879" y="-423.3" font-family="Times,serif" font-size="14.00">ST</text>
</g>
<!-- nd0x600002cf1cc0&#45;&gt;nd0x600002cf1d80 -->
<g id="edge52" class="edge">
<title>nd0x600002cf1cc0&#45;&gt;nd0x600002cf1d80</title>
<path fill="none" stroke="black" d="M824.1,-498.79C832.42,-489.8 842.21,-479.23 851.21,-469.52"/>
<polygon fill="black" stroke="black" points="853.59,-472.09 857.82,-462.38 848.46,-467.34 853.59,-472.09"/>
</g>
<!-- nd0x600002cf1c80 -->
<g id="node51" class="node">
<title>nd0x600002cf1c80</title>
<path fill="#ffc0ff" stroke="black" d="M783.5,-332.5C783.5,-332.5 824.5,-332.5 824.5,-332.5 830.5,-332.5 836.5,-338.5 836.5,-344.5 836.5,-344.5 836.5,-366.5 836.5,-366.5 836.5,-372.5 830.5,-378.5 824.5,-378.5 824.5,-378.5 783.5,-378.5 783.5,-378.5 777.5,-378.5 771.5,-372.5 771.5,-366.5 771.5,-366.5 771.5,-344.5 771.5,-344.5 771.5,-338.5 777.5,-332.5 783.5,-332.5"/>
<text text-anchor="middle" x="804" y="-363.3" font-family="Times,serif" font-size="14.00">4</text>
<polyline fill="none" stroke="black" points="771.5,-355.5 836.5,-355.5"/>
<text text-anchor="middle" x="804" y="-340.3" font-family="Times,serif" font-size="14.00">PARAM</text>
</g>
<!-- nd0x600002cf1200&#45;&gt;nd0x600002cf1c80 -->
<g id="edge50" class="edge">
<title>nd0x600002cf1200&#45;&gt;nd0x600002cf1c80</title>
<path fill="none" stroke="black" d="M804,-415.79C804,-407.71 804,-398.35 804,-389.48"/>
<polygon fill="black" stroke="black" points="807.5,-389.78 804,-379.78 800.5,-389.78 807.5,-389.78"/>
</g>
<!-- nd0x600002cf1280 -->
<g id="node52" class="node">
<title>nd0x600002cf1280</title>
<path fill="#c0c0ff" stroke="black" d="M789,-249.5C789,-249.5 819,-249.5 819,-249.5 825,-249.5 831,-255.5 831,-261.5 831,-261.5 831,-283.5 831,-283.5 831,-289.5 825,-295.5 819,-295.5 819,-295.5 789,-295.5 789,-295.5 783,-295.5 777,-289.5 777,-283.5 777,-283.5 777,-261.5 777,-261.5 777,-255.5 783,-249.5 789,-249.5"/>
<text text-anchor="middle" x="804" y="-280.3" font-family="Times,serif" font-size="14.00">2</text>
<polyline fill="none" stroke="black" points="777,-272.5 831,-272.5"/>
<text text-anchor="middle" x="804" y="-257.3" font-family="Times,serif" font-size="14.00">rezy</text>
</g>
<!-- nd0x600002cf1c80&#45;&gt;nd0x600002cf1280 -->
<g id="edge51" class="edge">
<title>nd0x600002cf1c80&#45;&gt;nd0x600002cf1280</title>
<path fill="none" stroke="black" d="M804,-332.79C804,-324.71 804,-315.35 804,-306.48"/>
<polygon fill="black" stroke="black" points="807.5,-306.78 804,-296.78 800.5,-306.78 807.5,-306.78"/>
</g>
<!-- nd0x600002cf1d00 -->
<g id="node54" class="node">
<title>nd0x600002cf1d00</title>
<path fill="#ffc0ff" stroke="black" d="M867,-332.5C867,-332.5 897,-332.5 897,-332.5 903,-332.5 909,-338.5 909,-344.5 909,-344.5 909,-366.5 909,-366.5 909,-372.5 903,-378.5 897,-378.5 897,-378.5 867,-378.5 867,-378.5 861,-378.5 855,-372.5 855,-366.5 855,-366.5 855,-344.5 855,-344.5 855,-338.5 861,-332.5 867,-332.5"/>
<text text-anchor="middle" x="882" y="-363.3" font-family="Times,serif" font-size="14.00">4</text>
<polyline fill="none" stroke="black" points="855,-355.5 909,-355.5"/>
<text text-anchor="middle" x="882" y="-340.3" font-family="Times,serif" font-size="14.00">RET</text>
</g>
<!-- nd0x600002cf1d80&#45;&gt;nd0x600002cf1d00 -->
<g id="edge53" class="edge">
<title>nd0x600002cf1d80&#45;&gt;nd0x600002cf1d00</title>
<path fill="none" stroke="black" d="M879.8,-415.79C880.1,-407.71 880.45,-398.35 880.78,-389.48"/>
<polygon fill="black" stroke="black" points="884.27,-389.9 881.14,-379.78 877.27,-389.64 884.27,-389.9"/>
</g>
<!-- nd0x600002cf1d40 -->
<g id="node55" class="node">
<title>nd0x600002cf1d40</title>
<path fill="#c0ffc0" stroke="black" d="M867,-249.5C867,-249.5 897,-249.5 897,-249.5 903,-249.5 909,-255.5 909,-261.5 909,-261.5 909,-283.5 909,-283.5 909,-289.5 903,-295.5 897,-295.5 897,-295.5 867,-295.5 867,-295.5 861,-295.5 855,-289.5 855,-283.5 855,-283.5 855,-261.5 855,-261.5 855,-255.5 861,-249.5 867,-249.5"/>
<text text-anchor="middle" x="882" y="-280.3" font-family="Times,serif" font-size="14.00">3</text>
<polyline fill="none" stroke="black" points="855,-272.5 909,-272.5"/>
<text text-anchor="middle" x="882" y="-257.3" font-family="Times,serif" font-size="14.00">0</text>
</g>
<!-- nd0x600002cf1d00&#45;&gt;nd0x600002cf1d40 -->
<g id="edge54" class="edge">
<title>nd0x600002cf1d00&#45;&gt;nd0x600002cf1d40</title>
<path fill="none" stroke="black" d="M882,-332.79C882,-324.71 882,-315.35 882,-306.48"/>
<polygon fill="black" stroke="black" points="885.5,-306.78 882,-296.78 878.5,-306.78 885.5,-306.78"/>
</g>
</g>
</svg>
