<?xml version="1.0" encoding="UTF-8" standalone="no"?>
<!DOCTYPE svg PUBLIC "-//W3C//DTD SVG 1.1//EN"
 "http://www.w3.org/Graphics/SVG/1.1/DTD/svg11.dtd">
<!-- Generated by graphviz version 2.43.0 (0)
 -->
<!-- Title: MyGraph Pages: 1 -->
<svg width="614pt" height="636pt"
 viewBox="0.00 0.00 614.00 636.00" xmlns="http://www.w3.org/2000/svg" xmlns:xlink="http://www.w3.org/1999/xlink">
<g id="graph0" class="graph" transform="scale(1 1) rotate(0) translate(4 632)">
<title>MyGraph</title>
<polygon fill="white" stroke="transparent" points="-4,4 -4,-632 610,-632 610,4 -4,4"/>
<!-- nd0x5575cf1e9840 -->
<g id="node1" class="node">
<title>nd0x5575cf1e9840</title>
<path fill="#54e3c2" stroke="black" d="M376,-581.5C376,-581.5 406,-581.5 406,-581.5 412,-581.5 418,-587.5 418,-593.5 418,-593.5 418,-615.5 418,-615.5 418,-621.5 412,-627.5 406,-627.5 406,-627.5 376,-627.5 376,-627.5 370,-627.5 364,-621.5 364,-615.5 364,-615.5 364,-593.5 364,-593.5 364,-587.5 370,-581.5 376,-581.5"/>
<text text-anchor="middle" x="391" y="-612.3" font-family="Times,serif" font-size="14.00">4</text>
<polyline fill="none" stroke="black" points="364,-604.5 418,-604.5 "/>
<text text-anchor="middle" x="391" y="-589.3" font-family="Times,serif" font-size="14.00">ST</text>
</g>
<!-- nd0x5575cf1e98a0 -->
<g id="node2" class="node">
<title>nd0x5575cf1e98a0</title>
<path fill="#c0ffff" stroke="black" d="M334.5,-498.5C334.5,-498.5 371.5,-498.5 371.5,-498.5 377.5,-498.5 383.5,-504.5 383.5,-510.5 383.5,-510.5 383.5,-532.5 383.5,-532.5 383.5,-538.5 377.5,-544.5 371.5,-544.5 371.5,-544.5 334.5,-544.5 334.5,-544.5 328.5,-544.5 322.5,-538.5 322.5,-532.5 322.5,-532.5 322.5,-510.5 322.5,-510.5 322.5,-504.5 328.5,-498.5 334.5,-498.5"/>
<text text-anchor="middle" x="353" y="-529.3" font-family="Times,serif" font-size="14.00">5</text>
<polyline fill="none" stroke="black" points="322.5,-521.5 383.5,-521.5 "/>
<text text-anchor="middle" x="353" y="-506.3" font-family="Times,serif" font-size="14.00">FUNC</text>
</g>
<!-- nd0x5575cf1e9840&#45;&gt;nd0x5575cf1e98a0 -->
<g id="edge1" class="edge">
<title>nd0x5575cf1e9840&#45;&gt;nd0x5575cf1e98a0</title>
<path fill="none" stroke="black" d="M380.62,-581.37C376.64,-572.88 372.02,-563.04 367.71,-553.85"/>
<polygon fill="black" stroke="black" points="370.79,-552.17 363.37,-544.61 364.45,-555.15 370.79,-552.17"/>
</g>
<!-- nd0x5575cf1ea1c0 -->
<g id="node24" class="node">
<title>nd0x5575cf1ea1c0</title>
<path fill="#54e3c2" stroke="black" d="M448,-498.5C448,-498.5 478,-498.5 478,-498.5 484,-498.5 490,-504.5 490,-510.5 490,-510.5 490,-532.5 490,-532.5 490,-538.5 484,-544.5 478,-544.5 478,-544.5 448,-544.5 448,-544.5 442,-544.5 436,-538.5 436,-532.5 436,-532.5 436,-510.5 436,-510.5 436,-504.5 442,-498.5 448,-498.5"/>
<text text-anchor="middle" x="463" y="-529.3" font-family="Times,serif" font-size="14.00">4</text>
<polyline fill="none" stroke="black" points="436,-521.5 490,-521.5 "/>
<text text-anchor="middle" x="463" y="-506.3" font-family="Times,serif" font-size="14.00">ST</text>
</g>
<!-- nd0x5575cf1e9840&#45;&gt;nd0x5575cf1ea1c0 -->
<g id="edge23" class="edge">
<title>nd0x5575cf1e9840&#45;&gt;nd0x5575cf1ea1c0</title>
<path fill="none" stroke="black" d="M410.67,-581.37C418.69,-572.35 428.08,-561.79 436.67,-552.12"/>
<polygon fill="black" stroke="black" points="439.32,-554.41 443.35,-544.61 434.09,-549.76 439.32,-554.41"/>
</g>
<!-- nd0x5575cf1e9900 -->
<g id="node3" class="node">
<title>nd0x5575cf1e9900</title>
<path fill="#c0ffff" stroke="black" d="M176.5,-415.5C176.5,-415.5 259.5,-415.5 259.5,-415.5 265.5,-415.5 271.5,-421.5 271.5,-427.5 271.5,-427.5 271.5,-449.5 271.5,-449.5 271.5,-455.5 265.5,-461.5 259.5,-461.5 259.5,-461.5 176.5,-461.5 176.5,-461.5 170.5,-461.5 164.5,-455.5 164.5,-449.5 164.5,-449.5 164.5,-427.5 164.5,-427.5 164.5,-421.5 170.5,-415.5 176.5,-415.5"/>
<text text-anchor="middle" x="218" y="-446.3" font-family="Times,serif" font-size="14.00">5</text>
<polyline fill="none" stroke="black" points="164.5,-438.5 271.5,-438.5 "/>
<text text-anchor="middle" x="218" y="-423.3" font-family="Times,serif" font-size="14.00">discriminant</text>
</g>
<!-- nd0x5575cf1e98a0&#45;&gt;nd0x5575cf1e9900 -->
<g id="edge2" class="edge">
<title>nd0x5575cf1e98a0&#45;&gt;nd0x5575cf1e9900</title>
<path fill="none" stroke="black" d="M322.37,-502.12C304.96,-491.68 282.84,-478.4 263.44,-466.77"/>
<polygon fill="black" stroke="black" points="265.13,-463.7 254.75,-461.55 261.53,-469.7 265.13,-463.7"/>
</g>
<!-- nd0x5575cf1e9d60 -->
<g id="node13" class="node">
<title>nd0x5575cf1e9d60</title>
<path fill="#54e3c2" stroke="black" d="M338,-415.5C338,-415.5 368,-415.5 368,-415.5 374,-415.5 380,-421.5 380,-427.5 380,-427.5 380,-449.5 380,-449.5 380,-455.5 374,-461.5 368,-461.5 368,-461.5 338,-461.5 338,-461.5 332,-461.5 326,-455.5 326,-449.5 326,-449.5 326,-427.5 326,-427.5 326,-421.5 332,-415.5 338,-415.5"/>
<text text-anchor="middle" x="353" y="-446.3" font-family="Times,serif" font-size="14.00">4</text>
<polyline fill="none" stroke="black" points="326,-438.5 380,-438.5 "/>
<text text-anchor="middle" x="353" y="-423.3" font-family="Times,serif" font-size="14.00">ST</text>
</g>
<!-- nd0x5575cf1e98a0&#45;&gt;nd0x5575cf1e9d60 -->
<g id="edge12" class="edge">
<title>nd0x5575cf1e98a0&#45;&gt;nd0x5575cf1e9d60</title>
<path fill="none" stroke="black" d="M353,-498.37C353,-490.15 353,-480.66 353,-471.73"/>
<polygon fill="black" stroke="black" points="356.5,-471.61 353,-461.61 349.5,-471.61 356.5,-471.61"/>
</g>
<!-- nd0x5575cf1e9960 -->
<g id="node4" class="node">
<title>nd0x5575cf1e9960</title>
<path fill="#ffc0ff" stroke="black" d="M120.5,-332.5C120.5,-332.5 165.5,-332.5 165.5,-332.5 171.5,-332.5 177.5,-338.5 177.5,-344.5 177.5,-344.5 177.5,-366.5 177.5,-366.5 177.5,-372.5 171.5,-378.5 165.5,-378.5 165.5,-378.5 120.5,-378.5 120.5,-378.5 114.5,-378.5 108.5,-372.5 108.5,-366.5 108.5,-366.5 108.5,-344.5 108.5,-344.5 108.5,-338.5 114.5,-332.5 120.5,-332.5"/>
<text text-anchor="middle" x="143" y="-363.3" font-family="Times,serif" font-size="14.00">4</text>
<polyline fill="none" stroke="black" points="108.5,-355.5 177.5,-355.5 "/>
<text text-anchor="middle" x="143" y="-340.3" font-family="Times,serif" font-size="14.00">PARAM</text>
</g>
<!-- nd0x5575cf1e9900&#45;&gt;nd0x5575cf1e9960 -->
<g id="edge3" class="edge">
<title>nd0x5575cf1e9900&#45;&gt;nd0x5575cf1e9960</title>
<path fill="none" stroke="black" d="M197.51,-415.37C189.16,-406.35 179.38,-395.79 170.43,-386.12"/>
<polygon fill="black" stroke="black" points="172.83,-383.57 163.47,-378.61 167.7,-388.32 172.83,-383.57"/>
</g>
<!-- nd0x5575cf1e99c0 -->
<g id="node5" class="node">
<title>nd0x5575cf1e99c0</title>
<path fill="#ffc0ff" stroke="black" d="M30,-249.5C30,-249.5 60,-249.5 60,-249.5 66,-249.5 72,-255.5 72,-261.5 72,-261.5 72,-283.5 72,-283.5 72,-289.5 66,-295.5 60,-295.5 60,-295.5 30,-295.5 30,-295.5 24,-295.5 18,-289.5 18,-283.5 18,-283.5 18,-261.5 18,-261.5 18,-255.5 24,-249.5 30,-249.5"/>
<text text-anchor="middle" x="45" y="-280.3" font-family="Times,serif" font-size="14.00">4</text>
<polyline fill="none" stroke="black" points="18,-272.5 72,-272.5 "/>
<text text-anchor="middle" x="45" y="-257.3" font-family="Times,serif" font-size="14.00">VAR</text>
</g>
<!-- nd0x5575cf1e9960&#45;&gt;nd0x5575cf1e99c0 -->
<g id="edge4" class="edge">
<title>nd0x5575cf1e9960&#45;&gt;nd0x5575cf1e99c0</title>
<path fill="none" stroke="black" d="M116.22,-332.37C104.99,-323.08 91.77,-312.16 79.8,-302.26"/>
<polygon fill="black" stroke="black" points="81.68,-299.28 71.75,-295.61 77.22,-304.68 81.68,-299.28"/>
</g>
<!-- nd0x5575cf1e9aa0 -->
<g id="node7" class="node">
<title>nd0x5575cf1e9aa0</title>
<path fill="#54e3c2" stroke="black" d="M120.5,-249.5C120.5,-249.5 165.5,-249.5 165.5,-249.5 171.5,-249.5 177.5,-255.5 177.5,-261.5 177.5,-261.5 177.5,-283.5 177.5,-283.5 177.5,-289.5 171.5,-295.5 165.5,-295.5 165.5,-295.5 120.5,-295.5 120.5,-295.5 114.5,-295.5 108.5,-289.5 108.5,-283.5 108.5,-283.5 108.5,-261.5 108.5,-261.5 108.5,-255.5 114.5,-249.5 120.5,-249.5"/>
<text text-anchor="middle" x="143" y="-280.3" font-family="Times,serif" font-size="14.00">4</text>
<polyline fill="none" stroke="black" points="108.5,-272.5 177.5,-272.5 "/>
<text text-anchor="middle" x="143" y="-257.3" font-family="Times,serif" font-size="14.00">PARAM</text>
</g>
<!-- nd0x5575cf1e9960&#45;&gt;nd0x5575cf1e9aa0 -->
<g id="edge6" class="edge">
<title>nd0x5575cf1e9960&#45;&gt;nd0x5575cf1e9aa0</title>
<path fill="none" stroke="black" d="M143,-332.37C143,-324.15 143,-314.66 143,-305.73"/>
<polygon fill="black" stroke="black" points="146.5,-305.61 143,-295.61 139.5,-305.61 146.5,-305.61"/>
</g>
<!-- nd0x5575cf1e9a20 -->
<g id="node6" class="node">
<title>nd0x5575cf1e9a20</title>
<path fill="#c0c0ff" stroke="black" d="M12,-166.5C12,-166.5 42,-166.5 42,-166.5 48,-166.5 54,-172.5 54,-178.5 54,-178.5 54,-200.5 54,-200.5 54,-206.5 48,-212.5 42,-212.5 42,-212.5 12,-212.5 12,-212.5 6,-212.5 0,-206.5 0,-200.5 0,-200.5 0,-178.5 0,-178.5 0,-172.5 6,-166.5 12,-166.5"/>
<text text-anchor="middle" x="27" y="-197.3" font-family="Times,serif" font-size="14.00">2</text>
<polyline fill="none" stroke="black" points="0,-189.5 54,-189.5 "/>
<text text-anchor="middle" x="27" y="-174.3" font-family="Times,serif" font-size="14.00">a</text>
</g>
<!-- nd0x5575cf1e99c0&#45;&gt;nd0x5575cf1e9a20 -->
<g id="edge5" class="edge">
<title>nd0x5575cf1e99c0&#45;&gt;nd0x5575cf1e9a20</title>
<path fill="none" stroke="black" d="M40.08,-249.37C38.24,-241.06 36.1,-231.45 34.1,-222.43"/>
<polygon fill="black" stroke="black" points="37.5,-221.61 31.91,-212.61 30.67,-223.13 37.5,-221.61"/>
</g>
<!-- nd0x5575cf1e9b00 -->
<g id="node8" class="node">
<title>nd0x5575cf1e9b00</title>
<path fill="#ffc0ff" stroke="black" d="M84,-166.5C84,-166.5 114,-166.5 114,-166.5 120,-166.5 126,-172.5 126,-178.5 126,-178.5 126,-200.5 126,-200.5 126,-206.5 120,-212.5 114,-212.5 114,-212.5 84,-212.5 84,-212.5 78,-212.5 72,-206.5 72,-200.5 72,-200.5 72,-178.5 72,-178.5 72,-172.5 78,-166.5 84,-166.5"/>
<text text-anchor="middle" x="99" y="-197.3" font-family="Times,serif" font-size="14.00">4</text>
<polyline fill="none" stroke="black" points="72,-189.5 126,-189.5 "/>
<text text-anchor="middle" x="99" y="-174.3" font-family="Times,serif" font-size="14.00">VAR</text>
</g>
<!-- nd0x5575cf1e9aa0&#45;&gt;nd0x5575cf1e9b00 -->
<g id="edge7" class="edge">
<title>nd0x5575cf1e9aa0&#45;&gt;nd0x5575cf1e9b00</title>
<path fill="none" stroke="black" d="M130.98,-249.37C126.32,-240.79 120.91,-230.83 115.87,-221.56"/>
<polygon fill="black" stroke="black" points="118.86,-219.72 111.01,-212.61 112.71,-223.06 118.86,-219.72"/>
</g>
<!-- nd0x5575cf1e9be0 -->
<g id="node10" class="node">
<title>nd0x5575cf1e9be0</title>
<path fill="#54e3c2" stroke="black" d="M156.5,-166.5C156.5,-166.5 201.5,-166.5 201.5,-166.5 207.5,-166.5 213.5,-172.5 213.5,-178.5 213.5,-178.5 213.5,-200.5 213.5,-200.5 213.5,-206.5 207.5,-212.5 201.5,-212.5 201.5,-212.5 156.5,-212.5 156.5,-212.5 150.5,-212.5 144.5,-206.5 144.5,-200.5 144.5,-200.5 144.5,-178.5 144.5,-178.5 144.5,-172.5 150.5,-166.5 156.5,-166.5"/>
<text text-anchor="middle" x="179" y="-197.3" font-family="Times,serif" font-size="14.00">4</text>
<polyline fill="none" stroke="black" points="144.5,-189.5 213.5,-189.5 "/>
<text text-anchor="middle" x="179" y="-174.3" font-family="Times,serif" font-size="14.00">PARAM</text>
</g>
<!-- nd0x5575cf1e9aa0&#45;&gt;nd0x5575cf1e9be0 -->
<g id="edge9" class="edge">
<title>nd0x5575cf1e9aa0&#45;&gt;nd0x5575cf1e9be0</title>
<path fill="none" stroke="black" d="M152.84,-249.37C156.61,-240.88 160.98,-231.04 165.07,-221.85"/>
<polygon fill="black" stroke="black" points="168.31,-223.17 169.17,-212.61 161.91,-220.32 168.31,-223.17"/>
</g>
<!-- nd0x5575cf1e9b60 -->
<g id="node9" class="node">
<title>nd0x5575cf1e9b60</title>
<path fill="#c0c0ff" stroke="black" d="M84,-83.5C84,-83.5 114,-83.5 114,-83.5 120,-83.5 126,-89.5 126,-95.5 126,-95.5 126,-117.5 126,-117.5 126,-123.5 120,-129.5 114,-129.5 114,-129.5 84,-129.5 84,-129.5 78,-129.5 72,-123.5 72,-117.5 72,-117.5 72,-95.5 72,-95.5 72,-89.5 78,-83.5 84,-83.5"/>
<text text-anchor="middle" x="99" y="-114.3" font-family="Times,serif" font-size="14.00">2</text>
<polyline fill="none" stroke="black" points="72,-106.5 126,-106.5 "/>
<text text-anchor="middle" x="99" y="-91.3" font-family="Times,serif" font-size="14.00">b</text>
</g>
<!-- nd0x5575cf1e9b00&#45;&gt;nd0x5575cf1e9b60 -->
<g id="edge8" class="edge">
<title>nd0x5575cf1e9b00&#45;&gt;nd0x5575cf1e9b60</title>
<path fill="none" stroke="black" d="M99,-166.37C99,-158.15 99,-148.66 99,-139.73"/>
<polygon fill="black" stroke="black" points="102.5,-139.61 99,-129.61 95.5,-139.61 102.5,-139.61"/>
</g>
<!-- nd0x5575cf1e9c40 -->
<g id="node11" class="node">
<title>nd0x5575cf1e9c40</title>
<path fill="#ffc0ff" stroke="black" d="M160,-83.5C160,-83.5 190,-83.5 190,-83.5 196,-83.5 202,-89.5 202,-95.5 202,-95.5 202,-117.5 202,-117.5 202,-123.5 196,-129.5 190,-129.5 190,-129.5 160,-129.5 160,-129.5 154,-129.5 148,-123.5 148,-117.5 148,-117.5 148,-95.5 148,-95.5 148,-89.5 154,-83.5 160,-83.5"/>
<text text-anchor="middle" x="175" y="-114.3" font-family="Times,serif" font-size="14.00">4</text>
<polyline fill="none" stroke="black" points="148,-106.5 202,-106.5 "/>
<text text-anchor="middle" x="175" y="-91.3" font-family="Times,serif" font-size="14.00">VAR</text>
</g>
<!-- nd0x5575cf1e9be0&#45;&gt;nd0x5575cf1e9c40 -->
<g id="edge10" class="edge">
<title>nd0x5575cf1e9be0&#45;&gt;nd0x5575cf1e9c40</title>
<path fill="none" stroke="black" d="M177.91,-166.37C177.5,-158.15 177.03,-148.66 176.59,-139.73"/>
<polygon fill="black" stroke="black" points="180.08,-139.42 176.09,-129.61 173.09,-139.77 180.08,-139.42"/>
</g>
<!-- nd0x5575cf1e9ca0 -->
<g id="node12" class="node">
<title>nd0x5575cf1e9ca0</title>
<path fill="#c0c0ff" stroke="black" d="M160,-0.5C160,-0.5 190,-0.5 190,-0.5 196,-0.5 202,-6.5 202,-12.5 202,-12.5 202,-34.5 202,-34.5 202,-40.5 196,-46.5 190,-46.5 190,-46.5 160,-46.5 160,-46.5 154,-46.5 148,-40.5 148,-34.5 148,-34.5 148,-12.5 148,-12.5 148,-6.5 154,-0.5 160,-0.5"/>
<text text-anchor="middle" x="175" y="-31.3" font-family="Times,serif" font-size="14.00">2</text>
<polyline fill="none" stroke="black" points="148,-23.5 202,-23.5 "/>
<text text-anchor="middle" x="175" y="-8.3" font-family="Times,serif" font-size="14.00">c</text>
</g>
<!-- nd0x5575cf1e9c40&#45;&gt;nd0x5575cf1e9ca0 -->
<g id="edge11" class="edge">
<title>nd0x5575cf1e9c40&#45;&gt;nd0x5575cf1e9ca0</title>
<path fill="none" stroke="black" d="M175,-83.37C175,-75.15 175,-65.66 175,-56.73"/>
<polygon fill="black" stroke="black" points="178.5,-56.61 175,-46.61 171.5,-56.61 178.5,-56.61"/>
</g>
<!-- nd0x5575cf1e9dc0 -->
<g id="node14" class="node">
<title>nd0x5575cf1e9dc0</title>
<path fill="#ffc0ff" stroke="black" d="M338,-332.5C338,-332.5 368,-332.5 368,-332.5 374,-332.5 380,-338.5 380,-344.5 380,-344.5 380,-366.5 380,-366.5 380,-372.5 374,-378.5 368,-378.5 368,-378.5 338,-378.5 338,-378.5 332,-378.5 326,-372.5 326,-366.5 326,-366.5 326,-344.5 326,-344.5 326,-338.5 332,-332.5 338,-332.5"/>
<text text-anchor="middle" x="353" y="-363.3" font-family="Times,serif" font-size="14.00">4</text>
<polyline fill="none" stroke="black" points="326,-355.5 380,-355.5 "/>
<text text-anchor="middle" x="353" y="-340.3" font-family="Times,serif" font-size="14.00">RET</text>
</g>
<!-- nd0x5575cf1e9d60&#45;&gt;nd0x5575cf1e9dc0 -->
<g id="edge13" class="edge">
<title>nd0x5575cf1e9d60&#45;&gt;nd0x5575cf1e9dc0</title>
<path fill="none" stroke="black" d="M353,-415.37C353,-407.15 353,-397.66 353,-388.73"/>
<polygon fill="black" stroke="black" points="356.5,-388.61 353,-378.61 349.5,-388.61 356.5,-388.61"/>
</g>
<!-- nd0x5575cf1e9e20 -->
<g id="node15" class="node">
<title>nd0x5575cf1e9e20</title>
<path fill="#ffc0c0" stroke="black" d="M338,-249.5C338,-249.5 368,-249.5 368,-249.5 374,-249.5 380,-255.5 380,-261.5 380,-261.5 380,-283.5 380,-283.5 380,-289.5 374,-295.5 368,-295.5 368,-295.5 338,-295.5 338,-295.5 332,-295.5 326,-289.5 326,-283.5 326,-283.5 326,-261.5 326,-261.5 326,-255.5 332,-249.5 338,-249.5"/>
<text text-anchor="middle" x="353" y="-280.3" font-family="Times,serif" font-size="14.00">1</text>
<polyline fill="none" stroke="black" points="326,-272.5 380,-272.5 "/>
<text text-anchor="middle" x="353" y="-257.3" font-family="Times,serif" font-size="14.00">SUB</text>
</g>
<!-- nd0x5575cf1e9dc0&#45;&gt;nd0x5575cf1e9e20 -->
<g id="edge14" class="edge">
<title>nd0x5575cf1e9dc0&#45;&gt;nd0x5575cf1e9e20</title>
<path fill="none" stroke="black" d="M353,-332.37C353,-324.15 353,-314.66 353,-305.73"/>
<polygon fill="black" stroke="black" points="356.5,-305.61 353,-295.61 349.5,-305.61 356.5,-305.61"/>
</g>
<!-- nd0x5575cf1e9e80 -->
<g id="node16" class="node">
<title>nd0x5575cf1e9e80</title>
<path fill="#ffc0c0" stroke="black" d="M302,-166.5C302,-166.5 332,-166.5 332,-166.5 338,-166.5 344,-172.5 344,-178.5 344,-178.5 344,-200.5 344,-200.5 344,-206.5 338,-212.5 332,-212.5 332,-212.5 302,-212.5 302,-212.5 296,-212.5 290,-206.5 290,-200.5 290,-200.5 290,-178.5 290,-178.5 290,-172.5 296,-166.5 302,-166.5"/>
<text text-anchor="middle" x="317" y="-197.3" font-family="Times,serif" font-size="14.00">1</text>
<polyline fill="none" stroke="black" points="290,-189.5 344,-189.5 "/>
<text text-anchor="middle" x="317" y="-174.3" font-family="Times,serif" font-size="14.00">MUL</text>
</g>
<!-- nd0x5575cf1e9e20&#45;&gt;nd0x5575cf1e9e80 -->
<g id="edge15" class="edge">
<title>nd0x5575cf1e9e20&#45;&gt;nd0x5575cf1e9e80</title>
<path fill="none" stroke="black" d="M343.16,-249.37C339.39,-240.88 335.02,-231.04 330.93,-221.85"/>
<polygon fill="black" stroke="black" points="334.09,-220.32 326.83,-212.61 327.69,-223.17 334.09,-220.32"/>
</g>
<!-- nd0x5575cf1e9fa0 -->
<g id="node19" class="node">
<title>nd0x5575cf1e9fa0</title>
<path fill="#54e3c2" stroke="black" d="M374,-166.5C374,-166.5 412,-166.5 412,-166.5 418,-166.5 424,-172.5 424,-178.5 424,-178.5 424,-200.5 424,-200.5 424,-206.5 418,-212.5 412,-212.5 412,-212.5 374,-212.5 374,-212.5 368,-212.5 362,-206.5 362,-200.5 362,-200.5 362,-178.5 362,-178.5 362,-172.5 368,-166.5 374,-166.5"/>
<text text-anchor="middle" x="393" y="-197.3" font-family="Times,serif" font-size="14.00">1</text>
<polyline fill="none" stroke="black" points="362,-189.5 424,-189.5 "/>
<text text-anchor="middle" x="393" y="-174.3" font-family="Times,serif" font-size="14.00">&#39;None&#39;</text>
</g>
<!-- nd0x5575cf1e9e20&#45;&gt;nd0x5575cf1e9fa0 -->
<g id="edge18" class="edge">
<title>nd0x5575cf1e9e20&#45;&gt;nd0x5575cf1e9fa0</title>
<path fill="none" stroke="black" d="M363.93,-249.37C368.12,-240.88 372.98,-231.04 377.52,-221.85"/>
<polygon fill="black" stroke="black" points="380.79,-223.12 382.08,-212.61 374.52,-220.02 380.79,-223.12"/>
</g>
<!-- nd0x5575cf1e9ee0 -->
<g id="node17" class="node">
<title>nd0x5575cf1e9ee0</title>
<path fill="#c0c0ff" stroke="black" d="M232,-83.5C232,-83.5 262,-83.5 262,-83.5 268,-83.5 274,-89.5 274,-95.5 274,-95.5 274,-117.5 274,-117.5 274,-123.5 268,-129.5 262,-129.5 262,-129.5 232,-129.5 232,-129.5 226,-129.5 220,-123.5 220,-117.5 220,-117.5 220,-95.5 220,-95.5 220,-89.5 226,-83.5 232,-83.5"/>
<text text-anchor="middle" x="247" y="-114.3" font-family="Times,serif" font-size="14.00">2</text>
<polyline fill="none" stroke="black" points="220,-106.5 274,-106.5 "/>
<text text-anchor="middle" x="247" y="-91.3" font-family="Times,serif" font-size="14.00">b</text>
</g>
<!-- nd0x5575cf1e9e80&#45;&gt;nd0x5575cf1e9ee0 -->
<g id="edge16" class="edge">
<title>nd0x5575cf1e9e80&#45;&gt;nd0x5575cf1e9ee0</title>
<path fill="none" stroke="black" d="M297.87,-166.37C290.16,-157.44 281.13,-147 272.85,-137.41"/>
<polygon fill="black" stroke="black" points="275.29,-134.88 266.1,-129.61 270,-139.46 275.29,-134.88"/>
</g>
<!-- nd0x5575cf1e9f40 -->
<g id="node18" class="node">
<title>nd0x5575cf1e9f40</title>
<path fill="#54e3c2" stroke="black" d="M304,-83.5C304,-83.5 334,-83.5 334,-83.5 340,-83.5 346,-89.5 346,-95.5 346,-95.5 346,-117.5 346,-117.5 346,-123.5 340,-129.5 334,-129.5 334,-129.5 304,-129.5 304,-129.5 298,-129.5 292,-123.5 292,-117.5 292,-117.5 292,-95.5 292,-95.5 292,-89.5 298,-83.5 304,-83.5"/>
<text text-anchor="middle" x="319" y="-114.3" font-family="Times,serif" font-size="14.00">2</text>
<polyline fill="none" stroke="black" points="292,-106.5 346,-106.5 "/>
<text text-anchor="middle" x="319" y="-91.3" font-family="Times,serif" font-size="14.00">b</text>
</g>
<!-- nd0x5575cf1e9e80&#45;&gt;nd0x5575cf1e9f40 -->
<g id="edge17" class="edge">
<title>nd0x5575cf1e9e80&#45;&gt;nd0x5575cf1e9f40</title>
<path fill="none" stroke="black" d="M317.55,-166.37C317.75,-158.15 317.98,-148.66 318.2,-139.73"/>
<polygon fill="black" stroke="black" points="321.71,-139.69 318.45,-129.61 314.71,-139.52 321.71,-139.69"/>
</g>
<!-- nd0x5575cf1ea000 -->
<g id="node20" class="node">
<title>nd0x5575cf1ea000</title>
<path fill="#ffc0c0" stroke="black" d="M376,-83.5C376,-83.5 406,-83.5 406,-83.5 412,-83.5 418,-89.5 418,-95.5 418,-95.5 418,-117.5 418,-117.5 418,-123.5 412,-129.5 406,-129.5 406,-129.5 376,-129.5 376,-129.5 370,-129.5 364,-123.5 364,-117.5 364,-117.5 364,-95.5 364,-95.5 364,-89.5 370,-83.5 376,-83.5"/>
<text text-anchor="middle" x="391" y="-114.3" font-family="Times,serif" font-size="14.00">1</text>
<polyline fill="none" stroke="black" points="364,-106.5 418,-106.5 "/>
<text text-anchor="middle" x="391" y="-91.3" font-family="Times,serif" font-size="14.00">MUL</text>
</g>
<!-- nd0x5575cf1e9fa0&#45;&gt;nd0x5575cf1ea000 -->
<g id="edge19" class="edge">
<title>nd0x5575cf1e9fa0&#45;&gt;nd0x5575cf1ea000</title>
<path fill="none" stroke="black" d="M392.45,-166.37C392.25,-158.15 392.02,-148.66 391.8,-139.73"/>
<polygon fill="black" stroke="black" points="395.29,-139.52 391.55,-129.61 388.29,-139.69 395.29,-139.52"/>
</g>
<!-- nd0x5575cf1ea120 -->
<g id="node23" class="node">
<title>nd0x5575cf1ea120</title>
<path fill="#54e3c2" stroke="black" d="M448,-83.5C448,-83.5 478,-83.5 478,-83.5 484,-83.5 490,-89.5 490,-95.5 490,-95.5 490,-117.5 490,-117.5 490,-123.5 484,-129.5 478,-129.5 478,-129.5 448,-129.5 448,-129.5 442,-129.5 436,-123.5 436,-117.5 436,-117.5 436,-95.5 436,-95.5 436,-89.5 442,-83.5 448,-83.5"/>
<text text-anchor="middle" x="463" y="-114.3" font-family="Times,serif" font-size="14.00">2</text>
<polyline fill="none" stroke="black" points="436,-106.5 490,-106.5 "/>
<text text-anchor="middle" x="463" y="-91.3" font-family="Times,serif" font-size="14.00">c</text>
</g>
<!-- nd0x5575cf1e9fa0&#45;&gt;nd0x5575cf1ea120 -->
<g id="edge22" class="edge">
<title>nd0x5575cf1e9fa0&#45;&gt;nd0x5575cf1ea120</title>
<path fill="none" stroke="black" d="M412.13,-166.37C419.84,-157.44 428.87,-147 437.15,-137.41"/>
<polygon fill="black" stroke="black" points="440,-139.46 443.9,-129.61 434.71,-134.88 440,-139.46"/>
</g>
<!-- nd0x5575cf1ea060 -->
<g id="node21" class="node">
<title>nd0x5575cf1ea060</title>
<path fill="#c0ffc0" stroke="black" d="M340,-0.5C340,-0.5 370,-0.5 370,-0.5 376,-0.5 382,-6.5 382,-12.5 382,-12.5 382,-34.5 382,-34.5 382,-40.5 376,-46.5 370,-46.5 370,-46.5 340,-46.5 340,-46.5 334,-46.5 328,-40.5 328,-34.5 328,-34.5 328,-12.5 328,-12.5 328,-6.5 334,-0.5 340,-0.5"/>
<text text-anchor="middle" x="355" y="-31.3" font-family="Times,serif" font-size="14.00">3</text>
<polyline fill="none" stroke="black" points="328,-23.5 382,-23.5 "/>
<text text-anchor="middle" x="355" y="-8.3" font-family="Times,serif" font-size="14.00">4</text>
</g>
<!-- nd0x5575cf1ea000&#45;&gt;nd0x5575cf1ea060 -->
<g id="edge20" class="edge">
<title>nd0x5575cf1ea000&#45;&gt;nd0x5575cf1ea060</title>
<path fill="none" stroke="black" d="M381.16,-83.37C377.39,-74.88 373.02,-65.04 368.93,-55.85"/>
<polygon fill="black" stroke="black" points="372.09,-54.32 364.83,-46.61 365.69,-57.17 372.09,-54.32"/>
</g>
<!-- nd0x5575cf1ea0c0 -->
<g id="node22" class="node">
<title>nd0x5575cf1ea0c0</title>
<path fill="#54e3c2" stroke="black" d="M412,-0.5C412,-0.5 442,-0.5 442,-0.5 448,-0.5 454,-6.5 454,-12.5 454,-12.5 454,-34.5 454,-34.5 454,-40.5 448,-46.5 442,-46.5 442,-46.5 412,-46.5 412,-46.5 406,-46.5 400,-40.5 400,-34.5 400,-34.5 400,-12.5 400,-12.5 400,-6.5 406,-0.5 412,-0.5"/>
<text text-anchor="middle" x="427" y="-31.3" font-family="Times,serif" font-size="14.00">2</text>
<polyline fill="none" stroke="black" points="400,-23.5 454,-23.5 "/>
<text text-anchor="middle" x="427" y="-8.3" font-family="Times,serif" font-size="14.00">a</text>
</g>
<!-- nd0x5575cf1ea000&#45;&gt;nd0x5575cf1ea0c0 -->
<g id="edge21" class="edge">
<title>nd0x5575cf1ea000&#45;&gt;nd0x5575cf1ea0c0</title>
<path fill="none" stroke="black" d="M400.84,-83.37C404.61,-74.88 408.98,-65.04 413.07,-55.85"/>
<polygon fill="black" stroke="black" points="416.31,-57.17 417.17,-46.61 409.91,-54.32 416.31,-57.17"/>
</g>
<!-- nd0x5575cf1ea220 -->
<g id="node25" class="node">
<title>nd0x5575cf1ea220</title>
<path fill="#c0ffff" stroke="black" d="M480.5,-415.5C480.5,-415.5 517.5,-415.5 517.5,-415.5 523.5,-415.5 529.5,-421.5 529.5,-427.5 529.5,-427.5 529.5,-449.5 529.5,-449.5 529.5,-455.5 523.5,-461.5 517.5,-461.5 517.5,-461.5 480.5,-461.5 480.5,-461.5 474.5,-461.5 468.5,-455.5 468.5,-449.5 468.5,-449.5 468.5,-427.5 468.5,-427.5 468.5,-421.5 474.5,-415.5 480.5,-415.5"/>
<text text-anchor="middle" x="499" y="-446.3" font-family="Times,serif" font-size="14.00">5</text>
<polyline fill="none" stroke="black" points="468.5,-438.5 529.5,-438.5 "/>
<text text-anchor="middle" x="499" y="-423.3" font-family="Times,serif" font-size="14.00">FUNC</text>
</g>
<!-- nd0x5575cf1ea1c0&#45;&gt;nd0x5575cf1ea220 -->
<g id="edge24" class="edge">
<title>nd0x5575cf1ea1c0&#45;&gt;nd0x5575cf1ea220</title>
<path fill="none" stroke="black" d="M472.84,-498.37C476.61,-489.88 480.98,-480.04 485.07,-470.85"/>
<polygon fill="black" stroke="black" points="488.31,-472.17 489.17,-461.61 481.91,-469.32 488.31,-472.17"/>
</g>
<!-- nd0x5575cf1ea280 -->
<g id="node26" class="node">
<title>nd0x5575cf1ea280</title>
<path fill="#c0ffff" stroke="black" d="M484,-332.5C484,-332.5 514,-332.5 514,-332.5 520,-332.5 526,-338.5 526,-344.5 526,-344.5 526,-366.5 526,-366.5 526,-372.5 520,-378.5 514,-378.5 514,-378.5 484,-378.5 484,-378.5 478,-378.5 472,-372.5 472,-366.5 472,-366.5 472,-344.5 472,-344.5 472,-338.5 478,-332.5 484,-332.5"/>
<text text-anchor="middle" x="499" y="-363.3" font-family="Times,serif" font-size="14.00">5</text>
<polyline fill="none" stroke="black" points="472,-355.5 526,-355.5 "/>
<text text-anchor="middle" x="499" y="-340.3" font-family="Times,serif" font-size="14.00">main</text>
</g>
<!-- nd0x5575cf1ea220&#45;&gt;nd0x5575cf1ea280 -->
<g id="edge25" class="edge">
<title>nd0x5575cf1ea220&#45;&gt;nd0x5575cf1ea280</title>
<path fill="none" stroke="black" d="M499,-415.37C499,-407.15 499,-397.66 499,-388.73"/>
<polygon fill="black" stroke="black" points="502.5,-388.61 499,-378.61 495.5,-388.61 502.5,-388.61"/>
</g>
<!-- nd0x5575cf1ea460 -->
<g id="node30" class="node">
<title>nd0x5575cf1ea460</title>
<path fill="#54e3c2" stroke="black" d="M560,-332.5C560,-332.5 590,-332.5 590,-332.5 596,-332.5 602,-338.5 602,-344.5 602,-344.5 602,-366.5 602,-366.5 602,-372.5 596,-378.5 590,-378.5 590,-378.5 560,-378.5 560,-378.5 554,-378.5 548,-372.5 548,-366.5 548,-366.5 548,-344.5 548,-344.5 548,-338.5 554,-332.5 560,-332.5"/>
<text text-anchor="middle" x="575" y="-363.3" font-family="Times,serif" font-size="14.00">4</text>
<polyline fill="none" stroke="black" points="548,-355.5 602,-355.5 "/>
<text text-anchor="middle" x="575" y="-340.3" font-family="Times,serif" font-size="14.00">ST</text>
</g>
<!-- nd0x5575cf1ea220&#45;&gt;nd0x5575cf1ea460 -->
<g id="edge29" class="edge">
<title>nd0x5575cf1ea220&#45;&gt;nd0x5575cf1ea460</title>
<path fill="none" stroke="black" d="M519.77,-415.37C528.23,-406.35 538.14,-395.79 547.21,-386.12"/>
<polygon fill="black" stroke="black" points="549.97,-388.29 554.26,-378.61 544.86,-383.5 549.97,-388.29"/>
</g>
<!-- nd0x5575cf1ea2e0 -->
<g id="node27" class="node">
<title>nd0x5575cf1ea2e0</title>
<path fill="#ffc0ff" stroke="black" d="M476.5,-249.5C476.5,-249.5 521.5,-249.5 521.5,-249.5 527.5,-249.5 533.5,-255.5 533.5,-261.5 533.5,-261.5 533.5,-283.5 533.5,-283.5 533.5,-289.5 527.5,-295.5 521.5,-295.5 521.5,-295.5 476.5,-295.5 476.5,-295.5 470.5,-295.5 464.5,-289.5 464.5,-283.5 464.5,-283.5 464.5,-261.5 464.5,-261.5 464.5,-255.5 470.5,-249.5 476.5,-249.5"/>
<text text-anchor="middle" x="499" y="-280.3" font-family="Times,serif" font-size="14.00">4</text>
<polyline fill="none" stroke="black" points="464.5,-272.5 533.5,-272.5 "/>
<text text-anchor="middle" x="499" y="-257.3" font-family="Times,serif" font-size="14.00">PARAM</text>
</g>
<!-- nd0x5575cf1ea280&#45;&gt;nd0x5575cf1ea2e0 -->
<g id="edge26" class="edge">
<title>nd0x5575cf1ea280&#45;&gt;nd0x5575cf1ea2e0</title>
<path fill="none" stroke="black" d="M499,-332.37C499,-324.15 499,-314.66 499,-305.73"/>
<polygon fill="black" stroke="black" points="502.5,-305.61 499,-295.61 495.5,-305.61 502.5,-305.61"/>
</g>
<!-- nd0x5575cf1ea340 -->
<g id="node28" class="node">
<title>nd0x5575cf1ea340</title>
<path fill="#ffc0ff" stroke="black" d="M488,-166.5C488,-166.5 518,-166.5 518,-166.5 524,-166.5 530,-172.5 530,-178.5 530,-178.5 530,-200.5 530,-200.5 530,-206.5 524,-212.5 518,-212.5 518,-212.5 488,-212.5 488,-212.5 482,-212.5 476,-206.5 476,-200.5 476,-200.5 476,-178.5 476,-178.5 476,-172.5 482,-166.5 488,-166.5"/>
<text text-anchor="middle" x="503" y="-197.3" font-family="Times,serif" font-size="14.00">4</text>
<polyline fill="none" stroke="black" points="476,-189.5 530,-189.5 "/>
<text text-anchor="middle" x="503" y="-174.3" font-family="Times,serif" font-size="14.00">VAR</text>
</g>
<!-- nd0x5575cf1ea2e0&#45;&gt;nd0x5575cf1ea340 -->
<g id="edge27" class="edge">
<title>nd0x5575cf1ea2e0&#45;&gt;nd0x5575cf1ea340</title>
<path fill="none" stroke="black" d="M500.09,-249.37C500.5,-241.15 500.97,-231.66 501.41,-222.73"/>
<polygon fill="black" stroke="black" points="504.91,-222.77 501.91,-212.61 497.92,-222.42 504.91,-222.77"/>
</g>
<!-- nd0x5575cf1ea3a0 -->
<g id="node29" class="node">
<title>nd0x5575cf1ea3a0</title>
<path fill="#c0c0ff" stroke="black" d="M520,-83.5C520,-83.5 550,-83.5 550,-83.5 556,-83.5 562,-89.5 562,-95.5 562,-95.5 562,-117.5 562,-117.5 562,-123.5 556,-129.5 550,-129.5 550,-129.5 520,-129.5 520,-129.5 514,-129.5 508,-123.5 508,-117.5 508,-117.5 508,-95.5 508,-95.5 508,-89.5 514,-83.5 520,-83.5"/>
<text text-anchor="middle" x="535" y="-114.3" font-family="Times,serif" font-size="14.00">2</text>
<polyline fill="none" stroke="black" points="508,-106.5 562,-106.5 "/>
<text text-anchor="middle" x="535" y="-91.3" font-family="Times,serif" font-size="14.00">d</text>
</g>
<!-- nd0x5575cf1ea340&#45;&gt;nd0x5575cf1ea3a0 -->
<g id="edge28" class="edge">
<title>nd0x5575cf1ea340&#45;&gt;nd0x5575cf1ea3a0</title>
<path fill="none" stroke="black" d="M511.74,-166.37C515.06,-157.97 518.9,-148.24 522.5,-139.14"/>
<polygon fill="black" stroke="black" points="525.85,-140.19 526.27,-129.61 519.34,-137.62 525.85,-140.19"/>
</g>
<!-- nd0x5575cf1ea4c0 -->
<g id="node31" class="node">
<title>nd0x5575cf1ea4c0</title>
<path fill="#ffc0ff" stroke="black" d="M564,-249.5C564,-249.5 594,-249.5 594,-249.5 600,-249.5 606,-255.5 606,-261.5 606,-261.5 606,-283.5 606,-283.5 606,-289.5 600,-295.5 594,-295.5 594,-295.5 564,-295.5 564,-295.5 558,-295.5 552,-289.5 552,-283.5 552,-283.5 552,-261.5 552,-261.5 552,-255.5 558,-249.5 564,-249.5"/>
<text text-anchor="middle" x="579" y="-280.3" font-family="Times,serif" font-size="14.00">4</text>
<polyline fill="none" stroke="black" points="552,-272.5 606,-272.5 "/>
<text text-anchor="middle" x="579" y="-257.3" font-family="Times,serif" font-size="14.00">RET</text>
</g>
<!-- nd0x5575cf1ea460&#45;&gt;nd0x5575cf1ea4c0 -->
<g id="edge30" class="edge">
<title>nd0x5575cf1ea460&#45;&gt;nd0x5575cf1ea4c0</title>
<path fill="none" stroke="black" d="M576.09,-332.37C576.5,-324.15 576.97,-314.66 577.41,-305.73"/>
<polygon fill="black" stroke="black" points="580.91,-305.77 577.91,-295.61 573.92,-305.42 580.91,-305.77"/>
</g>
<!-- nd0x5575cf1ea520 -->
<g id="node32" class="node">
<title>nd0x5575cf1ea520</title>
<path fill="#c0c0ff" stroke="black" d="M564,-166.5C564,-166.5 594,-166.5 594,-166.5 600,-166.5 606,-172.5 606,-178.5 606,-178.5 606,-200.5 606,-200.5 606,-206.5 600,-212.5 594,-212.5 594,-212.5 564,-212.5 564,-212.5 558,-212.5 552,-206.5 552,-200.5 552,-200.5 552,-178.5 552,-178.5 552,-172.5 558,-166.5 564,-166.5"/>
<text text-anchor="middle" x="579" y="-197.3" font-family="Times,serif" font-size="14.00">2</text>
<polyline fill="none" stroke="black" points="552,-189.5 606,-189.5 "/>
<text text-anchor="middle" x="579" y="-174.3" font-family="Times,serif" font-size="14.00">d</text>
</g>
<!-- nd0x5575cf1ea4c0&#45;&gt;nd0x5575cf1ea520 -->
<g id="edge31" class="edge">
<title>nd0x5575cf1ea4c0&#45;&gt;nd0x5575cf1ea520</title>
<path fill="none" stroke="black" d="M579,-249.37C579,-241.15 579,-231.66 579,-222.73"/>
<polygon fill="black" stroke="black" points="582.5,-222.61 579,-212.61 575.5,-222.61 582.5,-222.61"/>
</g>
</g>
</svg>
