<?xml version="1.0" encoding="UTF-8" standalone="no"?>
<!DOCTYPE svg PUBLIC "-//W3C//DTD SVG 1.1//EN"
 "http://www.w3.org/Graphics/SVG/1.1/DTD/svg11.dtd">
<!-- Generated by graphviz version 7.0.0 (20221023.0053)
 -->
<!-- Title: MyGraph Pages: 1 -->
<svg width="541pt" height="968pt"
 viewBox="0.00 0.00 541.00 968.00" xmlns="http://www.w3.org/2000/svg" xmlns:xlink="http://www.w3.org/1999/xlink">
<g id="graph0" class="graph" transform="scale(1 1) rotate(0) translate(4 964)">
<title>MyGraph</title>
<polygon fill="white" stroke="none" points="-4,4 -4,-964 537,-964 537,4 -4,4"/>
<!-- nd0x60000232c000 -->
<g id="node1" class="node">
<title>nd0x60000232c000</title>
<path fill="#54e3c2" stroke="black" d="M151.5,-913.5C151.5,-913.5 181.5,-913.5 181.5,-913.5 187.5,-913.5 193.5,-919.5 193.5,-925.5 193.5,-925.5 193.5,-947.5 193.5,-947.5 193.5,-953.5 187.5,-959.5 181.5,-959.5 181.5,-959.5 151.5,-959.5 151.5,-959.5 145.5,-959.5 139.5,-953.5 139.5,-947.5 139.5,-947.5 139.5,-925.5 139.5,-925.5 139.5,-919.5 145.5,-913.5 151.5,-913.5"/>
<text text-anchor="middle" x="166.5" y="-944.3" font-family="Times,serif" font-size="14.00">4</text>
<polyline fill="none" stroke="black" points="139.5,-936.5 193.5,-936.5"/>
<text text-anchor="middle" x="166.5" y="-921.3" font-family="Times,serif" font-size="14.00">ST</text>
</g>
<!-- nd0x60000232c040 -->
<g id="node2" class="node">
<title>nd0x60000232c040</title>
<path fill="#54e3c2" stroke="black" d="M115.5,-830.5C115.5,-830.5 145.5,-830.5 145.5,-830.5 151.5,-830.5 157.5,-836.5 157.5,-842.5 157.5,-842.5 157.5,-864.5 157.5,-864.5 157.5,-870.5 151.5,-876.5 145.5,-876.5 145.5,-876.5 115.5,-876.5 115.5,-876.5 109.5,-876.5 103.5,-870.5 103.5,-864.5 103.5,-864.5 103.5,-842.5 103.5,-842.5 103.5,-836.5 109.5,-830.5 115.5,-830.5"/>
<text text-anchor="middle" x="130.5" y="-861.3" font-family="Times,serif" font-size="14.00">5</text>
<polyline fill="none" stroke="black" points="103.5,-853.5 157.5,-853.5"/>
<text text-anchor="middle" x="130.5" y="-838.3" font-family="Times,serif" font-size="14.00">FUNC</text>
</g>
<!-- nd0x60000232c000&#45;&gt;nd0x60000232c040 -->
<g id="edge1" class="edge">
<title>nd0x60000232c000&#45;&gt;nd0x60000232c040</title>
<path fill="none" stroke="black" d="M156.85,-913.79C153.14,-905.44 148.82,-895.72 144.76,-886.59"/>
<polygon fill="black" stroke="black" points="148.05,-885.37 140.79,-877.65 141.65,-888.21 148.05,-885.37"/>
</g>
<!-- nd0x60000232c240 -->
<g id="node10" class="node">
<title>nd0x60000232c240</title>
<path fill="#54e3c2" stroke="black" d="M187.5,-830.5C187.5,-830.5 217.5,-830.5 217.5,-830.5 223.5,-830.5 229.5,-836.5 229.5,-842.5 229.5,-842.5 229.5,-864.5 229.5,-864.5 229.5,-870.5 223.5,-876.5 217.5,-876.5 217.5,-876.5 187.5,-876.5 187.5,-876.5 181.5,-876.5 175.5,-870.5 175.5,-864.5 175.5,-864.5 175.5,-842.5 175.5,-842.5 175.5,-836.5 181.5,-830.5 187.5,-830.5"/>
<text text-anchor="middle" x="202.5" y="-861.3" font-family="Times,serif" font-size="14.00">4</text>
<polyline fill="none" stroke="black" points="175.5,-853.5 229.5,-853.5"/>
<text text-anchor="middle" x="202.5" y="-838.3" font-family="Times,serif" font-size="14.00">ST</text>
</g>
<!-- nd0x60000232c000&#45;&gt;nd0x60000232c240 -->
<g id="edge9" class="edge">
<title>nd0x60000232c000&#45;&gt;nd0x60000232c240</title>
<path fill="none" stroke="black" d="M176.15,-913.79C179.86,-905.44 184.18,-895.72 188.24,-886.59"/>
<polygon fill="black" stroke="black" points="191.35,-888.21 192.21,-877.65 184.95,-885.37 191.35,-888.21"/>
</g>
<!-- nd0x60000232c080 -->
<g id="node3" class="node">
<title>nd0x60000232c080</title>
<path fill="#54e3c2" stroke="black" d="M12,-747.5C12,-747.5 73,-747.5 73,-747.5 79,-747.5 85,-753.5 85,-759.5 85,-759.5 85,-781.5 85,-781.5 85,-787.5 79,-793.5 73,-793.5 73,-793.5 12,-793.5 12,-793.5 6,-793.5 0,-787.5 0,-781.5 0,-781.5 0,-759.5 0,-759.5 0,-753.5 6,-747.5 12,-747.5"/>
<text text-anchor="middle" x="42.5" y="-778.3" font-family="Times,serif" font-size="14.00">5</text>
<polyline fill="none" stroke="black" points="0,-770.5 85,-770.5"/>
<text text-anchor="middle" x="42.5" y="-755.3" font-family="Times,serif" font-size="14.00">discriminant</text>
</g>
<!-- nd0x60000232c040&#45;&gt;nd0x60000232c080 -->
<g id="edge2" class="edge">
<title>nd0x60000232c040&#45;&gt;nd0x60000232c080</title>
<path fill="none" stroke="black" d="M106.92,-830.79C96.95,-821.62 85.2,-810.8 74.47,-800.93"/>
<polygon fill="black" stroke="black" points="76.99,-798.49 67.26,-794.29 72.25,-803.64 76.99,-798.49"/>
</g>
<!-- nd0x60000232c180 -->
<g id="node7" class="node">
<title>nd0x60000232c180</title>
<path fill="#54e3c2" stroke="black" d="M115.5,-747.5C115.5,-747.5 145.5,-747.5 145.5,-747.5 151.5,-747.5 157.5,-753.5 157.5,-759.5 157.5,-759.5 157.5,-781.5 157.5,-781.5 157.5,-787.5 151.5,-793.5 145.5,-793.5 145.5,-793.5 115.5,-793.5 115.5,-793.5 109.5,-793.5 103.5,-787.5 103.5,-781.5 103.5,-781.5 103.5,-759.5 103.5,-759.5 103.5,-753.5 109.5,-747.5 115.5,-747.5"/>
<text text-anchor="middle" x="130.5" y="-778.3" font-family="Times,serif" font-size="14.00">4</text>
<polyline fill="none" stroke="black" points="103.5,-770.5 157.5,-770.5"/>
<text text-anchor="middle" x="130.5" y="-755.3" font-family="Times,serif" font-size="14.00">ST</text>
</g>
<!-- nd0x60000232c040&#45;&gt;nd0x60000232c180 -->
<g id="edge6" class="edge">
<title>nd0x60000232c040&#45;&gt;nd0x60000232c180</title>
<path fill="none" stroke="black" d="M130.5,-830.79C130.5,-822.71 130.5,-813.35 130.5,-804.48"/>
<polygon fill="black" stroke="black" points="134,-804.78 130.5,-794.78 127,-804.78 134,-804.78"/>
</g>
<!-- nd0x60000232c0c0 -->
<g id="node4" class="node">
<title>nd0x60000232c0c0</title>
<path fill="#54e3c2" stroke="black" d="M22,-664.5C22,-664.5 63,-664.5 63,-664.5 69,-664.5 75,-670.5 75,-676.5 75,-676.5 75,-698.5 75,-698.5 75,-704.5 69,-710.5 63,-710.5 63,-710.5 22,-710.5 22,-710.5 16,-710.5 10,-704.5 10,-698.5 10,-698.5 10,-676.5 10,-676.5 10,-670.5 16,-664.5 22,-664.5"/>
<text text-anchor="middle" x="42.5" y="-695.3" font-family="Times,serif" font-size="14.00">4</text>
<polyline fill="none" stroke="black" points="10,-687.5 75,-687.5"/>
<text text-anchor="middle" x="42.5" y="-672.3" font-family="Times,serif" font-size="14.00">PARAM</text>
</g>
<!-- nd0x60000232c080&#45;&gt;nd0x60000232c0c0 -->
<g id="edge3" class="edge">
<title>nd0x60000232c080&#45;&gt;nd0x60000232c0c0</title>
<path fill="none" stroke="black" d="M42.5,-747.79C42.5,-739.71 42.5,-730.35 42.5,-721.48"/>
<polygon fill="black" stroke="black" points="46,-721.78 42.5,-711.78 39,-721.78 46,-721.78"/>
</g>
<!-- nd0x60000232c100 -->
<g id="node5" class="node">
<title>nd0x60000232c100</title>
<path fill="#54e3c2" stroke="black" d="M27.5,-581.5C27.5,-581.5 57.5,-581.5 57.5,-581.5 63.5,-581.5 69.5,-587.5 69.5,-593.5 69.5,-593.5 69.5,-615.5 69.5,-615.5 69.5,-621.5 63.5,-627.5 57.5,-627.5 57.5,-627.5 27.5,-627.5 27.5,-627.5 21.5,-627.5 15.5,-621.5 15.5,-615.5 15.5,-615.5 15.5,-593.5 15.5,-593.5 15.5,-587.5 21.5,-581.5 27.5,-581.5"/>
<text text-anchor="middle" x="42.5" y="-612.3" font-family="Times,serif" font-size="14.00">2</text>
<polyline fill="none" stroke="black" points="15.5,-604.5 69.5,-604.5"/>
<text text-anchor="middle" x="42.5" y="-589.3" font-family="Times,serif" font-size="14.00">VAR</text>
</g>
<!-- nd0x60000232c0c0&#45;&gt;nd0x60000232c100 -->
<g id="edge4" class="edge">
<title>nd0x60000232c0c0&#45;&gt;nd0x60000232c100</title>
<path fill="none" stroke="black" d="M42.5,-664.79C42.5,-656.71 42.5,-647.35 42.5,-638.48"/>
<polygon fill="black" stroke="black" points="46,-638.78 42.5,-628.78 39,-638.78 46,-638.78"/>
</g>
<!-- nd0x60000232c140 -->
<g id="node6" class="node">
<title>nd0x60000232c140</title>
<path fill="#54e3c2" stroke="black" d="M27.5,-498.5C27.5,-498.5 57.5,-498.5 57.5,-498.5 63.5,-498.5 69.5,-504.5 69.5,-510.5 69.5,-510.5 69.5,-532.5 69.5,-532.5 69.5,-538.5 63.5,-544.5 57.5,-544.5 57.5,-544.5 27.5,-544.5 27.5,-544.5 21.5,-544.5 15.5,-538.5 15.5,-532.5 15.5,-532.5 15.5,-510.5 15.5,-510.5 15.5,-504.5 21.5,-498.5 27.5,-498.5"/>
<text text-anchor="middle" x="42.5" y="-529.3" font-family="Times,serif" font-size="14.00">2</text>
<polyline fill="none" stroke="black" points="15.5,-521.5 69.5,-521.5"/>
<text text-anchor="middle" x="42.5" y="-506.3" font-family="Times,serif" font-size="14.00">a</text>
</g>
<!-- nd0x60000232c100&#45;&gt;nd0x60000232c140 -->
<g id="edge5" class="edge">
<title>nd0x60000232c100&#45;&gt;nd0x60000232c140</title>
<path fill="none" stroke="black" d="M42.5,-581.79C42.5,-573.71 42.5,-564.35 42.5,-555.48"/>
<polygon fill="black" stroke="black" points="46,-555.78 42.5,-545.78 39,-555.78 46,-555.78"/>
</g>
<!-- nd0x60000232c1c0 -->
<g id="node8" class="node">
<title>nd0x60000232c1c0</title>
<path fill="#54e3c2" stroke="black" d="M115.5,-664.5C115.5,-664.5 145.5,-664.5 145.5,-664.5 151.5,-664.5 157.5,-670.5 157.5,-676.5 157.5,-676.5 157.5,-698.5 157.5,-698.5 157.5,-704.5 151.5,-710.5 145.5,-710.5 145.5,-710.5 115.5,-710.5 115.5,-710.5 109.5,-710.5 103.5,-704.5 103.5,-698.5 103.5,-698.5 103.5,-676.5 103.5,-676.5 103.5,-670.5 109.5,-664.5 115.5,-664.5"/>
<text text-anchor="middle" x="130.5" y="-695.3" font-family="Times,serif" font-size="14.00">4</text>
<polyline fill="none" stroke="black" points="103.5,-687.5 157.5,-687.5"/>
<text text-anchor="middle" x="130.5" y="-672.3" font-family="Times,serif" font-size="14.00">RET</text>
</g>
<!-- nd0x60000232c180&#45;&gt;nd0x60000232c1c0 -->
<g id="edge7" class="edge">
<title>nd0x60000232c180&#45;&gt;nd0x60000232c1c0</title>
<path fill="none" stroke="black" d="M130.5,-747.79C130.5,-739.71 130.5,-730.35 130.5,-721.48"/>
<polygon fill="black" stroke="black" points="134,-721.78 130.5,-711.78 127,-721.78 134,-721.78"/>
</g>
<!-- nd0x60000232c200 -->
<g id="node9" class="node">
<title>nd0x60000232c200</title>
<path fill="#54e3c2" stroke="black" d="M115.5,-581.5C115.5,-581.5 145.5,-581.5 145.5,-581.5 151.5,-581.5 157.5,-587.5 157.5,-593.5 157.5,-593.5 157.5,-615.5 157.5,-615.5 157.5,-621.5 151.5,-627.5 145.5,-627.5 145.5,-627.5 115.5,-627.5 115.5,-627.5 109.5,-627.5 103.5,-621.5 103.5,-615.5 103.5,-615.5 103.5,-593.5 103.5,-593.5 103.5,-587.5 109.5,-581.5 115.5,-581.5"/>
<text text-anchor="middle" x="130.5" y="-612.3" font-family="Times,serif" font-size="14.00">2</text>
<polyline fill="none" stroke="black" points="103.5,-604.5 157.5,-604.5"/>
<text text-anchor="middle" x="130.5" y="-589.3" font-family="Times,serif" font-size="14.00">a</text>
</g>
<!-- nd0x60000232c1c0&#45;&gt;nd0x60000232c200 -->
<g id="edge8" class="edge">
<title>nd0x60000232c1c0&#45;&gt;nd0x60000232c200</title>
<path fill="none" stroke="black" d="M130.5,-664.79C130.5,-656.71 130.5,-647.35 130.5,-638.48"/>
<polygon fill="black" stroke="black" points="134,-638.78 130.5,-628.78 127,-638.78 134,-638.78"/>
</g>
<!-- nd0x60000232c280 -->
<g id="node11" class="node">
<title>nd0x60000232c280</title>
<path fill="#54e3c2" stroke="black" d="M187.5,-747.5C187.5,-747.5 217.5,-747.5 217.5,-747.5 223.5,-747.5 229.5,-753.5 229.5,-759.5 229.5,-759.5 229.5,-781.5 229.5,-781.5 229.5,-787.5 223.5,-793.5 217.5,-793.5 217.5,-793.5 187.5,-793.5 187.5,-793.5 181.5,-793.5 175.5,-787.5 175.5,-781.5 175.5,-781.5 175.5,-759.5 175.5,-759.5 175.5,-753.5 181.5,-747.5 187.5,-747.5"/>
<text text-anchor="middle" x="202.5" y="-778.3" font-family="Times,serif" font-size="14.00">5</text>
<polyline fill="none" stroke="black" points="175.5,-770.5 229.5,-770.5"/>
<text text-anchor="middle" x="202.5" y="-755.3" font-family="Times,serif" font-size="14.00">FUNC</text>
</g>
<!-- nd0x60000232c240&#45;&gt;nd0x60000232c280 -->
<g id="edge10" class="edge">
<title>nd0x60000232c240&#45;&gt;nd0x60000232c280</title>
<path fill="none" stroke="black" d="M202.5,-830.79C202.5,-822.71 202.5,-813.35 202.5,-804.48"/>
<polygon fill="black" stroke="black" points="206,-804.78 202.5,-794.78 199,-804.78 206,-804.78"/>
</g>
<!-- nd0x60000232c2c0 -->
<g id="node12" class="node">
<title>nd0x60000232c2c0</title>
<path fill="#54e3c2" stroke="black" d="M187.5,-664.5C187.5,-664.5 217.5,-664.5 217.5,-664.5 223.5,-664.5 229.5,-670.5 229.5,-676.5 229.5,-676.5 229.5,-698.5 229.5,-698.5 229.5,-704.5 223.5,-710.5 217.5,-710.5 217.5,-710.5 187.5,-710.5 187.5,-710.5 181.5,-710.5 175.5,-704.5 175.5,-698.5 175.5,-698.5 175.5,-676.5 175.5,-676.5 175.5,-670.5 181.5,-664.5 187.5,-664.5"/>
<text text-anchor="middle" x="202.5" y="-695.3" font-family="Times,serif" font-size="14.00">5</text>
<polyline fill="none" stroke="black" points="175.5,-687.5 229.5,-687.5"/>
<text text-anchor="middle" x="202.5" y="-672.3" font-family="Times,serif" font-size="14.00">main</text>
</g>
<!-- nd0x60000232c280&#45;&gt;nd0x60000232c2c0 -->
<g id="edge11" class="edge">
<title>nd0x60000232c280&#45;&gt;nd0x60000232c2c0</title>
<path fill="none" stroke="black" d="M202.5,-747.79C202.5,-739.71 202.5,-730.35 202.5,-721.48"/>
<polygon fill="black" stroke="black" points="206,-721.78 202.5,-711.78 199,-721.78 206,-721.78"/>
</g>
<!-- nd0x60000232c300 -->
<g id="node13" class="node">
<title>nd0x60000232c300</title>
<path fill="#54e3c2" stroke="black" d="M259.5,-664.5C259.5,-664.5 289.5,-664.5 289.5,-664.5 295.5,-664.5 301.5,-670.5 301.5,-676.5 301.5,-676.5 301.5,-698.5 301.5,-698.5 301.5,-704.5 295.5,-710.5 289.5,-710.5 289.5,-710.5 259.5,-710.5 259.5,-710.5 253.5,-710.5 247.5,-704.5 247.5,-698.5 247.5,-698.5 247.5,-676.5 247.5,-676.5 247.5,-670.5 253.5,-664.5 259.5,-664.5"/>
<text text-anchor="middle" x="274.5" y="-695.3" font-family="Times,serif" font-size="14.00">4</text>
<polyline fill="none" stroke="black" points="247.5,-687.5 301.5,-687.5"/>
<text text-anchor="middle" x="274.5" y="-672.3" font-family="Times,serif" font-size="14.00">ST</text>
</g>
<!-- nd0x60000232c280&#45;&gt;nd0x60000232c300 -->
<g id="edge12" class="edge">
<title>nd0x60000232c280&#45;&gt;nd0x60000232c300</title>
<path fill="none" stroke="black" d="M221.79,-747.79C229.7,-738.9 239,-728.44 247.56,-718.81"/>
<polygon fill="black" stroke="black" points="250.12,-721.2 254.15,-711.4 244.89,-716.55 250.12,-721.2"/>
</g>
<!-- nd0x6000023210c0 -->
<g id="node14" class="node">
<title>nd0x6000023210c0</title>
<path fill="#54e3c2" stroke="black" d="M223.5,-581.5C223.5,-581.5 253.5,-581.5 253.5,-581.5 259.5,-581.5 265.5,-587.5 265.5,-593.5 265.5,-593.5 265.5,-615.5 265.5,-615.5 265.5,-621.5 259.5,-627.5 253.5,-627.5 253.5,-627.5 223.5,-627.5 223.5,-627.5 217.5,-627.5 211.5,-621.5 211.5,-615.5 211.5,-615.5 211.5,-593.5 211.5,-593.5 211.5,-587.5 217.5,-581.5 223.5,-581.5"/>
<text text-anchor="middle" x="238.5" y="-612.3" font-family="Times,serif" font-size="14.00">2</text>
<polyline fill="none" stroke="black" points="211.5,-604.5 265.5,-604.5"/>
<text text-anchor="middle" x="238.5" y="-589.3" font-family="Times,serif" font-size="14.00">VAR</text>
</g>
<!-- nd0x60000232c300&#45;&gt;nd0x6000023210c0 -->
<g id="edge13" class="edge">
<title>nd0x60000232c300&#45;&gt;nd0x6000023210c0</title>
<path fill="none" stroke="black" d="M264.85,-664.79C261.14,-656.44 256.82,-646.72 252.76,-637.59"/>
<polygon fill="black" stroke="black" points="256.05,-636.37 248.79,-628.65 249.65,-639.21 256.05,-636.37"/>
</g>
<!-- nd0x600002321180 -->
<g id="node17" class="node">
<title>nd0x600002321180</title>
<path fill="#54e3c2" stroke="black" d="M295.5,-581.5C295.5,-581.5 325.5,-581.5 325.5,-581.5 331.5,-581.5 337.5,-587.5 337.5,-593.5 337.5,-593.5 337.5,-615.5 337.5,-615.5 337.5,-621.5 331.5,-627.5 325.5,-627.5 325.5,-627.5 295.5,-627.5 295.5,-627.5 289.5,-627.5 283.5,-621.5 283.5,-615.5 283.5,-615.5 283.5,-593.5 283.5,-593.5 283.5,-587.5 289.5,-581.5 295.5,-581.5"/>
<text text-anchor="middle" x="310.5" y="-612.3" font-family="Times,serif" font-size="14.00">4</text>
<polyline fill="none" stroke="black" points="283.5,-604.5 337.5,-604.5"/>
<text text-anchor="middle" x="310.5" y="-589.3" font-family="Times,serif" font-size="14.00">ST</text>
</g>
<!-- nd0x60000232c300&#45;&gt;nd0x600002321180 -->
<g id="edge16" class="edge">
<title>nd0x60000232c300&#45;&gt;nd0x600002321180</title>
<path fill="none" stroke="black" d="M284.15,-664.79C287.86,-656.44 292.18,-646.72 296.24,-637.59"/>
<polygon fill="black" stroke="black" points="299.35,-639.21 300.21,-628.65 292.95,-636.37 299.35,-639.21"/>
</g>
<!-- nd0x600002321100 -->
<g id="node15" class="node">
<title>nd0x600002321100</title>
<path fill="#54e3c2" stroke="black" d="M151.5,-498.5C151.5,-498.5 181.5,-498.5 181.5,-498.5 187.5,-498.5 193.5,-504.5 193.5,-510.5 193.5,-510.5 193.5,-532.5 193.5,-532.5 193.5,-538.5 187.5,-544.5 181.5,-544.5 181.5,-544.5 151.5,-544.5 151.5,-544.5 145.5,-544.5 139.5,-538.5 139.5,-532.5 139.5,-532.5 139.5,-510.5 139.5,-510.5 139.5,-504.5 145.5,-498.5 151.5,-498.5"/>
<text text-anchor="middle" x="166.5" y="-529.3" font-family="Times,serif" font-size="14.00">2</text>
<polyline fill="none" stroke="black" points="139.5,-521.5 193.5,-521.5"/>
<text text-anchor="middle" x="166.5" y="-506.3" font-family="Times,serif" font-size="14.00">x</text>
</g>
<!-- nd0x6000023210c0&#45;&gt;nd0x600002321100 -->
<g id="edge14" class="edge">
<title>nd0x6000023210c0&#45;&gt;nd0x600002321100</title>
<path fill="none" stroke="black" d="M219.21,-581.79C211.3,-572.9 202,-562.44 193.44,-552.81"/>
<polygon fill="black" stroke="black" points="196.11,-550.55 186.85,-545.4 190.88,-555.2 196.11,-550.55"/>
</g>
<!-- nd0x600002321140 -->
<g id="node16" class="node">
<title>nd0x600002321140</title>
<path fill="#54e3c2" stroke="black" d="M223.5,-498.5C223.5,-498.5 253.5,-498.5 253.5,-498.5 259.5,-498.5 265.5,-504.5 265.5,-510.5 265.5,-510.5 265.5,-532.5 265.5,-532.5 265.5,-538.5 259.5,-544.5 253.5,-544.5 253.5,-544.5 223.5,-544.5 223.5,-544.5 217.5,-544.5 211.5,-538.5 211.5,-532.5 211.5,-532.5 211.5,-510.5 211.5,-510.5 211.5,-504.5 217.5,-498.5 223.5,-498.5"/>
<text text-anchor="middle" x="238.5" y="-529.3" font-family="Times,serif" font-size="14.00">3</text>
<polyline fill="none" stroke="black" points="211.5,-521.5 265.5,-521.5"/>
<text text-anchor="middle" x="238.5" y="-506.3" font-family="Times,serif" font-size="14.00">0</text>
</g>
<!-- nd0x6000023210c0&#45;&gt;nd0x600002321140 -->
<g id="edge15" class="edge">
<title>nd0x6000023210c0&#45;&gt;nd0x600002321140</title>
<path fill="none" stroke="black" d="M238.5,-581.79C238.5,-573.71 238.5,-564.35 238.5,-555.48"/>
<polygon fill="black" stroke="black" points="242,-555.78 238.5,-545.78 235,-555.78 242,-555.78"/>
</g>
<!-- nd0x6000023211c0 -->
<g id="node18" class="node">
<title>nd0x6000023211c0</title>
<path fill="#54e3c2" stroke="black" d="M295.5,-498.5C295.5,-498.5 325.5,-498.5 325.5,-498.5 331.5,-498.5 337.5,-504.5 337.5,-510.5 337.5,-510.5 337.5,-532.5 337.5,-532.5 337.5,-538.5 331.5,-544.5 325.5,-544.5 325.5,-544.5 295.5,-544.5 295.5,-544.5 289.5,-544.5 283.5,-538.5 283.5,-532.5 283.5,-532.5 283.5,-510.5 283.5,-510.5 283.5,-504.5 289.5,-498.5 295.5,-498.5"/>
<text text-anchor="middle" x="310.5" y="-529.3" font-family="Times,serif" font-size="14.00">2</text>
<polyline fill="none" stroke="black" points="283.5,-521.5 337.5,-521.5"/>
<text text-anchor="middle" x="310.5" y="-506.3" font-family="Times,serif" font-size="14.00">VAR</text>
</g>
<!-- nd0x600002321180&#45;&gt;nd0x6000023211c0 -->
<g id="edge17" class="edge">
<title>nd0x600002321180&#45;&gt;nd0x6000023211c0</title>
<path fill="none" stroke="black" d="M310.5,-581.79C310.5,-573.71 310.5,-564.35 310.5,-555.48"/>
<polygon fill="black" stroke="black" points="314,-555.78 310.5,-545.78 307,-555.78 314,-555.78"/>
</g>
<!-- nd0x600002321280 -->
<g id="node21" class="node">
<title>nd0x600002321280</title>
<path fill="#54e3c2" stroke="black" d="M367.5,-498.5C367.5,-498.5 397.5,-498.5 397.5,-498.5 403.5,-498.5 409.5,-504.5 409.5,-510.5 409.5,-510.5 409.5,-532.5 409.5,-532.5 409.5,-538.5 403.5,-544.5 397.5,-544.5 397.5,-544.5 367.5,-544.5 367.5,-544.5 361.5,-544.5 355.5,-538.5 355.5,-532.5 355.5,-532.5 355.5,-510.5 355.5,-510.5 355.5,-504.5 361.5,-498.5 367.5,-498.5"/>
<text text-anchor="middle" x="382.5" y="-529.3" font-family="Times,serif" font-size="14.00">4</text>
<polyline fill="none" stroke="black" points="355.5,-521.5 409.5,-521.5"/>
<text text-anchor="middle" x="382.5" y="-506.3" font-family="Times,serif" font-size="14.00">ST</text>
</g>
<!-- nd0x600002321180&#45;&gt;nd0x600002321280 -->
<g id="edge20" class="edge">
<title>nd0x600002321180&#45;&gt;nd0x600002321280</title>
<path fill="none" stroke="black" d="M329.79,-581.79C337.7,-572.9 347,-562.44 355.56,-552.81"/>
<polygon fill="black" stroke="black" points="358.12,-555.2 362.15,-545.4 352.89,-550.55 358.12,-555.2"/>
</g>
<!-- nd0x600002321200 -->
<g id="node19" class="node">
<title>nd0x600002321200</title>
<path fill="#54e3c2" stroke="black" d="M223.5,-415.5C223.5,-415.5 253.5,-415.5 253.5,-415.5 259.5,-415.5 265.5,-421.5 265.5,-427.5 265.5,-427.5 265.5,-449.5 265.5,-449.5 265.5,-455.5 259.5,-461.5 253.5,-461.5 253.5,-461.5 223.5,-461.5 223.5,-461.5 217.5,-461.5 211.5,-455.5 211.5,-449.5 211.5,-449.5 211.5,-427.5 211.5,-427.5 211.5,-421.5 217.5,-415.5 223.5,-415.5"/>
<text text-anchor="middle" x="238.5" y="-446.3" font-family="Times,serif" font-size="14.00">2</text>
<polyline fill="none" stroke="black" points="211.5,-438.5 265.5,-438.5"/>
<text text-anchor="middle" x="238.5" y="-423.3" font-family="Times,serif" font-size="14.00">y</text>
</g>
<!-- nd0x6000023211c0&#45;&gt;nd0x600002321200 -->
<g id="edge18" class="edge">
<title>nd0x6000023211c0&#45;&gt;nd0x600002321200</title>
<path fill="none" stroke="black" d="M291.21,-498.79C283.3,-489.9 274,-479.44 265.44,-469.81"/>
<polygon fill="black" stroke="black" points="268.11,-467.55 258.85,-462.4 262.88,-472.2 268.11,-467.55"/>
</g>
<!-- nd0x600002321240 -->
<g id="node20" class="node">
<title>nd0x600002321240</title>
<path fill="#54e3c2" stroke="black" d="M295.5,-415.5C295.5,-415.5 325.5,-415.5 325.5,-415.5 331.5,-415.5 337.5,-421.5 337.5,-427.5 337.5,-427.5 337.5,-449.5 337.5,-449.5 337.5,-455.5 331.5,-461.5 325.5,-461.5 325.5,-461.5 295.5,-461.5 295.5,-461.5 289.5,-461.5 283.5,-455.5 283.5,-449.5 283.5,-449.5 283.5,-427.5 283.5,-427.5 283.5,-421.5 289.5,-415.5 295.5,-415.5"/>
<text text-anchor="middle" x="310.5" y="-446.3" font-family="Times,serif" font-size="14.00">3</text>
<polyline fill="none" stroke="black" points="283.5,-438.5 337.5,-438.5"/>
<text text-anchor="middle" x="310.5" y="-423.3" font-family="Times,serif" font-size="14.00">0</text>
</g>
<!-- nd0x6000023211c0&#45;&gt;nd0x600002321240 -->
<g id="edge19" class="edge">
<title>nd0x6000023211c0&#45;&gt;nd0x600002321240</title>
<path fill="none" stroke="black" d="M310.5,-498.79C310.5,-490.71 310.5,-481.35 310.5,-472.48"/>
<polygon fill="black" stroke="black" points="314,-472.78 310.5,-462.78 307,-472.78 314,-472.78"/>
</g>
<!-- nd0x6000023212c0 -->
<g id="node22" class="node">
<title>nd0x6000023212c0</title>
<path fill="#54e3c2" stroke="black" d="M367.5,-415.5C367.5,-415.5 397.5,-415.5 397.5,-415.5 403.5,-415.5 409.5,-421.5 409.5,-427.5 409.5,-427.5 409.5,-449.5 409.5,-449.5 409.5,-455.5 403.5,-461.5 397.5,-461.5 397.5,-461.5 367.5,-461.5 367.5,-461.5 361.5,-461.5 355.5,-455.5 355.5,-449.5 355.5,-449.5 355.5,-427.5 355.5,-427.5 355.5,-421.5 361.5,-415.5 367.5,-415.5"/>
<text text-anchor="middle" x="382.5" y="-446.3" font-family="Times,serif" font-size="14.00">2</text>
<polyline fill="none" stroke="black" points="355.5,-438.5 409.5,-438.5"/>
<text text-anchor="middle" x="382.5" y="-423.3" font-family="Times,serif" font-size="14.00">VAR</text>
</g>
<!-- nd0x600002321280&#45;&gt;nd0x6000023212c0 -->
<g id="edge21" class="edge">
<title>nd0x600002321280&#45;&gt;nd0x6000023212c0</title>
<path fill="none" stroke="black" d="M382.5,-498.79C382.5,-490.71 382.5,-481.35 382.5,-472.48"/>
<polygon fill="black" stroke="black" points="386,-472.78 382.5,-462.78 379,-472.78 386,-472.78"/>
</g>
<!-- nd0x600002321380 -->
<g id="node25" class="node">
<title>nd0x600002321380</title>
<path fill="#54e3c2" stroke="black" d="M439.5,-415.5C439.5,-415.5 469.5,-415.5 469.5,-415.5 475.5,-415.5 481.5,-421.5 481.5,-427.5 481.5,-427.5 481.5,-449.5 481.5,-449.5 481.5,-455.5 475.5,-461.5 469.5,-461.5 469.5,-461.5 439.5,-461.5 439.5,-461.5 433.5,-461.5 427.5,-455.5 427.5,-449.5 427.5,-449.5 427.5,-427.5 427.5,-427.5 427.5,-421.5 433.5,-415.5 439.5,-415.5"/>
<text text-anchor="middle" x="454.5" y="-446.3" font-family="Times,serif" font-size="14.00">4</text>
<polyline fill="none" stroke="black" points="427.5,-438.5 481.5,-438.5"/>
<text text-anchor="middle" x="454.5" y="-423.3" font-family="Times,serif" font-size="14.00">ST</text>
</g>
<!-- nd0x600002321280&#45;&gt;nd0x600002321380 -->
<g id="edge24" class="edge">
<title>nd0x600002321280&#45;&gt;nd0x600002321380</title>
<path fill="none" stroke="black" d="M401.79,-498.79C409.7,-489.9 419,-479.44 427.56,-469.81"/>
<polygon fill="black" stroke="black" points="430.12,-472.2 434.15,-462.4 424.89,-467.55 430.12,-472.2"/>
</g>
<!-- nd0x600002321300 -->
<g id="node23" class="node">
<title>nd0x600002321300</title>
<path fill="#54e3c2" stroke="black" d="M295.5,-332.5C295.5,-332.5 325.5,-332.5 325.5,-332.5 331.5,-332.5 337.5,-338.5 337.5,-344.5 337.5,-344.5 337.5,-366.5 337.5,-366.5 337.5,-372.5 331.5,-378.5 325.5,-378.5 325.5,-378.5 295.5,-378.5 295.5,-378.5 289.5,-378.5 283.5,-372.5 283.5,-366.5 283.5,-366.5 283.5,-344.5 283.5,-344.5 283.5,-338.5 289.5,-332.5 295.5,-332.5"/>
<text text-anchor="middle" x="310.5" y="-363.3" font-family="Times,serif" font-size="14.00">2</text>
<polyline fill="none" stroke="black" points="283.5,-355.5 337.5,-355.5"/>
<text text-anchor="middle" x="310.5" y="-340.3" font-family="Times,serif" font-size="14.00">z</text>
</g>
<!-- nd0x6000023212c0&#45;&gt;nd0x600002321300 -->
<g id="edge22" class="edge">
<title>nd0x6000023212c0&#45;&gt;nd0x600002321300</title>
<path fill="none" stroke="black" d="M363.21,-415.79C355.3,-406.9 346,-396.44 337.44,-386.81"/>
<polygon fill="black" stroke="black" points="340.11,-384.55 330.85,-379.4 334.88,-389.2 340.11,-384.55"/>
</g>
<!-- nd0x600002321340 -->
<g id="node24" class="node">
<title>nd0x600002321340</title>
<path fill="#54e3c2" stroke="black" d="M367.5,-332.5C367.5,-332.5 397.5,-332.5 397.5,-332.5 403.5,-332.5 409.5,-338.5 409.5,-344.5 409.5,-344.5 409.5,-366.5 409.5,-366.5 409.5,-372.5 403.5,-378.5 397.5,-378.5 397.5,-378.5 367.5,-378.5 367.5,-378.5 361.5,-378.5 355.5,-372.5 355.5,-366.5 355.5,-366.5 355.5,-344.5 355.5,-344.5 355.5,-338.5 361.5,-332.5 367.5,-332.5"/>
<text text-anchor="middle" x="382.5" y="-363.3" font-family="Times,serif" font-size="14.00">3</text>
<polyline fill="none" stroke="black" points="355.5,-355.5 409.5,-355.5"/>
<text text-anchor="middle" x="382.5" y="-340.3" font-family="Times,serif" font-size="14.00">0</text>
</g>
<!-- nd0x6000023212c0&#45;&gt;nd0x600002321340 -->
<g id="edge23" class="edge">
<title>nd0x6000023212c0&#45;&gt;nd0x600002321340</title>
<path fill="none" stroke="black" d="M382.5,-415.79C382.5,-407.71 382.5,-398.35 382.5,-389.48"/>
<polygon fill="black" stroke="black" points="386,-389.78 382.5,-379.78 379,-389.78 386,-389.78"/>
</g>
<!-- nd0x6000023213c0 -->
<g id="node26" class="node">
<title>nd0x6000023213c0</title>
<path fill="#54e3c2" stroke="black" d="M439.5,-332.5C439.5,-332.5 469.5,-332.5 469.5,-332.5 475.5,-332.5 481.5,-338.5 481.5,-344.5 481.5,-344.5 481.5,-366.5 481.5,-366.5 481.5,-372.5 475.5,-378.5 469.5,-378.5 469.5,-378.5 439.5,-378.5 439.5,-378.5 433.5,-378.5 427.5,-372.5 427.5,-366.5 427.5,-366.5 427.5,-344.5 427.5,-344.5 427.5,-338.5 433.5,-332.5 439.5,-332.5"/>
<text text-anchor="middle" x="454.5" y="-363.3" font-family="Times,serif" font-size="14.00">2</text>
<polyline fill="none" stroke="black" points="427.5,-355.5 481.5,-355.5"/>
<text text-anchor="middle" x="454.5" y="-340.3" font-family="Times,serif" font-size="14.00">VAR</text>
</g>
<!-- nd0x600002321380&#45;&gt;nd0x6000023213c0 -->
<g id="edge25" class="edge">
<title>nd0x600002321380&#45;&gt;nd0x6000023213c0</title>
<path fill="none" stroke="black" d="M454.5,-415.79C454.5,-407.71 454.5,-398.35 454.5,-389.48"/>
<polygon fill="black" stroke="black" points="458,-389.78 454.5,-379.78 451,-389.78 458,-389.78"/>
</g>
<!-- nd0x600002321400 -->
<g id="node27" class="node">
<title>nd0x600002321400</title>
<path fill="#54e3c2" stroke="black" d="M403.5,-249.5C403.5,-249.5 433.5,-249.5 433.5,-249.5 439.5,-249.5 445.5,-255.5 445.5,-261.5 445.5,-261.5 445.5,-283.5 445.5,-283.5 445.5,-289.5 439.5,-295.5 433.5,-295.5 433.5,-295.5 403.5,-295.5 403.5,-295.5 397.5,-295.5 391.5,-289.5 391.5,-283.5 391.5,-283.5 391.5,-261.5 391.5,-261.5 391.5,-255.5 397.5,-249.5 403.5,-249.5"/>
<text text-anchor="middle" x="418.5" y="-280.3" font-family="Times,serif" font-size="14.00">2</text>
<polyline fill="none" stroke="black" points="391.5,-272.5 445.5,-272.5"/>
<text text-anchor="middle" x="418.5" y="-257.3" font-family="Times,serif" font-size="14.00">d</text>
</g>
<!-- nd0x6000023213c0&#45;&gt;nd0x600002321400 -->
<g id="edge26" class="edge">
<title>nd0x6000023213c0&#45;&gt;nd0x600002321400</title>
<path fill="none" stroke="black" d="M444.85,-332.79C441.14,-324.44 436.82,-314.72 432.76,-305.59"/>
<polygon fill="black" stroke="black" points="436.05,-304.37 428.79,-296.65 429.65,-307.21 436.05,-304.37"/>
</g>
<!-- nd0x600002321440 -->
<g id="node28" class="node">
<title>nd0x600002321440</title>
<path fill="#54e3c2" stroke="black" d="M475.5,-249.5C475.5,-249.5 505.5,-249.5 505.5,-249.5 511.5,-249.5 517.5,-255.5 517.5,-261.5 517.5,-261.5 517.5,-283.5 517.5,-283.5 517.5,-289.5 511.5,-295.5 505.5,-295.5 505.5,-295.5 475.5,-295.5 475.5,-295.5 469.5,-295.5 463.5,-289.5 463.5,-283.5 463.5,-283.5 463.5,-261.5 463.5,-261.5 463.5,-255.5 469.5,-249.5 475.5,-249.5"/>
<text text-anchor="middle" x="490.5" y="-280.3" font-family="Times,serif" font-size="14.00">5</text>
<polyline fill="none" stroke="black" points="463.5,-272.5 517.5,-272.5"/>
<text text-anchor="middle" x="490.5" y="-257.3" font-family="Times,serif" font-size="14.00">CALL</text>
</g>
<!-- nd0x6000023213c0&#45;&gt;nd0x600002321440 -->
<g id="edge27" class="edge">
<title>nd0x6000023213c0&#45;&gt;nd0x600002321440</title>
<path fill="none" stroke="black" d="M464.15,-332.79C467.86,-324.44 472.18,-314.72 476.24,-305.59"/>
<polygon fill="black" stroke="black" points="479.35,-307.21 480.21,-296.65 472.95,-304.37 479.35,-307.21"/>
</g>
<!-- nd0x600002321480 -->
<g id="node29" class="node">
<title>nd0x600002321480</title>
<path fill="#54e3c2" stroke="black" d="M460,-166.5C460,-166.5 521,-166.5 521,-166.5 527,-166.5 533,-172.5 533,-178.5 533,-178.5 533,-200.5 533,-200.5 533,-206.5 527,-212.5 521,-212.5 521,-212.5 460,-212.5 460,-212.5 454,-212.5 448,-206.5 448,-200.5 448,-200.5 448,-178.5 448,-178.5 448,-172.5 454,-166.5 460,-166.5"/>
<text text-anchor="middle" x="490.5" y="-197.3" font-family="Times,serif" font-size="14.00">5</text>
<polyline fill="none" stroke="black" points="448,-189.5 533,-189.5"/>
<text text-anchor="middle" x="490.5" y="-174.3" font-family="Times,serif" font-size="14.00">discriminant</text>
</g>
<!-- nd0x600002321440&#45;&gt;nd0x600002321480 -->
<g id="edge28" class="edge">
<title>nd0x600002321440&#45;&gt;nd0x600002321480</title>
<path fill="none" stroke="black" d="M490.5,-249.79C490.5,-241.71 490.5,-232.35 490.5,-223.48"/>
<polygon fill="black" stroke="black" points="494,-223.78 490.5,-213.78 487,-223.78 494,-223.78"/>
</g>
<!-- nd0x6000023214c0 -->
<g id="node30" class="node">
<title>nd0x6000023214c0</title>
<path fill="#54e3c2" stroke="black" d="M470,-83.5C470,-83.5 511,-83.5 511,-83.5 517,-83.5 523,-89.5 523,-95.5 523,-95.5 523,-117.5 523,-117.5 523,-123.5 517,-129.5 511,-129.5 511,-129.5 470,-129.5 470,-129.5 464,-129.5 458,-123.5 458,-117.5 458,-117.5 458,-95.5 458,-95.5 458,-89.5 464,-83.5 470,-83.5"/>
<text text-anchor="middle" x="490.5" y="-114.3" font-family="Times,serif" font-size="14.00">4</text>
<polyline fill="none" stroke="black" points="458,-106.5 523,-106.5"/>
<text text-anchor="middle" x="490.5" y="-91.3" font-family="Times,serif" font-size="14.00">PARAM</text>
</g>
<!-- nd0x600002321480&#45;&gt;nd0x6000023214c0 -->
<g id="edge29" class="edge">
<title>nd0x600002321480&#45;&gt;nd0x6000023214c0</title>
<path fill="none" stroke="black" d="M490.5,-166.79C490.5,-158.71 490.5,-149.35 490.5,-140.48"/>
<polygon fill="black" stroke="black" points="494,-140.78 490.5,-130.78 487,-140.78 494,-140.78"/>
</g>
<!-- nd0x600002321500 -->
<g id="node31" class="node">
<title>nd0x600002321500</title>
<path fill="#54e3c2" stroke="black" d="M475.5,-0.5C475.5,-0.5 505.5,-0.5 505.5,-0.5 511.5,-0.5 517.5,-6.5 517.5,-12.5 517.5,-12.5 517.5,-34.5 517.5,-34.5 517.5,-40.5 511.5,-46.5 505.5,-46.5 505.5,-46.5 475.5,-46.5 475.5,-46.5 469.5,-46.5 463.5,-40.5 463.5,-34.5 463.5,-34.5 463.5,-12.5 463.5,-12.5 463.5,-6.5 469.5,-0.5 475.5,-0.5"/>
<text text-anchor="middle" x="490.5" y="-31.3" font-family="Times,serif" font-size="14.00">2</text>
<polyline fill="none" stroke="black" points="463.5,-23.5 517.5,-23.5"/>
<text text-anchor="middle" x="490.5" y="-8.3" font-family="Times,serif" font-size="14.00">x</text>
</g>
<!-- nd0x6000023214c0&#45;&gt;nd0x600002321500 -->
<g id="edge30" class="edge">
<title>nd0x6000023214c0&#45;&gt;nd0x600002321500</title>
<path fill="none" stroke="black" d="M490.5,-83.79C490.5,-75.71 490.5,-66.35 490.5,-57.48"/>
<polygon fill="black" stroke="black" points="494,-57.78 490.5,-47.78 487,-57.78 494,-57.78"/>
</g>
</g>
</svg>
