<?xml version="1.0" encoding="UTF-8" standalone="no"?>
<!DOCTYPE svg PUBLIC "-//W3C//DTD SVG 1.1//EN"
 "http://www.w3.org/Graphics/SVG/1.1/DTD/svg11.dtd">
<!-- Generated by graphviz version 2.43.0 (0)
 -->
<!-- Title: MyGraph Pages: 1 -->
<svg width="803pt" height="1134pt"
 viewBox="0.00 0.00 803.00 1134.00" xmlns="http://www.w3.org/2000/svg" xmlns:xlink="http://www.w3.org/1999/xlink">
<g id="graph0" class="graph" transform="scale(1 1) rotate(0) translate(4 1130)">
<title>MyGraph</title>
<polygon fill="white" stroke="transparent" points="-4,4 -4,-1130 799,-1130 799,4 -4,4"/>
<!-- nd0x5561a0d46510 -->
<g id="node1" class="node">
<title>nd0x5561a0d46510</title>
<path fill="#54e3c2" stroke="black" d="M236,-1079.5C236,-1079.5 266,-1079.5 266,-1079.5 272,-1079.5 278,-1085.5 278,-1091.5 278,-1091.5 278,-1113.5 278,-1113.5 278,-1119.5 272,-1125.5 266,-1125.5 266,-1125.5 236,-1125.5 236,-1125.5 230,-1125.5 224,-1119.5 224,-1113.5 224,-1113.5 224,-1091.5 224,-1091.5 224,-1085.5 230,-1079.5 236,-1079.5"/>
<text text-anchor="middle" x="251" y="-1110.3" font-family="Times,serif" font-size="14.00">4</text>
<polyline fill="none" stroke="black" points="224,-1102.5 278,-1102.5 "/>
<text text-anchor="middle" x="251" y="-1087.3" font-family="Times,serif" font-size="14.00">ST</text>
</g>
<!-- nd0x5561a0d46570 -->
<g id="node2" class="node">
<title>nd0x5561a0d46570</title>
<path fill="#c0ffff" stroke="black" d="M194.5,-996.5C194.5,-996.5 231.5,-996.5 231.5,-996.5 237.5,-996.5 243.5,-1002.5 243.5,-1008.5 243.5,-1008.5 243.5,-1030.5 243.5,-1030.5 243.5,-1036.5 237.5,-1042.5 231.5,-1042.5 231.5,-1042.5 194.5,-1042.5 194.5,-1042.5 188.5,-1042.5 182.5,-1036.5 182.5,-1030.5 182.5,-1030.5 182.5,-1008.5 182.5,-1008.5 182.5,-1002.5 188.5,-996.5 194.5,-996.5"/>
<text text-anchor="middle" x="213" y="-1027.3" font-family="Times,serif" font-size="14.00">5</text>
<polyline fill="none" stroke="black" points="182.5,-1019.5 243.5,-1019.5 "/>
<text text-anchor="middle" x="213" y="-1004.3" font-family="Times,serif" font-size="14.00">FUNC</text>
</g>
<!-- nd0x5561a0d46510&#45;&gt;nd0x5561a0d46570 -->
<g id="edge1" class="edge">
<title>nd0x5561a0d46510&#45;&gt;nd0x5561a0d46570</title>
<path fill="none" stroke="black" d="M240.62,-1079.37C236.64,-1070.88 232.02,-1061.04 227.71,-1051.85"/>
<polygon fill="black" stroke="black" points="230.79,-1050.17 223.37,-1042.61 224.45,-1053.15 230.79,-1050.17"/>
</g>
<!-- nd0x5561a0d47310 -->
<g id="node35" class="node">
<title>nd0x5561a0d47310</title>
<path fill="#54e3c2" stroke="black" d="M308,-996.5C308,-996.5 338,-996.5 338,-996.5 344,-996.5 350,-1002.5 350,-1008.5 350,-1008.5 350,-1030.5 350,-1030.5 350,-1036.5 344,-1042.5 338,-1042.5 338,-1042.5 308,-1042.5 308,-1042.5 302,-1042.5 296,-1036.5 296,-1030.5 296,-1030.5 296,-1008.5 296,-1008.5 296,-1002.5 302,-996.5 308,-996.5"/>
<text text-anchor="middle" x="323" y="-1027.3" font-family="Times,serif" font-size="14.00">4</text>
<polyline fill="none" stroke="black" points="296,-1019.5 350,-1019.5 "/>
<text text-anchor="middle" x="323" y="-1004.3" font-family="Times,serif" font-size="14.00">ST</text>
</g>
<!-- nd0x5561a0d46510&#45;&gt;nd0x5561a0d47310 -->
<g id="edge34" class="edge">
<title>nd0x5561a0d46510&#45;&gt;nd0x5561a0d47310</title>
<path fill="none" stroke="black" d="M270.67,-1079.37C278.69,-1070.35 288.08,-1059.79 296.67,-1050.12"/>
<polygon fill="black" stroke="black" points="299.32,-1052.41 303.35,-1042.61 294.09,-1047.76 299.32,-1052.41"/>
</g>
<!-- nd0x5561a0d465d0 -->
<g id="node3" class="node">
<title>nd0x5561a0d465d0</title>
<path fill="#c0ffff" stroke="black" d="M68.5,-913.5C68.5,-913.5 121.5,-913.5 121.5,-913.5 127.5,-913.5 133.5,-919.5 133.5,-925.5 133.5,-925.5 133.5,-947.5 133.5,-947.5 133.5,-953.5 127.5,-959.5 121.5,-959.5 121.5,-959.5 68.5,-959.5 68.5,-959.5 62.5,-959.5 56.5,-953.5 56.5,-947.5 56.5,-947.5 56.5,-925.5 56.5,-925.5 56.5,-919.5 62.5,-913.5 68.5,-913.5"/>
<text text-anchor="middle" x="95" y="-944.3" font-family="Times,serif" font-size="14.00">5</text>
<polyline fill="none" stroke="black" points="56.5,-936.5 133.5,-936.5 "/>
<text text-anchor="middle" x="95" y="-921.3" font-family="Times,serif" font-size="14.00">faktorial</text>
</g>
<!-- nd0x5561a0d46570&#45;&gt;nd0x5561a0d465d0 -->
<g id="edge2" class="edge">
<title>nd0x5561a0d46570&#45;&gt;nd0x5561a0d465d0</title>
<path fill="none" stroke="black" d="M182.3,-997.43C168.02,-987.62 150.82,-975.82 135.49,-965.29"/>
<polygon fill="black" stroke="black" points="137.42,-962.37 127.19,-959.6 133.45,-968.14 137.42,-962.37"/>
</g>
<!-- nd0x5561a0d467b0 -->
<g id="node7" class="node">
<title>nd0x5561a0d467b0</title>
<path fill="#54e3c2" stroke="black" d="M198,-913.5C198,-913.5 228,-913.5 228,-913.5 234,-913.5 240,-919.5 240,-925.5 240,-925.5 240,-947.5 240,-947.5 240,-953.5 234,-959.5 228,-959.5 228,-959.5 198,-959.5 198,-959.5 192,-959.5 186,-953.5 186,-947.5 186,-947.5 186,-925.5 186,-925.5 186,-919.5 192,-913.5 198,-913.5"/>
<text text-anchor="middle" x="213" y="-944.3" font-family="Times,serif" font-size="14.00">4</text>
<polyline fill="none" stroke="black" points="186,-936.5 240,-936.5 "/>
<text text-anchor="middle" x="213" y="-921.3" font-family="Times,serif" font-size="14.00">ST</text>
</g>
<!-- nd0x5561a0d46570&#45;&gt;nd0x5561a0d467b0 -->
<g id="edge6" class="edge">
<title>nd0x5561a0d46570&#45;&gt;nd0x5561a0d467b0</title>
<path fill="none" stroke="black" d="M213,-996.37C213,-988.15 213,-978.66 213,-969.73"/>
<polygon fill="black" stroke="black" points="216.5,-969.61 213,-959.61 209.5,-969.61 216.5,-969.61"/>
</g>
<!-- nd0x5561a0d46630 -->
<g id="node4" class="node">
<title>nd0x5561a0d46630</title>
<path fill="#ffc0ff" stroke="black" d="M39.5,-830.5C39.5,-830.5 84.5,-830.5 84.5,-830.5 90.5,-830.5 96.5,-836.5 96.5,-842.5 96.5,-842.5 96.5,-864.5 96.5,-864.5 96.5,-870.5 90.5,-876.5 84.5,-876.5 84.5,-876.5 39.5,-876.5 39.5,-876.5 33.5,-876.5 27.5,-870.5 27.5,-864.5 27.5,-864.5 27.5,-842.5 27.5,-842.5 27.5,-836.5 33.5,-830.5 39.5,-830.5"/>
<text text-anchor="middle" x="62" y="-861.3" font-family="Times,serif" font-size="14.00">4</text>
<polyline fill="none" stroke="black" points="27.5,-853.5 96.5,-853.5 "/>
<text text-anchor="middle" x="62" y="-838.3" font-family="Times,serif" font-size="14.00">PARAM</text>
</g>
<!-- nd0x5561a0d465d0&#45;&gt;nd0x5561a0d46630 -->
<g id="edge3" class="edge">
<title>nd0x5561a0d465d0&#45;&gt;nd0x5561a0d46630</title>
<path fill="none" stroke="black" d="M85.98,-913.37C82.56,-904.97 78.6,-895.24 74.89,-886.14"/>
<polygon fill="black" stroke="black" points="78.02,-884.55 71.01,-876.61 71.54,-887.19 78.02,-884.55"/>
</g>
<!-- nd0x5561a0d46690 -->
<g id="node5" class="node">
<title>nd0x5561a0d46690</title>
<path fill="#ffc0ff" stroke="black" d="M15,-747.5C15,-747.5 45,-747.5 45,-747.5 51,-747.5 57,-753.5 57,-759.5 57,-759.5 57,-781.5 57,-781.5 57,-787.5 51,-793.5 45,-793.5 45,-793.5 15,-793.5 15,-793.5 9,-793.5 3,-787.5 3,-781.5 3,-781.5 3,-759.5 3,-759.5 3,-753.5 9,-747.5 15,-747.5"/>
<text text-anchor="middle" x="30" y="-778.3" font-family="Times,serif" font-size="14.00">4</text>
<polyline fill="none" stroke="black" points="3,-770.5 57,-770.5 "/>
<text text-anchor="middle" x="30" y="-755.3" font-family="Times,serif" font-size="14.00">VAR</text>
</g>
<!-- nd0x5561a0d46630&#45;&gt;nd0x5561a0d46690 -->
<g id="edge4" class="edge">
<title>nd0x5561a0d46630&#45;&gt;nd0x5561a0d46690</title>
<path fill="none" stroke="black" d="M53.26,-830.37C49.94,-821.97 46.1,-812.24 42.5,-803.14"/>
<polygon fill="black" stroke="black" points="45.66,-801.62 38.73,-793.61 39.15,-804.19 45.66,-801.62"/>
</g>
<!-- nd0x5561a0d466f0 -->
<g id="node6" class="node">
<title>nd0x5561a0d466f0</title>
<path fill="#c0c0ff" stroke="black" d="M12,-664.5C12,-664.5 48,-664.5 48,-664.5 54,-664.5 60,-670.5 60,-676.5 60,-676.5 60,-698.5 60,-698.5 60,-704.5 54,-710.5 48,-710.5 48,-710.5 12,-710.5 12,-710.5 6,-710.5 0,-704.5 0,-698.5 0,-698.5 0,-676.5 0,-676.5 0,-670.5 6,-664.5 12,-664.5"/>
<text text-anchor="middle" x="30" y="-695.3" font-family="Times,serif" font-size="14.00">2</text>
<polyline fill="none" stroke="black" points="0,-687.5 60,-687.5 "/>
<text text-anchor="middle" x="30" y="-672.3" font-family="Times,serif" font-size="14.00">gerrik</text>
</g>
<!-- nd0x5561a0d46690&#45;&gt;nd0x5561a0d466f0 -->
<g id="edge5" class="edge">
<title>nd0x5561a0d46690&#45;&gt;nd0x5561a0d466f0</title>
<path fill="none" stroke="black" d="M30,-747.37C30,-739.15 30,-729.66 30,-720.73"/>
<polygon fill="black" stroke="black" points="33.5,-720.61 30,-710.61 26.5,-720.61 33.5,-720.61"/>
</g>
<!-- nd0x5561a0d46810 -->
<g id="node8" class="node">
<title>nd0x5561a0d46810</title>
<path fill="#ffc0ff" stroke="black" d="M159,-830.5C159,-830.5 189,-830.5 189,-830.5 195,-830.5 201,-836.5 201,-842.5 201,-842.5 201,-864.5 201,-864.5 201,-870.5 195,-876.5 189,-876.5 189,-876.5 159,-876.5 159,-876.5 153,-876.5 147,-870.5 147,-864.5 147,-864.5 147,-842.5 147,-842.5 147,-836.5 153,-830.5 159,-830.5"/>
<text text-anchor="middle" x="174" y="-861.3" font-family="Times,serif" font-size="14.00">4</text>
<polyline fill="none" stroke="black" points="147,-853.5 201,-853.5 "/>
<text text-anchor="middle" x="174" y="-838.3" font-family="Times,serif" font-size="14.00">VAR</text>
</g>
<!-- nd0x5561a0d467b0&#45;&gt;nd0x5561a0d46810 -->
<g id="edge7" class="edge">
<title>nd0x5561a0d467b0&#45;&gt;nd0x5561a0d46810</title>
<path fill="none" stroke="black" d="M202.34,-913.37C198.26,-904.88 193.52,-895.04 189.1,-885.85"/>
<polygon fill="black" stroke="black" points="192.14,-884.1 184.64,-876.61 185.83,-887.14 192.14,-884.1"/>
</g>
<!-- nd0x5561a0d46930 -->
<g id="node11" class="node">
<title>nd0x5561a0d46930</title>
<path fill="#54e3c2" stroke="black" d="M231,-830.5C231,-830.5 261,-830.5 261,-830.5 267,-830.5 273,-836.5 273,-842.5 273,-842.5 273,-864.5 273,-864.5 273,-870.5 267,-876.5 261,-876.5 261,-876.5 231,-876.5 231,-876.5 225,-876.5 219,-870.5 219,-864.5 219,-864.5 219,-842.5 219,-842.5 219,-836.5 225,-830.5 231,-830.5"/>
<text text-anchor="middle" x="246" y="-861.3" font-family="Times,serif" font-size="14.00">4</text>
<polyline fill="none" stroke="black" points="219,-853.5 273,-853.5 "/>
<text text-anchor="middle" x="246" y="-838.3" font-family="Times,serif" font-size="14.00">ST</text>
</g>
<!-- nd0x5561a0d467b0&#45;&gt;nd0x5561a0d46930 -->
<g id="edge10" class="edge">
<title>nd0x5561a0d467b0&#45;&gt;nd0x5561a0d46930</title>
<path fill="none" stroke="black" d="M222.02,-913.37C225.44,-904.97 229.4,-895.24 233.11,-886.14"/>
<polygon fill="black" stroke="black" points="236.46,-887.19 236.99,-876.61 229.98,-884.55 236.46,-887.19"/>
</g>
<!-- nd0x5561a0d46870 -->
<g id="node9" class="node">
<title>nd0x5561a0d46870</title>
<path fill="#c0c0ff" stroke="black" d="M87,-747.5C87,-747.5 117,-747.5 117,-747.5 123,-747.5 129,-753.5 129,-759.5 129,-759.5 129,-781.5 129,-781.5 129,-787.5 123,-793.5 117,-793.5 117,-793.5 87,-793.5 87,-793.5 81,-793.5 75,-787.5 75,-781.5 75,-781.5 75,-759.5 75,-759.5 75,-753.5 81,-747.5 87,-747.5"/>
<text text-anchor="middle" x="102" y="-778.3" font-family="Times,serif" font-size="14.00">2</text>
<polyline fill="none" stroke="black" points="75,-770.5 129,-770.5 "/>
<text text-anchor="middle" x="102" y="-755.3" font-family="Times,serif" font-size="14.00">rez</text>
</g>
<!-- nd0x5561a0d46810&#45;&gt;nd0x5561a0d46870 -->
<g id="edge8" class="edge">
<title>nd0x5561a0d46810&#45;&gt;nd0x5561a0d46870</title>
<path fill="none" stroke="black" d="M154.33,-830.37C146.31,-821.35 136.92,-810.79 128.33,-801.12"/>
<polygon fill="black" stroke="black" points="130.91,-798.76 121.65,-793.61 125.68,-803.41 130.91,-798.76"/>
</g>
<!-- nd0x5561a0d468d0 -->
<g id="node10" class="node">
<title>nd0x5561a0d468d0</title>
<path fill="#54e3c2" stroke="black" d="M159,-747.5C159,-747.5 189,-747.5 189,-747.5 195,-747.5 201,-753.5 201,-759.5 201,-759.5 201,-781.5 201,-781.5 201,-787.5 195,-793.5 189,-793.5 189,-793.5 159,-793.5 159,-793.5 153,-793.5 147,-787.5 147,-781.5 147,-781.5 147,-759.5 147,-759.5 147,-753.5 153,-747.5 159,-747.5"/>
<text text-anchor="middle" x="174" y="-778.3" font-family="Times,serif" font-size="14.00">3</text>
<polyline fill="none" stroke="black" points="147,-770.5 201,-770.5 "/>
<text text-anchor="middle" x="174" y="-755.3" font-family="Times,serif" font-size="14.00">1</text>
</g>
<!-- nd0x5561a0d46810&#45;&gt;nd0x5561a0d468d0 -->
<g id="edge9" class="edge">
<title>nd0x5561a0d46810&#45;&gt;nd0x5561a0d468d0</title>
<path fill="none" stroke="black" d="M174,-830.37C174,-822.15 174,-812.66 174,-803.73"/>
<polygon fill="black" stroke="black" points="177.5,-803.61 174,-793.61 170.5,-803.61 177.5,-803.61"/>
</g>
<!-- nd0x5561a0d46990 -->
<g id="node12" class="node">
<title>nd0x5561a0d46990</title>
<path fill="#ffc0ff" stroke="black" d="M231,-747.5C231,-747.5 261,-747.5 261,-747.5 267,-747.5 273,-753.5 273,-759.5 273,-759.5 273,-781.5 273,-781.5 273,-787.5 267,-793.5 261,-793.5 261,-793.5 231,-793.5 231,-793.5 225,-793.5 219,-787.5 219,-781.5 219,-781.5 219,-759.5 219,-759.5 219,-753.5 225,-747.5 231,-747.5"/>
<text text-anchor="middle" x="246" y="-778.3" font-family="Times,serif" font-size="14.00">4</text>
<polyline fill="none" stroke="black" points="219,-770.5 273,-770.5 "/>
<text text-anchor="middle" x="246" y="-755.3" font-family="Times,serif" font-size="14.00">IF</text>
</g>
<!-- nd0x5561a0d46930&#45;&gt;nd0x5561a0d46990 -->
<g id="edge11" class="edge">
<title>nd0x5561a0d46930&#45;&gt;nd0x5561a0d46990</title>
<path fill="none" stroke="black" d="M246,-830.37C246,-822.15 246,-812.66 246,-803.73"/>
<polygon fill="black" stroke="black" points="249.5,-803.61 246,-793.61 242.5,-803.61 249.5,-803.61"/>
</g>
<!-- nd0x5561a0d471b0 -->
<g id="node32" class="node">
<title>nd0x5561a0d471b0</title>
<path fill="#54e3c2" stroke="black" d="M303,-747.5C303,-747.5 333,-747.5 333,-747.5 339,-747.5 345,-753.5 345,-759.5 345,-759.5 345,-781.5 345,-781.5 345,-787.5 339,-793.5 333,-793.5 333,-793.5 303,-793.5 303,-793.5 297,-793.5 291,-787.5 291,-781.5 291,-781.5 291,-759.5 291,-759.5 291,-753.5 297,-747.5 303,-747.5"/>
<text text-anchor="middle" x="318" y="-778.3" font-family="Times,serif" font-size="14.00">4</text>
<polyline fill="none" stroke="black" points="291,-770.5 345,-770.5 "/>
<text text-anchor="middle" x="318" y="-755.3" font-family="Times,serif" font-size="14.00">ST</text>
</g>
<!-- nd0x5561a0d46930&#45;&gt;nd0x5561a0d471b0 -->
<g id="edge31" class="edge">
<title>nd0x5561a0d46930&#45;&gt;nd0x5561a0d471b0</title>
<path fill="none" stroke="black" d="M265.67,-830.37C273.69,-821.35 283.08,-810.79 291.67,-801.12"/>
<polygon fill="black" stroke="black" points="294.32,-803.41 298.35,-793.61 289.09,-798.76 294.32,-803.41"/>
</g>
<!-- nd0x5561a0d469f0 -->
<g id="node13" class="node">
<title>nd0x5561a0d469f0</title>
<path fill="#ffc0c0" stroke="black" d="M124,-664.5C124,-664.5 154,-664.5 154,-664.5 160,-664.5 166,-670.5 166,-676.5 166,-676.5 166,-698.5 166,-698.5 166,-704.5 160,-710.5 154,-710.5 154,-710.5 124,-710.5 124,-710.5 118,-710.5 112,-704.5 112,-698.5 112,-698.5 112,-676.5 112,-676.5 112,-670.5 118,-664.5 124,-664.5"/>
<text text-anchor="middle" x="139" y="-695.3" font-family="Times,serif" font-size="14.00">1</text>
<polyline fill="none" stroke="black" points="112,-687.5 166,-687.5 "/>
<text text-anchor="middle" x="139" y="-672.3" font-family="Times,serif" font-size="14.00">SUB</text>
</g>
<!-- nd0x5561a0d46990&#45;&gt;nd0x5561a0d469f0 -->
<g id="edge12" class="edge">
<title>nd0x5561a0d46990&#45;&gt;nd0x5561a0d469f0</title>
<path fill="none" stroke="black" d="M219,-749.06C205.54,-738.87 189.1,-726.42 174.62,-715.47"/>
<polygon fill="black" stroke="black" points="176.45,-712.46 166.36,-709.21 172.22,-718.04 176.45,-712.46"/>
</g>
<!-- nd0x5561a0d46b10 -->
<g id="node16" class="node">
<title>nd0x5561a0d46b10</title>
<path fill="#54e3c2" stroke="black" d="M229,-664.5C229,-664.5 261,-664.5 261,-664.5 267,-664.5 273,-670.5 273,-676.5 273,-676.5 273,-698.5 273,-698.5 273,-704.5 267,-710.5 261,-710.5 261,-710.5 229,-710.5 229,-710.5 223,-710.5 217,-704.5 217,-698.5 217,-698.5 217,-676.5 217,-676.5 217,-670.5 223,-664.5 229,-664.5"/>
<text text-anchor="middle" x="245" y="-695.3" font-family="Times,serif" font-size="14.00">4</text>
<polyline fill="none" stroke="black" points="217,-687.5 273,-687.5 "/>
<text text-anchor="middle" x="245" y="-672.3" font-family="Times,serif" font-size="14.00">ELSE</text>
</g>
<!-- nd0x5561a0d46990&#45;&gt;nd0x5561a0d46b10 -->
<g id="edge15" class="edge">
<title>nd0x5561a0d46990&#45;&gt;nd0x5561a0d46b10</title>
<path fill="none" stroke="black" d="M245.73,-747.37C245.63,-739.15 245.51,-729.66 245.4,-720.73"/>
<polygon fill="black" stroke="black" points="248.9,-720.56 245.27,-710.61 241.9,-720.65 248.9,-720.56"/>
</g>
<!-- nd0x5561a0d46a50 -->
<g id="node14" class="node">
<title>nd0x5561a0d46a50</title>
<path fill="#c0c0ff" stroke="black" d="M46,-581.5C46,-581.5 82,-581.5 82,-581.5 88,-581.5 94,-587.5 94,-593.5 94,-593.5 94,-615.5 94,-615.5 94,-621.5 88,-627.5 82,-627.5 82,-627.5 46,-627.5 46,-627.5 40,-627.5 34,-621.5 34,-615.5 34,-615.5 34,-593.5 34,-593.5 34,-587.5 40,-581.5 46,-581.5"/>
<text text-anchor="middle" x="64" y="-612.3" font-family="Times,serif" font-size="14.00">2</text>
<polyline fill="none" stroke="black" points="34,-604.5 94,-604.5 "/>
<text text-anchor="middle" x="64" y="-589.3" font-family="Times,serif" font-size="14.00">gerrik</text>
</g>
<!-- nd0x5561a0d469f0&#45;&gt;nd0x5561a0d46a50 -->
<g id="edge13" class="edge">
<title>nd0x5561a0d469f0&#45;&gt;nd0x5561a0d46a50</title>
<path fill="none" stroke="black" d="M118.51,-664.37C110.16,-655.35 100.38,-644.79 91.43,-635.12"/>
<polygon fill="black" stroke="black" points="93.83,-632.57 84.47,-627.61 88.7,-637.32 93.83,-632.57"/>
</g>
<!-- nd0x5561a0d46ab0 -->
<g id="node15" class="node">
<title>nd0x5561a0d46ab0</title>
<path fill="#54e3c2" stroke="black" d="M124,-581.5C124,-581.5 154,-581.5 154,-581.5 160,-581.5 166,-587.5 166,-593.5 166,-593.5 166,-615.5 166,-615.5 166,-621.5 160,-627.5 154,-627.5 154,-627.5 124,-627.5 124,-627.5 118,-627.5 112,-621.5 112,-615.5 112,-615.5 112,-593.5 112,-593.5 112,-587.5 118,-581.5 124,-581.5"/>
<text text-anchor="middle" x="139" y="-612.3" font-family="Times,serif" font-size="14.00">3</text>
<polyline fill="none" stroke="black" points="112,-604.5 166,-604.5 "/>
<text text-anchor="middle" x="139" y="-589.3" font-family="Times,serif" font-size="14.00">1</text>
</g>
<!-- nd0x5561a0d469f0&#45;&gt;nd0x5561a0d46ab0 -->
<g id="edge14" class="edge">
<title>nd0x5561a0d469f0&#45;&gt;nd0x5561a0d46ab0</title>
<path fill="none" stroke="black" d="M139,-664.37C139,-656.15 139,-646.66 139,-637.73"/>
<polygon fill="black" stroke="black" points="142.5,-637.61 139,-627.61 135.5,-637.61 142.5,-637.61"/>
</g>
<!-- nd0x5561a0d46b70 -->
<g id="node17" class="node">
<title>nd0x5561a0d46b70</title>
<path fill="#ffc0ff" stroke="black" d="M196,-581.5C196,-581.5 226,-581.5 226,-581.5 232,-581.5 238,-587.5 238,-593.5 238,-593.5 238,-615.5 238,-615.5 238,-621.5 232,-627.5 226,-627.5 226,-627.5 196,-627.5 196,-627.5 190,-627.5 184,-621.5 184,-615.5 184,-615.5 184,-593.5 184,-593.5 184,-587.5 190,-581.5 196,-581.5"/>
<text text-anchor="middle" x="211" y="-612.3" font-family="Times,serif" font-size="14.00">4</text>
<polyline fill="none" stroke="black" points="184,-604.5 238,-604.5 "/>
<text text-anchor="middle" x="211" y="-589.3" font-family="Times,serif" font-size="14.00">ST</text>
</g>
<!-- nd0x5561a0d46b10&#45;&gt;nd0x5561a0d46b70 -->
<g id="edge16" class="edge">
<title>nd0x5561a0d46b10&#45;&gt;nd0x5561a0d46b70</title>
<path fill="none" stroke="black" d="M235.71,-664.37C232.15,-655.88 228.02,-646.04 224.16,-636.85"/>
<polygon fill="black" stroke="black" points="227.38,-635.47 220.28,-627.61 220.92,-638.18 227.38,-635.47"/>
</g>
<!-- nd0x5561a0d47010 -->
<g id="node28" class="node">
<title>nd0x5561a0d47010</title>
<path fill="#54e3c2" stroke="black" d="M268,-581.5C268,-581.5 298,-581.5 298,-581.5 304,-581.5 310,-587.5 310,-593.5 310,-593.5 310,-615.5 310,-615.5 310,-621.5 304,-627.5 298,-627.5 298,-627.5 268,-627.5 268,-627.5 262,-627.5 256,-621.5 256,-615.5 256,-615.5 256,-593.5 256,-593.5 256,-587.5 262,-581.5 268,-581.5"/>
<text text-anchor="middle" x="283" y="-612.3" font-family="Times,serif" font-size="14.00">4</text>
<polyline fill="none" stroke="black" points="256,-604.5 310,-604.5 "/>
<text text-anchor="middle" x="283" y="-589.3" font-family="Times,serif" font-size="14.00">ST</text>
</g>
<!-- nd0x5561a0d46b10&#45;&gt;nd0x5561a0d47010 -->
<g id="edge27" class="edge">
<title>nd0x5561a0d46b10&#45;&gt;nd0x5561a0d47010</title>
<path fill="none" stroke="black" d="M255.38,-664.37C259.36,-655.88 263.98,-646.04 268.29,-636.85"/>
<polygon fill="black" stroke="black" points="271.55,-638.15 272.63,-627.61 265.21,-635.17 271.55,-638.15"/>
</g>
<!-- nd0x5561a0d46bd0 -->
<g id="node18" class="node">
<title>nd0x5561a0d46bd0</title>
<path fill="#ffc0c0" stroke="black" d="M194,-498.5C194,-498.5 224,-498.5 224,-498.5 230,-498.5 236,-504.5 236,-510.5 236,-510.5 236,-532.5 236,-532.5 236,-538.5 230,-544.5 224,-544.5 224,-544.5 194,-544.5 194,-544.5 188,-544.5 182,-538.5 182,-532.5 182,-532.5 182,-510.5 182,-510.5 182,-504.5 188,-498.5 194,-498.5"/>
<text text-anchor="middle" x="209" y="-529.3" font-family="Times,serif" font-size="14.00">1</text>
<polyline fill="none" stroke="black" points="182,-521.5 236,-521.5 "/>
<text text-anchor="middle" x="209" y="-506.3" font-family="Times,serif" font-size="14.00">EQ</text>
</g>
<!-- nd0x5561a0d46b70&#45;&gt;nd0x5561a0d46bd0 -->
<g id="edge17" class="edge">
<title>nd0x5561a0d46b70&#45;&gt;nd0x5561a0d46bd0</title>
<path fill="none" stroke="black" d="M210.45,-581.37C210.25,-573.15 210.02,-563.66 209.8,-554.73"/>
<polygon fill="black" stroke="black" points="213.29,-554.52 209.55,-544.61 206.29,-554.69 213.29,-554.52"/>
</g>
<!-- nd0x5561a0d46c30 -->
<g id="node19" class="node">
<title>nd0x5561a0d46c30</title>
<path fill="#c0c0ff" stroke="black" d="M118,-415.5C118,-415.5 148,-415.5 148,-415.5 154,-415.5 160,-421.5 160,-427.5 160,-427.5 160,-449.5 160,-449.5 160,-455.5 154,-461.5 148,-461.5 148,-461.5 118,-461.5 118,-461.5 112,-461.5 106,-455.5 106,-449.5 106,-449.5 106,-427.5 106,-427.5 106,-421.5 112,-415.5 118,-415.5"/>
<text text-anchor="middle" x="133" y="-446.3" font-family="Times,serif" font-size="14.00">2</text>
<polyline fill="none" stroke="black" points="106,-438.5 160,-438.5 "/>
<text text-anchor="middle" x="133" y="-423.3" font-family="Times,serif" font-size="14.00">rez</text>
</g>
<!-- nd0x5561a0d46bd0&#45;&gt;nd0x5561a0d46c30 -->
<g id="edge18" class="edge">
<title>nd0x5561a0d46bd0&#45;&gt;nd0x5561a0d46c30</title>
<path fill="none" stroke="black" d="M188.23,-498.37C179.77,-489.35 169.86,-478.79 160.79,-469.12"/>
<polygon fill="black" stroke="black" points="163.14,-466.5 153.74,-461.61 158.03,-471.29 163.14,-466.5"/>
</g>
<!-- nd0x5561a0d46c90 -->
<g id="node20" class="node">
<title>nd0x5561a0d46c90</title>
<path fill="#54e3c2" stroke="black" d="M190,-415.5C190,-415.5 228,-415.5 228,-415.5 234,-415.5 240,-421.5 240,-427.5 240,-427.5 240,-449.5 240,-449.5 240,-455.5 234,-461.5 228,-461.5 228,-461.5 190,-461.5 190,-461.5 184,-461.5 178,-455.5 178,-449.5 178,-449.5 178,-427.5 178,-427.5 178,-421.5 184,-415.5 190,-415.5"/>
<text text-anchor="middle" x="209" y="-446.3" font-family="Times,serif" font-size="14.00">1</text>
<polyline fill="none" stroke="black" points="178,-438.5 240,-438.5 "/>
<text text-anchor="middle" x="209" y="-423.3" font-family="Times,serif" font-size="14.00">&#39;None&#39;</text>
</g>
<!-- nd0x5561a0d46bd0&#45;&gt;nd0x5561a0d46c90 -->
<g id="edge19" class="edge">
<title>nd0x5561a0d46bd0&#45;&gt;nd0x5561a0d46c90</title>
<path fill="none" stroke="black" d="M209,-498.37C209,-490.15 209,-480.66 209,-471.73"/>
<polygon fill="black" stroke="black" points="212.5,-471.61 209,-461.61 205.5,-471.61 212.5,-471.61"/>
</g>
<!-- nd0x5561a0d46cf0 -->
<g id="node21" class="node">
<title>nd0x5561a0d46cf0</title>
<path fill="#c0ffff" stroke="black" d="M155.5,-332.5C155.5,-332.5 186.5,-332.5 186.5,-332.5 192.5,-332.5 198.5,-338.5 198.5,-344.5 198.5,-344.5 198.5,-366.5 198.5,-366.5 198.5,-372.5 192.5,-378.5 186.5,-378.5 186.5,-378.5 155.5,-378.5 155.5,-378.5 149.5,-378.5 143.5,-372.5 143.5,-366.5 143.5,-366.5 143.5,-344.5 143.5,-344.5 143.5,-338.5 149.5,-332.5 155.5,-332.5"/>
<text text-anchor="middle" x="171" y="-363.3" font-family="Times,serif" font-size="14.00">5</text>
<polyline fill="none" stroke="black" points="143.5,-355.5 198.5,-355.5 "/>
<text text-anchor="middle" x="171" y="-340.3" font-family="Times,serif" font-size="14.00">CALL</text>
</g>
<!-- nd0x5561a0d46c90&#45;&gt;nd0x5561a0d46cf0 -->
<g id="edge20" class="edge">
<title>nd0x5561a0d46c90&#45;&gt;nd0x5561a0d46cf0</title>
<path fill="none" stroke="black" d="M198.62,-415.37C194.64,-406.88 190.02,-397.04 185.71,-387.85"/>
<polygon fill="black" stroke="black" points="188.79,-386.17 181.37,-378.61 182.45,-389.15 188.79,-386.17"/>
</g>
<!-- nd0x5561a0d46f90 -->
<g id="node27" class="node">
<title>nd0x5561a0d46f90</title>
<path fill="#54e3c2" stroke="black" d="M229,-332.5C229,-332.5 265,-332.5 265,-332.5 271,-332.5 277,-338.5 277,-344.5 277,-344.5 277,-366.5 277,-366.5 277,-372.5 271,-378.5 265,-378.5 265,-378.5 229,-378.5 229,-378.5 223,-378.5 217,-372.5 217,-366.5 217,-366.5 217,-344.5 217,-344.5 217,-338.5 223,-332.5 229,-332.5"/>
<text text-anchor="middle" x="247" y="-363.3" font-family="Times,serif" font-size="14.00">2</text>
<polyline fill="none" stroke="black" points="217,-355.5 277,-355.5 "/>
<text text-anchor="middle" x="247" y="-340.3" font-family="Times,serif" font-size="14.00">gerrik</text>
</g>
<!-- nd0x5561a0d46c90&#45;&gt;nd0x5561a0d46f90 -->
<g id="edge26" class="edge">
<title>nd0x5561a0d46c90&#45;&gt;nd0x5561a0d46f90</title>
<path fill="none" stroke="black" d="M219.38,-415.37C223.36,-406.88 227.98,-397.04 232.29,-387.85"/>
<polygon fill="black" stroke="black" points="235.55,-389.15 236.63,-378.61 229.21,-386.17 235.55,-389.15"/>
</g>
<!-- nd0x5561a0d46d50 -->
<g id="node22" class="node">
<title>nd0x5561a0d46d50</title>
<path fill="#c0ffff" stroke="black" d="M144.5,-249.5C144.5,-249.5 197.5,-249.5 197.5,-249.5 203.5,-249.5 209.5,-255.5 209.5,-261.5 209.5,-261.5 209.5,-283.5 209.5,-283.5 209.5,-289.5 203.5,-295.5 197.5,-295.5 197.5,-295.5 144.5,-295.5 144.5,-295.5 138.5,-295.5 132.5,-289.5 132.5,-283.5 132.5,-283.5 132.5,-261.5 132.5,-261.5 132.5,-255.5 138.5,-249.5 144.5,-249.5"/>
<text text-anchor="middle" x="171" y="-280.3" font-family="Times,serif" font-size="14.00">5</text>
<polyline fill="none" stroke="black" points="132.5,-272.5 209.5,-272.5 "/>
<text text-anchor="middle" x="171" y="-257.3" font-family="Times,serif" font-size="14.00">faktorial</text>
</g>
<!-- nd0x5561a0d46cf0&#45;&gt;nd0x5561a0d46d50 -->
<g id="edge21" class="edge">
<title>nd0x5561a0d46cf0&#45;&gt;nd0x5561a0d46d50</title>
<path fill="none" stroke="black" d="M171,-332.37C171,-324.15 171,-314.66 171,-305.73"/>
<polygon fill="black" stroke="black" points="174.5,-305.61 171,-295.61 167.5,-305.61 174.5,-305.61"/>
</g>
<!-- nd0x5561a0d46db0 -->
<g id="node23" class="node">
<title>nd0x5561a0d46db0</title>
<path fill="#ffc0ff" stroke="black" d="M148.5,-166.5C148.5,-166.5 193.5,-166.5 193.5,-166.5 199.5,-166.5 205.5,-172.5 205.5,-178.5 205.5,-178.5 205.5,-200.5 205.5,-200.5 205.5,-206.5 199.5,-212.5 193.5,-212.5 193.5,-212.5 148.5,-212.5 148.5,-212.5 142.5,-212.5 136.5,-206.5 136.5,-200.5 136.5,-200.5 136.5,-178.5 136.5,-178.5 136.5,-172.5 142.5,-166.5 148.5,-166.5"/>
<text text-anchor="middle" x="171" y="-197.3" font-family="Times,serif" font-size="14.00">4</text>
<polyline fill="none" stroke="black" points="136.5,-189.5 205.5,-189.5 "/>
<text text-anchor="middle" x="171" y="-174.3" font-family="Times,serif" font-size="14.00">PARAM</text>
</g>
<!-- nd0x5561a0d46d50&#45;&gt;nd0x5561a0d46db0 -->
<g id="edge22" class="edge">
<title>nd0x5561a0d46d50&#45;&gt;nd0x5561a0d46db0</title>
<path fill="none" stroke="black" d="M171,-249.37C171,-241.15 171,-231.66 171,-222.73"/>
<polygon fill="black" stroke="black" points="174.5,-222.61 171,-212.61 167.5,-222.61 174.5,-222.61"/>
</g>
<!-- nd0x5561a0d46e10 -->
<g id="node24" class="node">
<title>nd0x5561a0d46e10</title>
<path fill="#ffc0c0" stroke="black" d="M156,-83.5C156,-83.5 186,-83.5 186,-83.5 192,-83.5 198,-89.5 198,-95.5 198,-95.5 198,-117.5 198,-117.5 198,-123.5 192,-129.5 186,-129.5 186,-129.5 156,-129.5 156,-129.5 150,-129.5 144,-123.5 144,-117.5 144,-117.5 144,-95.5 144,-95.5 144,-89.5 150,-83.5 156,-83.5"/>
<text text-anchor="middle" x="171" y="-114.3" font-family="Times,serif" font-size="14.00">1</text>
<polyline fill="none" stroke="black" points="144,-106.5 198,-106.5 "/>
<text text-anchor="middle" x="171" y="-91.3" font-family="Times,serif" font-size="14.00">SUB</text>
</g>
<!-- nd0x5561a0d46db0&#45;&gt;nd0x5561a0d46e10 -->
<g id="edge23" class="edge">
<title>nd0x5561a0d46db0&#45;&gt;nd0x5561a0d46e10</title>
<path fill="none" stroke="black" d="M171,-166.37C171,-158.15 171,-148.66 171,-139.73"/>
<polygon fill="black" stroke="black" points="174.5,-139.61 171,-129.61 167.5,-139.61 174.5,-139.61"/>
</g>
<!-- nd0x5561a0d46e70 -->
<g id="node25" class="node">
<title>nd0x5561a0d46e70</title>
<path fill="#c0c0ff" stroke="black" d="M116,-0.5C116,-0.5 152,-0.5 152,-0.5 158,-0.5 164,-6.5 164,-12.5 164,-12.5 164,-34.5 164,-34.5 164,-40.5 158,-46.5 152,-46.5 152,-46.5 116,-46.5 116,-46.5 110,-46.5 104,-40.5 104,-34.5 104,-34.5 104,-12.5 104,-12.5 104,-6.5 110,-0.5 116,-0.5"/>
<text text-anchor="middle" x="134" y="-31.3" font-family="Times,serif" font-size="14.00">2</text>
<polyline fill="none" stroke="black" points="104,-23.5 164,-23.5 "/>
<text text-anchor="middle" x="134" y="-8.3" font-family="Times,serif" font-size="14.00">gerrik</text>
</g>
<!-- nd0x5561a0d46e10&#45;&gt;nd0x5561a0d46e70 -->
<g id="edge24" class="edge">
<title>nd0x5561a0d46e10&#45;&gt;nd0x5561a0d46e70</title>
<path fill="none" stroke="black" d="M160.89,-83.37C157.01,-74.88 152.52,-65.04 148.32,-55.85"/>
<polygon fill="black" stroke="black" points="151.44,-54.25 144.1,-46.61 145.07,-57.16 151.44,-54.25"/>
</g>
<!-- nd0x5561a0d46ed0 -->
<g id="node26" class="node">
<title>nd0x5561a0d46ed0</title>
<path fill="#54e3c2" stroke="black" d="M194,-0.5C194,-0.5 224,-0.5 224,-0.5 230,-0.5 236,-6.5 236,-12.5 236,-12.5 236,-34.5 236,-34.5 236,-40.5 230,-46.5 224,-46.5 224,-46.5 194,-46.5 194,-46.5 188,-46.5 182,-40.5 182,-34.5 182,-34.5 182,-12.5 182,-12.5 182,-6.5 188,-0.5 194,-0.5"/>
<text text-anchor="middle" x="209" y="-31.3" font-family="Times,serif" font-size="14.00">3</text>
<polyline fill="none" stroke="black" points="182,-23.5 236,-23.5 "/>
<text text-anchor="middle" x="209" y="-8.3" font-family="Times,serif" font-size="14.00">1</text>
</g>
<!-- nd0x5561a0d46e10&#45;&gt;nd0x5561a0d46ed0 -->
<g id="edge25" class="edge">
<title>nd0x5561a0d46e10&#45;&gt;nd0x5561a0d46ed0</title>
<path fill="none" stroke="black" d="M181.38,-83.37C185.36,-74.88 189.98,-65.04 194.29,-55.85"/>
<polygon fill="black" stroke="black" points="197.55,-57.15 198.63,-46.61 191.21,-54.17 197.55,-57.15"/>
</g>
<!-- nd0x5561a0d47070 -->
<g id="node29" class="node">
<title>nd0x5561a0d47070</title>
<path fill="#ffc0c0" stroke="black" d="M270,-498.5C270,-498.5 300,-498.5 300,-498.5 306,-498.5 312,-504.5 312,-510.5 312,-510.5 312,-532.5 312,-532.5 312,-538.5 306,-544.5 300,-544.5 300,-544.5 270,-544.5 270,-544.5 264,-544.5 258,-538.5 258,-532.5 258,-532.5 258,-510.5 258,-510.5 258,-504.5 264,-498.5 270,-498.5"/>
<text text-anchor="middle" x="285" y="-529.3" font-family="Times,serif" font-size="14.00">1</text>
<polyline fill="none" stroke="black" points="258,-521.5 312,-521.5 "/>
<text text-anchor="middle" x="285" y="-506.3" font-family="Times,serif" font-size="14.00">EQ</text>
</g>
<!-- nd0x5561a0d47010&#45;&gt;nd0x5561a0d47070 -->
<g id="edge28" class="edge">
<title>nd0x5561a0d47010&#45;&gt;nd0x5561a0d47070</title>
<path fill="none" stroke="black" d="M283.55,-581.37C283.75,-573.15 283.98,-563.66 284.2,-554.73"/>
<polygon fill="black" stroke="black" points="287.71,-554.69 284.45,-544.61 280.71,-554.52 287.71,-554.69"/>
</g>
<!-- nd0x5561a0d470d0 -->
<g id="node30" class="node">
<title>nd0x5561a0d470d0</title>
<path fill="#c0c0ff" stroke="black" d="M270,-415.5C270,-415.5 300,-415.5 300,-415.5 306,-415.5 312,-421.5 312,-427.5 312,-427.5 312,-449.5 312,-449.5 312,-455.5 306,-461.5 300,-461.5 300,-461.5 270,-461.5 270,-461.5 264,-461.5 258,-455.5 258,-449.5 258,-449.5 258,-427.5 258,-427.5 258,-421.5 264,-415.5 270,-415.5"/>
<text text-anchor="middle" x="285" y="-446.3" font-family="Times,serif" font-size="14.00">2</text>
<polyline fill="none" stroke="black" points="258,-438.5 312,-438.5 "/>
<text text-anchor="middle" x="285" y="-423.3" font-family="Times,serif" font-size="14.00">rez</text>
</g>
<!-- nd0x5561a0d47070&#45;&gt;nd0x5561a0d470d0 -->
<g id="edge29" class="edge">
<title>nd0x5561a0d47070&#45;&gt;nd0x5561a0d470d0</title>
<path fill="none" stroke="black" d="M285,-498.37C285,-490.15 285,-480.66 285,-471.73"/>
<polygon fill="black" stroke="black" points="288.5,-471.61 285,-461.61 281.5,-471.61 288.5,-471.61"/>
</g>
<!-- nd0x5561a0d47130 -->
<g id="node31" class="node">
<title>nd0x5561a0d47130</title>
<path fill="#54e3c2" stroke="black" d="M342,-415.5C342,-415.5 372,-415.5 372,-415.5 378,-415.5 384,-421.5 384,-427.5 384,-427.5 384,-449.5 384,-449.5 384,-455.5 378,-461.5 372,-461.5 372,-461.5 342,-461.5 342,-461.5 336,-461.5 330,-455.5 330,-449.5 330,-449.5 330,-427.5 330,-427.5 330,-421.5 336,-415.5 342,-415.5"/>
<text text-anchor="middle" x="357" y="-446.3" font-family="Times,serif" font-size="14.00">3</text>
<polyline fill="none" stroke="black" points="330,-438.5 384,-438.5 "/>
<text text-anchor="middle" x="357" y="-423.3" font-family="Times,serif" font-size="14.00">1</text>
</g>
<!-- nd0x5561a0d47070&#45;&gt;nd0x5561a0d47130 -->
<g id="edge30" class="edge">
<title>nd0x5561a0d47070&#45;&gt;nd0x5561a0d47130</title>
<path fill="none" stroke="black" d="M304.67,-498.37C312.69,-489.35 322.08,-478.79 330.67,-469.12"/>
<polygon fill="black" stroke="black" points="333.32,-471.41 337.35,-461.61 328.09,-466.76 333.32,-471.41"/>
</g>
<!-- nd0x5561a0d47210 -->
<g id="node33" class="node">
<title>nd0x5561a0d47210</title>
<path fill="#ffc0ff" stroke="black" d="M303,-664.5C303,-664.5 333,-664.5 333,-664.5 339,-664.5 345,-670.5 345,-676.5 345,-676.5 345,-698.5 345,-698.5 345,-704.5 339,-710.5 333,-710.5 333,-710.5 303,-710.5 303,-710.5 297,-710.5 291,-704.5 291,-698.5 291,-698.5 291,-676.5 291,-676.5 291,-670.5 297,-664.5 303,-664.5"/>
<text text-anchor="middle" x="318" y="-695.3" font-family="Times,serif" font-size="14.00">4</text>
<polyline fill="none" stroke="black" points="291,-687.5 345,-687.5 "/>
<text text-anchor="middle" x="318" y="-672.3" font-family="Times,serif" font-size="14.00">RET</text>
</g>
<!-- nd0x5561a0d471b0&#45;&gt;nd0x5561a0d47210 -->
<g id="edge32" class="edge">
<title>nd0x5561a0d471b0&#45;&gt;nd0x5561a0d47210</title>
<path fill="none" stroke="black" d="M318,-747.37C318,-739.15 318,-729.66 318,-720.73"/>
<polygon fill="black" stroke="black" points="321.5,-720.61 318,-710.61 314.5,-720.61 321.5,-720.61"/>
</g>
<!-- nd0x5561a0d47270 -->
<g id="node34" class="node">
<title>nd0x5561a0d47270</title>
<path fill="#c0c0ff" stroke="black" d="M340,-581.5C340,-581.5 370,-581.5 370,-581.5 376,-581.5 382,-587.5 382,-593.5 382,-593.5 382,-615.5 382,-615.5 382,-621.5 376,-627.5 370,-627.5 370,-627.5 340,-627.5 340,-627.5 334,-627.5 328,-621.5 328,-615.5 328,-615.5 328,-593.5 328,-593.5 328,-587.5 334,-581.5 340,-581.5"/>
<text text-anchor="middle" x="355" y="-612.3" font-family="Times,serif" font-size="14.00">2</text>
<polyline fill="none" stroke="black" points="328,-604.5 382,-604.5 "/>
<text text-anchor="middle" x="355" y="-589.3" font-family="Times,serif" font-size="14.00">rez</text>
</g>
<!-- nd0x5561a0d47210&#45;&gt;nd0x5561a0d47270 -->
<g id="edge33" class="edge">
<title>nd0x5561a0d47210&#45;&gt;nd0x5561a0d47270</title>
<path fill="none" stroke="black" d="M328.11,-664.37C331.99,-655.88 336.48,-646.04 340.68,-636.85"/>
<polygon fill="black" stroke="black" points="343.93,-638.16 344.9,-627.61 337.56,-635.25 343.93,-638.16"/>
</g>
<!-- nd0x5561a0d47370 -->
<g id="node36" class="node">
<title>nd0x5561a0d47370</title>
<path fill="#c0ffff" stroke="black" d="M321.5,-913.5C321.5,-913.5 358.5,-913.5 358.5,-913.5 364.5,-913.5 370.5,-919.5 370.5,-925.5 370.5,-925.5 370.5,-947.5 370.5,-947.5 370.5,-953.5 364.5,-959.5 358.5,-959.5 358.5,-959.5 321.5,-959.5 321.5,-959.5 315.5,-959.5 309.5,-953.5 309.5,-947.5 309.5,-947.5 309.5,-925.5 309.5,-925.5 309.5,-919.5 315.5,-913.5 321.5,-913.5"/>
<text text-anchor="middle" x="340" y="-944.3" font-family="Times,serif" font-size="14.00">5</text>
<polyline fill="none" stroke="black" points="309.5,-936.5 370.5,-936.5 "/>
<text text-anchor="middle" x="340" y="-921.3" font-family="Times,serif" font-size="14.00">FUNC</text>
</g>
<!-- nd0x5561a0d47310&#45;&gt;nd0x5561a0d47370 -->
<g id="edge35" class="edge">
<title>nd0x5561a0d47310&#45;&gt;nd0x5561a0d47370</title>
<path fill="none" stroke="black" d="M327.65,-996.37C329.39,-988.06 331.41,-978.45 333.3,-969.43"/>
<polygon fill="black" stroke="black" points="336.73,-970.11 335.36,-959.61 329.88,-968.67 336.73,-970.11"/>
</g>
<!-- nd0x5561a0d473d0 -->
<g id="node37" class="node">
<title>nd0x5561a0d473d0</title>
<path fill="#c0ffff" stroke="black" d="M325,-830.5C325,-830.5 355,-830.5 355,-830.5 361,-830.5 367,-836.5 367,-842.5 367,-842.5 367,-864.5 367,-864.5 367,-870.5 361,-876.5 355,-876.5 355,-876.5 325,-876.5 325,-876.5 319,-876.5 313,-870.5 313,-864.5 313,-864.5 313,-842.5 313,-842.5 313,-836.5 319,-830.5 325,-830.5"/>
<text text-anchor="middle" x="340" y="-861.3" font-family="Times,serif" font-size="14.00">5</text>
<polyline fill="none" stroke="black" points="313,-853.5 367,-853.5 "/>
<text text-anchor="middle" x="340" y="-838.3" font-family="Times,serif" font-size="14.00">main</text>
</g>
<!-- nd0x5561a0d47370&#45;&gt;nd0x5561a0d473d0 -->
<g id="edge36" class="edge">
<title>nd0x5561a0d47370&#45;&gt;nd0x5561a0d473d0</title>
<path fill="none" stroke="black" d="M340,-913.37C340,-905.15 340,-895.66 340,-886.73"/>
<polygon fill="black" stroke="black" points="343.5,-886.61 340,-876.61 336.5,-886.61 343.5,-886.61"/>
</g>
<!-- nd0x5561a0d47430 -->
<g id="node38" class="node">
<title>nd0x5561a0d47430</title>
<path fill="#54e3c2" stroke="black" d="M430,-830.5C430,-830.5 460,-830.5 460,-830.5 466,-830.5 472,-836.5 472,-842.5 472,-842.5 472,-864.5 472,-864.5 472,-870.5 466,-876.5 460,-876.5 460,-876.5 430,-876.5 430,-876.5 424,-876.5 418,-870.5 418,-864.5 418,-864.5 418,-842.5 418,-842.5 418,-836.5 424,-830.5 430,-830.5"/>
<text text-anchor="middle" x="445" y="-861.3" font-family="Times,serif" font-size="14.00">4</text>
<polyline fill="none" stroke="black" points="418,-853.5 472,-853.5 "/>
<text text-anchor="middle" x="445" y="-838.3" font-family="Times,serif" font-size="14.00">ST</text>
</g>
<!-- nd0x5561a0d47370&#45;&gt;nd0x5561a0d47430 -->
<g id="edge37" class="edge">
<title>nd0x5561a0d47370&#45;&gt;nd0x5561a0d47430</title>
<path fill="none" stroke="black" d="M368.69,-913.37C381.36,-903.59 396.38,-892.01 409.73,-881.71"/>
<polygon fill="black" stroke="black" points="412.01,-884.37 417.79,-875.49 407.73,-878.83 412.01,-884.37"/>
</g>
<!-- nd0x5561a0d47490 -->
<g id="node39" class="node">
<title>nd0x5561a0d47490</title>
<path fill="#ffc0ff" stroke="black" d="M430,-747.5C430,-747.5 460,-747.5 460,-747.5 466,-747.5 472,-753.5 472,-759.5 472,-759.5 472,-781.5 472,-781.5 472,-787.5 466,-793.5 460,-793.5 460,-793.5 430,-793.5 430,-793.5 424,-793.5 418,-787.5 418,-781.5 418,-781.5 418,-759.5 418,-759.5 418,-753.5 424,-747.5 430,-747.5"/>
<text text-anchor="middle" x="445" y="-778.3" font-family="Times,serif" font-size="14.00">4</text>
<polyline fill="none" stroke="black" points="418,-770.5 472,-770.5 "/>
<text text-anchor="middle" x="445" y="-755.3" font-family="Times,serif" font-size="14.00">VAR</text>
</g>
<!-- nd0x5561a0d47430&#45;&gt;nd0x5561a0d47490 -->
<g id="edge38" class="edge">
<title>nd0x5561a0d47430&#45;&gt;nd0x5561a0d47490</title>
<path fill="none" stroke="black" d="M445,-830.37C445,-822.15 445,-812.66 445,-803.73"/>
<polygon fill="black" stroke="black" points="448.5,-803.61 445,-793.61 441.5,-803.61 448.5,-803.61"/>
</g>
<!-- nd0x5561a0d475b0 -->
<g id="node42" class="node">
<title>nd0x5561a0d475b0</title>
<path fill="#54e3c2" stroke="black" d="M519,-747.5C519,-747.5 549,-747.5 549,-747.5 555,-747.5 561,-753.5 561,-759.5 561,-759.5 561,-781.5 561,-781.5 561,-787.5 555,-793.5 549,-793.5 549,-793.5 519,-793.5 519,-793.5 513,-793.5 507,-787.5 507,-781.5 507,-781.5 507,-759.5 507,-759.5 507,-753.5 513,-747.5 519,-747.5"/>
<text text-anchor="middle" x="534" y="-778.3" font-family="Times,serif" font-size="14.00">4</text>
<polyline fill="none" stroke="black" points="507,-770.5 561,-770.5 "/>
<text text-anchor="middle" x="534" y="-755.3" font-family="Times,serif" font-size="14.00">ST</text>
</g>
<!-- nd0x5561a0d47430&#45;&gt;nd0x5561a0d475b0 -->
<g id="edge41" class="edge">
<title>nd0x5561a0d47430&#45;&gt;nd0x5561a0d475b0</title>
<path fill="none" stroke="black" d="M469.32,-830.37C479.42,-821.17 491.29,-810.37 502.08,-800.55"/>
<polygon fill="black" stroke="black" points="504.67,-802.93 509.71,-793.61 499.96,-797.75 504.67,-802.93"/>
</g>
<!-- nd0x5561a0d474f0 -->
<g id="node40" class="node">
<title>nd0x5561a0d474f0</title>
<path fill="#c0c0ff" stroke="black" d="M375,-664.5C375,-664.5 405,-664.5 405,-664.5 411,-664.5 417,-670.5 417,-676.5 417,-676.5 417,-698.5 417,-698.5 417,-704.5 411,-710.5 405,-710.5 405,-710.5 375,-710.5 375,-710.5 369,-710.5 363,-704.5 363,-698.5 363,-698.5 363,-676.5 363,-676.5 363,-670.5 369,-664.5 375,-664.5"/>
<text text-anchor="middle" x="390" y="-695.3" font-family="Times,serif" font-size="14.00">2</text>
<polyline fill="none" stroke="black" points="363,-687.5 417,-687.5 "/>
<text text-anchor="middle" x="390" y="-672.3" font-family="Times,serif" font-size="14.00">gerr</text>
</g>
<!-- nd0x5561a0d47490&#45;&gt;nd0x5561a0d474f0 -->
<g id="edge39" class="edge">
<title>nd0x5561a0d47490&#45;&gt;nd0x5561a0d474f0</title>
<path fill="none" stroke="black" d="M429.97,-747.37C424.03,-738.62 417.1,-728.41 410.7,-718.99"/>
<polygon fill="black" stroke="black" points="413.52,-716.91 405.01,-710.61 407.73,-720.85 413.52,-716.91"/>
</g>
<!-- nd0x5561a0d47550 -->
<g id="node41" class="node">
<title>nd0x5561a0d47550</title>
<path fill="#54e3c2" stroke="black" d="M447,-664.5C447,-664.5 477,-664.5 477,-664.5 483,-664.5 489,-670.5 489,-676.5 489,-676.5 489,-698.5 489,-698.5 489,-704.5 483,-710.5 477,-710.5 477,-710.5 447,-710.5 447,-710.5 441,-710.5 435,-704.5 435,-698.5 435,-698.5 435,-676.5 435,-676.5 435,-670.5 441,-664.5 447,-664.5"/>
<text text-anchor="middle" x="462" y="-695.3" font-family="Times,serif" font-size="14.00">3</text>
<polyline fill="none" stroke="black" points="435,-687.5 489,-687.5 "/>
<text text-anchor="middle" x="462" y="-672.3" font-family="Times,serif" font-size="14.00">5</text>
</g>
<!-- nd0x5561a0d47490&#45;&gt;nd0x5561a0d47550 -->
<g id="edge40" class="edge">
<title>nd0x5561a0d47490&#45;&gt;nd0x5561a0d47550</title>
<path fill="none" stroke="black" d="M449.65,-747.37C451.39,-739.06 453.41,-729.45 455.3,-720.43"/>
<polygon fill="black" stroke="black" points="458.73,-721.11 457.36,-710.61 451.88,-719.67 458.73,-721.11"/>
</g>
<!-- nd0x5561a0d47610 -->
<g id="node43" class="node">
<title>nd0x5561a0d47610</title>
<path fill="#ffc0ff" stroke="black" d="M519,-664.5C519,-664.5 549,-664.5 549,-664.5 555,-664.5 561,-670.5 561,-676.5 561,-676.5 561,-698.5 561,-698.5 561,-704.5 555,-710.5 549,-710.5 549,-710.5 519,-710.5 519,-710.5 513,-710.5 507,-704.5 507,-698.5 507,-698.5 507,-676.5 507,-676.5 507,-670.5 513,-664.5 519,-664.5"/>
<text text-anchor="middle" x="534" y="-695.3" font-family="Times,serif" font-size="14.00">4</text>
<polyline fill="none" stroke="black" points="507,-687.5 561,-687.5 "/>
<text text-anchor="middle" x="534" y="-672.3" font-family="Times,serif" font-size="14.00">VAR</text>
</g>
<!-- nd0x5561a0d475b0&#45;&gt;nd0x5561a0d47610 -->
<g id="edge42" class="edge">
<title>nd0x5561a0d475b0&#45;&gt;nd0x5561a0d47610</title>
<path fill="none" stroke="black" d="M534,-747.37C534,-739.15 534,-729.66 534,-720.73"/>
<polygon fill="black" stroke="black" points="537.5,-720.61 534,-710.61 530.5,-720.61 537.5,-720.61"/>
</g>
<!-- nd0x5561a0d47730 -->
<g id="node46" class="node">
<title>nd0x5561a0d47730</title>
<path fill="#54e3c2" stroke="black" d="M591,-664.5C591,-664.5 621,-664.5 621,-664.5 627,-664.5 633,-670.5 633,-676.5 633,-676.5 633,-698.5 633,-698.5 633,-704.5 627,-710.5 621,-710.5 621,-710.5 591,-710.5 591,-710.5 585,-710.5 579,-704.5 579,-698.5 579,-698.5 579,-676.5 579,-676.5 579,-670.5 585,-664.5 591,-664.5"/>
<text text-anchor="middle" x="606" y="-695.3" font-family="Times,serif" font-size="14.00">4</text>
<polyline fill="none" stroke="black" points="579,-687.5 633,-687.5 "/>
<text text-anchor="middle" x="606" y="-672.3" font-family="Times,serif" font-size="14.00">ST</text>
</g>
<!-- nd0x5561a0d475b0&#45;&gt;nd0x5561a0d47730 -->
<g id="edge45" class="edge">
<title>nd0x5561a0d475b0&#45;&gt;nd0x5561a0d47730</title>
<path fill="none" stroke="black" d="M553.67,-747.37C561.69,-738.35 571.08,-727.79 579.67,-718.12"/>
<polygon fill="black" stroke="black" points="582.32,-720.41 586.35,-710.61 577.09,-715.76 582.32,-720.41"/>
</g>
<!-- nd0x5561a0d47670 -->
<g id="node44" class="node">
<title>nd0x5561a0d47670</title>
<path fill="#c0c0ff" stroke="black" d="M447,-581.5C447,-581.5 477,-581.5 477,-581.5 483,-581.5 489,-587.5 489,-593.5 489,-593.5 489,-615.5 489,-615.5 489,-621.5 483,-627.5 477,-627.5 477,-627.5 447,-627.5 447,-627.5 441,-627.5 435,-621.5 435,-615.5 435,-615.5 435,-593.5 435,-593.5 435,-587.5 441,-581.5 447,-581.5"/>
<text text-anchor="middle" x="462" y="-612.3" font-family="Times,serif" font-size="14.00">2</text>
<polyline fill="none" stroke="black" points="435,-604.5 489,-604.5 "/>
<text text-anchor="middle" x="462" y="-589.3" font-family="Times,serif" font-size="14.00">rezy</text>
</g>
<!-- nd0x5561a0d47610&#45;&gt;nd0x5561a0d47670 -->
<g id="edge43" class="edge">
<title>nd0x5561a0d47610&#45;&gt;nd0x5561a0d47670</title>
<path fill="none" stroke="black" d="M514.33,-664.37C506.31,-655.35 496.92,-644.79 488.33,-635.12"/>
<polygon fill="black" stroke="black" points="490.91,-632.76 481.65,-627.61 485.68,-637.41 490.91,-632.76"/>
</g>
<!-- nd0x5561a0d476d0 -->
<g id="node45" class="node">
<title>nd0x5561a0d476d0</title>
<path fill="#54e3c2" stroke="black" d="M519,-581.5C519,-581.5 549,-581.5 549,-581.5 555,-581.5 561,-587.5 561,-593.5 561,-593.5 561,-615.5 561,-615.5 561,-621.5 555,-627.5 549,-627.5 549,-627.5 519,-627.5 519,-627.5 513,-627.5 507,-621.5 507,-615.5 507,-615.5 507,-593.5 507,-593.5 507,-587.5 513,-581.5 519,-581.5"/>
<text text-anchor="middle" x="534" y="-612.3" font-family="Times,serif" font-size="14.00">3</text>
<polyline fill="none" stroke="black" points="507,-604.5 561,-604.5 "/>
<text text-anchor="middle" x="534" y="-589.3" font-family="Times,serif" font-size="14.00">0</text>
</g>
<!-- nd0x5561a0d47610&#45;&gt;nd0x5561a0d476d0 -->
<g id="edge44" class="edge">
<title>nd0x5561a0d47610&#45;&gt;nd0x5561a0d476d0</title>
<path fill="none" stroke="black" d="M534,-664.37C534,-656.15 534,-646.66 534,-637.73"/>
<polygon fill="black" stroke="black" points="537.5,-637.61 534,-627.61 530.5,-637.61 537.5,-637.61"/>
</g>
<!-- nd0x5561a0d47790 -->
<g id="node47" class="node">
<title>nd0x5561a0d47790</title>
<path fill="#ffc0c0" stroke="black" d="M591,-581.5C591,-581.5 621,-581.5 621,-581.5 627,-581.5 633,-587.5 633,-593.5 633,-593.5 633,-615.5 633,-615.5 633,-621.5 627,-627.5 621,-627.5 621,-627.5 591,-627.5 591,-627.5 585,-627.5 579,-621.5 579,-615.5 579,-615.5 579,-593.5 579,-593.5 579,-587.5 585,-581.5 591,-581.5"/>
<text text-anchor="middle" x="606" y="-612.3" font-family="Times,serif" font-size="14.00">1</text>
<polyline fill="none" stroke="black" points="579,-604.5 633,-604.5 "/>
<text text-anchor="middle" x="606" y="-589.3" font-family="Times,serif" font-size="14.00">EQ</text>
</g>
<!-- nd0x5561a0d47730&#45;&gt;nd0x5561a0d47790 -->
<g id="edge46" class="edge">
<title>nd0x5561a0d47730&#45;&gt;nd0x5561a0d47790</title>
<path fill="none" stroke="black" d="M606,-664.37C606,-656.15 606,-646.66 606,-637.73"/>
<polygon fill="black" stroke="black" points="609.5,-637.61 606,-627.61 602.5,-637.61 609.5,-637.61"/>
</g>
<!-- nd0x5561a0d47a30 -->
<g id="node53" class="node">
<title>nd0x5561a0d47a30</title>
<path fill="#54e3c2" stroke="black" d="M673,-581.5C673,-581.5 703,-581.5 703,-581.5 709,-581.5 715,-587.5 715,-593.5 715,-593.5 715,-615.5 715,-615.5 715,-621.5 709,-627.5 703,-627.5 703,-627.5 673,-627.5 673,-627.5 667,-627.5 661,-621.5 661,-615.5 661,-615.5 661,-593.5 661,-593.5 661,-587.5 667,-581.5 673,-581.5"/>
<text text-anchor="middle" x="688" y="-612.3" font-family="Times,serif" font-size="14.00">4</text>
<polyline fill="none" stroke="black" points="661,-604.5 715,-604.5 "/>
<text text-anchor="middle" x="688" y="-589.3" font-family="Times,serif" font-size="14.00">ST</text>
</g>
<!-- nd0x5561a0d47730&#45;&gt;nd0x5561a0d47a30 -->
<g id="edge52" class="edge">
<title>nd0x5561a0d47730&#45;&gt;nd0x5561a0d47a30</title>
<path fill="none" stroke="black" d="M628.41,-664.37C637.63,-655.26 648.44,-644.58 658.3,-634.83"/>
<polygon fill="black" stroke="black" points="660.97,-637.12 665.62,-627.61 656.05,-632.14 660.97,-637.12"/>
</g>
<!-- nd0x5561a0d477f0 -->
<g id="node48" class="node">
<title>nd0x5561a0d477f0</title>
<path fill="#c0c0ff" stroke="black" d="M518,-498.5C518,-498.5 548,-498.5 548,-498.5 554,-498.5 560,-504.5 560,-510.5 560,-510.5 560,-532.5 560,-532.5 560,-538.5 554,-544.5 548,-544.5 548,-544.5 518,-544.5 518,-544.5 512,-544.5 506,-538.5 506,-532.5 506,-532.5 506,-510.5 506,-510.5 506,-504.5 512,-498.5 518,-498.5"/>
<text text-anchor="middle" x="533" y="-529.3" font-family="Times,serif" font-size="14.00">2</text>
<polyline fill="none" stroke="black" points="506,-521.5 560,-521.5 "/>
<text text-anchor="middle" x="533" y="-506.3" font-family="Times,serif" font-size="14.00">rezy</text>
</g>
<!-- nd0x5561a0d47790&#45;&gt;nd0x5561a0d477f0 -->
<g id="edge47" class="edge">
<title>nd0x5561a0d47790&#45;&gt;nd0x5561a0d477f0</title>
<path fill="none" stroke="black" d="M586.05,-581.37C577.92,-572.35 568.41,-561.79 559.7,-552.12"/>
<polygon fill="black" stroke="black" points="562.22,-549.69 552.92,-544.61 557.02,-554.38 562.22,-549.69"/>
</g>
<!-- nd0x5561a0d47850 -->
<g id="node49" class="node">
<title>nd0x5561a0d47850</title>
<path fill="#54e3c2" stroke="black" d="M590.5,-498.5C590.5,-498.5 621.5,-498.5 621.5,-498.5 627.5,-498.5 633.5,-504.5 633.5,-510.5 633.5,-510.5 633.5,-532.5 633.5,-532.5 633.5,-538.5 627.5,-544.5 621.5,-544.5 621.5,-544.5 590.5,-544.5 590.5,-544.5 584.5,-544.5 578.5,-538.5 578.5,-532.5 578.5,-532.5 578.5,-510.5 578.5,-510.5 578.5,-504.5 584.5,-498.5 590.5,-498.5"/>
<text text-anchor="middle" x="606" y="-529.3" font-family="Times,serif" font-size="14.00">5</text>
<polyline fill="none" stroke="black" points="578.5,-521.5 633.5,-521.5 "/>
<text text-anchor="middle" x="606" y="-506.3" font-family="Times,serif" font-size="14.00">CALL</text>
</g>
<!-- nd0x5561a0d47790&#45;&gt;nd0x5561a0d47850 -->
<g id="edge48" class="edge">
<title>nd0x5561a0d47790&#45;&gt;nd0x5561a0d47850</title>
<path fill="none" stroke="black" d="M606,-581.37C606,-573.15 606,-563.66 606,-554.73"/>
<polygon fill="black" stroke="black" points="609.5,-554.61 606,-544.61 602.5,-554.61 609.5,-554.61"/>
</g>
<!-- nd0x5561a0d478b0 -->
<g id="node50" class="node">
<title>nd0x5561a0d478b0</title>
<path fill="#c0ffff" stroke="black" d="M570.5,-415.5C570.5,-415.5 623.5,-415.5 623.5,-415.5 629.5,-415.5 635.5,-421.5 635.5,-427.5 635.5,-427.5 635.5,-449.5 635.5,-449.5 635.5,-455.5 629.5,-461.5 623.5,-461.5 623.5,-461.5 570.5,-461.5 570.5,-461.5 564.5,-461.5 558.5,-455.5 558.5,-449.5 558.5,-449.5 558.5,-427.5 558.5,-427.5 558.5,-421.5 564.5,-415.5 570.5,-415.5"/>
<text text-anchor="middle" x="597" y="-446.3" font-family="Times,serif" font-size="14.00">5</text>
<polyline fill="none" stroke="black" points="558.5,-438.5 635.5,-438.5 "/>
<text text-anchor="middle" x="597" y="-423.3" font-family="Times,serif" font-size="14.00">faktorial</text>
</g>
<!-- nd0x5561a0d47850&#45;&gt;nd0x5561a0d478b0 -->
<g id="edge49" class="edge">
<title>nd0x5561a0d47850&#45;&gt;nd0x5561a0d478b0</title>
<path fill="none" stroke="black" d="M603.54,-498.37C602.63,-490.15 601.57,-480.66 600.58,-471.73"/>
<polygon fill="black" stroke="black" points="604.04,-471.16 599.46,-461.61 597.08,-471.93 604.04,-471.16"/>
</g>
<!-- nd0x5561a0d47910 -->
<g id="node51" class="node">
<title>nd0x5561a0d47910</title>
<path fill="#ffc0ff" stroke="black" d="M574.5,-332.5C574.5,-332.5 619.5,-332.5 619.5,-332.5 625.5,-332.5 631.5,-338.5 631.5,-344.5 631.5,-344.5 631.5,-366.5 631.5,-366.5 631.5,-372.5 625.5,-378.5 619.5,-378.5 619.5,-378.5 574.5,-378.5 574.5,-378.5 568.5,-378.5 562.5,-372.5 562.5,-366.5 562.5,-366.5 562.5,-344.5 562.5,-344.5 562.5,-338.5 568.5,-332.5 574.5,-332.5"/>
<text text-anchor="middle" x="597" y="-363.3" font-family="Times,serif" font-size="14.00">4</text>
<polyline fill="none" stroke="black" points="562.5,-355.5 631.5,-355.5 "/>
<text text-anchor="middle" x="597" y="-340.3" font-family="Times,serif" font-size="14.00">PARAM</text>
</g>
<!-- nd0x5561a0d478b0&#45;&gt;nd0x5561a0d47910 -->
<g id="edge50" class="edge">
<title>nd0x5561a0d478b0&#45;&gt;nd0x5561a0d47910</title>
<path fill="none" stroke="black" d="M597,-415.37C597,-407.15 597,-397.66 597,-388.73"/>
<polygon fill="black" stroke="black" points="600.5,-388.61 597,-378.61 593.5,-388.61 600.5,-388.61"/>
</g>
<!-- nd0x5561a0d47970 -->
<g id="node52" class="node">
<title>nd0x5561a0d47970</title>
<path fill="#c0c0ff" stroke="black" d="M582,-249.5C582,-249.5 612,-249.5 612,-249.5 618,-249.5 624,-255.5 624,-261.5 624,-261.5 624,-283.5 624,-283.5 624,-289.5 618,-295.5 612,-295.5 612,-295.5 582,-295.5 582,-295.5 576,-295.5 570,-289.5 570,-283.5 570,-283.5 570,-261.5 570,-261.5 570,-255.5 576,-249.5 582,-249.5"/>
<text text-anchor="middle" x="597" y="-280.3" font-family="Times,serif" font-size="14.00">2</text>
<polyline fill="none" stroke="black" points="570,-272.5 624,-272.5 "/>
<text text-anchor="middle" x="597" y="-257.3" font-family="Times,serif" font-size="14.00">gerr</text>
</g>
<!-- nd0x5561a0d47910&#45;&gt;nd0x5561a0d47970 -->
<g id="edge51" class="edge">
<title>nd0x5561a0d47910&#45;&gt;nd0x5561a0d47970</title>
<path fill="none" stroke="black" d="M597,-332.37C597,-324.15 597,-314.66 597,-305.73"/>
<polygon fill="black" stroke="black" points="600.5,-305.61 597,-295.61 593.5,-305.61 600.5,-305.61"/>
</g>
<!-- nd0x5561a0d47a90 -->
<g id="node54" class="node">
<title>nd0x5561a0d47a90</title>
<path fill="#c0c0c0" fill-opacity="0.047059" stroke="black" d="M673,-498.5C673,-498.5 703,-498.5 703,-498.5 709,-498.5 715,-504.5 715,-510.5 715,-510.5 715,-532.5 715,-532.5 715,-538.5 709,-544.5 703,-544.5 703,-544.5 673,-544.5 673,-544.5 667,-544.5 661,-538.5 661,-532.5 661,-532.5 661,-510.5 661,-510.5 661,-504.5 667,-498.5 673,-498.5"/>
<text text-anchor="middle" x="688" y="-529.3" font-family="Times,serif" font-size="14.00">6</text>
<polyline fill="none" stroke="black" points="661,-521.5 715,-521.5 "/>
<text text-anchor="middle" x="688" y="-506.3" font-family="Times,serif" font-size="14.00">OUT</text>
</g>
<!-- nd0x5561a0d47a30&#45;&gt;nd0x5561a0d47a90 -->
<g id="edge53" class="edge">
<title>nd0x5561a0d47a30&#45;&gt;nd0x5561a0d47a90</title>
<path fill="none" stroke="black" d="M688,-581.37C688,-573.15 688,-563.66 688,-554.73"/>
<polygon fill="black" stroke="black" points="691.5,-554.61 688,-544.61 684.5,-554.61 691.5,-554.61"/>
</g>
<!-- nd0x5561a0d47bf0 -->
<g id="node57" class="node">
<title>nd0x5561a0d47bf0</title>
<path fill="#54e3c2" stroke="black" d="M749,-498.5C749,-498.5 779,-498.5 779,-498.5 785,-498.5 791,-504.5 791,-510.5 791,-510.5 791,-532.5 791,-532.5 791,-538.5 785,-544.5 779,-544.5 779,-544.5 749,-544.5 749,-544.5 743,-544.5 737,-538.5 737,-532.5 737,-532.5 737,-510.5 737,-510.5 737,-504.5 743,-498.5 749,-498.5"/>
<text text-anchor="middle" x="764" y="-529.3" font-family="Times,serif" font-size="14.00">4</text>
<polyline fill="none" stroke="black" points="737,-521.5 791,-521.5 "/>
<text text-anchor="middle" x="764" y="-506.3" font-family="Times,serif" font-size="14.00">ST</text>
</g>
<!-- nd0x5561a0d47a30&#45;&gt;nd0x5561a0d47bf0 -->
<g id="edge56" class="edge">
<title>nd0x5561a0d47a30&#45;&gt;nd0x5561a0d47bf0</title>
<path fill="none" stroke="black" d="M708.77,-581.37C717.23,-572.35 727.14,-561.79 736.21,-552.12"/>
<polygon fill="black" stroke="black" points="738.97,-554.29 743.26,-544.61 733.86,-549.5 738.97,-554.29"/>
</g>
<!-- nd0x5561a0d47af0 -->
<g id="node55" class="node">
<title>nd0x5561a0d47af0</title>
<path fill="#ffc0ff" stroke="black" d="M665.5,-415.5C665.5,-415.5 710.5,-415.5 710.5,-415.5 716.5,-415.5 722.5,-421.5 722.5,-427.5 722.5,-427.5 722.5,-449.5 722.5,-449.5 722.5,-455.5 716.5,-461.5 710.5,-461.5 710.5,-461.5 665.5,-461.5 665.5,-461.5 659.5,-461.5 653.5,-455.5 653.5,-449.5 653.5,-449.5 653.5,-427.5 653.5,-427.5 653.5,-421.5 659.5,-415.5 665.5,-415.5"/>
<text text-anchor="middle" x="688" y="-446.3" font-family="Times,serif" font-size="14.00">4</text>
<polyline fill="none" stroke="black" points="653.5,-438.5 722.5,-438.5 "/>
<text text-anchor="middle" x="688" y="-423.3" font-family="Times,serif" font-size="14.00">PARAM</text>
</g>
<!-- nd0x5561a0d47a90&#45;&gt;nd0x5561a0d47af0 -->
<g id="edge54" class="edge">
<title>nd0x5561a0d47a90&#45;&gt;nd0x5561a0d47af0</title>
<path fill="none" stroke="black" d="M688,-498.37C688,-490.15 688,-480.66 688,-471.73"/>
<polygon fill="black" stroke="black" points="691.5,-471.61 688,-461.61 684.5,-471.61 691.5,-471.61"/>
</g>
<!-- nd0x5561a0d47b50 -->
<g id="node56" class="node">
<title>nd0x5561a0d47b50</title>
<path fill="#c0c0ff" stroke="black" d="M673,-332.5C673,-332.5 703,-332.5 703,-332.5 709,-332.5 715,-338.5 715,-344.5 715,-344.5 715,-366.5 715,-366.5 715,-372.5 709,-378.5 703,-378.5 703,-378.5 673,-378.5 673,-378.5 667,-378.5 661,-372.5 661,-366.5 661,-366.5 661,-344.5 661,-344.5 661,-338.5 667,-332.5 673,-332.5"/>
<text text-anchor="middle" x="688" y="-363.3" font-family="Times,serif" font-size="14.00">2</text>
<polyline fill="none" stroke="black" points="661,-355.5 715,-355.5 "/>
<text text-anchor="middle" x="688" y="-340.3" font-family="Times,serif" font-size="14.00">rezy</text>
</g>
<!-- nd0x5561a0d47af0&#45;&gt;nd0x5561a0d47b50 -->
<g id="edge55" class="edge">
<title>nd0x5561a0d47af0&#45;&gt;nd0x5561a0d47b50</title>
<path fill="none" stroke="black" d="M688,-415.37C688,-407.15 688,-397.66 688,-388.73"/>
<polygon fill="black" stroke="black" points="691.5,-388.61 688,-378.61 684.5,-388.61 691.5,-388.61"/>
</g>
<!-- nd0x5561a0d47c50 -->
<g id="node58" class="node">
<title>nd0x5561a0d47c50</title>
<path fill="#ffc0ff" stroke="black" d="M753,-415.5C753,-415.5 783,-415.5 783,-415.5 789,-415.5 795,-421.5 795,-427.5 795,-427.5 795,-449.5 795,-449.5 795,-455.5 789,-461.5 783,-461.5 783,-461.5 753,-461.5 753,-461.5 747,-461.5 741,-455.5 741,-449.5 741,-449.5 741,-427.5 741,-427.5 741,-421.5 747,-415.5 753,-415.5"/>
<text text-anchor="middle" x="768" y="-446.3" font-family="Times,serif" font-size="14.00">4</text>
<polyline fill="none" stroke="black" points="741,-438.5 795,-438.5 "/>
<text text-anchor="middle" x="768" y="-423.3" font-family="Times,serif" font-size="14.00">RET</text>
</g>
<!-- nd0x5561a0d47bf0&#45;&gt;nd0x5561a0d47c50 -->
<g id="edge57" class="edge">
<title>nd0x5561a0d47bf0&#45;&gt;nd0x5561a0d47c50</title>
<path fill="none" stroke="black" d="M765.09,-498.37C765.5,-490.15 765.97,-480.66 766.41,-471.73"/>
<polygon fill="black" stroke="black" points="769.91,-471.77 766.91,-461.61 762.92,-471.42 769.91,-471.77"/>
</g>
<!-- nd0x5561a0d47cb0 -->
<g id="node59" class="node">
<title>nd0x5561a0d47cb0</title>
<path fill="#c0ffc0" stroke="black" d="M753,-332.5C753,-332.5 783,-332.5 783,-332.5 789,-332.5 795,-338.5 795,-344.5 795,-344.5 795,-366.5 795,-366.5 795,-372.5 789,-378.5 783,-378.5 783,-378.5 753,-378.5 753,-378.5 747,-378.5 741,-372.5 741,-366.5 741,-366.5 741,-344.5 741,-344.5 741,-338.5 747,-332.5 753,-332.5"/>
<text text-anchor="middle" x="768" y="-363.3" font-family="Times,serif" font-size="14.00">3</text>
<polyline fill="none" stroke="black" points="741,-355.5 795,-355.5 "/>
<text text-anchor="middle" x="768" y="-340.3" font-family="Times,serif" font-size="14.00">0</text>
</g>
<!-- nd0x5561a0d47c50&#45;&gt;nd0x5561a0d47cb0 -->
<g id="edge58" class="edge">
<title>nd0x5561a0d47c50&#45;&gt;nd0x5561a0d47cb0</title>
<path fill="none" stroke="black" d="M768,-415.37C768,-407.15 768,-397.66 768,-388.73"/>
<polygon fill="black" stroke="black" points="771.5,-388.61 768,-378.61 764.5,-388.61 771.5,-388.61"/>
</g>
</g>
</svg>
